<!--
  - @package     MIX ID
  - @link        https://auth.spb.ru
  -
  - @author      Ivan Zorin <creator@localzet.com>
  - @copyright   Copyright (c) 2018-2024 Zorin Projects S.P.
  - @license     https://www.gnu.org/licenses/agpl-3.0 GNU Affero General Public License v3.0
  -
  -              This program is free software: you can redistribute it and/or modify
  -              it under the terms of the GNU Affero General Public License as published
  -              by the Free Software Foundation, either version 3 of the License, or
  -              (at your option) any later version.
  -
  -              This program is distributed in the hope that it will be useful,
  -              but WITHOUT ANY WARRANTY; without even the implied warranty of
  -              MERCHANTABILITY or FITNESS FOR A PARTICULAR PURPOSE.  See the
  -              GNU Affero General Public License for more details.
  -
  -              You should have received a copy of the GNU Affero General Public License
  -              along with this program.  If not, see <https://www.gnu.org/licenses/>.
  -
  -              For any questions, please contact <creator@localzet.com>
  -->

<svg xmlns="http://www.w3.org/2000/svg" viewBox="0 0 350 350"><path d="M236.32,263.44a3.61,3.61,0,0,0,0-7.21H113.68a3.61,3.61,0,0,0,0,7.21Z" fill="#58595b"/><path d="M259.83,241.12H237V194.79a3.59,3.59,0,0,0-2-3.21l-37-18.79V90.17A3.6,3.6,0,0,0,192.83,87L153.9,106.74a3.61,3.61,0,0,0-2,3.22v35.33l-37,18.79a3.59,3.59,0,0,0-2,3.21v73.83H90.17a3.61,3.61,0,1,0,0,7.22H259.83a3.61,3.61,0,1,0,0-7.22Zm-107.9,0H120.2V169.5l31.73-16.12ZM190.86,175h0v66.12H159.14V112.17L190.86,96Zm38.94,66.13H198.07V180.88L229.8,197Z" fill="#58595b"/><path d="M207.89,236.09a2.7,2.7,0,0,0,2.71-2.7v-39.3a2.71,2.71,0,1,0-5.41,0v39.3A2.7,2.7,0,0,0,207.89,236.09Z" fill="#58595b"/><path d="M220,236.09a2.71,2.71,0,0,0,2.71-2.7V205.51a2.71,2.71,0,1,0-5.41,0v27.88A2.7,2.7,0,0,0,220,236.09Z" fill="#58595b"/><path d="M142.11,236.09a2.7,2.7,0,0,0,2.7-2.7V167.45a2.71,2.71,0,0,0-5.41,0v65.94A2.71,2.71,0,0,0,142.11,236.09Z" fill="#58595b"/><path d="M130,236.09a2.71,2.71,0,0,0,2.71-2.7V178.87a2.71,2.71,0,0,0-5.41,0v54.52A2.7,2.7,0,0,0,130,236.09Z" fill="#58595b"/><path d="M181.54,236.09a2.7,2.7,0,0,0,2.7-2.7V111a2.71,2.71,0,1,0-5.41,0V233.39A2.7,2.7,0,0,0,181.54,236.09Z" fill="#58595b"/><path d="M168.46,236.09a2.7,2.7,0,0,0,2.71-2.7V123a2.71,2.71,0,0,0-5.41,0V233.39A2.7,2.7,0,0,0,168.46,236.09Z" fill="#58595b"/></svg>
