<?xml version="1.0" encoding="iso-8859-1"?>
<!-- Generator: Adobe Illustrator 19.0.0, SVG Export Plug-In . SVG Version: 6.00 Build 0)  -->
<svg version="1.1" id="Layer_1" xmlns="http://www.w3.org/2000/svg" xmlns:xlink="http://www.w3.org/1999/xlink" x="0px" y="0px"
	 viewBox="0 0 512 512" style="enable-background:new 0 0 512 512;" xml:space="preserve">
<g id="Others">
</g>
<g id="Design">
	<g id="eraser">
		
			<radialGradient id="SVGID_1_" cx="256" cy="258" r="256" gradientTransform="matrix(1 0 0 -1 0 514)" gradientUnits="userSpaceOnUse">
			<stop  offset="0.5044" style="stop-color:#FCBE41"/>
			<stop  offset="0.9949" style="stop-color:#FCB23F"/>
		</radialGradient>
		<circle style="fill:url(#SVGID_1_);" cx="256" cy="256" r="256"/>
		
			<rect x="136.729" y="194.771" transform="matrix(-0.7071 -0.7071 0.7071 -0.7071 194.6598 656.171)" style="fill:#EE483C;" width="192.997" height="185.998"/>
		<path style="fill:#1380B6;" d="M427.327,230.145c7.778-7.778,8.132-20.152,0.354-27.931L319.493,94.026
			c-7.778-7.778-20.86-8.132-28.638-0.354l-80.61,80.61l136.472,136.472L427.327,230.145z"/>
		<path style="fill:#C6362B;" d="M116.199,268.328l-32.526,32.527c-7.778,7.778-7.425,20.859,0.354,28.638l108.187,108.188
			c7.778,7.778,20.152,7.425,27.931-0.354l32.527-32.527L116.199,268.328z"/>
		
			<rect x="64.248" y="353.755" transform="matrix(0.7071 0.7071 -0.7071 0.7071 301.8207 -8.1488)" style="fill:#ECF0F1;" width="192.998" height="13"/>
	</g>
</g>
<g id="SEO_x2F__Web">
</g>
<g id="Finance__x2F__Money">
</g>
<g id="E-Commerce__x2F__Shopping">
</g>
<g id="Strategy">
</g>
<g>
</g>
<g>
</g>
<g>
</g>
<g>
</g>
<g>
</g>
<g>
</g>
<g>
</g>
<g>
</g>
<g>
</g>
<g>
</g>
<g>
</g>
<g>
</g>
<g>
</g>
<g>
</g>
<g>
</g>
</svg>
