<?xml version="1.0" encoding="iso-8859-1"?>
<!-- Generator: Adobe Illustrator 19.0.0, SVG Export Plug-In . SVG Version: 6.00 Build 0)  -->
<svg version="1.1" id="Layer_1" xmlns="http://www.w3.org/2000/svg" xmlns:xlink="http://www.w3.org/1999/xlink" x="0px" y="0px"
	 viewBox="0 0 512 512" style="enable-background:new 0 0 512 512;" xml:space="preserve">
<g id="Others">
</g>
<g id="Design">
	<g id="paint_brush">
		
			<radialGradient id="SVGID_1_" cx="256" cy="258" r="256" gradientTransform="matrix(1 0 0 -1 0 514)" gradientUnits="userSpaceOnUse">
			<stop  offset="0.0051" style="stop-color:#95A5A6"/>
			<stop  offset="1" style="stop-color:#7F8C8D"/>
		</radialGradient>
		<circle style="fill:url(#SVGID_1_);" cx="256" cy="256" r="256"/>
		<path style="fill:#EC7C2D;" d="M330,169h-4c-11,0-20-9-20-20v-35V88v-8c0-27.5-22.5-50-50-50s-50,22.5-50,50v8v26v35
			c0,11-9,20-20,20h-4h-5c-3.175,0-6.295,0.76-9.182,2.073C147.17,177.226,132,196.422,132,219v36h248v-36
			C380,191.5,357.5,169,330,169z M256,118.442c-14.496,0-26.248-11.752-26.248-26.249c0-14.496,11.752-26.248,26.248-26.248
			s26.248,11.752,26.248,26.248C282.248,106.69,270.496,118.442,256,118.442z"/>
		<path style="fill:#32495D;" d="M141,248v93.817c6.678,3.73,13.453,7.343,25.004,5.18c23.582-4.416,19.9-24.075,43.482-28.491
			s27.264,15.242,50.848,10.825c23.582-4.417,19.9-24.075,43.483-28.492c23.585-4.417,27.267,15.241,50.851,10.824
			c7.741-1.449,12.537-4.544,16.332-8.199V248H141z"/>
		<rect x="132" y="231" style="fill:#D9521E;" width="248" height="17"/>
		<path style="fill:#F4C342;" d="M391,252.5c0,5.247-4.254,9.5-9.5,9.5h-251c-5.246,0-9.5-4.253-9.5-9.5l0,0
			c0-5.247,4.254-9.5,9.5-9.5h251C386.746,243,391,247.253,391,252.5L391,252.5z"/>
		<path style="fill:#ECF0F1;" d="M391,252.5c0,5.247-4.254,9.5-9.5,9.5h-251c-5.246,0-9.5-4.253-9.5-9.5l0,0
			c0-5.247,4.254-9.5,9.5-9.5h251C386.746,243,391,247.253,391,252.5L391,252.5z"/>
		<path style="fill:#D9521E;" d="M256,65.945c12.785,0,23.432,9.145,25.766,21.248c0.313-1.619,0.482-3.289,0.482-5
			c0-14.496-11.752-26.248-26.248-26.248s-26.248,11.752-26.248,26.248c0,1.711,0.168,3.381,0.481,5
			C232.568,75.09,243.215,65.945,256,65.945z"/>
		<g>
			<path style="fill:#D9521E;" d="M229.5,200.5c-1.934,0-3.5-1.567-3.5-3.5v-63c0-1.933,1.566-3.5,3.5-3.5
				c1.933,0,3.5,1.567,3.5,3.5v63C233,198.933,231.433,200.5,229.5,200.5z"/>
		</g>
		<g>
			<path style="fill:#D9521E;" d="M260.5,206.5c-1.934,0-3.5-1.567-3.5-3.5v-69c0-1.933,1.566-3.5,3.5-3.5
				c1.933,0,3.5,1.567,3.5,3.5v69C264,204.933,262.433,206.5,260.5,206.5z"/>
		</g>
		<g>
			<path style="fill:#D9521E;" d="M292.5,219.5c-1.934,0-3.5-1.567-3.5-3.5v-37c0-1.933,1.566-3.5,3.5-3.5
				c1.933,0,3.5,1.567,3.5,3.5v37C296,217.933,294.433,219.5,292.5,219.5z"/>
		</g>
		<g>
			<path style="fill:#D9521E;" d="M337.5,226.5c-1.934,0-3.5-1.567-3.5-3.5v-32c0-1.933,1.566-3.5,3.5-3.5
				c1.933,0,3.5,1.567,3.5,3.5v32C341,224.933,339.433,226.5,337.5,226.5z"/>
		</g>
		<g>
			<path style="fill:#D9521E;" d="M172.5,221.5c-1.934,0-3.5-1.567-3.5-3.5v-24c0-1.933,1.566-3.5,3.5-3.5
				c1.933,0,3.5,1.567,3.5,3.5v24C176,219.933,174.433,221.5,172.5,221.5z"/>
		</g>
		<path style="fill:#EE483C;" d="M354.668,311.663c-10.781,2.02-17.402-0.995-23.668-4.438V279c0-1.933-1.567-3.5-3.5-3.5
			c-1.934,0-3.5,1.567-3.5,3.5v24.463c-5.332-2.562-11.367-4.275-20.183-2.624c-4.991,0.935-8.752,2.557-11.817,4.567V285
			c0-1.933-1.567-3.5-3.5-3.5c-1.934,0-3.5,1.567-3.5,3.5v26.635c-6.235,7.01-10.604,15.062-24.666,17.696
			c-10.021,1.877-16.447-0.596-22.334-3.718V302c0-1.933-1.567-3.5-3.5-3.5c-1.934,0-3.5,1.567-3.5,3.5v19.794
			c-5.669-2.913-11.957-5.077-21.514-3.288c-10.805,2.023-15.885,7.247-20.486,12.737V294c0-1.933-1.567-3.5-3.5-3.5
			c-1.934,0-3.5,1.567-3.5,3.5v45.118c-3.742,3.516-8.482,6.472-15.996,7.879c-11.551,2.163-18.326-1.449-25.004-5.18V402l43-5.608
			V363l9.712,32.125l57.131-7.452L252,368l5.775,18.769l52.315-6.824L328,355l1.973,22.352L371,372v-68.536
			C367.205,307.119,362.409,310.214,354.668,311.663z"/>
		<path style="fill:#EE483C;" d="M370.791,411c-15-30-0.209-39-0.209-39H358h-13c0,0,15,9,0,39s13,30,13,30S385.791,441,370.791,411
			z"/>
	</g>
</g>
<g id="SEO_x2F__Web">
</g>
<g id="Finance__x2F__Money">
</g>
<g id="E-Commerce__x2F__Shopping">
</g>
<g id="Strategy">
</g>
<g>
</g>
<g>
</g>
<g>
</g>
<g>
</g>
<g>
</g>
<g>
</g>
<g>
</g>
<g>
</g>
<g>
</g>
<g>
</g>
<g>
</g>
<g>
</g>
<g>
</g>
<g>
</g>
<g>
</g>
</svg>
