<?xml version="1.0" encoding="iso-8859-1"?>
<!-- Generator: Adobe Illustrator 19.0.0, SVG Export Plug-In . SVG Version: 6.00 Build 0)  -->
<svg version="1.1" id="Layer_1" xmlns="http://www.w3.org/2000/svg" xmlns:xlink="http://www.w3.org/1999/xlink" x="0px" y="0px"
	 viewBox="0 0 512 512" style="enable-background:new 0 0 512 512;" xml:space="preserve">
<g id="Others">
</g>
<g id="Design">
	<g id="pencil__x26__ruler__x26__eraser">
		
			<radialGradient id="SVGID_1_" cx="256" cy="258" r="256" gradientTransform="matrix(1 0 0 -1 0 514)" gradientUnits="userSpaceOnUse">
			<stop  offset="0" style="stop-color:#04BE9E"/>
			<stop  offset="1" style="stop-color:#00A185"/>
		</radialGradient>
		<circle style="fill:url(#SVGID_1_);" cx="256" cy="256" r="256"/>
		<g>
			<path style="fill:#BDC3C7;" d="M91.597,154.942c-1.791,1.791-1.791,4.723,0,6.515l269.071,269.071
				c1.792,1.791,4.724,1.791,6.516,0l68.407-68.408L160.004,86.533L91.597,154.942z"/>
			<path style="fill:#ECF0F1;" d="M447.969,343.227L178.898,74.155c-1.791-1.791-4.723-1.791-6.516,0l-12.379,12.378L435.591,362.12
				l12.378-12.379C449.762,347.95,449.762,345.019,447.969,343.227z"/>
			<path style="fill:#94A5A6;" d="M146.648,125.298c-1.799,1.799-1.799,4.717,0.002,6.516c1.797,1.799,4.715,1.799,6.514,0
				l26.061-26.061l-6.515-6.515L146.648,125.298z"/>
			
				<rect x="172.729" y="90.065" transform="matrix(0.7071 -0.7071 0.7071 0.7071 -13.1129 157.684)" style="fill:#BDC3C7;" width="22.112" height="9.212"/>
			<path style="fill:#94A5A6;" d="M227.436,206.086c-1.799,1.798-1.799,4.716,0,6.514c1.799,1.799,4.717,1.8,6.516,0l26.061-26.06
				l-6.516-6.516L227.436,206.086z"/>
			
				<rect x="253.496" y="170.865" transform="matrix(0.7071 -0.7072 0.7072 0.7071 -46.5867 238.4836)" style="fill:#BDC3C7;" width="22.113" height="9.213"/>
			<path style="fill:#94A5A6;" d="M308.873,287.522c-1.799,1.799-1.799,4.716,0,6.516c1.799,1.799,4.717,1.799,6.516,0
				l26.061-26.061l-6.516-6.515L308.873,287.522z"/>
			
				<rect x="334.96" y="252.308" transform="matrix(0.7071 -0.7071 0.7071 0.7071 -80.3206 319.9192)" style="fill:#BDC3C7;" width="22.113" height="9.214"/>
			<path style="fill:#94A5A6;" d="M179.875,132.465c-1.799,1.8-1.799,4.716,0,6.515c1.8,1.8,4.717,1.8,6.516,0.001l13.03-13.03
				l-6.516-6.516L179.875,132.465z"/>
			
				<rect x="192.927" y="110.266" transform="matrix(0.7071 -0.7071 0.7071 0.7071 -21.4827 177.8839)" style="fill:#BDC3C7;" width="22.114" height="9.215"/>
			<path style="fill:#94A5A6;" d="M200.072,152.661c-1.799,1.799-1.799,4.717,0,6.516s4.717,1.799,6.516,0l13.029-13.03
				l-6.516-6.515L200.072,152.661z"/>
			
				<rect x="213.126" y="130.471" transform="matrix(0.7071 -0.7071 0.7071 0.7071 -29.853 198.0841)" style="fill:#BDC3C7;" width="22.113" height="9.214"/>
			<path style="fill:#94A5A6;" d="M220.27,172.858c-1.799,1.799-1.799,4.717,0,6.516s4.716,1.799,6.514,0l13.031-13.03l-6.516-6.516
				L220.27,172.858z"/>
			
				<rect x="233.321" y="150.661" transform="matrix(0.7071 -0.7071 0.7071 0.7071 -38.2142 218.278)" style="fill:#BDC3C7;" width="22.114" height="9.214"/>
			<path style="fill:#94A5A6;" d="M261.313,213.903c-1.8,1.799-1.8,4.716,0,6.515c1.799,1.799,4.716,1.799,6.515,0l13.031-13.03
				l-6.516-6.515L261.313,213.903z"/>
			
				<rect x="274.367" y="191.705" transform="matrix(0.7071 -0.7071 0.7071 0.7071 -55.2147 259.3229)" style="fill:#BDC3C7;" width="22.112" height="9.214"/>
			<path style="fill:#94A5A6;" d="M281.511,234.1c-1.799,1.799-1.799,4.716,0,6.515s4.716,1.799,6.515,0l13.03-13.028l-6.515-6.517
				L281.511,234.1z"/>
			
				<rect x="294.537" y="211.91" transform="matrix(0.7071 -0.7072 0.7072 0.7071 -63.5894 279.5303)" style="fill:#BDC3C7;" width="22.115" height="9.214"/>
			<path style="fill:#94A5A6;" d="M301.707,254.296c-1.799,1.8-1.799,4.717,0,6.516s4.717,1.799,6.516,0l13.029-13.03l-6.515-6.516
				L301.707,254.296z"/>
			
				<rect x="314.762" y="232.111" transform="matrix(0.7071 -0.7071 0.7071 0.7071 -71.9547 299.7216)" style="fill:#BDC3C7;" width="22.113" height="9.214"/>
			<path style="fill:#94A5A6;" d="M342.752,295.341c-1.799,1.799-1.799,4.716,0,6.516c1.799,1.799,4.717,1.799,6.516,0l13.029-13.03
				l-6.516-6.516L342.752,295.341z"/>
			
				<rect x="355.804" y="273.143" transform="matrix(0.7071 -0.7071 0.7071 0.7071 -88.9477 340.761)" style="fill:#BDC3C7;" width="22.114" height="9.214"/>
			<path style="fill:#94A5A6;" d="M362.949,315.538c-1.799,1.799-1.799,4.716-0.002,6.514c1.801,1.8,4.718,1.8,6.517,0l13.03-13.029
				l-6.516-6.515L362.949,315.538z"/>
			
				<rect x="376.005" y="293.355" transform="matrix(0.7071 -0.7071 0.7071 0.7071 -97.3231 360.9648)" style="fill:#BDC3C7;" width="22.113" height="9.214"/>
			<path style="fill:#94A5A6;" d="M383.145,335.734c-1.799,1.799-1.799,4.716,0.002,6.515c1.797,1.799,4.715,1.799,6.514,0
				l13.029-13.029l-6.514-6.516L383.145,335.734z"/>
			
				<rect x="396.198" y="313.536" transform="matrix(0.7071 -0.7071 0.7071 0.7071 -105.6789 381.1545)" style="fill:#BDC3C7;" width="22.114" height="9.214"/>
			<path style="fill:#94A5A6;" d="M390.311,368.96c-1.799,1.8-1.799,4.717,0,6.516c1.801,1.8,4.717,1.8,6.517,0.001l26.06-26.062
				l-6.515-6.515L390.311,368.96z"/>
			
				<rect x="416.399" y="333.749" transform="matrix(0.7071 -0.7071 0.7071 0.7071 -114.0552 401.3582)" style="fill:#BDC3C7;" width="22.112" height="9.214"/>
			<g>
				<path style="fill:#2A3E4F;" d="M81.604,220.859l-23.578-7.312c-0.605-0.189-0.959-0.075-1.283,0.25l15.961,15.962
					L81.604,220.859z"/>
				<path style="fill:#F89B36;" d="M103.262,260.318c0,0,0.159-0.153,0.232-0.227c13.668-13.669,15.705-22.782,15.957-25.984
					c-0.459-0.896-1.378-1.771-2.264-2.047l-35.584-11.201l-8.9,8.899L103.262,260.318z"/>
				<path style="fill:#32495D;" d="M56.742,213.797c-0.326,0.326-0.416,0.655-0.227,1.259l7.336,23.555l8.852-8.852L56.742,213.797z
					"/>
				<path style="fill:#F4C342;" d="M72.703,229.759l-8.852,8.852l11.197,35.588c0.275,0.872,1.076,1.745,1.959,2.198
					c3.215-0.332,12.535-2.435,26.254-16.078L72.703,229.759z"/>
				<path style="fill:#1C99D8;" d="M77.034,276.448c-0.813,0.084-1.241,0.051-1.241,0.051l189.588,189.588
					c0,0,10.482,0.711,27.471-16.182L125.471,282.526l-22.209-22.208C89.543,273.962,80.25,276.115,77.034,276.448z"/>
				<path style="fill:#1380B6;" d="M119.445,234.114c-0.253,3.201-2.289,12.314-15.957,25.982c-0.073,0.074-0.225,0.223-0.225,0.223
					l22.207,22.207l167.381,167.379c0,0,0.145-0.141,0.219-0.215c17.264-17.264,15.961-27.254,15.961-27.254L119.443,232.849
					C119.443,232.849,119.512,233.272,119.445,234.114z"/>
			</g>
			<path style="fill:#ECF0F1;" d="M393.018,237.653c-0.896,0.896-2.362,0.896-3.258,0L271.838,119.731
				c-0.896-0.896-0.896-2.362,0-3.258L333.73,54.58c0.896-0.896,2.361-0.896,3.258,0L454.91,172.503
				c0.896,0.896,0.896,2.361,0,3.258L393.018,237.653z"/>
			<path style="fill:#BDC3C7;" d="M393.018,237.653c-0.896,0.896-2.362,0.896-3.258,0L271.838,119.731
				c-0.896-0.896-0.896-2.362,0-3.258l42.348-42.348c0.896-0.896,2.361-0.896,3.258,0l117.922,117.922
				c0.896,0.896,0.896,2.362,0,3.258L393.018,237.653z"/>
			<path style="fill:#EE483C;" d="M372.168,222.018c-0.895,0.896-2.359,0.896-3.256,0l-78.832-78.832
				c-0.896-0.896-0.896-2.362,0-3.258l67.104-67.104c0.896-0.896,2.362-0.896,3.257,0l78.834,78.832
				c0.895,0.896,0.895,2.361-0.002,3.257L372.168,222.018z"/>
			<path style="fill:#C6362B;" d="M372.168,222.018c-0.895,0.896-2.359,0.896-3.256,0l-78.832-78.832
				c-0.896-0.896-0.896-2.362,0-3.258l44.953-44.954c0.896-0.896,2.363-0.896,3.258,0l78.832,78.832
				c0.896,0.896,0.895,2.361,0,3.258L372.168,222.018z"/>
		</g>
	</g>
</g>
<g id="SEO_x2F__Web">
</g>
<g id="Finance__x2F__Money">
</g>
<g id="E-Commerce__x2F__Shopping">
</g>
<g id="Strategy">
</g>
<g>
</g>
<g>
</g>
<g>
</g>
<g>
</g>
<g>
</g>
<g>
</g>
<g>
</g>
<g>
</g>
<g>
</g>
<g>
</g>
<g>
</g>
<g>
</g>
<g>
</g>
<g>
</g>
<g>
</g>
</svg>
