<?xml version="1.0" encoding="iso-8859-1"?>
<!-- Generator: Adobe Illustrator 19.0.0, SVG Export Plug-In . SVG Version: 6.00 Build 0)  -->
<svg version="1.1" id="Layer_1" xmlns="http://www.w3.org/2000/svg" xmlns:xlink="http://www.w3.org/1999/xlink" x="0px" y="0px"
	 viewBox="0 0 512 512" style="enable-background:new 0 0 512 512;" xml:space="preserve">
<g id="Others">
</g>
<g id="Design">
	<g id="scissor">
		
			<radialGradient id="SVGID_1_" cx="256" cy="258" r="256" gradientTransform="matrix(1 0 0 -1 0 514)" gradientUnits="userSpaceOnUse">
			<stop  offset="0.0051" style="stop-color:#33495F"/>
			<stop  offset="1" style="stop-color:#2B3E51"/>
		</radialGradient>
		<circle style="fill:url(#SVGID_1_);" cx="256" cy="256" r="256"/>
		<g>
			<polygon style="fill:#BDC3C7;" points="297.633,237.758 326.24,107.353 316.346,84.047 257.113,230.17 199.662,82.646 
				189.42,105.824 216.244,236.605 247.402,248.6 248.5,251.419 225.135,309.061 240.141,313.93 256.818,272.783 272.697,313.557 
				287.77,308.895 265.432,251.536 266.328,249.328 			"/>
			<path style="fill:#00CA77;" d="M249.664,300.406c0.775-1.909-0.154-4.105-2.064-4.879l-14.584-5.912
				c-1.91-0.774-4.5-0.072-5.758,1.562L198.91,328.03c-5.225-5.04-11.479-9.187-18.617-12.08c-29.916-12.128-64,2.294-76.129,32.211
				c-12.127,29.918,2.295,64.001,32.213,76.128c29.916,12.127,64-2.293,76.127-32.211c0.379-0.932,0.73-1.868,1.057-2.807
				c0.137-0.206,0.254-0.428,0.352-0.665L249.664,300.406z M143.203,407.448c-20.617-8.356-30.553-31.843-22.197-52.46
				c8.357-20.616,31.844-30.555,52.461-22.197c5.59,2.266,10.393,5.646,14.26,9.779c10.398,11.105,14.027,27.655,7.938,42.682
				C187.305,405.868,163.818,415.806,143.203,407.448z"/>
			<polygon style="fill:#ECF0F1;" points="281.805,169.258 313.473,165.553 317.379,147.743 289.189,151.041 			"/>
			<polygon style="fill:#ECF0F1;" points="274.076,188.322 309.383,184.192 311.541,174.354 278.156,178.26 			"/>
			<path style="fill:#00AF67;" d="M297.895,388.586c0.094,0.238,0.178,0.475,0.312,0.682c0.314,0.943,0.637,1.891,1.002,2.828
				c11.717,30.081,45.59,44.973,75.672,33.259c30.08-11.714,44.965-45.595,33.25-75.676s-45.598-44.971-75.678-33.257
				c-7.18,2.797-13.49,6.856-18.783,11.824l-27.84-37.239c-1.232-1.651-3.814-2.39-5.734-1.642l-14.664,5.71
				c-1.92,0.748-2.82,2.908-2.072,4.827L297.895,388.586z M316.129,385.507c-5.885-15.109-2.027-31.607,8.523-42.568
				c3.924-4.079,8.771-7.393,14.393-9.581c20.729-8.073,44.078,2.188,52.15,22.916c8.072,20.729-2.189,44.078-22.918,52.15
				S324.201,406.236,316.129,385.507z"/>
			<polygon style="fill:#ECF0F1;" points="233.027,168.324 201.385,164.195 197.738,146.328 225.895,150.008 			"/>
			<polygon style="fill:#ECF0F1;" points="240.492,187.494 205.217,182.889 203.209,173.017 236.553,177.376 			"/>
			<path style="fill:#94A5A6;" d="M253.564,221.061c-10.84,1.215-19.297,10.434-19.297,21.592c0,0.303,0.012,0.602,0.023,0.9
				l13.111,5.047l1.098,2.819l-3.934,9.703c3.324,2.065,7.24,3.263,11.434,3.263c4.785,0,9.211-1.559,12.805-4.188l-3.373-8.66
				l0.896-2.208l11.254-4.159c0.096-0.827,0.15-1.665,0.15-2.517c0-10.385-7.324-19.086-17.076-21.224l-3.543,8.741L253.564,221.061
				z"/>
			<circle style="fill:#ECF0F1;" cx="256.001" cy="242.652" r="17.985"/>
			<circle style="fill:#BDC3C7;" cx="256" cy="242.652" r="9.742"/>
		</g>
	</g>
</g>
<g id="SEO_x2F__Web">
</g>
<g id="Finance__x2F__Money">
</g>
<g id="E-Commerce__x2F__Shopping">
</g>
<g id="Strategy">
</g>
<g>
</g>
<g>
</g>
<g>
</g>
<g>
</g>
<g>
</g>
<g>
</g>
<g>
</g>
<g>
</g>
<g>
</g>
<g>
</g>
<g>
</g>
<g>
</g>
<g>
</g>
<g>
</g>
<g>
</g>
</svg>
