<?xml version="1.0" encoding="iso-8859-1"?>
<!-- Generator: Adobe Illustrator 19.0.0, SVG Export Plug-In . SVG Version: 6.00 Build 0)  -->
<svg version="1.1" id="Layer_1" xmlns="http://www.w3.org/2000/svg" xmlns:xlink="http://www.w3.org/1999/xlink" x="0px" y="0px"
	 viewBox="0 0 511.874 511.874" style="enable-background:new 0 0 511.874 511.874;" xml:space="preserve">
<g id="Others">
</g>
<g id="Design">
	<g id="wacom">
		
			<radialGradient id="SVGID_1_" cx="55.8274" cy="-376.0331" r="255.9949" gradientTransform="matrix(0.9092 -0.4164 -0.4164 -0.9092 48.5985 -62.7058)" gradientUnits="userSpaceOnUse">
			<stop  offset="0.0051" style="stop-color:#E94B35"/>
			<stop  offset="1" style="stop-color:#C23824"/>
		</radialGradient>
		<circle style="fill:url(#SVGID_1_);" cx="255.937" cy="255.937" r="255.937"/>
		<path style="fill:#F4C342;" d="M477.937,277.946c0,6.627-5.373,12-12,12h-37c-6.627,0-12-5.373-12-12v-27c0-6.627,5.373-12,12-12
			h37c6.627,0,12,5.373,12,12V277.946z"/>
		<path style="fill:#2A3E4F;" d="M444.937,378.946c0,11-9,20-20,20h-335c-11,0-20-9-20-20v-230c0-11,9-20,20-20h335c11,0,20,9,20,20
			V378.946z"/>
		<rect x="163.937" y="128.946" style="opacity:0.4;fill:#2A3E4F;enable-background:new    ;" width="8" height="270"/>
		<g>
			<path style="fill:#32495D;" d="M395.937,165.946h-224v197h224c5.5,0,10-4.5,10-10v-177
				C405.937,170.446,401.437,165.946,395.937,165.946z"/>
		</g>
		
			<rect x="220.492" y="335.705" transform="matrix(-0.7075 -0.7067 0.7067 -0.7075 137.4345 739.3701)" style="fill:#2A3E4F;" width="2.462" height="11.079"/>
		<g>
			<path style="fill:#2A3E4F;" d="M246.675,323.558c-1.943-1.944-5.127-5.126-7.07-7.07l-3.217-3.217
				c-1.943-1.944-4.496-1.5-5.67,0.986l-8.566,18.154c-1.174,2.486-1.436,5.221-0.582,6.074c0.854,0.854,2.208,2.209,3.009,3.01
				c0.801,0.8,3.491,0.495,5.978-0.679l18.156-8.566c2.486-1.174,2.93-3.725,0.986-5.669L246.675,323.558z"/>
		</g>
		<circle style="fill:#32495D;" cx="120.937" cy="263.946" r="30"/>
		<circle style="fill:#2A3E4F;" cx="120.937" cy="263.946" r="19"/>
		<path style="fill:#F4C342;" d="M369.23,209.403c-4.307,4.307-11.357,4.307-15.664-0.002l11.313-11.313
			c-4.308-4.308-15.622-0.043-11.313-4.351l13.924-13.924c4.308-4.309,11.357-4.309,15.666-0.001l0,0
			c4.307,4.309,4.307,11.357,0,15.665L369.23,209.403z"/>
		<path style="opacity:0.4;fill:#2A3E4F;enable-background:new    ;" d="M243.14,320.022l-10.287-10.287l-6.672,14.141
			c0.109,0.132,0.201,0.276,0.326,0.401l12.184,12.183c0.125,0.125,0.269,0.216,0.402,0.328l14.141-6.672L243.14,320.022z"/>
		<path style="fill:#2A3E4F;" d="M253.485,330.368c-2.393,2.393-6.311,2.395-8.703,0l-12.184-12.184
			c-2.393-2.393-2.393-6.309,0-8.703l122.71-122.705c2.391-2.395,6.309-2.395,8.701-0.002l12.184,12.184
			c2.393,2.395,2.393,6.311,0,8.703L253.485,330.368z"/>
		<path style="opacity:0.4;fill:#2A3E4F;enable-background:new    ;" d="M376.192,207.661c2.393-2.393,2.393-6.309,0-8.703
			l-12.183-12.184c-2.393-2.393-6.311-2.393-8.701,0.002l-6.093,6.091l20.886,20.887L376.192,207.661z"/>
	</g>
</g>
<g id="SEO_x2F__Web">
</g>
<g id="Finance__x2F__Money">
</g>
<g id="E-Commerce__x2F__Shopping">
</g>
<g id="Strategy">
</g>
<g>
</g>
<g>
</g>
<g>
</g>
<g>
</g>
<g>
</g>
<g>
</g>
<g>
</g>
<g>
</g>
<g>
</g>
<g>
</g>
<g>
</g>
<g>
</g>
<g>
</g>
<g>
</g>
<g>
</g>
</svg>
