<?xml version="1.0" encoding="iso-8859-1"?>
<!-- Generator: Adobe Illustrator 19.0.0, SVG Export Plug-In . SVG Version: 6.00 Build 0)  -->
<svg version="1.1" id="Layer_1" xmlns="http://www.w3.org/2000/svg" xmlns:xlink="http://www.w3.org/1999/xlink" x="0px" y="0px"
	 viewBox="0 0 512 512" style="enable-background:new 0 0 512 512;" xml:space="preserve">
<g id="Others">
</g>
<g id="Design">
	<g id="vector">
		
			<radialGradient id="SVGID_1_" cx="256" cy="258" r="256" gradientTransform="matrix(1 0 0 -1 0 514)" gradientUnits="userSpaceOnUse">
			<stop  offset="0.0051" style="stop-color:#E87E04"/>
			<stop  offset="1" style="stop-color:#D55400"/>
		</radialGradient>
		<circle style="fill:url(#SVGID_1_);" cx="256" cy="256" r="256"/>
		<g>
			<g>
				<path style="fill:#2A3E4F;" d="M411.166,99h-146.15c-4.57-0.219-7.641-0.059-8.526,0h-0.649c-0.863-0.057-3.843-0.206-8.271,0
					H100.166c-2.762,0-5,2.238-5,5s2.238,5,5,5h106.648c-7.844,3.715-15.812,8.77-23.234,15.648
					c-22.172,20.554-33.414,51.751-33.414,92.727c0,2.762,2.238,5,5,5s5-2.238,5-5c0-38.022,10.135-66.726,30.125-85.312
					c20.516-19.076,46.505-22.538,58.45-23.062h15.013c12.016,0.532,37.865,4.013,58.292,22.982
					c19.985,18.561,30.12,47.249,30.12,85.268c0,2.762,2.238,5,5,5s5-2.238,5-5c0-40.975-11.242-72.159-33.414-92.687
					c-7.383-6.836-15.309-11.863-23.113-15.563h105.527c2.762,0,5-2.238,5-5S413.928,99,411.166,99z"/>
				<path style="fill:#32495D;" d="M275,118c0,2.762-2.238,5-5,5h-29c-2.762,0-5-2.238-5-5V89c0-2.762,2.238-5,5-5h29
					c2.762,0,5,2.238,5,5V118z"/>
				<g>
					<circle style="fill:#32495D;" cx="413.5" cy="103.666" r="16.334"/>
					<circle style="fill:#32495D;" cx="98.5" cy="103.666" r="16.334"/>
				</g>
			</g>
			<g>
				<path style="fill:#32495D;" d="M175,233c0,2.762-2.238,5-5,5h-29c-2.762,0-5-2.238-5-5v-29c0-2.762,2.238-5,5-5h29
					c2.762,0,5,2.238,5,5V233z"/>
				<path style="fill:#32495D;" d="M376,233c0,2.762-2.238,5-5,5h-29c-2.762,0-5-2.238-5-5v-29c0-2.762,2.238-5,5-5h29
					c2.762,0,5,2.238,5,5V233z"/>
			</g>
		</g>
		<g>
			<path style="fill:#32ACFC;" d="M223,398v111.888c11,1.391,21.817,2.112,33,2.112c11.529,0,23-0.775,34-2.252V398h-35.003H223z"/>
			<path style="fill:#2C97DE;" d="M255,511.987c0,0,0.666,0.013,1,0.013c11.529,0,23-0.775,34-2.252V398h-35V511.987z"/>
			<rect x="223" y="398" style="opacity:0.4;fill:#2A3E4F;enable-background:new    ;" width="67" height="16"/>
			<path style="fill:#ECF0F1;" d="M251.434,362.623c0,0-12.102-5.419-12.102-14.624c0-7.463,9.615-12.972,9.615-12.972
				c2.229-1.611,4.053-5.18,4.053-7.93V206.641V191.11c0-0.17-0.857-0.305-1.307-0.405c-0.586-0.13-1.193-0.204-1.82-0.204
				c-4.625,0-10.375,3.75-10.375,8.375c0,2.635,1.218,4.981,3.12,6.517l-51.145,98.175c-1.27,2.439-1.549,6.553-0.622,9.141
				c0,0,27.979,77.96,27.979,78.293s32.167,0.045,32.167,0.045C253.748,391.02,256,388.75,256,386v-16.334
				C256,366.916,253.945,363.746,251.434,362.623z"/>
			<path style="fill:#BDC3C7;" d="M260.564,362.623c0,0,12.105-5.419,12.105-14.624c0-7.463-10.618-12.972-10.618-12.972
				c-2.227-1.611-4.052-5.18-4.052-7.93V206.641V191.11c1-0.17,0.857-0.305,1.307-0.405c0.586-0.13,1.195-0.204,1.821-0.204
				c4.624,0,11.376,3.75,11.376,8.375c0,2.635-1.221,4.981-3.123,6.517l51.146,98.175c1.27,2.439,1.55,6.553,0.621,9.141
				c0,0-27.977,77.96-27.977,78.293s-32.169,0.045-32.169,0.045C258.252,391.02,256,388.75,256,386v-16.334
				C256,366.916,258.055,363.746,260.564,362.623z"/>
			<path style="fill:#32ACFC;" d="M216.331,387c-4.604,0-8.334,3.896-8.334,8.5c0,4.602,3.73,8.5,8.334,8.5H255v-17H216.331z"/>
			<path style="fill:#2C97DE;" d="M292.997,387H255v17h37.997c4.601,0,8.334-3.898,8.334-8.5
				C301.331,390.896,297.598,387,292.997,387z"/>
		</g>
	</g>
</g>
<g id="SEO_x2F__Web">
</g>
<g id="Finance__x2F__Money">
</g>
<g id="E-Commerce__x2F__Shopping">
</g>
<g id="Strategy">
</g>
<g>
</g>
<g>
</g>
<g>
</g>
<g>
</g>
<g>
</g>
<g>
</g>
<g>
</g>
<g>
</g>
<g>
</g>
<g>
</g>
<g>
</g>
<g>
</g>
<g>
</g>
<g>
</g>
<g>
</g>
</svg>
