<?xml version="1.0" encoding="UTF-8"?>
<!DOCTYPE svg PUBLIC "-//W3C//DTD SVG 1.1//EN" "http://www.w3.org/Graphics/SVG/1.1/DTD/svg11.dtd">
<!-- Creator: CorelDRAW -->
<svg xmlns="http://www.w3.org/2000/svg" xml:space="preserve" width="160mm" height="160mm" version="1.1" style="shape-rendering:geometricPrecision; text-rendering:geometricPrecision; image-rendering:optimizeQuality; fill-rule:evenodd; clip-rule:evenodd"
viewBox="0 0 16000 16000"
 xmlns:xlink="http://www.w3.org/1999/xlink"
 xmlns:xodm="http://www.corel.com/coreldraw/odm/2003"
 data-bbox="34.67031463748292 10.150113921518994 442.6593707250342 491.69977215696196"
 sodipodi:docname="TXT.svg"
 inkscape:export-filename="../localzet/logo.svg"
 inkscape:export-xdpi="96"
 inkscape:export-ydpi="96"
 xmlns:inkscape="http://www.inkscape.org/namespaces/inkscape"
 xmlns:sodipodi="http://sodipodi.sourceforge.net/DTD/sodipodi-0.dtd"
 xmlns:svg="http://www.w3.org/2000/svg">
 <defs>
  <style type="text/css">
   <![CDATA[
    .fil1 {fill:#1E1E2D;fill-rule:nonzero}
    .fil0 {fill:#8B5CF6;fill-rule:nonzero}
   ]]>
  </style>
 </defs>
 <g id="Слой_x0020_1">
  <metadata id="CorelCorpID_0Corel-Layer"/>
  <sodipodi:namedview id="namedview27" pagecolor="#1e1e2d" bordercolor="#000000" borderopacity="0.25" inkscape:showpageshadow="true" inkscape:pageopacity="1" inkscape:pagecheckerboard="0" inkscape:deskcolor="#d1d1d1" showgrid="false"/>
  <path id="path11" class="fil0" d="M8712.7 1673.73c-201.97,-800.01 565.49,-1490.91 1454.12,-1309.1 444.31,90.92 807.83,418.18 908.82,818.18 201.96,800.01 -565.49,1490.91 -1454.12,1309.1 -444.32,-90.91 -807.84,-418.18 -908.82,-818.18zm4766.26 10199.99c-686.66,-90.91 -1252.15,436.37 -1151.17,1036.36 60.59,381.82 403.92,690.91 828.04,745.46 686.67,90.91 1252.16,-436.37 1151.17,-1036.36 -40.39,-363.63 -403.92,-690.91 -828.04,-745.46zm-5452.94 -5236.36c-828.04,0 -1514.71,618.18 -1514.71,1363.64 0,745.46 686.67,1363.64 1514.71,1363.64 828.04,0 1514.71,-618.18 1514.71,-1363.64 0,-745.46 -686.67,-1363.64 -1514.71,-1363.64zm6220.4 1363.64c1494.51,1509.09 2120.59,3000 1474.31,4000 -201.97,327.27 -545.3,581.81 -969.41,763.64 0,-200.01 -60.59,-381.83 -141.38,-545.46 262.55,-127.28 464.51,-290.91 605.88,-490.91 504.91,-781.82 -80.77,-2018.19 -1353.13,-3327.28 -585.68,545.46 -1272.36,1072.72 -2019.61,1563.64 -100.98,854.54 -262.55,1654.55 -484.71,2363.64 222.16,36.36 444.31,72.72 646.27,109.09 -40.4,109.09 -60.59,218.17 -60.59,345.45 0,72.72 0,145.46 20.19,200 -262.53,-36.35 -525.08,-72.72 -787.63,-127.26 -747.25,1927.27 -1858.04,3145.45 -3150.59,3145.45 -1292.54,0 -2403.32,-1218.18 -3110.19,-3145.45 -282.75,54.54 -565.49,90.91 -828.03,127.26 -363.52,36.37 -706.87,54.55 -1030,54.55 -1332.94,0 -2282.16,-363.64 -2726.46,-1036.36 -242.35,-381.82 -302.94,-836.37 -201.97,-1327.27 161.57,109.09 363.53,181.82 585.68,181.82 -40.39,327.27 0,636.37 161.57,872.73 403.92,636.37 1555.11,890.91 3150.59,709.09 242.35,-36.37 484.71,-72.72 727.06,-109.09 -222.16,-709.09 -383.73,-1509.09 -484.71,-2363.64 -767.46,-490.91 -1433.91,-1018.18 -2039.8,-1563.64 -161.57,163.63 -323.14,345.46 -464.51,509.09 -20.19,36.37 -40.39,54.55 -80.77,90.91 -121.18,-109.09 -262.56,-181.82 -403.92,-236.36 -20.19,-54.55 -20.19,-72.73 -40.4,-127.28 181.76,-218.18 363.52,-418.18 565.49,-636.37 -201.97,-200 -383.73,-381.83 -545.3,-581.81 -1151.18,-1363.63 -1474.32,-2563.63 -929.02,-3418.18 545.29,-854.55 1878.22,-1200 3756.47,-981.81 262.54,36.35 545.28,72.72 828.03,127.26 686.66,-1927.27 1817.65,-3145.45 3110.19,-3145.45 323.14,0 646.28,72.73 949.22,236.37 -181.77,109.09 -323.13,254.54 -444.32,400 -161.56,-54.55 -343.33,-90.91 -504.9,-90.91 -989.61,0 -1918.63,1072.72 -2524.51,2727.27 807.84,181.82 1656.07,454.55 2524.51,800 848.23,-345.45 1716.66,-618.18 2524.51,-800 -60.59,-145.45 -121.17,-309.09 -181.76,-454.54 201.97,-54.55 383.73,-145.46 545.3,-254.55 80.78,181.82 161.57,381.82 242.35,581.81 282.74,-54.54 565.49,-90.91 828.04,-127.28 1878.23,-218.17 3211.17,127.28 3756.47,981.82 545.3,854.54 222.16,2054.55 -929.02,3418.17 -181.77,181.83 -363.53,381.83 -565.49,581.82l0 0.02zm-2928.43 -4327.27c222.15,709.09 383.72,1509.1 484.71,2363.64 767.45,509.09 1454.12,1036.36 2039.8,1563.64 161.57,-163.63 323.14,-345.46 464.5,-509.09 969.41,-1145.46 1292.55,-2181.82 888.63,-2818.19 -323.14,-509.09 -1110.78,-763.63 -2201.37,-763.63 -282.74,0 -605.88,18.18 -949.21,54.54 -242.35,18.18 -484.72,54.55 -727.06,109.09zm-2564.91 709.09c403.92,181.83 807.84,381.83 1211.77,581.82 403.92,218.17 787.65,418.17 1151.17,654.54 -100.98,-654.54 -242.35,-1254.55 -403.92,-1818.18 -626.08,145.46 -1292.55,327.27 -1959.02,581.81l0 0.01zm2463.92 1945.45c-484.71,-309.09 -1009.8,-618.18 -1555.1,-909.09 -545.3,-290.91 -1090.58,-545.46 -1635.88,-763.63 -545.3,218.17 -1090.58,490.91 -1635.88,763.63 -545.3,290.91 -1070.39,581.81 -1555.1,890.92 -60.59,545.45 -80.78,1090.91 -80.78,1672.72 0,563.64 40.39,1127.27 80.78,1672.73 484.71,309.09 1009.8,618.18 1555.1,890.91 545.3,290.92 1090.58,545.46 1635.88,763.64 545.3,-218.18 1090.58,-490.91 1635.88,-763.64 545.3,-290.91 1070.39,-581.81 1555.1,-890.91 60.59,-545.46 80.78,-1090.92 80.78,-1672.73 20.19,-545.45 -20.19,-1109.09 -80.78,-1654.55zm-5897.25 -2545.45c-181.76,563.64 -302.94,1163.64 -403.92,1818.18 363.52,-218.17 767.45,-436.36 1151.17,-654.54 403.92,-200 807.84,-400 1211.77,-581.81 -666.47,-236.37 -1312.74,-436.37 -1959.02,-581.83zm-3574.7 3309.09c141.38,163.63 302.93,345.46 464.5,509.09 585.69,-545.46 1272.36,-1072.73 2039.8,-1563.64 100.99,-854.55 262.56,-1654.55 484.72,-2363.64 -242.35,-54.54 -484.72,-90.91 -727.06,-109.09 -343.34,-36.37 -646.27,-54.54 -949.22,-54.54 -1090.58,0 -1878.23,272.72 -2201.37,763.63 -424.13,636.37 -100.98,1654.55 888.63,2818.19zm2423.53 2145.45c-20.19,-399.99 -40.4,-818.18 -40.4,-1236.36 0,-418.18 20.19,-836.37 40.4,-1236.36 -565.49,400 -1090.59,818.18 -1555.11,1236.36 464.51,418.18 989.62,836.37 1555.11,1236.36zm1151.17 2981.82c626.07,-145.46 1292.55,-345.46 1959.02,-581.81 -403.92,-181.83 -807.84,-381.83 -1211.77,-581.82 -403.92,-200 -787.65,-418.17 -1151.17,-654.54 100.98,636.37 242.35,1254.55 403.92,1818.18l0 -0.01zm5230.78 509.09c-807.84,-181.82 -1656.07,-454.55 -2524.51,-800 -868.43,345.45 -1716.66,618.18 -2524.51,800 605.88,1654.55 1514.7,2727.27 2524.51,2727.27 989.61,0 1898.43,-1072.72 2524.51,-2727.27zm585.69 -2345.45c-363.52,218.18 -767.45,436.37 -1151.17,654.54 -403.91,200 -807.83,400.01 -1211.77,581.82 666.48,236.36 1332.95,436.36 1959.03,581.81 161.57,-545.46 302.93,-1163.64 403.91,-1818.18l0 0.01zm2282.15 -2381.82c-444.31,-418.18 -969.41,-836.37 -1555.1,-1236.36 20.19,400 40.4,818.18 40.4,1236.36 0,418.18 -20.19,836.37 -40.4,1236.36 585.68,-400 1090.58,-818.18 1555.1,-1236.36zm-12743.71 2490.91c545.3,72.72 1009.8,-345.46 929.02,-836.37 -60.58,-309.09 -323.14,-563.64 -666.47,-600 -545.3,-72.73 -1009.8,345.45 -929.03,836.36 60.59,309.09 323.15,545.46 666.48,600.01z" data-uid="o_f3m77glf3_6" inkscape:label="neuron"/>
  <g data-type="circle" data-cx="50" data-cy="50" data-r="50" data-uid="o_f3m77glf3_7" inkscape:label="center">
   <path id="path15" class="fil1" d="M7169.56 8000.61c0.01,412.31 371.43,746.7 829.44,746.7 458,0 829.42,-334.39 829.42,-746.69 0,-412.34 -371.42,-746.71 -829.42,-746.71 -458.01,0 -829.43,334.37 -829.43,746.71l-0.01 -0.01zm0 0l0 0 0 0z"/>
  </g>
  <g data-type="circle" data-cx="50" data-cy="50" data-r="50" data-uid="o_f3m77glf3_8" inkscape:label="right">
   <path id="path17" class="fil1" d="M12869.93 12768.21c-0.01,211.2 190.25,382.48 424.84,382.48 234.6,0 424.85,-171.28 424.85,-382.48 0,-211.2 -190.25,-382.48 -424.85,-382.48 -234.59,0 -424.85,171.28 -424.85,382.48l0.01 0zm0 0l0 0 0 0z"/>
  </g>
  <path id="path19" class="fil1" d="M9878.33 1427.91m-571.48 0c0,284.1 255.91,514.51 571.48,514.51 315.58,0 571.49,-230.41 571.49,-514.51 0,-284.1 -255.91,-514.49 -571.49,-514.49 -315.57,0 -571.48,230.39 -571.48,514.49z" data-type="circle" data-cx="50" data-cy="50" data-r="50" data-uid="o_f3m77glf3_9" inkscape:label="up"/>
  <g data-type="circle" data-cx="50" data-cy="50" data-r="50" data-uid="o_f3m77glf3_10" inkscape:label="left">
   <path id="path21" class="fil1" d="M474.84 9781c0.01,157.01 141.44,284.35 315.85,284.35 174.42,0 315.86,-127.34 315.86,-284.35 0,-157.02 -141.44,-284.36 -315.86,-284.36 -174.41,0 -315.84,127.34 -315.84,284.36l-0.01 0zm0 0l0 0 0 0z"/>
  </g>
 </g>
</svg>
