<?xml version="1.0" encoding="utf-8"?>
<!--
  - @package     MIX ID
  - @link        https://auth.spb.ru
  -
  - @author      Ivan Zorin <creator@localzet.com>
  - @copyright   Copyright (c) 2018-2024 Zorin Projects S.P.
  - @license     https://www.gnu.org/licenses/agpl-3.0 GNU Affero General Public License v3.0
  -
  -              This program is free software: you can redistribute it and/or modify
  -              it under the terms of the GNU Affero General Public License as published
  -              by the Free Software Foundation, either version 3 of the License, or
  -              (at your option) any later version.
  -
  -              This program is distributed in the hope that it will be useful,
  -              but WITHOUT ANY WARRANTY; without even the implied warranty of
  -              MERCHANTABILITY or FITNESS FOR A PARTICULAR PURPOSE.  See the
  -              GNU Affero General Public License for more details.
  -
  -              You should have received a copy of the GNU Affero General Public License
  -              along with this program.  If not, see <https://www.gnu.org/licenses/>.
  -
  -              For any questions, please contact <creator@localzet.com>
  -->

<!-- Generator: Adobe Illustrator 25.2.0, SVG Export Plug-In . SVG Version: 6.00 Build 0)  -->
<svg version="1.1" id="Calque_1" xmlns="http://www.w3.org/2000/svg" xmlns:xlink="http://www.w3.org/1999/xlink" x="0px" y="0px"
	 viewBox="0 0 300 300" style="enable-background:new 0 0 300 300;" xml:space="preserve">
<style type="text/css">
	.st0{fill:#922DE2;}
</style>
<g>
	<path class="st0" d="M150,110.9c0,21.6-17.5,39.1-39.1,39.1H71.8v-39.1c0-21.6,17.5-39.1,39.1-39.1C132.5,71.8,150,89.3,150,110.9z
		"/>
	<path class="st0" d="M150,189.1c0-21.6,17.5-39.1,39.1-39.1h39.1v39.1c0,21.6-17.5,39.1-39.1,39.1S150,210.7,150,189.1z"/>
	<path class="st0" d="M71.8,189.1c0,21.6,17.5,39.1,39.1,39.1H150v-39.1c0-21.6-17.5-39.1-39.1-39.1C89.3,150,71.8,167.5,71.8,189.1
		z"/>
	<path class="st0" d="M228.2,110.9c0-21.6-17.5-39.1-39.1-39.1H150v39.1c0,21.6,17.5,39.1,39.1,39.1S228.2,132.5,228.2,110.9z"/>
</g>
</svg>
