<?xml version="1.0" encoding="utf-8"?>
<!--
  - @package     MIX ID
  - @link        https://auth.spb.ru
  -
  - @author      Ivan Zorin <creator@localzet.com>
  - @copyright   Copyright (c) 2018-2024 Zorin Projects S.P.
  - @license     https://www.gnu.org/licenses/agpl-3.0 GNU Affero General Public License v3.0
  -
  -              This program is free software: you can redistribute it and/or modify
  -              it under the terms of the GNU Affero General Public License as published
  -              by the Free Software Foundation, either version 3 of the License, or
  -              (at your option) any later version.
  -
  -              This program is distributed in the hope that it will be useful,
  -              but WITHOUT ANY WARRANTY; without even the implied warranty of
  -              MERCHANTABILITY or FITNESS FOR A PARTICULAR PURPOSE.  See the
  -              GNU Affero General Public License for more details.
  -
  -              You should have received a copy of the GNU Affero General Public License
  -              along with this program.  If not, see <https://www.gnu.org/licenses/>.
  -
  -              For any questions, please contact <creator@localzet.com>
  -->

<!-- Generator: Adobe Illustrator 19.0.0, SVG Export Plug-In . SVG Version: 6.00 Build 0)  -->
<svg version="1.1" id="Calque_1" xmlns="http://www.w3.org/2000/svg" xmlns:xlink="http://www.w3.org/1999/xlink" x="0px" y="0px"
	 viewBox="-155 247 300 300" style="enable-background:new -155 247 300 300;" xml:space="preserve">
<style type="text/css">
	.st0{fill:#FC309B;}
	.st1{fill:#FFFFFF;}
</style>
<rect x="-154.8" y="247.2" class="st0" width="299.6" height="299.6"/>
<g>
	<path class="st1" d="M-24.1,367.3L4.6,396c15.9,15.9,15.9,41.6,0,57.5s-41.6,15.9-57.5,0s-15.9-41.6,0-57.5c0,0,0,0,0,0
		L-24.1,367.3z"/>
	<path class="st1" d="M31,328.6l16.8,16.8c9.3,9.3,9.3,24.3,0,33.6c-9.3,9.3-24.3,9.3-33.6,0c-9.3-9.3-9.3-24.3,0-33.6c0,0,0,0,0,0
		L31,328.6z"/>
</g>
</svg>
