<?xml version="1.0" encoding="utf-8"?>
<!--
  - @package     MIX ID
  - @link        https://auth.spb.ru
  -
  - @author      Ivan Zorin <creator@localzet.com>
  - @copyright   Copyright (c) 2018-2024 Zorin Projects S.P.
  - @license     https://www.gnu.org/licenses/agpl-3.0 GNU Affero General Public License v3.0
  -
  -              This program is free software: you can redistribute it and/or modify
  -              it under the terms of the GNU Affero General Public License as published
  -              by the Free Software Foundation, either version 3 of the License, or
  -              (at your option) any later version.
  -
  -              This program is distributed in the hope that it will be useful,
  -              but WITHOUT ANY WARRANTY; without even the implied warranty of
  -              MERCHANTABILITY or FITNESS FOR A PARTICULAR PURPOSE.  See the
  -              GNU Affero General Public License for more details.
  -
  -              You should have received a copy of the GNU Affero General Public License
  -              along with this program.  If not, see <https://www.gnu.org/licenses/>.
  -
  -              For any questions, please contact <creator@localzet.com>
  -->

<!-- Generator: Adobe Illustrator 25.2.0, SVG Export Plug-In . SVG Version: 6.00 Build 0)  -->
<svg version="1.1" id="Calque_1" xmlns="http://www.w3.org/2000/svg" xmlns:xlink="http://www.w3.org/1999/xlink" x="0px" y="0px"
	 viewBox="0 0 300 300" style="enable-background:new 0 0 300 300;" xml:space="preserve">
<style type="text/css">
	.st0{fill-rule:evenodd;clip-rule:evenodd;fill:#EFFFE9;}
	.st1{fill:#B6EFA2;}
	.st2{fill:#88E169;}
	.st3{fill:#55AE36;}
</style>
<rect class="st0" width="300" height="300"/>
<g>
	<path class="st1" d="M221.3,203.6c16.6-14.8,26.8-34.9,26.8-56.9c0-45.8-43.9-82.9-98.1-82.9s-98.1,37.1-98.1,82.9
		s43.9,82.9,98.1,82.9c15.4,0,29.9-3,42.9-8.3c15.2,9.4,33.9,16.1,54.5,14.7C236.5,233.2,227.1,222,221.3,203.6z"/>
	<path class="st2" d="M222,146.7c0,33.7-32.2,61.1-72,61.1s-72-27.3-72-61.1s32.2-61.1,72-61.1S222,113,222,146.7z"/>
	<path class="st3" d="M195.8,146.7c0,21.7-20.5,39.3-45.8,39.3s-45.8-17.6-45.8-39.3s20.5-39.3,45.8-39.3S195.8,125,195.8,146.7z"/>
</g>
</svg>
