<?xml version="1.0" encoding="utf-8"?>
<!--
  - @package     MIX ID
  - @link        https://auth.spb.ru
  -
  - @author      Ivan Zorin <creator@localzet.com>
  - @copyright   Copyright (c) 2018-2024 Zorin Projects S.P.
  - @license     https://www.gnu.org/licenses/agpl-3.0 GNU Affero General Public License v3.0
  -
  -              This program is free software: you can redistribute it and/or modify
  -              it under the terms of the GNU Affero General Public License as published
  -              by the Free Software Foundation, either version 3 of the License, or
  -              (at your option) any later version.
  -
  -              This program is distributed in the hope that it will be useful,
  -              but WITHOUT ANY WARRANTY; without even the implied warranty of
  -              MERCHANTABILITY or FITNESS FOR A PARTICULAR PURPOSE.  See the
  -              GNU Affero General Public License for more details.
  -
  -              You should have received a copy of the GNU Affero General Public License
  -              along with this program.  If not, see <https://www.gnu.org/licenses/>.
  -
  -              For any questions, please contact <creator@localzet.com>
  -->

<!-- Generator: Adobe Illustrator 25.2.0, SVG Export Plug-In . SVG Version: 6.00 Build 0)  -->
<svg version="1.1" id="Calque_1" xmlns="http://www.w3.org/2000/svg" xmlns:xlink="http://www.w3.org/1999/xlink" x="0px" y="0px"
	 viewBox="0 0 300 300" style="enable-background:new 0 0 300 300;" xml:space="preserve">
<style type="text/css">
	.st0{fill:#68DBFF;}
	.st1{fill:#FF7917;}
	.st2{fill:#5D2C02;}
</style>
<g>
	<path class="st0" d="M177.7,150c0,33.2-26.9,60.1-60.1,60.1c-33.2,0-60.1-26.9-60.1-60.1s26.9-60.1,60.1-60.1
		C150.8,89.9,177.7,116.8,177.7,150z"/>
	<path class="st1" d="M242.5,150c0,33.2-26.6,60.1-59.5,60.1s-59.5-26.9-59.5-60.1s26.6-60.1,59.5-60.1S242.5,116.8,242.5,150z"/>
	<path class="st2" d="M150.5,200.3c16.4-10.7,27.2-29.3,27.2-50.3c0-21.1-10.8-39.6-27.2-50.3c-16.2,10.7-27,29.3-27,50.3
		C123.5,171.1,134.2,189.6,150.5,200.3z"/>
</g>
</svg>
