<!--
  - @package     MIX ID
  - @link        https://auth.spb.ru
  -
  - @author      Ivan Zorin <creator@localzet.com>
  - @copyright   Copyright (c) 2018-2024 Zorin Projects S.P.
  - @license     https://www.gnu.org/licenses/agpl-3.0 GNU Affero General Public License v3.0
  -
  -              This program is free software: you can redistribute it and/or modify
  -              it under the terms of the GNU Affero General Public License as published
  -              by the Free Software Foundation, either version 3 of the License, or
  -              (at your option) any later version.
  -
  -              This program is distributed in the hope that it will be useful,
  -              but WITHOUT ANY WARRANTY; without even the implied warranty of
  -              MERCHANTABILITY or FITNESS FOR A PARTICULAR PURPOSE.  See the
  -              GNU Affero General Public License for more details.
  -
  -              You should have received a copy of the GNU Affero General Public License
  -              along with this program.  If not, see <https://www.gnu.org/licenses/>.
  -
  -              For any questions, please contact <creator@localzet.com>
  -->

<svg xmlns="http://www.w3.org/2000/svg" xml:space="preserve" style="enable-background:new -155 247 300 300" viewBox="-155 247 300 300"><path d="M-154.6 247.4H145V547h-299.6z" style="fill:#8f23f7"/><path d="M-41.2 384.6c1.4 2 2.7 3.8 4.1 5.5h50.9l-.1-.1-8.9-7.9c-.1-.1-.9-.8-2.2-2-1.4-1.2-2.2-1.9-2.4-2.1-.2-.2-1-.9-2.1-2-1.2-1.1-1.9-1.9-2.2-2.3-.3-.4-.9-1.2-1.8-2.3-.9-1.1-1.5-2-1.8-2.7-.3-.7-.8-1.6-1.4-2.7-.6-1.1-1-2.2-1.2-3.1-.2-1-.4-2-.6-3.3-.2-1.2-.3-2.5-.3-3.8 0-2.4.6-4.8 1.8-7.1 1.2-2.3 2.9-3.5 5.2-3.6 1.6 0 2.9.4 3.8 1.2 1 .8 1.6 2.3 2.1 4.4.4 2.1.7 4.2.8 6.2.1 2 .1 5 .1 9l32.5-3.2C34.8 332.9 22.1 318-3 318c-14 .1-25.1 3.7-33 10.9-8 7.2-12 17.4-12 30.6 0 5.1.6 9.6 1.7 13.8 1.1 4.1 2.8 7.9 5.1 11.3zm72 25.1c-1.2-1.9-2.4-3.6-3.6-5.3H-22l5.9 5c5.9 5.1 10.2 9.7 12.9 14s4 9.3 4 15.2c0 6-2.1 9.1-6.3 9.1-1.6 0-3-.4-4.2-1.1-1.2-.7-2.3-2-3.4-3.8-1-1.8-1.8-4.4-2.4-7.9-.6-3.4-.8-7.7-.8-12.8l-31.8 4.2c.4 17.9 4.2 30.6 11.4 38.3 7.2 7.6 18.3 11.5 33.5 11.5 12.3 0 22.3-3.8 29.8-11.3 7.5-7.5 11.3-16.8 11.3-27.8 0-5.2-.6-10.1-1.8-14.6-1.1-4.7-2.9-8.8-5.3-12.7z" style="fill:#fff"/></svg>
