<!--
  - @package     MIX ID
  - @link        https://auth.spb.ru
  -
  - @author      Ivan Zorin <creator@localzet.com>
  - @copyright   Copyright (c) 2018-2024 Zorin Projects S.P.
  - @license     https://www.gnu.org/licenses/agpl-3.0 GNU Affero General Public License v3.0
  -
  -              This program is free software: you can redistribute it and/or modify
  -              it under the terms of the GNU Affero General Public License as published
  -              by the Free Software Foundation, either version 3 of the License, or
  -              (at your option) any later version.
  -
  -              This program is distributed in the hope that it will be useful,
  -              but WITHOUT ANY WARRANTY; without even the implied warranty of
  -              MERCHANTABILITY or FITNESS FOR A PARTICULAR PURPOSE.  See the
  -              GNU Affero General Public License for more details.
  -
  -              You should have received a copy of the GNU Affero General Public License
  -              along with this program.  If not, see <https://www.gnu.org/licenses/>.
  -
  -              For any questions, please contact <creator@localzet.com>
  -->

<svg id="bold" enable-background="new 0 0 32 32" height="512" viewBox="0 0 32 32" width="512" xmlns="http://www.w3.org/2000/svg"><path d="m26 32h-20c-3.314 0-6-2.686-6-6v-20c0-3.314 2.686-6 6-6h20c3.314 0 6 2.686 6 6v20c0 3.314-2.686 6-6 6z" fill="#e3f8fa"/><path d="m20.833 8h-9.667c-1.011 0-1.833.822-1.833 1.833v12.333c0 1.011.822 1.833 1.833 1.833h9.667c1.011 0 1.833-.822 1.833-1.833v-12.333c.001-1.011-.822-1.833-1.833-1.833zm-6.896 12.591c.134.242.048.546-.194.68-.077.043-.16.063-.242.063-.176 0-.346-.093-.438-.257l-.396-.714-.396.714c-.091.164-.262.257-.438.257-.082 0-.165-.02-.242-.063-.242-.134-.328-.438-.194-.68l.698-1.257-.698-1.257c-.134-.242-.048-.546.194-.68s.546-.047.68.194l.396.714.396-.714c.133-.241.438-.328.68-.194s.328.438.194.68l-.698 1.257zm2.896.742h-1.667c-.276 0-.5-.224-.5-.5v-3c0-.276.224-.5.5-.5s.5.224.5.5v2.5h1.167c.276 0 .5.224.5.5s-.224.5-.5.5zm2.362-2.5h.277c.659 0 1.195.561 1.195 1.25s-.536 1.25-1.195 1.25h-.972c-.276 0-.5-.224-.5-.5s.224-.5.5-.5h.972c.105 0 .195-.115.195-.25s-.089-.25-.195-.25h-.277c-.659 0-1.195-.561-1.195-1.25s.536-1.25 1.195-1.25h.972c.276 0 .5.224.5.5s-.224.5-.5.5h-.972c-.105 0-.195.115-.195.25 0 .136.089.25.195.25z" fill="#26c6da"/></svg>
