<?xml version="1.0" encoding="iso-8859-1"?>
<!--
  - @package     MIX ID
  - @link        https://auth.spb.ru
  -
  - @author      Ivan Zorin <creator@localzet.com>
  - @copyright   Copyright (c) 2018-2024 Zorin Projects S.P.
  - @license     https://www.gnu.org/licenses/agpl-3.0 GNU Affero General Public License v3.0
  -
  -              This program is free software: you can redistribute it and/or modify
  -              it under the terms of the GNU Affero General Public License as published
  -              by the Free Software Foundation, either version 3 of the License, or
  -              (at your option) any later version.
  -
  -              This program is distributed in the hope that it will be useful,
  -              but WITHOUT ANY WARRANTY; without even the implied warranty of
  -              MERCHANTABILITY or FITNESS FOR A PARTICULAR PURPOSE.  See the
  -              GNU Affero General Public License for more details.
  -
  -              You should have received a copy of the GNU Affero General Public License
  -              along with this program.  If not, see <https://www.gnu.org/licenses/>.
  -
  -              For any questions, please contact <creator@localzet.com>
  -->

<!-- Generator: Adobe Illustrator 19.0.0, SVG Export Plug-In . SVG Version: 6.00 Build 0)  -->
<svg version="1.1" id="Layer_1" xmlns="http://www.w3.org/2000/svg" xmlns:xlink="http://www.w3.org/1999/xlink" x="0px" y="0px"
	 viewBox="0 0 512 512" style="enable-background:new 0 0 512 512;" xml:space="preserve">
<circle style="fill:#F0F0F0;" cx="256" cy="256" r="256"/>
<path style="fill:#D80027;" d="M8.819,322.783c23.638,87.703,92.695,156.761,180.399,180.399V322.783H8.819z"/>
<path style="fill:#0052B4;" d="M189.217,8.819C101.514,32.456,32.456,101.514,8.819,189.217h180.399V8.819z"/>
<path style="fill:#D80027;" d="M503.181,189.217C479.544,101.514,410.486,32.456,322.783,8.819v180.399H503.181z"/>
<path style="fill:#0052B4;" d="M322.783,503.181c87.703-23.638,156.761-92.695,180.399-180.399H322.783V503.181z"/>
<path style="fill:#496E2D;" d="M322.783,256c0,36.884-29.899,66.783-66.783,66.783c-36.883,0-66.783-29.899-66.783-66.783
	S256,189.217,256,189.217S322.783,219.116,322.783,256z"/>
<path style="fill:#0052B4;" d="M189.217,256c0-36.884,29.9-66.783,66.783-66.783c36.884,0,66.783,29.899,66.783,66.783"/>
<path style="fill:#D80027;" d="M218.435,222.609v41.739c0,20.747,16.818,37.565,37.565,37.565s37.565-16.818,37.565-37.565v-41.739
	H218.435z"/>
<g>
</g>
<g>
</g>
<g>
</g>
<g>
</g>
<g>
</g>
<g>
</g>
<g>
</g>
<g>
</g>
<g>
</g>
<g>
</g>
<g>
</g>
<g>
</g>
<g>
</g>
<g>
</g>
<g>
</g>
</svg>
