<?xml version="1.0" encoding="UTF-8"?>
<!DOCTYPE svg PUBLIC "-//W3C//DTD SVG 1.1//EN" "http://www.w3.org/Graphics/SVG/1.1/DTD/svg11.dtd">
<!-- Creator: CorelDRAW -->
<svg xmlns="http://www.w3.org/2000/svg" xml:space="preserve" width="512px" height="100px" version="1.1" style="shape-rendering:geometricPrecision; text-rendering:geometricPrecision; image-rendering:optimizeQuality; fill-rule:evenodd; clip-rule:evenodd"
viewBox="0 0 512 100"
 xmlns:xlink="http://www.w3.org/1999/xlink"
 xmlns:xodm="http://www.corel.com/coreldraw/odm/2003">
 <defs>
  <style type="text/css">
   <![CDATA[
    .str0 {stroke:#8A6FAD;stroke-width:0.288;stroke-miterlimit:22.9256}
    .fil0 {fill:#8A6FAD;fill-rule:nonzero}
    .fil1 {fill:black;fill-rule:nonzero}
    .fil2 {fill:gray;fill-rule:nonzero}
   ]]>
  </style>
 </defs>
 <g id="Слой_x0020_1">
  <metadata id="CorelCorpID_0Corel-Layer"/>
  <path id="path11" class="fil0 str0" d="M54.261 10.454c-1.141,-4.999 3.196,-9.318 8.217,-8.182 2.511,0.569 4.565,2.614 5.136,5.114 1.141,5 -3.195,9.318 -8.218,8.182 -2.51,-0.568 -4.564,-2.613 -5.135,-5.114zm26.934 63.751c-3.88,-0.568 -7.076,2.727 -6.505,6.477 0.342,2.386 2.282,4.318 4.679,4.659 3.88,0.568 7.076,-2.727 6.505,-6.477 -0.228,-2.273 -2.283,-4.319 -4.679,-4.659zm-30.815 -32.728c-4.679,0 -8.559,3.864 -8.559,8.523 0,4.659 3.88,8.523 8.559,8.523 4.68,0 8.559,-3.864 8.559,-8.523 0,-4.659 -3.879,-8.523 -8.559,-8.523zm35.152 8.523c8.445,9.432 11.983,18.75 8.331,25 -1.141,2.045 -3.081,3.636 -5.478,4.773 0,-1.251 -0.342,-2.386 -0.799,-3.409 1.484,-0.796 2.625,-1.818 3.424,-3.069 2.853,-4.886 -0.457,-12.613 -7.646,-20.795 -3.311,3.409 -7.191,6.705 -11.414,9.773 -0.57,5.341 -1.483,10.341 -2.739,14.772 1.256,0.228 2.511,0.455 3.652,0.683 -0.228,0.681 -0.342,1.363 -0.342,2.159 0,0.454 0,0.908 0.114,1.249 -1.483,-0.227 -2.967,-0.454 -4.45,-0.795 -4.223,12.045 -10.5,19.659 -17.805,19.659 -7.304,0 -13.581,-7.614 -17.575,-19.659 -1.599,0.341 -3.196,0.568 -4.68,0.795 -2.054,0.228 -3.994,0.342 -5.82,0.342 -7.533,0 -12.897,-2.273 -15.408,-6.478 -1.369,-2.387 -1.712,-5.227 -1.141,-8.296 0.913,0.682 2.054,1.137 3.31,1.137 -0.228,2.046 0,3.977 0.913,5.454 2.283,3.978 8.787,5.569 17.804,4.433 1.369,-0.228 2.739,-0.455 4.109,-0.683 -1.256,-4.432 -2.169,-9.431 -2.739,-14.772 -4.337,-3.069 -8.103,-6.364 -11.528,-9.773 -0.912,1.022 -1.825,2.159 -2.625,3.182 -0.114,0.227 -0.228,0.34 -0.456,0.568 -0.685,-0.682 -1.484,-1.136 -2.282,-1.477 -0.115,-0.341 -0.115,-0.455 -0.228,-0.796 1.026,-1.363 2.054,-2.613 3.195,-3.977 -1.141,-1.25 -2.169,-2.387 -3.082,-3.637 -6.505,-8.522 -8.331,-16.022 -5.25,-21.363 3.082,-5.341 10.615,-7.5 21.228,-6.136 1.484,0.227 3.081,0.454 4.68,0.795 3.879,-12.045 10.271,-19.659 17.575,-19.659 1.827,0 3.652,0.454 5.365,1.477 -1.028,0.681 -1.827,1.591 -2.511,2.501 -0.914,-0.342 -1.94,-0.569 -2.854,-0.569 -5.592,0 -10.842,6.704 -14.266,17.045 4.566,1.137 9.359,2.841 14.266,5 4.794,-2.159 9.702,-3.863 14.267,-5 -0.343,-0.909 -0.685,-1.931 -1.028,-2.841 1.141,-0.34 2.169,-0.909 3.082,-1.59 0.456,1.136 0.913,2.386 1.369,3.636 1.598,-0.341 3.196,-0.568 4.68,-0.795 10.614,-1.364 18.146,0.795 21.227,6.136 3.082,5.341 1.256,12.841 -5.25,21.363 -1.027,1.137 -2.053,2.387 -3.195,3.638l0 -0.001zm-16.549 -27.045c1.255,4.431 2.168,9.431 2.738,14.772 4.337,3.182 8.218,6.477 11.527,9.773 0.913,-1.023 1.827,-2.159 2.625,-3.182 5.479,-7.159 7.305,-13.637 5.022,-17.613 -1.826,-3.183 -6.277,-4.774 -12.44,-4.774 -1.598,0 -3.423,0.114 -5.363,0.342 -1.371,0.114 -2.74,0.341 -4.109,0.681l0 0.001zm-14.495 4.431c2.283,1.137 4.565,2.386 6.848,3.636 2.282,1.364 4.451,2.614 6.505,4.091 -0.57,-4.091 -1.369,-7.841 -2.282,-11.363 -3.538,0.909 -7.304,2.045 -11.071,3.636l0 0zm13.924 12.16c-2.739,-1.932 -5.706,-3.863 -8.788,-5.681 -3.081,-1.819 -6.163,-3.41 -9.244,-4.774 -3.081,1.364 -6.164,3.069 -9.245,4.774 -3.081,1.818 -6.048,3.636 -8.788,5.568 -0.342,3.408 -0.456,6.817 -0.456,10.454 0,3.523 0.228,7.046 0.456,10.455 2.74,1.931 5.707,3.864 8.788,5.568 3.081,1.818 6.164,3.409 9.245,4.773 3.081,-1.364 6.163,-3.069 9.244,-4.773 3.081,-1.818 6.049,-3.637 8.788,-5.568 0.343,-3.409 0.456,-6.818 0.456,-10.455 0.115,-3.409 -0.113,-6.932 -0.456,-10.341l0 0zm-33.325 -15.91c-1.027,3.523 -1.712,7.273 -2.283,11.364 2.054,-1.364 4.337,-2.727 6.505,-4.091 2.283,-1.25 4.566,-2.5 6.848,-3.637 -3.766,-1.477 -7.419,-2.727 -11.07,-3.636zm-20.201 20.682c0.799,1.023 1.713,2.159 2.626,3.182 3.309,-3.409 7.189,-6.705 11.527,-9.773 0.57,-5.341 1.483,-10.341 2.738,-14.772 -1.369,-0.341 -2.738,-0.568 -4.108,-0.682 -1.941,-0.228 -3.652,-0.342 -5.364,-0.342 -6.163,0 -10.614,1.705 -12.44,4.774 -2.397,3.977 -0.571,10.34 5.021,17.614l0 -0.001zm13.696 13.409c-0.114,-2.499 -0.229,-5.113 -0.229,-7.727 0,-2.613 0.115,-5.227 0.229,-7.727 -3.196,2.5 -6.163,5.114 -8.788,7.727 2.625,2.614 5.592,5.228 8.788,7.727l0 0zm6.505 18.637c3.538,-0.909 7.305,-2.159 11.071,-3.637 -2.283,-1.136 -4.565,-2.386 -6.848,-3.636 -2.283,-1.25 -4.451,-2.614 -6.505,-4.091 0.571,3.977 1.369,7.841 2.282,11.364l0 0zm29.56 3.181c-4.565,-1.135 -9.359,-2.841 -14.267,-4.999 -4.907,2.158 -9.7,3.864 -14.265,4.999 3.423,10.341 8.559,17.046 14.265,17.046 5.593,0 10.729,-6.705 14.267,-17.046zm3.309 -14.659c-2.055,1.363 -4.337,2.727 -6.505,4.09 -2.282,1.251 -4.565,2.501 -6.848,3.637 3.766,1.477 7.532,2.727 11.07,3.637 0.914,-3.409 1.712,-7.273 2.283,-11.364l0 0zm12.898 -14.887c-2.512,-2.613 -5.478,-5.227 -8.789,-7.727 0.115,2.5 0.229,5.114 0.229,7.727 0,2.614 -0.114,5.228 -0.229,7.727 3.311,-2.499 6.164,-5.113 8.789,-7.727zm-72.016 15.568c3.082,0.455 5.707,-2.159 5.251,-5.227 -0.343,-1.932 -1.827,-3.522 -3.767,-3.75 -3.082,-0.455 -5.707,2.159 -5.25,5.227 0.343,1.932 1.826,3.409 3.766,3.75z" data-uid="o_f3m77glf3_6" inkscape:label="neuron"/>
  <path id="path15" class="fil1 str0" d="M45.541 50c0,0.001 0,0.002 0,0.003 0,2.576 2.098,4.666 4.687,4.666 2.588,0 4.687,-2.09 4.687,-4.666 0,-0.001 0,-0.002 0,-0.002 0,-0.001 0,-0.003 0,-0.003 0,-2.577 -2.099,-4.667 -4.687,-4.667 -2.589,0 -4.687,2.09 -4.687,4.667 0,0 0,0.002 0,0.002l0 0zm0 0l0 0 0 0z"/>
  <path id="path17" class="fil1 str0" d="M77.753 79.797c0,0.001 0,0.002 0,0.004 0,1.32 1.076,2.39 2.402,2.39 1.325,0 2.4,-1.07 2.4,-2.39 0,-0.002 0,-0.003 0,-0.004 0,-0.001 0,-0.002 0,-0.002 0,-1.321 -1.075,-2.391 -2.4,-2.391 -1.326,0 -2.402,1.07 -2.402,2.391 0,0 0,0.001 0,0.002l0 0zm0 0l0 0 0 0z"/>
  <path id="path19" class="fil1 str0" d="M57.617 8.92c0,0.001 0,0.002 0,0.003 0,1.776 1.447,3.216 3.23,3.216 1.784,0 3.23,-1.44 3.23,-3.216 0,-0.001 0,-0.002 0,-0.003 0,0 0,-0.001 0,-0.002 0,-1.775 -1.446,-3.215 -3.23,-3.215 -1.783,0 -3.23,1.44 -3.23,3.215 0,0.001 0,0.002 0,0.002l0 0zm0 0l0 0 0 0z"/>
  <path id="path21" class="fil1 str0" d="M7.708 61.127c0,0.981 0.8,1.777 1.785,1.777 0.987,0 1.785,-0.796 1.785,-1.777 0,-0.981 -0.798,-1.777 -1.785,-1.777 -0.985,0 -1.785,0.796 -1.785,1.777l0 0zm0 0l0 0 0 0z"/>
  <path class="fil0" d="M118.47 50.318c-0.969,0 -1.724,-0.27 -2.267,-0.81 -0.542,-0.54 -0.814,-1.293 -0.814,-2.257l0 -34.893c0,-1.003 0.262,-1.765 0.785,-2.286 0.523,-0.521 1.269,-0.781 2.238,-0.781 0.969,0 1.714,0.26 2.237,0.781 0.523,0.521 0.785,1.283 0.785,2.286l0 32.81 18.016 0c0.853,0 1.511,0.222 1.976,0.665 0.465,0.444 0.697,1.071 0.697,1.881 0,0.81 -0.232,1.446 -0.697,1.909 -0.465,0.463 -1.123,0.695 -1.976,0.695l-20.98 0z"/>
  <path id="_1" class="fil0" d="M158.861 50.838c-2.867,0 -5.337,-0.597 -7.41,-1.793 -2.073,-1.196 -3.691,-2.894 -4.853,-5.092 -1.162,-2.199 -1.743,-4.784 -1.743,-7.755 0,-2.276 0.329,-4.301 0.988,-6.076 0.658,-1.774 1.598,-3.307 2.818,-4.6 1.221,-1.292 2.693,-2.276 4.417,-2.951 1.724,-0.675 3.652,-1.013 5.783,-1.013 2.828,0 5.279,0.598 7.352,1.794 2.072,1.196 3.69,2.884 4.852,5.064 1.162,2.179 1.744,4.774 1.744,7.782 0,2.238 -0.33,4.263 -0.988,6.076 -0.659,1.813 -1.598,3.357 -2.819,4.63 -1.22,1.273 -2.693,2.247 -4.417,2.922 -1.724,0.675 -3.632,1.012 -5.724,1.012zm0 -4.513c1.588,0 2.983,-0.386 4.184,-1.157 1.201,-0.772 2.141,-1.91 2.819,-3.414 0.678,-1.505 1.017,-3.357 1.017,-5.556 0,-3.317 -0.736,-5.825 -2.209,-7.522 -1.472,-1.698 -3.409,-2.546 -5.811,-2.546 -1.628,0 -3.042,0.376 -4.243,1.128 -1.201,0.752 -2.14,1.881 -2.818,3.385 -0.679,1.505 -1.018,3.357 -1.018,5.555 0,3.28 0.737,5.787 2.209,7.523 1.472,1.736 3.429,2.604 5.87,2.604z"/>
  <path id="_2" class="fil0" d="M191.871 50.838c-2.906,0 -5.415,-0.607 -7.526,-1.822 -2.112,-1.216 -3.749,-2.932 -4.911,-5.15 -1.163,-2.219 -1.744,-4.832 -1.744,-7.841 0,-2.238 0.33,-4.254 0.988,-6.047 0.659,-1.794 1.598,-3.308 2.819,-4.543 1.221,-1.234 2.712,-2.189 4.475,-2.864 1.763,-0.675 3.729,-1.013 5.899,-1.013 1.356,0 2.78,0.203 4.272,0.608 1.491,0.405 2.876,1.071 4.155,1.996 0.503,0.309 0.823,0.685 0.959,1.129 0.136,0.443 0.155,0.897 0.058,1.36 -0.097,0.463 -0.31,0.858 -0.639,1.186 -0.33,0.328 -0.727,0.52 -1.192,0.579 -0.465,0.057 -0.968,-0.068 -1.511,-0.377 -0.93,-0.656 -1.879,-1.128 -2.848,-1.418 -0.968,-0.289 -1.898,-0.433 -2.789,-0.433 -1.395,0 -2.625,0.221 -3.691,0.665 -1.065,0.444 -1.966,1.08 -2.702,1.91 -0.736,0.829 -1.288,1.861 -1.656,3.095 -0.368,1.235 -0.552,2.643 -0.552,4.225 0,3.163 0.745,5.641 2.237,7.435 1.492,1.794 3.613,2.691 6.364,2.691 0.891,0 1.821,-0.135 2.789,-0.405 0.969,-0.27 1.918,-0.733 2.848,-1.389 0.543,-0.308 1.046,-0.424 1.511,-0.347 0.465,0.077 0.843,0.28 1.133,0.608 0.291,0.328 0.485,0.714 0.581,1.157 0.098,0.444 0.068,0.897 -0.087,1.36 -0.154,0.463 -0.484,0.849 -0.988,1.157 -1.239,0.887 -2.586,1.524 -4.039,1.91 -1.453,0.386 -2.857,0.578 -4.213,0.578z"/>
  <path id="_3" class="fil0" d="M215.35 50.838c-1.976,0 -3.749,-0.385 -5.318,-1.157 -1.569,-0.772 -2.799,-1.813 -3.69,-3.125 -0.891,-1.311 -1.337,-2.797 -1.337,-4.455 0,-2.083 0.533,-3.733 1.598,-4.948 1.066,-1.215 2.829,-2.083 5.29,-2.604 2.46,-0.52 5.782,-0.781 9.966,-0.781l2.732 0 0 3.588 -2.674 0c-2.789,0 -4.998,0.135 -6.625,0.405 -1.627,0.27 -2.78,0.723 -3.458,1.36 -0.678,0.636 -1.017,1.514 -1.017,2.633 0,1.465 0.504,2.652 1.511,3.558 1.008,0.907 2.402,1.36 4.184,1.36 1.434,0 2.693,-0.338 3.778,-1.013 1.085,-0.675 1.947,-1.591 2.586,-2.748 0.639,-1.157 0.959,-2.489 0.959,-3.993l0 -6.654c0,-2.199 -0.464,-3.781 -1.395,-4.746 -0.93,-0.964 -2.46,-1.446 -4.591,-1.446 -1.239,0 -2.528,0.154 -3.865,0.463 -1.336,0.308 -2.722,0.829 -4.155,1.562 -0.659,0.309 -1.221,0.405 -1.685,0.29 -0.465,-0.116 -0.833,-0.377 -1.104,-0.782 -0.272,-0.405 -0.417,-0.848 -0.437,-1.33 -0.019,-0.483 0.098,-0.955 0.349,-1.418 0.252,-0.463 0.688,-0.81 1.308,-1.042 1.705,-0.81 3.39,-1.389 5.056,-1.736 1.666,-0.347 3.236,-0.521 4.708,-0.521 2.595,0 4.736,0.406 6.421,1.216 1.686,0.81 2.936,2.044 3.749,3.703 0.814,1.659 1.22,3.8 1.22,6.423l0 14.871c0,0.926 -0.232,1.65 -0.697,2.171 -0.465,0.52 -1.143,0.781 -2.034,0.781 -0.852,0 -1.53,-0.261 -2.034,-0.781 -0.504,-0.521 -0.755,-1.245 -0.755,-2.171l0 -3.761 0.522 0c-0.31,1.428 -0.881,2.652 -1.714,3.675 -0.833,1.022 -1.869,1.803 -3.109,2.343 -1.24,0.54 -2.654,0.81 -4.243,0.81z"/>
  <path id="_4" class="fil0" d="M246.617 50.838c-3.022,0 -5.298,-0.877 -6.829,-2.632 -1.53,-1.756 -2.296,-4.292 -2.296,-7.61l0 -28.528c0,-0.964 0.252,-1.697 0.756,-2.199 0.504,-0.501 1.221,-0.752 2.15,-0.752 0.93,0 1.657,0.251 2.18,0.752 0.523,0.502 0.784,1.235 0.784,2.199l0 28.181c0,1.929 0.398,3.366 1.192,4.311 0.794,0.945 1.947,1.418 3.458,1.418 0.348,0 0.658,-0.01 0.93,-0.029 0.271,-0.019 0.542,-0.049 0.813,-0.087 0.465,-0.039 0.794,0.087 0.988,0.376 0.194,0.29 0.291,0.878 0.291,1.765 0,0.81 -0.175,1.437 -0.523,1.881 -0.349,0.443 -0.911,0.723 -1.686,0.839 -0.348,0.038 -0.717,0.067 -1.104,0.086 -0.387,0.02 -0.756,0.029 -1.104,0.029z"/>
  <path id="_5" class="fil0" d="M256.381 50.318c-0.62,0 -1.124,-0.145 -1.511,-0.434 -0.388,-0.29 -0.649,-0.675 -0.785,-1.158 -0.136,-0.482 -0.136,-1.003 0,-1.562 0.136,-0.559 0.436,-1.09 0.901,-1.591l15.808 -20.427 0 1.447 -14.762 0c-0.736,0 -1.298,-0.203 -1.685,-0.608 -0.388,-0.405 -0.581,-0.955 -0.581,-1.649 0,-0.733 0.193,-1.293 0.581,-1.678 0.387,-0.386 0.949,-0.579 1.685,-0.579l17.551 0c0.736,0 1.327,0.154 1.773,0.463 0.445,0.309 0.736,0.695 0.872,1.158 0.135,0.462 0.145,0.964 0.028,1.504 -0.116,0.54 -0.406,1.061 -0.871,1.562l-16.04 20.658 0 -1.562 15.517 0c1.55,0 2.325,0.733 2.325,2.199 0,0.694 -0.204,1.244 -0.61,1.649 -0.408,0.405 -0.979,0.608 -1.715,0.608l-18.481 0z"/>
  <path id="_6" class="fil0" d="M295.202 50.838c-3.099,0 -5.763,-0.588 -7.991,-1.765 -2.227,-1.176 -3.952,-2.854 -5.172,-5.034 -1.22,-2.18 -1.831,-4.774 -1.831,-7.783 0,-2.932 0.601,-5.497 1.802,-7.696 1.201,-2.199 2.848,-3.916 4.94,-5.15 2.092,-1.234 4.475,-1.852 7.148,-1.852 1.976,0 3.74,0.319 5.289,0.955 1.55,0.637 2.877,1.563 3.981,2.778 1.104,1.215 1.937,2.69 2.499,4.426 0.562,1.736 0.843,3.685 0.843,5.845 0,0.656 -0.194,1.147 -0.582,1.475 -0.387,0.328 -0.968,0.492 -1.743,0.492l-19.527 0 0 -3.587 17.9 0 -0.988 0.81c0,-1.929 -0.281,-3.569 -0.843,-4.919 -0.562,-1.35 -1.395,-2.382 -2.499,-3.095 -1.104,-0.714 -2.47,-1.071 -4.097,-1.071 -1.821,0 -3.361,0.424 -4.62,1.273 -1.26,0.849 -2.219,2.025 -2.877,3.53 -0.659,1.504 -0.988,3.259 -0.988,5.265l0 0.348c0,3.395 0.804,5.95 2.412,7.667 1.607,1.717 3.942,2.575 7.003,2.575 1.162,0 2.392,-0.154 3.69,-0.463 1.298,-0.308 2.528,-0.829 3.69,-1.563 0.659,-0.385 1.25,-0.559 1.773,-0.52 0.523,0.038 0.949,0.212 1.278,0.52 0.33,0.309 0.533,0.695 0.611,1.158 0.077,0.463 0,0.936 -0.233,1.417 -0.232,0.483 -0.639,0.917 -1.22,1.303 -1.317,0.887 -2.848,1.552 -4.591,1.996 -1.744,0.444 -3.429,0.665 -5.057,0.665z"/>
  <path id="_7" class="fil0" d="M325.133 50.838c-2.325,0 -4.282,-0.405 -5.87,-1.215 -1.589,-0.81 -2.77,-2.006 -3.545,-3.588 -0.775,-1.581 -1.163,-3.51 -1.163,-5.786l0 -13.656 -3.487 0c-0.775,0 -1.375,-0.203 -1.801,-0.608 -0.427,-0.405 -0.64,-0.955 -0.64,-1.649 0,-0.733 0.213,-1.293 0.64,-1.678 0.426,-0.386 1.026,-0.579 1.801,-0.579l3.487 0 0 -5.96c0,-0.965 0.262,-1.697 0.785,-2.199 0.523,-0.502 1.25,-0.752 2.179,-0.752 0.93,0 1.647,0.25 2.151,0.752 0.503,0.502 0.755,1.234 0.755,2.199l0 5.96 6.799 0c0.776,0 1.376,0.193 1.803,0.579 0.426,0.385 0.639,0.945 0.639,1.678 0,0.694 -0.213,1.244 -0.639,1.649 -0.427,0.405 -1.027,0.608 -1.803,0.608l-6.799 0 0 13.193c0,2.045 0.436,3.588 1.308,4.629 0.872,1.042 2.296,1.563 4.271,1.563 0.698,0 1.308,-0.068 1.831,-0.203 0.523,-0.135 0.959,-0.221 1.308,-0.26 0.426,0 0.774,0.144 1.046,0.434 0.271,0.289 0.406,0.839 0.406,1.649 0,0.579 -0.106,1.119 -0.319,1.62 -0.213,0.502 -0.591,0.83 -1.133,0.984 -0.465,0.154 -1.095,0.299 -1.889,0.434 -0.794,0.135 -1.501,0.202 -2.121,0.202z"/>
  <path id="_8" class="fil0" d="M369.417 50.838c-4.455,0 -8.213,-0.839 -11.274,-2.517 -3.061,-1.678 -5.376,-4.079 -6.945,-7.204 -1.569,-3.125 -2.354,-6.848 -2.354,-11.168 0,-3.241 0.456,-6.144 1.366,-8.709 0.911,-2.565 2.228,-4.764 3.952,-6.597 1.724,-1.832 3.836,-3.23 6.335,-4.195 2.499,-0.964 5.337,-1.447 8.514,-1.447 2.324,0 4.61,0.299 6.858,0.898 2.247,0.598 4.3,1.571 6.16,2.922 0.543,0.385 0.891,0.829 1.046,1.331 0.155,0.501 0.164,1.012 0.029,1.533 -0.136,0.521 -0.387,0.974 -0.755,1.36 -0.369,0.385 -0.814,0.617 -1.337,0.694 -0.523,0.077 -1.095,-0.077 -1.715,-0.463 -1.511,-1.041 -3.099,-1.803 -4.765,-2.285 -1.666,-0.483 -3.507,-0.724 -5.521,-0.724 -3.023,0 -5.57,0.618 -7.643,1.852 -2.072,1.234 -3.632,3.019 -4.678,5.353 -1.046,2.333 -1.569,5.159 -1.569,8.477 0,5.131 1.22,9.027 3.661,11.689 2.441,2.661 6.064,3.993 10.868,3.993 1.744,0 3.458,-0.164 5.143,-0.492 1.686,-0.328 3.304,-0.801 4.853,-1.418l-1.221 3.009 0 -13.483 -7.496 0c-0.775,0 -1.386,-0.202 -1.831,-0.607 -0.445,-0.406 -0.668,-0.974 -0.668,-1.708 0,-0.732 0.223,-1.282 0.668,-1.649 0.445,-0.366 1.056,-0.549 1.831,-0.549l10.054 0c0.813,0 1.433,0.212 1.86,0.636 0.426,0.424 0.639,1.042 0.639,1.852l0 14.582c0,0.694 -0.126,1.283 -0.378,1.765 -0.252,0.482 -0.668,0.839 -1.249,1.071 -1.666,0.655 -3.623,1.186 -5.87,1.591 -2.247,0.405 -4.436,0.607 -6.568,0.607z"/>
  <path id="_9" class="fil0" d="M395.047 50.723c-0.969,0 -1.705,-0.261 -2.208,-0.781 -0.504,-0.521 -0.756,-1.245 -0.756,-2.171l0 -23.146c0,-0.964 0.252,-1.697 0.756,-2.199 0.503,-0.501 1.201,-0.752 2.092,-0.752 0.93,0 1.637,0.251 2.121,0.752 0.484,0.502 0.726,1.235 0.726,2.199l0 4.225 -0.581 0c0.62,-2.315 1.763,-4.07 3.429,-5.266 1.666,-1.196 3.797,-1.891 6.393,-2.083 0.697,-0.039 1.249,0.135 1.656,0.52 0.407,0.386 0.63,0.984 0.669,1.794 0.077,0.81 -0.097,1.456 -0.523,1.939 -0.427,0.482 -1.085,0.762 -1.977,0.839l-1.104 0.115c-2.518,0.232 -4.436,1.023 -5.753,2.373 -1.317,1.35 -1.976,3.202 -1.976,5.555l0 13.135c0,0.926 -0.242,1.65 -0.727,2.171 -0.484,0.52 -1.23,0.781 -2.237,0.781z"/>
  <path id="_10" class="fil0" d="M425.674 50.838c-2.867,0 -5.337,-0.597 -7.409,-1.793 -2.073,-1.196 -3.691,-2.894 -4.853,-5.092 -1.162,-2.199 -1.744,-4.784 -1.744,-7.755 0,-2.276 0.33,-4.301 0.988,-6.076 0.659,-1.774 1.599,-3.307 2.819,-4.6 1.221,-1.292 2.693,-2.276 4.417,-2.951 1.724,-0.675 3.652,-1.013 5.782,-1.013 2.829,0 5.28,0.598 7.352,1.794 2.073,1.196 3.691,2.884 4.853,5.064 1.162,2.179 1.744,4.774 1.744,7.782 0,2.238 -0.33,4.263 -0.989,6.076 -0.658,1.813 -1.598,3.357 -2.818,4.63 -1.221,1.273 -2.693,2.247 -4.417,2.922 -1.724,0.675 -3.632,1.012 -5.725,1.012zm0 -4.513c1.589,0 2.984,-0.386 4.185,-1.157 1.201,-0.772 2.14,-1.91 2.819,-3.414 0.678,-1.505 1.017,-3.357 1.017,-5.556 0,-3.317 -0.737,-5.825 -2.209,-7.522 -1.472,-1.698 -3.409,-2.546 -5.812,-2.546 -1.627,0 -3.041,0.376 -4.242,1.128 -1.201,0.752 -2.141,1.881 -2.819,3.385 -0.678,1.505 -1.017,3.357 -1.017,5.555 0,3.28 0.736,5.787 2.209,7.523 1.472,1.736 3.429,2.604 5.869,2.604z"/>
  <path id="_11" class="fil0" d="M456.302 50.838c-2.286,0 -4.194,-0.424 -5.724,-1.272 -1.531,-0.849 -2.674,-2.113 -3.429,-3.791 -0.756,-1.678 -1.134,-3.79 -1.134,-6.336l0 -14.814c0,-1.003 0.252,-1.745 0.756,-2.228 0.503,-0.482 1.22,-0.723 2.15,-0.723 0.93,0 1.657,0.241 2.18,0.723 0.523,0.483 0.784,1.225 0.784,2.228l0 14.872c0,2.276 0.465,3.954 1.395,5.034 0.93,1.08 2.402,1.62 4.417,1.62 2.208,0 4,-0.742 5.376,-2.228 1.375,-1.485 2.063,-3.443 2.063,-5.873l0 -13.425c0,-1.003 0.251,-1.745 0.755,-2.228 0.504,-0.482 1.24,-0.723 2.209,-0.723 0.93,0 1.646,0.241 2.15,0.723 0.504,0.483 0.755,1.225 0.755,2.228l0 23.146c0,1.968 -0.949,2.952 -2.847,2.952 -0.891,0 -1.589,-0.261 -2.092,-0.781 -0.504,-0.521 -0.756,-1.245 -0.756,-2.171l0 -4.918 0.756 1.273c-0.775,2.16 -2.015,3.819 -3.72,4.977 -1.705,1.157 -3.719,1.735 -6.044,1.735z"/>
  <path id="_12" class="fil0" d="M482.164 61.138c-0.93,0 -1.646,-0.25 -2.15,-0.752 -0.504,-0.501 -0.756,-1.234 -0.756,-2.199l0 -33.562c0,-0.964 0.252,-1.697 0.756,-2.199 0.504,-0.501 1.201,-0.752 2.092,-0.752 0.93,0 1.647,0.251 2.15,0.752 0.504,0.502 0.756,1.235 0.756,2.199l0 5.034 -0.64 -1.215c0.62,-2.083 1.841,-3.751 3.662,-5.005 1.821,-1.254 3.971,-1.881 6.451,-1.881 2.518,0 4.717,0.598 6.596,1.794 1.879,1.196 3.332,2.874 4.359,5.035 1.026,2.16 1.54,4.764 1.54,7.811 0,2.971 -0.514,5.565 -1.54,7.783 -1.027,2.218 -2.47,3.916 -4.33,5.092 -1.859,1.177 -4.068,1.765 -6.625,1.765 -2.441,0 -4.572,-0.617 -6.393,-1.851 -1.821,-1.235 -3.041,-2.874 -3.661,-4.919l0.697 0 0 14.119c0,0.965 -0.261,1.698 -0.784,2.199 -0.523,0.502 -1.25,0.752 -2.18,0.752zm10.868 -14.813c1.627,0 3.041,-0.386 4.242,-1.157 1.201,-0.772 2.131,-1.91 2.79,-3.414 0.659,-1.505 0.988,-3.357 0.988,-5.556 0,-3.317 -0.727,-5.825 -2.179,-7.522 -1.453,-1.698 -3.4,-2.546 -5.841,-2.546 -1.588,0 -2.993,0.376 -4.213,1.128 -1.221,0.752 -2.161,1.881 -2.82,3.385 -0.658,1.505 -0.987,3.357 -0.987,5.555 0,3.28 0.736,5.787 2.208,7.523 1.472,1.736 3.409,2.604 5.812,2.604z"/>
  <path class="fil2" d="M117.887 84.653c-0.742,0 -1.31,-0.197 -1.704,-0.591 -0.394,-0.393 -0.591,-0.961 -0.591,-1.704l0 -19.207c0,-0.742 0.197,-1.31 0.591,-1.704 0.394,-0.394 0.962,-0.591 1.704,-0.591l6.549 0c3.983,0 7.06,1.024 9.232,3.072 2.171,2.047 3.257,4.984 3.257,8.81 0,1.913 -0.276,3.606 -0.827,5.08 -0.552,1.474 -1.362,2.717 -2.43,3.73 -1.069,1.012 -2.375,1.783 -3.916,2.312 -1.542,0.529 -3.314,0.793 -5.316,0.793l-6.549 0zm2.025 -3.578l4.253 0c1.396,0 2.605,-0.174 3.629,-0.523 1.024,-0.349 1.879,-0.866 2.565,-1.553 0.687,-0.686 1.199,-1.552 1.536,-2.599 0.338,-1.046 0.507,-2.267 0.507,-3.662 0,-2.791 -0.687,-4.872 -2.059,-6.245 -1.373,-1.372 -3.432,-2.059 -6.178,-2.059l-4.253 0 0 16.641z"/>
  <path id="_1_0" class="fil2" d="M149.043 84.991c-1.868,0 -3.477,-0.349 -4.827,-1.047 -1.35,-0.697 -2.391,-1.687 -3.122,-2.97 -0.732,-1.283 -1.098,-2.802 -1.098,-4.557 0,-1.71 0.355,-3.207 1.064,-4.489 0.709,-1.283 1.688,-2.29 2.937,-3.022 1.248,-0.731 2.672,-1.096 4.269,-1.096 1.171,0 2.223,0.191 3.157,0.573 0.934,0.383 1.732,0.934 2.396,1.654 0.664,0.72 1.17,1.593 1.519,2.617 0.349,1.023 0.523,2.177 0.523,3.459 0,0.405 -0.14,0.715 -0.421,0.929 -0.282,0.213 -0.681,0.32 -1.199,0.32l-10.835 0 0 -2.43 9.485 0 -0.54 0.506c0,-1.035 -0.152,-1.901 -0.456,-2.599 -0.304,-0.698 -0.743,-1.232 -1.316,-1.603 -0.574,-0.372 -1.289,-0.557 -2.144,-0.557 -0.945,0 -1.749,0.219 -2.413,0.658 -0.664,0.439 -1.17,1.058 -1.519,1.857 -0.349,0.798 -0.523,1.749 -0.523,2.852l0 0.236c0,1.845 0.433,3.223 1.299,4.135 0.867,0.911 2.144,1.367 3.831,1.367 0.585,0 1.244,-0.073 1.975,-0.219 0.732,-0.147 1.424,-0.4 2.076,-0.76 0.473,-0.27 0.889,-0.388 1.249,-0.354 0.36,0.033 0.647,0.163 0.861,0.388 0.214,0.225 0.343,0.501 0.388,0.827 0.045,0.326 -0.017,0.658 -0.186,0.996 -0.169,0.337 -0.456,0.63 -0.86,0.877 -0.788,0.495 -1.694,0.861 -2.718,1.097 -1.024,0.237 -1.974,0.355 -2.852,0.355z"/>
  <path id="_2_1" class="fil2" d="M165.616 84.923c-0.562,0 -1.052,-0.146 -1.468,-0.439 -0.416,-0.292 -0.759,-0.742 -1.03,-1.35l-5.366 -12.455c-0.203,-0.495 -0.276,-0.957 -0.22,-1.384 0.057,-0.428 0.259,-0.771 0.608,-1.03 0.349,-0.258 0.827,-0.388 1.434,-0.388 0.518,0 0.934,0.118 1.249,0.354 0.315,0.237 0.597,0.681 0.844,1.334l4.557 11.375 -1.012 0 4.691 -11.409c0.248,-0.63 0.535,-1.063 0.861,-1.3 0.326,-0.236 0.771,-0.354 1.333,-0.354 0.495,0 0.889,0.13 1.182,0.388 0.292,0.259 0.472,0.597 0.54,1.013 0.067,0.416 -0.011,0.872 -0.237,1.367l-5.468 12.489c-0.247,0.608 -0.579,1.058 -0.995,1.35 -0.417,0.293 -0.918,0.439 -1.503,0.439z"/>
  <path id="_3_2" class="fil2" d="M184.519 84.991c-1.868,0 -3.477,-0.349 -4.827,-1.047 -1.35,-0.697 -2.391,-1.687 -3.122,-2.97 -0.732,-1.283 -1.097,-2.802 -1.097,-4.557 0,-1.71 0.354,-3.207 1.063,-4.489 0.709,-1.283 1.688,-2.29 2.937,-3.022 1.249,-0.731 2.672,-1.096 4.27,-1.096 1.17,0 2.222,0.191 3.156,0.573 0.934,0.383 1.732,0.934 2.396,1.654 0.664,0.72 1.171,1.593 1.519,2.617 0.349,1.023 0.524,2.177 0.524,3.459 0,0.405 -0.141,0.715 -0.422,0.929 -0.282,0.213 -0.681,0.32 -1.199,0.32l-10.835 0 0 -2.43 9.485 0 -0.54 0.506c0,-1.035 -0.152,-1.901 -0.456,-2.599 -0.304,-0.698 -0.742,-1.232 -1.316,-1.603 -0.574,-0.372 -1.289,-0.557 -2.143,-0.557 -0.946,0 -1.75,0.219 -2.414,0.658 -0.664,0.439 -1.17,1.058 -1.519,1.857 -0.349,0.798 -0.523,1.749 -0.523,2.852l0 0.236c0,1.845 0.433,3.223 1.3,4.135 0.866,0.911 2.143,1.367 3.831,1.367 0.585,0 1.243,-0.073 1.974,-0.219 0.732,-0.147 1.424,-0.4 2.076,-0.76 0.473,-0.27 0.889,-0.388 1.249,-0.354 0.36,0.033 0.647,0.163 0.861,0.388 0.214,0.225 0.343,0.501 0.388,0.827 0.045,0.326 -0.017,0.658 -0.186,0.996 -0.169,0.337 -0.455,0.63 -0.86,0.877 -0.788,0.495 -1.694,0.861 -2.718,1.097 -1.024,0.237 -1.974,0.355 -2.852,0.355z"/>
  <path id="_4_3" class="fil2" d="M200.316 84.991c-1.868,0 -3.274,-0.535 -4.219,-1.604 -0.946,-1.068 -1.418,-2.638 -1.418,-4.709l0 -15.965c0,-0.698 0.18,-1.227 0.54,-1.587 0.36,-0.36 0.878,-0.54 1.553,-0.54 0.675,0 1.198,0.18 1.569,0.54 0.372,0.36 0.557,0.889 0.557,1.587l0 15.763c0,1.035 0.22,1.8 0.659,2.295 0.438,0.495 1.063,0.743 1.873,0.743 0.18,0 0.349,-0.006 0.506,-0.017 0.158,-0.011 0.315,-0.028 0.473,-0.05 0.315,-0.045 0.529,0.039 0.641,0.252 0.113,0.214 0.169,0.647 0.169,1.3 0,0.563 -0.112,1.001 -0.338,1.317 -0.225,0.314 -0.596,0.506 -1.113,0.573 -0.225,0.023 -0.462,0.045 -0.71,0.068 -0.247,0.022 -0.494,0.034 -0.742,0.034z"/>
  <path id="_5_4" class="fil2" d="M212.805 84.991c-1.71,0 -3.195,-0.349 -4.455,-1.047 -1.261,-0.697 -2.239,-1.693 -2.937,-2.987 -0.697,-1.294 -1.046,-2.819 -1.046,-4.574 0,-1.328 0.197,-2.514 0.59,-3.561 0.394,-1.046 0.962,-1.946 1.705,-2.7 0.743,-0.754 1.631,-1.328 2.666,-1.722 1.036,-0.393 2.194,-0.59 3.477,-0.59 1.711,0 3.196,0.349 4.456,1.046 1.26,0.698 2.239,1.688 2.937,2.971 0.697,1.282 1.046,2.801 1.046,4.556 0,1.328 -0.197,2.521 -0.591,3.578 -0.394,1.058 -0.962,1.964 -1.704,2.717 -0.743,0.754 -1.632,1.328 -2.667,1.722 -1.035,0.394 -2.194,0.591 -3.477,0.591zm0 -3.207c0.833,0 1.564,-0.202 2.194,-0.608 0.63,-0.405 1.12,-1.007 1.469,-1.806 0.348,-0.798 0.523,-1.794 0.523,-2.987 0,-1.8 -0.383,-3.144 -1.148,-4.033 -0.765,-0.889 -1.778,-1.334 -3.038,-1.334 -0.832,0 -1.564,0.197 -2.194,0.591 -0.63,0.394 -1.119,0.99 -1.468,1.789 -0.349,0.799 -0.523,1.795 -0.523,2.987 0,1.778 0.382,3.122 1.147,4.034 0.766,0.911 1.778,1.367 3.038,1.367z"/>
  <path id="_6_5" class="fil2" d="M226.813 90.999c-0.675,0 -1.192,-0.18 -1.552,-0.54 -0.36,-0.36 -0.54,-0.889 -0.54,-1.586l0 -18.869c0,-0.698 0.18,-1.227 0.54,-1.587 0.36,-0.36 0.866,-0.54 1.519,-0.54 0.675,0 1.193,0.18 1.552,0.54 0.361,0.36 0.54,0.889 0.54,1.587l0 2.633 -0.371 -1.013c0.338,-1.148 1.03,-2.07 2.076,-2.768 1.047,-0.697 2.267,-1.046 3.662,-1.046 1.441,0 2.707,0.349 3.798,1.046 1.091,0.698 1.941,1.682 2.548,2.954 0.608,1.271 0.912,2.796 0.912,4.573 0,1.755 -0.304,3.28 -0.912,4.574 -0.607,1.294 -1.451,2.29 -2.531,2.987 -1.081,0.698 -2.352,1.047 -3.815,1.047 -1.372,0 -2.576,-0.344 -3.611,-1.03 -1.036,-0.686 -1.733,-1.58 -2.093,-2.683l0.405 0 0 7.595c0,0.697 -0.185,1.226 -0.557,1.586 -0.371,0.36 -0.895,0.54 -1.57,0.54zm6.245 -9.215c0.833,0 1.564,-0.202 2.194,-0.608 0.63,-0.405 1.12,-1.007 1.468,-1.806 0.349,-0.798 0.524,-1.794 0.524,-2.987 0,-1.8 -0.383,-3.144 -1.148,-4.033 -0.765,-0.889 -1.778,-1.334 -3.038,-1.334 -0.833,0 -1.564,0.197 -2.194,0.591 -0.63,0.394 -1.12,0.99 -1.468,1.789 -0.349,0.799 -0.524,1.795 -0.524,2.987 0,1.778 0.383,3.122 1.148,4.034 0.765,0.911 1.778,1.367 3.038,1.367z"/>
  <path id="_7_6" class="fil2" d="M247.134 84.923c-0.675,0 -1.193,-0.186 -1.553,-0.557 -0.36,-0.371 -0.54,-0.906 -0.54,-1.603l0 -12.759c0,-0.698 0.18,-1.227 0.54,-1.587 0.36,-0.36 0.866,-0.54 1.519,-0.54 0.652,0 1.159,0.18 1.519,0.54 0.36,0.36 0.54,0.889 0.54,1.587l0 2.464 -0.371 -1.013c0.45,-1.125 1.147,-2.014 2.092,-2.666 0.946,-0.653 2.071,-0.979 3.376,-0.979 1.327,0 2.419,0.315 3.274,0.945 0.855,0.63 1.451,1.598 1.789,2.903l-0.473 0c0.451,-1.193 1.193,-2.132 2.228,-2.819 1.035,-0.686 2.228,-1.029 3.578,-1.029 1.26,0 2.301,0.247 3.122,0.742 0.822,0.495 1.435,1.243 1.84,2.245 0.405,1.001 0.608,2.267 0.608,3.797l0 8.169c0,0.697 -0.186,1.232 -0.557,1.603 -0.372,0.371 -0.895,0.557 -1.57,0.557 -0.675,0 -1.193,-0.186 -1.552,-0.557 -0.361,-0.371 -0.54,-0.906 -0.54,-1.603l0 -8c0,-1.26 -0.209,-2.183 -0.625,-2.768 -0.416,-0.585 -1.12,-0.877 -2.11,-0.877 -1.102,0 -1.969,0.388 -2.599,1.164 -0.63,0.776 -0.945,1.851 -0.945,3.224l0 7.257c0,0.697 -0.18,1.232 -0.54,1.603 -0.36,0.371 -0.878,0.557 -1.553,0.557 -0.675,0 -1.198,-0.186 -1.569,-0.557 -0.372,-0.371 -0.557,-0.906 -0.557,-1.603l0 -8c0,-1.26 -0.208,-2.183 -0.625,-2.768 -0.416,-0.585 -1.108,-0.877 -2.076,-0.877 -1.102,0 -1.969,0.388 -2.599,1.164 -0.63,0.776 -0.945,1.851 -0.945,3.224l0 7.257c0,1.44 -0.709,2.16 -2.126,2.16z"/>
  <path id="_8_7" class="fil2" d="M282.711 84.991c-1.868,0 -3.477,-0.349 -4.827,-1.047 -1.35,-0.697 -2.391,-1.687 -3.122,-2.97 -0.732,-1.283 -1.097,-2.802 -1.097,-4.557 0,-1.71 0.354,-3.207 1.063,-4.489 0.709,-1.283 1.688,-2.29 2.937,-3.022 1.248,-0.731 2.672,-1.096 4.269,-1.096 1.171,0 2.223,0.191 3.157,0.573 0.934,0.383 1.732,0.934 2.396,1.654 0.664,0.72 1.17,1.593 1.519,2.617 0.349,1.023 0.523,2.177 0.523,3.459 0,0.405 -0.14,0.715 -0.421,0.929 -0.282,0.213 -0.681,0.32 -1.199,0.32l-10.835 0 0 -2.43 9.485 0 -0.54 0.506c0,-1.035 -0.152,-1.901 -0.456,-2.599 -0.304,-0.698 -0.743,-1.232 -1.316,-1.603 -0.574,-0.372 -1.289,-0.557 -2.144,-0.557 -0.945,0 -1.749,0.219 -2.413,0.658 -0.664,0.439 -1.17,1.058 -1.519,1.857 -0.349,0.798 -0.523,1.749 -0.523,2.852l0 0.236c0,1.845 0.433,3.223 1.299,4.135 0.867,0.911 2.144,1.367 3.831,1.367 0.585,0 1.244,-0.073 1.975,-0.219 0.731,-0.147 1.424,-0.4 2.076,-0.76 0.473,-0.27 0.889,-0.388 1.249,-0.354 0.36,0.033 0.647,0.163 0.861,0.388 0.214,0.225 0.343,0.501 0.388,0.827 0.045,0.326 -0.017,0.658 -0.186,0.996 -0.169,0.337 -0.456,0.63 -0.86,0.877 -0.788,0.495 -1.694,0.861 -2.718,1.097 -1.024,0.237 -1.974,0.355 -2.852,0.355z"/>
  <path id="_9_8" class="fil2" d="M294.964 84.923c-0.675,0 -1.193,-0.186 -1.553,-0.557 -0.36,-0.371 -0.54,-0.906 -0.54,-1.603l0 -12.759c0,-0.698 0.18,-1.227 0.54,-1.587 0.36,-0.36 0.866,-0.54 1.519,-0.54 0.653,0 1.159,0.18 1.519,0.54 0.36,0.36 0.54,0.889 0.54,1.587l0 2.295 -0.372 -0.844c0.496,-1.192 1.266,-2.098 2.313,-2.717 1.046,-0.619 2.233,-0.928 3.561,-0.928 1.328,0 2.419,0.247 3.274,0.742 0.855,0.495 1.496,1.243 1.924,2.245 0.428,1.001 0.642,2.267 0.642,3.797l0 8.169c0,0.697 -0.181,1.232 -0.54,1.603 -0.361,0.371 -0.878,0.557 -1.553,0.557 -0.676,0 -1.199,-0.186 -1.57,-0.557 -0.371,-0.371 -0.557,-0.906 -0.557,-1.603l0 -7.966c0,-1.283 -0.242,-2.217 -0.726,-2.802 -0.483,-0.585 -1.232,-0.877 -2.244,-0.877 -1.238,0 -2.223,0.388 -2.954,1.164 -0.731,0.776 -1.097,1.806 -1.097,3.089l0 7.392c0,1.44 -0.709,2.16 -2.126,2.16z"/>
  <path id="_10_9" class="fil2" d="M320.179 84.991c-1.463,0 -2.684,-0.248 -3.663,-0.743 -0.979,-0.495 -1.705,-1.221 -2.177,-2.177 -0.473,-0.957 -0.709,-2.143 -0.709,-3.561l0 -7.19 -1.755 0c-0.54,0 -0.957,-0.141 -1.249,-0.422 -0.293,-0.281 -0.439,-0.669 -0.439,-1.165 0,-0.517 0.146,-0.911 0.439,-1.181 0.292,-0.27 0.709,-0.405 1.249,-0.405l1.755 0 0 -3.071c0,-0.698 0.186,-1.227 0.557,-1.587 0.371,-0.36 0.895,-0.54 1.57,-0.54 0.675,0 1.192,0.18 1.553,0.54 0.36,0.36 0.54,0.889 0.54,1.587l0 3.071 3.578 0c0.54,0 0.956,0.135 1.249,0.405 0.292,0.27 0.438,0.664 0.438,1.181 0,0.496 -0.146,0.884 -0.438,1.165 -0.293,0.281 -0.709,0.422 -1.249,0.422l-3.578 0 0 6.954c0,1.079 0.236,1.89 0.708,2.43 0.473,0.54 1.238,0.81 2.296,0.81 0.383,0 0.72,-0.034 1.013,-0.101 0.292,-0.068 0.551,-0.113 0.776,-0.135 0.27,-0.023 0.495,0.062 0.675,0.253 0.18,0.191 0.27,0.579 0.27,1.164 0,0.45 -0.073,0.85 -0.219,1.199 -0.147,0.348 -0.411,0.59 -0.794,0.726 -0.292,0.089 -0.675,0.174 -1.147,0.253 -0.473,0.078 -0.889,0.118 -1.249,0.118z"/>
  <path id="_11_10" class="fil2" d="M342.693 84.991c-1.687,0 -3.15,-0.27 -4.388,-0.81 -1.237,-0.54 -2.188,-1.289 -2.852,-2.245 -0.664,-0.957 -0.996,-2.076 -0.996,-3.359 0,-0.765 0.107,-1.479 0.321,-2.143 0.214,-0.664 0.529,-1.283 0.945,-1.857 0.416,-0.573 0.923,-1.114 1.519,-1.62 0.596,-0.506 1.277,-0.984 2.042,-1.434l1.148 -0.675 -0.608 0.911c-0.99,-0.99 -1.704,-1.93 -2.143,-2.818 -0.439,-0.889 -0.658,-1.806 -0.658,-2.752 0,-1.125 0.27,-2.115 0.81,-2.97 0.54,-0.855 1.305,-1.519 2.295,-1.991 0.99,-0.473 2.149,-0.709 3.477,-0.709 1.845,0 3.308,0.467 4.388,1.4 1.08,0.934 1.62,2.2 1.62,3.798 0,0.855 -0.169,1.665 -0.506,2.43 -0.338,0.765 -0.878,1.496 -1.62,2.194 -0.743,0.698 -1.733,1.384 -2.971,2.059l0.034 -1.012 5.738 6.109 -0.911 0c0.292,-0.495 0.551,-1.041 0.776,-1.637 0.225,-0.596 0.422,-1.238 0.591,-1.924 0.169,-0.686 0.298,-1.401 0.388,-2.143 0.09,-0.563 0.281,-0.985 0.574,-1.266 0.293,-0.281 0.709,-0.422 1.249,-0.422 0.585,0 1.024,0.163 1.316,0.489 0.293,0.327 0.405,0.794 0.338,1.401 -0.113,1.058 -0.299,2.065 -0.557,3.021 -0.259,0.957 -0.58,1.846 -0.962,2.667 -0.383,0.821 -0.81,1.581 -1.283,2.278l-0.034 -1.046 3.207 3.24c0.428,0.428 0.641,0.856 0.641,1.283 0,0.427 -0.163,0.782 -0.489,1.063 -0.326,0.281 -0.771,0.422 -1.333,0.422 -0.495,0 -0.901,-0.096 -1.215,-0.287 -0.316,-0.191 -0.664,-0.478 -1.047,-0.86l-2.093 -2.194 0.979 0c-0.99,1.057 -2.154,1.89 -3.494,2.497 -1.338,0.608 -2.75,0.912 -4.236,0.912zm0.237 -3.342c1.08,0 2.042,-0.208 2.886,-0.625 0.844,-0.416 1.614,-1.04 2.312,-1.873l-0.101 1.08 -6.954 -7.189 1.755 0.168 -0.979 0.574c-0.765,0.45 -1.383,0.895 -1.856,1.333 -0.473,0.439 -0.816,0.912 -1.03,1.418 -0.213,0.507 -0.32,1.075 -0.32,1.705 0,1.058 0.371,1.89 1.114,2.498 0.742,0.607 1.8,0.911 3.173,0.911zm0.675 -18.126c-0.81,0 -1.463,0.23 -1.958,0.692 -0.495,0.461 -0.743,1.085 -0.743,1.873 0,0.428 0.068,0.827 0.203,1.199 0.135,0.371 0.371,0.776 0.709,1.215 0.337,0.439 0.799,0.973 1.384,1.603l-0.945 -0.068c0.945,-0.54 1.693,-1.024 2.244,-1.451 0.552,-0.427 0.951,-0.855 1.199,-1.283 0.247,-0.427 0.371,-0.9 0.371,-1.417 0,-0.765 -0.225,-1.351 -0.675,-1.756 -0.45,-0.405 -1.047,-0.607 -1.789,-0.607z"/>
  <path id="_12_11" class="fil2" d="M370.946 84.923c-0.698,0 -1.232,-0.197 -1.604,-0.59 -0.371,-0.394 -0.556,-0.94 -0.556,-1.638l0 -19.645c0,-0.72 0.191,-1.266 0.573,-1.637 0.383,-0.371 0.923,-0.557 1.621,-0.557l8.134 0c2.611,0 4.625,0.624 6.043,1.874 1.417,1.248 2.126,2.998 2.126,5.248 0,1.463 -0.32,2.723 -0.962,3.781 -0.641,1.057 -1.569,1.868 -2.785,2.43 -1.215,0.563 -2.689,0.844 -4.422,0.844l0.304 -0.506 1.114 0c0.923,0 1.727,0.225 2.414,0.675 0.686,0.45 1.288,1.159 1.806,2.126l2.531 4.692c0.27,0.473 0.394,0.934 0.372,1.384 -0.023,0.45 -0.192,0.816 -0.507,1.097 -0.315,0.281 -0.776,0.422 -1.384,0.422 -0.607,0 -1.102,-0.129 -1.485,-0.388 -0.383,-0.259 -0.72,-0.658 -1.013,-1.198l-3.409 -6.279c-0.405,-0.765 -0.883,-1.277 -1.434,-1.535 -0.552,-0.259 -1.255,-0.389 -2.11,-0.389l-3.207 0 0 7.561c0,0.698 -0.18,1.244 -0.54,1.638 -0.36,0.393 -0.9,0.59 -1.62,0.59zm2.16 -12.995l5.266 0c1.553,0 2.729,-0.321 3.527,-0.962 0.799,-0.642 1.199,-1.604 1.199,-2.886 0,-1.261 -0.4,-2.211 -1.199,-2.853 -0.798,-0.641 -1.974,-0.962 -3.527,-0.962l-5.266 0 0 7.663z"/>
  <path id="_13" class="fil2" d="M399.232 84.991c-1.867,0 -3.476,-0.349 -4.827,-1.047 -1.35,-0.697 -2.391,-1.687 -3.122,-2.97 -0.731,-1.283 -1.097,-2.802 -1.097,-4.557 0,-1.71 0.354,-3.207 1.063,-4.489 0.709,-1.283 1.688,-2.29 2.937,-3.022 1.249,-0.731 2.672,-1.096 4.27,-1.096 1.17,0 2.222,0.191 3.156,0.573 0.934,0.383 1.733,0.934 2.397,1.654 0.663,0.72 1.17,1.593 1.519,2.617 0.348,1.023 0.523,2.177 0.523,3.459 0,0.405 -0.141,0.715 -0.422,0.929 -0.282,0.213 -0.681,0.32 -1.199,0.32l-10.835 0 0 -2.43 9.485 0 -0.54 0.506c0,-1.035 -0.152,-1.901 -0.456,-2.599 -0.303,-0.698 -0.742,-1.232 -1.316,-1.603 -0.574,-0.372 -1.288,-0.557 -2.143,-0.557 -0.946,0 -1.75,0.219 -2.414,0.658 -0.664,0.439 -1.17,1.058 -1.519,1.857 -0.348,0.798 -0.523,1.749 -0.523,2.852l0 0.236c0,1.845 0.433,3.223 1.3,4.135 0.866,0.911 2.143,1.367 3.831,1.367 0.585,0 1.243,-0.073 1.975,-0.219 0.731,-0.147 1.423,-0.4 2.075,-0.76 0.473,-0.27 0.889,-0.388 1.249,-0.354 0.36,0.033 0.647,0.163 0.861,0.388 0.214,0.225 0.343,0.501 0.388,0.827 0.045,0.326 -0.017,0.658 -0.185,0.996 -0.169,0.337 -0.456,0.63 -0.861,0.877 -0.788,0.495 -1.694,0.861 -2.718,1.097 -1.023,0.237 -1.974,0.355 -2.852,0.355z"/>
  <path id="_14" class="fil2" d="M415.434 84.991c-0.967,0 -1.991,-0.102 -3.071,-0.304 -1.081,-0.203 -2.048,-0.551 -2.903,-1.046 -0.36,-0.226 -0.614,-0.49 -0.76,-0.794 -0.146,-0.304 -0.202,-0.607 -0.168,-0.911 0.033,-0.304 0.146,-0.568 0.337,-0.793 0.191,-0.226 0.439,-0.372 0.743,-0.439 0.303,-0.068 0.636,-0.011 0.995,0.168 0.901,0.428 1.745,0.727 2.532,0.895 0.788,0.169 1.564,0.253 2.329,0.253 1.08,0 1.885,-0.185 2.413,-0.557 0.529,-0.371 0.794,-0.86 0.794,-1.468 0,-0.518 -0.175,-0.917 -0.523,-1.198 -0.349,-0.281 -0.872,-0.49 -1.57,-0.625l-3.375 -0.641c-1.396,-0.27 -2.459,-0.782 -3.19,-1.536 -0.732,-0.754 -1.097,-1.727 -1.097,-2.92 0,-1.08 0.298,-2.014 0.894,-2.801 0.596,-0.788 1.423,-1.395 2.481,-1.823 1.058,-0.428 2.273,-0.641 3.646,-0.641 0.99,0 1.918,0.107 2.784,0.32 0.867,0.214 1.705,0.546 2.515,0.996 0.338,0.18 0.568,0.416 0.692,0.709 0.124,0.292 0.152,0.59 0.085,0.894 -0.068,0.304 -0.203,0.574 -0.406,0.81 -0.202,0.237 -0.455,0.383 -0.759,0.439 -0.304,0.056 -0.647,-0.005 -1.029,-0.185 -0.698,-0.36 -1.367,-0.619 -2.009,-0.777 -0.641,-0.157 -1.255,-0.236 -1.84,-0.236 -1.102,0 -1.918,0.191 -2.447,0.574 -0.529,0.382 -0.793,0.889 -0.793,1.519 0,0.472 0.157,0.866 0.473,1.181 0.315,0.315 0.798,0.529 1.451,0.642l3.375 0.641c1.463,0.27 2.572,0.765 3.325,1.485 0.754,0.72 1.131,1.688 1.131,2.903 0,1.643 -0.641,2.931 -1.924,3.865 -1.283,0.934 -2.993,1.401 -5.131,1.401z"/>
  <path id="_15" class="fil2" d="M434 84.991c-1.868,0 -3.477,-0.349 -4.828,-1.047 -1.35,-0.697 -2.391,-1.687 -3.122,-2.97 -0.731,-1.283 -1.097,-2.802 -1.097,-4.557 0,-1.71 0.354,-3.207 1.063,-4.489 0.709,-1.283 1.688,-2.29 2.937,-3.022 1.249,-0.731 2.672,-1.096 4.27,-1.096 1.17,0 2.222,0.191 3.156,0.573 0.934,0.383 1.733,0.934 2.397,1.654 0.663,0.72 1.17,1.593 1.519,2.617 0.349,1.023 0.523,2.177 0.523,3.459 0,0.405 -0.141,0.715 -0.422,0.929 -0.282,0.213 -0.681,0.32 -1.198,0.32l-10.836 0 0 -2.43 9.486 0 -0.541 0.506c0,-1.035 -0.152,-1.901 -0.455,-2.599 -0.304,-0.698 -0.743,-1.232 -1.317,-1.603 -0.574,-0.372 -1.288,-0.557 -2.143,-0.557 -0.945,0 -1.75,0.219 -2.414,0.658 -0.663,0.439 -1.17,1.058 -1.519,1.857 -0.348,0.798 -0.523,1.749 -0.523,2.852l0 0.236c0,1.845 0.433,3.223 1.3,4.135 0.866,0.911 2.143,1.367 3.831,1.367 0.585,0 1.243,-0.073 1.975,-0.219 0.731,-0.147 1.423,-0.4 2.075,-0.76 0.473,-0.27 0.889,-0.388 1.25,-0.354 0.359,0.033 0.646,0.163 0.86,0.388 0.214,0.225 0.343,0.501 0.388,0.827 0.045,0.326 -0.017,0.658 -0.185,0.996 -0.169,0.337 -0.456,0.63 -0.861,0.877 -0.788,0.495 -1.694,0.861 -2.717,1.097 -1.024,0.237 -1.975,0.355 -2.852,0.355z"/>
  <path id="_16" class="fil2" d="M449.594 84.991c-1.193,0 -2.256,-0.231 -3.19,-0.692 -0.934,-0.461 -1.665,-1.086 -2.194,-1.874 -0.529,-0.787 -0.793,-1.676 -0.793,-2.666 0,-1.215 0.315,-2.177 0.945,-2.886 0.63,-0.709 1.654,-1.221 3.072,-1.536 1.417,-0.315 3.319,-0.473 5.704,-0.473l1.688 0 0 2.431 -1.654 0c-1.395,0 -2.509,0.067 -3.342,0.202 -0.832,0.135 -1.423,0.366 -1.772,0.692 -0.349,0.327 -0.523,0.782 -0.523,1.367 0,0.743 0.259,1.35 0.776,1.823 0.518,0.472 1.238,0.709 2.161,0.709 0.742,0 1.4,-0.175 1.974,-0.523 0.574,-0.349 1.029,-0.827 1.367,-1.435 0.338,-0.608 0.506,-1.305 0.506,-2.093l0 -3.881c0,-1.126 -0.247,-1.936 -0.742,-2.431 -0.495,-0.495 -1.328,-0.742 -2.498,-0.742 -0.652,0 -1.356,0.078 -2.109,0.236 -0.754,0.157 -1.548,0.427 -2.38,0.81 -0.428,0.202 -0.805,0.259 -1.131,0.169 -0.326,-0.09 -0.58,-0.276 -0.76,-0.557 -0.179,-0.282 -0.269,-0.591 -0.269,-0.929 0,-0.337 0.09,-0.669 0.269,-0.995 0.18,-0.327 0.484,-0.569 0.912,-0.726 1.035,-0.428 2.031,-0.731 2.987,-0.911 0.957,-0.18 1.829,-0.27 2.616,-0.27 1.62,0 2.954,0.247 4,0.742 1.046,0.495 1.828,1.243 2.346,2.245 0.517,1.001 0.776,2.29 0.776,3.865l0 8.101c0,0.697 -0.169,1.232 -0.506,1.603 -0.338,0.371 -0.821,0.557 -1.451,0.557 -0.63,0 -1.12,-0.186 -1.469,-0.557 -0.349,-0.371 -0.523,-0.906 -0.523,-1.603l0 -1.62 0.27 0c-0.158,0.787 -0.467,1.468 -0.928,2.042 -0.461,0.574 -1.041,1.018 -1.738,1.333 -0.698,0.315 -1.497,0.473 -2.397,0.473z"/>
  <path id="_17" class="fil2" d="M464.783 84.923c-0.697,0 -1.232,-0.186 -1.603,-0.557 -0.371,-0.371 -0.557,-0.906 -0.557,-1.603l0 -12.759c0,-0.698 0.18,-1.227 0.54,-1.587 0.36,-0.36 0.866,-0.54 1.519,-0.54 0.653,0 1.159,0.18 1.519,0.54 0.36,0.36 0.54,0.889 0.54,1.587l0 2.126 -0.337 0c0.315,-1.35 0.934,-2.374 1.856,-3.072 0.923,-0.697 2.149,-1.113 3.679,-1.248 0.473,-0.045 0.85,0.073 1.131,0.354 0.281,0.281 0.445,0.715 0.49,1.3 0.045,0.562 -0.085,1.018 -0.389,1.367 -0.303,0.348 -0.759,0.557 -1.367,0.624l-0.742 0.068c-1.373,0.135 -2.408,0.556 -3.106,1.265 -0.697,0.709 -1.046,1.705 -1.046,2.988l0 6.987c0,0.697 -0.18,1.232 -0.54,1.603 -0.36,0.371 -0.889,0.557 -1.587,0.557z"/>
  <path id="_18" class="fil2" d="M483.214 84.991c-1.733,0 -3.241,-0.355 -4.523,-1.064 -1.283,-0.709 -2.273,-1.715 -2.971,-3.021 -0.697,-1.305 -1.046,-2.835 -1.046,-4.59 0,-1.328 0.197,-2.515 0.59,-3.561 0.394,-1.047 0.962,-1.936 1.705,-2.667 0.743,-0.731 1.643,-1.294 2.7,-1.688 1.058,-0.393 2.24,-0.59 3.545,-0.59 0.742,0 1.547,0.101 2.413,0.304 0.866,0.202 1.682,0.54 2.447,1.012 0.36,0.225 0.596,0.495 0.709,0.81 0.113,0.315 0.135,0.636 0.068,0.962 -0.068,0.326 -0.208,0.608 -0.422,0.844 -0.214,0.236 -0.479,0.382 -0.794,0.439 -0.315,0.056 -0.663,-0.017 -1.046,-0.22 -0.495,-0.292 -1.001,-0.512 -1.519,-0.658 -0.517,-0.146 -1.012,-0.219 -1.485,-0.219 -0.743,0 -1.395,0.118 -1.958,0.354 -0.562,0.237 -1.041,0.574 -1.434,1.013 -0.394,0.439 -0.692,0.985 -0.895,1.637 -0.203,0.653 -0.304,1.406 -0.304,2.262 0,1.665 0.4,2.976 1.199,3.932 0.798,0.956 1.929,1.434 3.392,1.434 0.473,0 0.962,-0.067 1.468,-0.202 0.507,-0.135 1.018,-0.349 1.536,-0.642 0.383,-0.202 0.726,-0.269 1.03,-0.202 0.304,0.068 0.556,0.219 0.759,0.456 0.203,0.236 0.326,0.518 0.371,0.844 0.045,0.326 0.006,0.647 -0.118,0.962 -0.123,0.315 -0.354,0.573 -0.692,0.776 -0.743,0.45 -1.53,0.776 -2.362,0.979 -0.833,0.202 -1.621,0.304 -2.363,0.304z"/>
  <path id="_19" class="fil2" d="M493.61 84.923c-0.675,0 -1.192,-0.186 -1.553,-0.557 -0.36,-0.371 -0.54,-0.906 -0.54,-1.603l0 -20.05c0,-0.698 0.18,-1.227 0.54,-1.587 0.361,-0.36 0.878,-0.54 1.553,-0.54 0.675,0 1.199,0.18 1.57,0.54 0.371,0.36 0.557,0.889 0.557,1.587l0 8.742 -0.473 0c0.495,-1.192 1.266,-2.098 2.313,-2.717 1.046,-0.619 2.233,-0.928 3.561,-0.928 1.327,0 2.419,0.247 3.274,0.742 0.855,0.495 1.496,1.243 1.924,2.245 0.427,1.001 0.641,2.267 0.641,3.797l0 8.169c0,0.697 -0.18,1.232 -0.54,1.603 -0.36,0.371 -0.877,0.557 -1.553,0.557 -0.675,0 -1.198,-0.186 -1.569,-0.557 -0.372,-0.371 -0.557,-0.906 -0.557,-1.603l0 -7.966c0,-1.283 -0.242,-2.217 -0.726,-2.802 -0.484,-0.585 -1.232,-0.877 -2.244,-0.877 -1.238,0 -2.223,0.388 -2.954,1.164 -0.731,0.776 -1.097,1.806 -1.097,3.089l0 7.392c0,1.44 -0.709,2.16 -2.127,2.16z"/>
 </g>
</svg>
