<?xml version="1.0" encoding="UTF-8"?>
<!DOCTYPE svg PUBLIC "-//W3C//DTD SVG 1.1//EN" "http://www.w3.org/Graphics/SVG/1.1/DTD/svg11.dtd">
<!-- Creator: CorelDRAW -->
<svg xmlns="http://www.w3.org/2000/svg" xml:space="preserve" width="450px" height="100px" version="1.1" style="shape-rendering:geometricPrecision; text-rendering:geometricPrecision; image-rendering:optimizeQuality; fill-rule:evenodd; clip-rule:evenodd"
viewBox="0 0 450 100"
 xmlns:xlink="http://www.w3.org/1999/xlink"
 xmlns:xodm="http://www.corel.com/coreldraw/odm/2003"
 data-bbox="34.67031463748292 10.150113921518994 442.6593707250342 491.69977215696196"
 sodipodi:docname="TXT.svg"
 inkscape:export-filename="../localzet/logo.svg"
 inkscape:export-xdpi="96"
 inkscape:export-ydpi="96"
 xmlns:inkscape="http://www.inkscape.org/namespaces/inkscape"
 xmlns:sodipodi="http://sodipodi.sourceforge.net/DTD/sodipodi-0.dtd"
 xmlns:svg="http://www.w3.org/2000/svg">
 <defs>
  <style type="text/css">
   <![CDATA[
    .str0 {stroke:#976ABC;stroke-miterlimit:22.9256}
    .str1 {stroke:#FF7E00;stroke-miterlimit:22.9256}
    .fil3 {fill:none;fill-rule:nonzero}
    .fil2 {fill:#FF7E00}
    .fil0 {fill:#8A6FAD;fill-rule:nonzero}
    .fil1 {fill:gray;fill-rule:nonzero}
   ]]>
  </style>
 </defs>
 <g id="Слой_x0020_1">
  <metadata id="CorelCorpID_0Corel-Layer"/>
  <path class="fil0" d="M110.064 49.63c-0.551,0 -0.998,-0.11 -1.342,-0.33 -0.344,-0.221 -0.579,-0.53 -0.702,-0.93 -0.124,-0.399 -0.124,-0.839 0,-1.321 0.123,-0.483 0.378,-0.985 0.764,-1.508l16.522 -22.883 0 1.445 -15.572 0c-0.634,0 -1.116,-0.158 -1.446,-0.475 -0.33,-0.317 -0.495,-0.764 -0.495,-1.342 0,-0.579 0.165,-1.019 0.495,-1.322 0.33,-0.303 0.812,-0.454 1.446,-0.454l17.555 0c0.551,0 1.005,0.11 1.363,0.33 0.358,0.22 0.599,0.523 0.722,0.909 0.124,0.385 0.124,0.826 0,1.322 -0.123,0.495 -0.378,1.005 -0.763,1.528l-16.564 22.883 0 -1.445 16.192 0c0.633,0 1.115,0.151 1.445,0.454 0.331,0.303 0.496,0.743 0.496,1.322 0,0.578 -0.165,1.025 -0.496,1.342 -0.33,0.317 -0.812,0.475 -1.445,0.475l-18.175 0z"/>
  <path id="_1" class="fil0" d="M141.828 50.002c-2.038,0 -3.793,-0.427 -5.266,-1.28 -1.474,-0.854 -2.623,-2.066 -3.449,-3.636 -0.826,-1.569 -1.24,-3.414 -1.24,-5.534 0,-1.625 0.234,-3.071 0.703,-4.338 0.468,-1.266 1.135,-2.361 2.003,-3.283 0.868,-0.923 1.914,-1.625 3.139,-2.107 1.226,-0.482 2.596,-0.723 4.11,-0.723 2.01,0 3.752,0.427 5.225,1.281 1.473,0.853 2.623,2.058 3.449,3.614 0.827,1.556 1.24,3.408 1.24,5.556 0,1.597 -0.235,3.043 -0.703,4.337 -0.468,1.294 -1.136,2.396 -2.003,3.304 -0.867,0.909 -1.914,1.604 -3.139,2.086 -1.226,0.482 -2.582,0.723 -4.069,0.723zm0 -3.222c1.129,0 2.121,-0.275 2.974,-0.826 0.854,-0.551 1.522,-1.363 2.004,-2.437 0.482,-1.074 0.722,-2.396 0.722,-3.965 0,-2.369 -0.523,-4.159 -1.569,-5.37 -1.047,-1.212 -2.423,-1.818 -4.131,-1.818 -1.157,0 -2.161,0.269 -3.015,0.806 -0.854,0.537 -1.522,1.342 -2.003,2.416 -0.482,1.074 -0.723,2.396 -0.723,3.966 0,2.34 0.523,4.13 1.569,5.369 1.047,1.24 2.437,1.859 4.172,1.859z"/>
  <path id="_2" class="fil0" d="M158.516 49.919c-0.688,0 -1.212,-0.186 -1.57,-0.557 -0.358,-0.372 -0.537,-0.888 -0.537,-1.549l0 -16.523c0,-0.688 0.179,-1.211 0.537,-1.569 0.358,-0.358 0.854,-0.537 1.487,-0.537 0.661,0 1.164,0.179 1.508,0.537 0.344,0.358 0.516,0.881 0.516,1.569l0 3.016 -0.413 0c0.441,-1.652 1.253,-2.905 2.437,-3.759 1.184,-0.854 2.699,-1.349 4.544,-1.487 0.496,-0.028 0.888,0.096 1.177,0.372 0.289,0.275 0.447,0.702 0.475,1.28 0.055,0.578 -0.069,1.04 -0.372,1.384 -0.303,0.344 -0.771,0.544 -1.404,0.599l-0.785 0.082c-1.79,0.166 -3.153,0.73 -4.089,1.694 -0.937,0.964 -1.405,2.286 -1.405,3.965l0 9.377c0,0.661 -0.172,1.177 -0.516,1.549 -0.344,0.371 -0.874,0.557 -1.59,0.557z"/>
  <path id="_3" class="fil0" d="M173.881 49.878c-0.661,0 -1.17,-0.199 -1.528,-0.599 -0.358,-0.399 -0.537,-0.957 -0.537,-1.673l0 -16.109c0,-0.716 0.179,-1.267 0.537,-1.652 0.358,-0.386 0.867,-0.579 1.528,-0.579 0.661,0 1.178,0.193 1.549,0.579 0.372,0.385 0.558,0.936 0.558,1.652l0 16.109c0,0.716 -0.179,1.274 -0.537,1.673 -0.358,0.4 -0.881,0.599 -1.57,0.599zm0 -24.907c-0.826,0 -1.466,-0.207 -1.92,-0.62 -0.455,-0.413 -0.682,-0.991 -0.682,-1.735 0,-0.771 0.227,-1.356 0.682,-1.755 0.454,-0.4 1.094,-0.599 1.92,-0.599 0.827,0 1.467,0.199 1.921,0.599 0.455,0.399 0.682,0.984 0.682,1.755 0,0.744 -0.227,1.322 -0.682,1.735 -0.454,0.413 -1.094,0.62 -1.921,0.62z"/>
  <path id="_4" class="fil0" d="M183.919 49.919c-0.661,0 -1.171,-0.186 -1.529,-0.557 -0.358,-0.372 -0.537,-0.888 -0.537,-1.549l0 -16.523c0,-0.688 0.179,-1.211 0.537,-1.569 0.358,-0.358 0.854,-0.537 1.488,-0.537 0.66,0 1.163,0.179 1.507,0.537 0.344,0.358 0.517,0.881 0.517,1.569l0 3.222 -0.455 -0.743c0.606,-1.542 1.556,-2.706 2.85,-3.49 1.294,-0.785 2.781,-1.178 4.461,-1.178 1.597,0 2.926,0.296 3.986,0.888 1.06,0.592 1.852,1.487 2.375,2.685 0.523,1.198 0.785,2.706 0.785,4.523l0 10.616c0,0.661 -0.179,1.177 -0.537,1.549 -0.358,0.371 -0.867,0.557 -1.528,0.557 -0.689,0 -1.212,-0.186 -1.57,-0.557 -0.358,-0.372 -0.537,-0.888 -0.537,-1.549l0 -10.368c0,-1.735 -0.337,-3.002 -1.012,-3.8 -0.674,-0.799 -1.728,-1.198 -3.16,-1.198 -1.679,0 -3.022,0.523 -4.027,1.57 -1.005,1.046 -1.508,2.451 -1.508,4.213l0 9.583c0,1.404 -0.702,2.106 -2.106,2.106z"/>
  <path id="_5" class="fil0" d="M219.153 49.919c-0.689,0 -1.219,-0.192 -1.591,-0.578 -0.372,-0.385 -0.557,-0.923 -0.557,-1.611l0 -25.031c0,-0.716 0.193,-1.26 0.578,-1.632 0.386,-0.371 0.922,-0.557 1.611,-0.557l9.872 0c3.139,0 5.562,0.777 7.27,2.333 1.707,1.556 2.561,3.738 2.561,6.547 0,2.837 -0.854,5.033 -2.561,6.588 -1.708,1.557 -4.131,2.334 -7.27,2.334l-7.765 0 0 9.418c0,0.688 -0.18,1.226 -0.537,1.611 -0.358,0.386 -0.895,0.578 -1.611,0.578zm2.148 -15.035l7.145 0c2.066,0 3.629,-0.461 4.689,-1.384 1.06,-0.922 1.59,-2.292 1.59,-4.11 0,-1.79 -0.53,-3.146 -1.59,-4.068 -1.06,-0.923 -2.623,-1.384 -4.689,-1.384l-7.145 0 0 10.946z"/>
  <path id="_6" class="fil0" d="M244.762 49.919c-0.688,0 -1.212,-0.186 -1.57,-0.557 -0.358,-0.372 -0.537,-0.888 -0.537,-1.549l0 -16.523c0,-0.688 0.179,-1.211 0.537,-1.569 0.358,-0.358 0.854,-0.537 1.488,-0.537 0.66,0 1.163,0.179 1.507,0.537 0.344,0.358 0.517,0.881 0.517,1.569l0 3.016 -0.414 0c0.441,-1.652 1.253,-2.905 2.438,-3.759 1.184,-0.854 2.698,-1.349 4.543,-1.487 0.496,-0.028 0.888,0.096 1.178,0.372 0.289,0.275 0.447,0.702 0.475,1.28 0.055,0.578 -0.069,1.04 -0.372,1.384 -0.303,0.344 -0.771,0.544 -1.404,0.599l-0.785 0.082c-1.791,0.166 -3.154,0.73 -4.09,1.694 -0.936,0.964 -1.404,2.286 -1.404,3.965l0 9.377c0,0.661 -0.173,1.177 -0.517,1.549 -0.344,0.371 -0.874,0.557 -1.59,0.557z"/>
  <path id="_7" class="fil0" d="M266.531 50.002c-2.038,0 -3.794,-0.427 -5.267,-1.28 -1.473,-0.854 -2.623,-2.066 -3.449,-3.636 -0.826,-1.569 -1.239,-3.414 -1.239,-5.534 0,-1.625 0.234,-3.071 0.702,-4.338 0.468,-1.266 1.136,-2.361 2.003,-3.283 0.868,-0.923 1.914,-1.625 3.139,-2.107 1.226,-0.482 2.596,-0.723 4.111,-0.723 2.01,0 3.751,0.427 5.224,1.281 1.474,0.853 2.623,2.058 3.45,3.614 0.826,1.556 1.239,3.408 1.239,5.556 0,1.597 -0.234,3.043 -0.702,4.337 -0.469,1.294 -1.136,2.396 -2.004,3.304 -0.867,0.909 -1.913,1.604 -3.139,2.086 -1.225,0.482 -2.582,0.723 -4.068,0.723zm0 -3.222c1.129,0 2.12,-0.275 2.973,-0.826 0.854,-0.551 1.522,-1.363 2.004,-2.437 0.482,-1.074 0.723,-2.396 0.723,-3.965 0,-2.369 -0.524,-4.159 -1.57,-5.37 -1.046,-1.212 -2.423,-1.818 -4.13,-1.818 -1.157,0 -2.162,0.269 -3.016,0.806 -0.853,0.537 -1.521,1.342 -2.003,2.416 -0.482,1.074 -0.723,2.396 -0.723,3.966 0,2.34 0.523,4.13 1.569,5.369 1.047,1.24 2.437,1.859 4.173,1.859z"/>
  <path id="_8" class="fil0" d="M277.89 57.478c-0.496,0.028 -0.902,-0.055 -1.219,-0.248 -0.317,-0.192 -0.537,-0.44 -0.661,-0.743 -0.124,-0.303 -0.165,-0.613 -0.124,-0.929 0.042,-0.317 0.179,-0.593 0.413,-0.827 0.235,-0.234 0.544,-0.364 0.93,-0.392 1.376,-0.083 2.389,-0.454 3.036,-1.115 0.647,-0.661 0.97,-1.707 0.97,-3.14l0 -18.794c0,-0.688 0.186,-1.211 0.558,-1.569 0.372,-0.358 0.888,-0.537 1.549,-0.537 0.688,0 1.205,0.179 1.549,0.537 0.344,0.358 0.516,0.881 0.516,1.569l0 18.464c0,1.707 -0.282,3.119 -0.847,4.234 -0.564,1.115 -1.397,1.948 -2.499,2.499 -1.101,0.551 -2.492,0.881 -4.171,0.991zm5.452 -32.507c-0.826,0 -1.466,-0.207 -1.921,-0.62 -0.454,-0.413 -0.681,-0.991 -0.681,-1.735 0,-0.771 0.227,-1.356 0.681,-1.755 0.455,-0.4 1.095,-0.599 1.921,-0.599 0.826,0 1.46,0.199 1.9,0.599 0.441,0.399 0.661,0.984 0.661,1.755 0,0.744 -0.22,1.322 -0.661,1.735 -0.44,0.413 -1.074,0.62 -1.9,0.62z"/>
  <path id="_9" class="fil0" d="M300.732 50.002c-2.203,0 -4.096,-0.42 -5.68,-1.26 -1.583,-0.84 -2.808,-2.038 -3.676,-3.594 -0.867,-1.555 -1.301,-3.407 -1.301,-5.555 0,-2.093 0.427,-3.924 1.28,-5.494 0.854,-1.569 2.024,-2.795 3.512,-3.676 1.486,-0.881 3.18,-1.322 5.08,-1.322 1.404,0 2.657,0.227 3.759,0.682 1.101,0.454 2.044,1.115 2.829,1.982 0.785,0.868 1.377,1.921 1.776,3.16 0.4,1.239 0.599,2.63 0.599,4.172 0,0.468 -0.137,0.819 -0.413,1.053 -0.275,0.235 -0.688,0.351 -1.239,0.351l-13.879 0 0 -2.561 12.723 0 -0.703 0.579c0,-1.377 -0.199,-2.547 -0.599,-3.511 -0.399,-0.964 -0.991,-1.701 -1.776,-2.21 -0.785,-0.509 -1.755,-0.764 -2.912,-0.764 -1.294,0 -2.389,0.303 -3.284,0.909 -0.895,0.606 -1.576,1.445 -2.044,2.519 -0.469,1.074 -0.702,2.327 -0.702,3.759l0 0.248c0,2.423 0.571,4.248 1.714,5.473 1.142,1.225 2.802,1.838 4.977,1.838 0.826,0 1.701,-0.11 2.623,-0.33 0.922,-0.221 1.797,-0.593 2.623,-1.116 0.468,-0.275 0.888,-0.399 1.26,-0.372 0.371,0.028 0.675,0.152 0.908,0.372 0.234,0.221 0.379,0.496 0.434,0.827 0.055,0.33 0,0.667 -0.165,1.011 -0.165,0.345 -0.454,0.655 -0.868,0.93 -0.936,0.633 -2.024,1.108 -3.263,1.425 -1.239,0.317 -2.437,0.475 -3.593,0.475z"/>
  <path id="_10" class="fil0" d="M322.335 50.002c-2.066,0 -3.849,-0.434 -5.349,-1.301 -1.501,-0.868 -2.665,-2.093 -3.491,-3.677 -0.826,-1.583 -1.239,-3.448 -1.239,-5.596 0,-1.598 0.234,-3.036 0.702,-4.317 0.469,-1.28 1.136,-2.361 2.004,-3.242 0.867,-0.881 1.927,-1.563 3.18,-2.045 1.253,-0.482 2.651,-0.723 4.193,-0.723 0.963,0 1.976,0.145 3.036,0.434 1.06,0.289 2.044,0.764 2.953,1.425 0.358,0.22 0.585,0.489 0.682,0.805 0.096,0.317 0.11,0.641 0.041,0.971 -0.069,0.331 -0.22,0.613 -0.455,0.847 -0.234,0.234 -0.516,0.372 -0.846,0.413 -0.331,0.041 -0.688,-0.048 -1.074,-0.269 -0.661,-0.468 -1.336,-0.805 -2.024,-1.011 -0.689,-0.207 -1.35,-0.31 -1.983,-0.31 -0.991,0 -1.866,0.158 -2.623,0.475 -0.757,0.317 -1.397,0.771 -1.92,1.363 -0.523,0.592 -0.916,1.329 -1.178,2.21 -0.261,0.881 -0.392,1.886 -0.392,3.015 0,2.258 0.53,4.027 1.59,5.308 1.061,1.28 2.568,1.921 4.523,1.921 0.633,0 1.294,-0.097 1.983,-0.29 0.688,-0.192 1.363,-0.523 2.024,-0.991 0.386,-0.22 0.743,-0.303 1.074,-0.248 0.33,0.055 0.599,0.2 0.805,0.434 0.207,0.234 0.345,0.509 0.413,0.826 0.069,0.317 0.049,0.64 -0.062,0.97 -0.11,0.331 -0.344,0.606 -0.702,0.827 -0.881,0.633 -1.838,1.087 -2.87,1.363 -1.033,0.275 -2.032,0.413 -2.995,0.413z"/>
  <path id="_11" class="fil0" d="M341.377 50.002c-1.652,0 -3.043,-0.289 -4.172,-0.867 -1.129,-0.579 -1.969,-1.432 -2.52,-2.561 -0.55,-1.13 -0.826,-2.506 -0.826,-4.131l0 -9.748 -2.478 0c-0.551,0 -0.978,-0.145 -1.281,-0.434 -0.303,-0.289 -0.454,-0.682 -0.454,-1.177 0,-0.523 0.151,-0.923 0.454,-1.198 0.303,-0.275 0.73,-0.413 1.281,-0.413l2.478 0 0 -4.254c0,-0.689 0.186,-1.212 0.558,-1.57 0.372,-0.358 0.888,-0.537 1.549,-0.537 0.661,0 1.17,0.179 1.528,0.537 0.358,0.358 0.537,0.881 0.537,1.57l0 4.254 4.833 0c0.551,0 0.977,0.138 1.28,0.413 0.303,0.275 0.455,0.675 0.455,1.198 0,0.495 -0.152,0.888 -0.455,1.177 -0.303,0.289 -0.729,0.434 -1.28,0.434l-4.833 0 0 9.418c0,1.459 0.31,2.56 0.929,3.304 0.62,0.744 1.632,1.115 3.037,1.115 0.495,0 0.929,-0.048 1.3,-0.144 0.372,-0.097 0.682,-0.159 0.93,-0.186 0.303,0 0.55,0.103 0.743,0.31 0.193,0.206 0.289,0.598 0.289,1.177 0,0.413 -0.075,0.798 -0.227,1.157 -0.151,0.357 -0.42,0.591 -0.805,0.701 -0.331,0.111 -0.778,0.214 -1.343,0.31 -0.564,0.097 -1.067,0.145 -1.507,0.145z"/>
  <path id="_12" class="fil0" d="M354.925 50.002c-1.212,0 -2.458,-0.138 -3.738,-0.413 -1.281,-0.276 -2.458,-0.743 -3.532,-1.405 -0.358,-0.247 -0.606,-0.523 -0.743,-0.826 -0.138,-0.302 -0.186,-0.612 -0.145,-0.929 0.042,-0.317 0.165,-0.592 0.372,-0.826 0.206,-0.234 0.468,-0.379 0.785,-0.434 0.316,-0.055 0.654,0.014 1.012,0.207 1.073,0.605 2.106,1.025 3.098,1.26 0.991,0.234 1.969,0.351 2.932,0.351 1.46,0 2.561,-0.262 3.305,-0.785 0.743,-0.523 1.115,-1.226 1.115,-2.107 0,-0.716 -0.248,-1.273 -0.743,-1.673 -0.496,-0.399 -1.24,-0.709 -2.231,-0.929l-3.924 -0.785c-1.707,-0.358 -3.002,-0.991 -3.883,-1.9 -0.881,-0.909 -1.322,-2.065 -1.322,-3.47 0,-1.266 0.345,-2.368 1.033,-3.304 0.689,-0.936 1.652,-1.659 2.892,-2.169 1.239,-0.509 2.671,-0.764 4.295,-0.764 1.212,0 2.355,0.152 3.429,0.455 1.074,0.302 2.065,0.757 2.974,1.363 0.358,0.193 0.592,0.447 0.702,0.764 0.11,0.316 0.131,0.626 0.062,0.929 -0.069,0.303 -0.213,0.572 -0.434,0.805 -0.22,0.235 -0.489,0.372 -0.805,0.414 -0.317,0.041 -0.668,-0.035 -1.054,-0.228 -0.826,-0.523 -1.645,-0.895 -2.457,-1.115 -0.813,-0.22 -1.618,-0.33 -2.417,-0.33 -1.459,0 -2.554,0.268 -3.284,0.805 -0.729,0.537 -1.094,1.26 -1.094,2.169 0,0.688 0.22,1.253 0.661,1.693 0.441,0.441 1.129,0.758 2.065,0.95l3.924 0.785c1.79,0.358 3.146,0.964 4.069,1.817 0.922,0.854 1.384,2.011 1.384,3.47 0,1.9 -0.758,3.401 -2.272,4.503 -1.515,1.101 -3.525,1.652 -6.031,1.652z"/>
  <path id="_13" class="fil0" d="M388.919 50.002c-1.266,0 -2.505,-0.096 -3.717,-0.289 -1.212,-0.193 -2.354,-0.489 -3.429,-0.888 -1.073,-0.4 -2.037,-0.888 -2.891,-1.467 -0.413,-0.302 -0.695,-0.647 -0.847,-1.032 -0.151,-0.386 -0.192,-0.765 -0.124,-1.136 0.069,-0.372 0.228,-0.695 0.476,-0.971 0.248,-0.275 0.55,-0.447 0.908,-0.516 0.358,-0.069 0.758,0.048 1.198,0.351 1.239,0.798 2.547,1.384 3.924,1.755 1.377,0.372 2.878,0.558 4.502,0.558 2.341,0 4.069,-0.42 5.184,-1.26 1.116,-0.84 1.673,-1.934 1.673,-3.283 0,-1.102 -0.399,-1.976 -1.198,-2.623 -0.798,-0.648 -2.134,-1.164 -4.006,-1.55l-4.42 -0.908c-2.616,-0.551 -4.564,-1.46 -5.845,-2.726 -1.28,-1.267 -1.92,-2.975 -1.92,-5.122 0,-1.295 0.268,-2.479 0.805,-3.552 0.537,-1.075 1.287,-2.004 2.251,-2.789 0.964,-0.785 2.12,-1.383 3.47,-1.796 1.349,-0.414 2.822,-0.62 4.419,-0.62 1.708,0 3.312,0.22 4.813,0.661 1.5,0.44 2.843,1.115 4.027,2.024 0.358,0.248 0.599,0.557 0.723,0.929 0.124,0.372 0.151,0.737 0.082,1.095 -0.068,0.358 -0.227,0.661 -0.475,0.909 -0.248,0.247 -0.564,0.392 -0.95,0.433 -0.385,0.041 -0.812,-0.089 -1.28,-0.392 -1.074,-0.716 -2.169,-1.233 -3.284,-1.549 -1.115,-0.317 -2.347,-0.475 -3.697,-0.475 -1.349,0 -2.526,0.206 -3.531,0.619 -1.006,0.413 -1.777,0.992 -2.313,1.735 -0.537,0.744 -0.806,1.625 -0.806,2.644 0,1.156 0.372,2.079 1.115,2.767 0.744,0.689 1.983,1.212 3.718,1.57l4.378 0.909c2.754,0.578 4.806,1.473 6.155,2.685 1.349,1.211 2.024,2.822 2.024,4.832 0,1.295 -0.262,2.458 -0.785,3.49 -0.523,1.033 -1.267,1.921 -2.23,2.665 -0.964,0.743 -2.128,1.315 -3.491,1.714 -1.363,0.399 -2.898,0.599 -4.606,0.599z"/>
  <path id="_14" class="fil0" d="M406.061 49.795c-0.798,0 -1.446,-0.248 -1.941,-0.743 -0.496,-0.496 -0.744,-1.129 -0.744,-1.9 0,-0.771 0.248,-1.398 0.744,-1.88 0.495,-0.482 1.143,-0.722 1.941,-0.722 0.799,0 1.432,0.24 1.9,0.722 0.468,0.482 0.703,1.109 0.703,1.88 0,0.771 -0.235,1.404 -0.703,1.9 -0.468,0.495 -1.101,0.743 -1.9,0.743z"/>
  <path id="_15" class="fil0" d="M416.429 49.919c-0.689,0 -1.218,-0.192 -1.59,-0.578 -0.372,-0.385 -0.558,-0.923 -0.558,-1.611l0 -25.031c0,-0.716 0.193,-1.26 0.578,-1.632 0.386,-0.371 0.923,-0.557 1.611,-0.557l9.872 0c3.14,0 5.563,0.777 7.27,2.333 1.708,1.556 2.561,3.738 2.561,6.547 0,2.837 -0.853,5.033 -2.561,6.588 -1.707,1.557 -4.13,2.334 -7.27,2.334l-7.765 0 0 9.418c0,0.688 -0.179,1.226 -0.537,1.611 -0.358,0.386 -0.895,0.578 -1.611,0.578zm2.148 -15.035l7.146 0c2.065,0 3.628,-0.461 4.688,-1.384 1.06,-0.922 1.59,-2.292 1.59,-4.11 0,-1.79 -0.53,-3.146 -1.59,-4.068 -1.06,-0.923 -2.623,-1.384 -4.688,-1.384l-7.146 0 0 10.946z"/>
  <path id="_16" class="fil0" d="M440.221 49.795c-0.798,0 -1.446,-0.248 -1.941,-0.743 -0.496,-0.496 -0.744,-1.129 -0.744,-1.9 0,-0.771 0.248,-1.398 0.744,-1.88 0.495,-0.482 1.143,-0.722 1.941,-0.722 0.798,0 1.432,0.24 1.9,0.722 0.468,0.482 0.702,1.109 0.702,1.88 0,0.771 -0.234,1.404 -0.702,1.9 -0.468,0.495 -1.102,0.743 -1.9,0.743z"/>
  <path class="fil1" d="M113.207 79.331c-0.483,0 -0.853,-0.141 -1.111,-0.422 -0.257,-0.281 -0.386,-0.67 -0.386,-1.169l0 -13.011 -4.559 0c-0.405,0 -0.721,-0.116 -0.947,-0.349 -0.226,-0.233 -0.339,-0.55 -0.339,-0.952 0,-0.418 0.113,-0.735 0.339,-0.952 0.226,-0.217 0.542,-0.325 0.947,-0.325l12.112 0c0.405,0 0.721,0.108 0.947,0.325 0.226,0.217 0.339,0.534 0.339,0.952 0,0.402 -0.113,0.719 -0.339,0.952 -0.226,0.233 -0.542,0.349 -0.947,0.349l-4.56 0 0 13.011c0,0.499 -0.124,0.888 -0.374,1.169 -0.249,0.281 -0.623,0.422 -1.122,0.422z"/>
  <path id="_1_0" class="fil1" d="M125.787 79.379c-1.295,0 -2.409,-0.249 -3.344,-0.747 -0.936,-0.498 -1.656,-1.205 -2.163,-2.12 -0.507,-0.916 -0.76,-2 -0.76,-3.253 0,-1.221 0.246,-2.289 0.737,-3.205 0.491,-0.915 1.169,-1.634 2.034,-2.156 0.865,-0.522 1.851,-0.783 2.958,-0.783 0.81,0 1.539,0.136 2.186,0.409 0.647,0.274 1.2,0.667 1.66,1.181 0.46,0.514 0.811,1.137 1.052,1.868 0.242,0.73 0.363,1.553 0.363,2.469 0,0.289 -0.098,0.51 -0.292,0.663 -0.196,0.152 -0.472,0.229 -0.831,0.229l-7.505 0 0 -1.735 6.57 0 -0.374 0.361c0,-0.739 -0.105,-1.357 -0.315,-1.855 -0.211,-0.498 -0.515,-0.88 -0.913,-1.145 -0.397,-0.265 -0.892,-0.397 -1.484,-0.397 -0.655,0 -1.212,0.156 -1.672,0.47 -0.46,0.313 -0.811,0.755 -1.052,1.325 -0.242,0.57 -0.363,1.249 -0.363,2.036l0 0.169c0,1.317 0.3,2.301 0.9,2.951 0.601,0.651 1.485,0.976 2.654,0.976 0.406,0 0.861,-0.052 1.368,-0.157 0.507,-0.104 0.986,-0.285 1.438,-0.542 0.328,-0.193 0.616,-0.277 0.865,-0.253 0.25,0.024 0.448,0.117 0.597,0.277 0.148,0.161 0.237,0.358 0.268,0.591 0.032,0.232 -0.011,0.469 -0.128,0.711 -0.117,0.24 -0.316,0.449 -0.596,0.626 -0.546,0.353 -1.173,0.614 -1.882,0.783 -0.71,0.169 -1.369,0.253 -1.976,0.253z"/>
  <path id="_2_1" class="fil1" d="M138.109 79.379c-1.2,0 -2.245,-0.253 -3.133,-0.759 -0.889,-0.506 -1.575,-1.225 -2.058,-2.156 -0.483,-0.932 -0.725,-2.024 -0.725,-3.277 0,-0.948 0.136,-1.795 0.409,-2.542 0.273,-0.747 0.667,-1.382 1.181,-1.904 0.515,-0.522 1.138,-0.923 1.871,-1.205 0.732,-0.281 1.551,-0.421 2.455,-0.421 0.514,0 1.071,0.072 1.672,0.217 0.6,0.144 1.165,0.385 1.695,0.723 0.249,0.16 0.413,0.353 0.491,0.578 0.078,0.225 0.093,0.453 0.047,0.686 -0.047,0.233 -0.144,0.434 -0.293,0.603 -0.148,0.169 -0.331,0.273 -0.549,0.313 -0.218,0.04 -0.46,-0.012 -0.725,-0.156 -0.343,-0.209 -0.694,-0.366 -1.052,-0.471 -0.359,-0.104 -0.702,-0.156 -1.029,-0.156 -0.514,0 -0.966,0.084 -1.356,0.253 -0.39,0.169 -0.721,0.409 -0.994,0.723 -0.273,0.313 -0.479,0.702 -0.62,1.168 -0.14,0.466 -0.21,1.004 -0.21,1.615 0,1.188 0.277,2.124 0.83,2.807 0.554,0.683 1.337,1.024 2.35,1.024 0.327,0 0.667,-0.048 1.017,-0.145 0.351,-0.096 0.705,-0.249 1.064,-0.458 0.265,-0.144 0.503,-0.192 0.713,-0.144 0.211,0.048 0.386,0.157 0.526,0.325 0.141,0.169 0.226,0.37 0.258,0.603 0.031,0.232 0.003,0.461 -0.082,0.686 -0.086,0.225 -0.246,0.41 -0.48,0.554 -0.514,0.322 -1.06,0.555 -1.636,0.699 -0.577,0.145 -1.123,0.217 -1.637,0.217z"/>
  <path id="_3_2" class="fil1" d="M145.31 79.331c-0.467,0 -0.826,-0.133 -1.075,-0.398 -0.25,-0.265 -0.374,-0.646 -0.374,-1.144l0 -14.313c0,-0.498 0.124,-0.875 0.374,-1.132 0.249,-0.257 0.608,-0.385 1.075,-0.385 0.468,0 0.83,0.128 1.087,0.385 0.258,0.257 0.386,0.634 0.386,1.132l0 6.241 -0.327 0c0.343,-0.851 0.877,-1.498 1.602,-1.94 0.724,-0.441 1.547,-0.662 2.467,-0.662 0.919,0 1.675,0.177 2.268,0.53 0.592,0.353 1.036,0.887 1.332,1.602 0.296,0.715 0.445,1.618 0.445,2.711l0 5.831c0,0.498 -0.125,0.879 -0.375,1.144 -0.249,0.265 -0.608,0.398 -1.075,0.398 -0.468,0 -0.83,-0.133 -1.087,-0.398 -0.257,-0.265 -0.386,-0.646 -0.386,-1.144l0 -5.687c0,-0.915 -0.168,-1.582 -0.503,-2 -0.335,-0.417 -0.854,-0.626 -1.555,-0.626 -0.857,0 -1.539,0.277 -2.046,0.831 -0.506,0.555 -0.76,1.289 -0.76,2.205l0 5.277c0,1.028 -0.491,1.542 -1.473,1.542z"/>
  <path id="_4_3" class="fil1" d="M158.989 79.331c-0.468,0 -0.827,-0.133 -1.076,-0.398 -0.249,-0.265 -0.374,-0.646 -0.374,-1.144l0 -9.108c0,-0.498 0.125,-0.875 0.374,-1.132 0.249,-0.257 0.6,-0.386 1.053,-0.386 0.451,0 0.802,0.129 1.051,0.386 0.25,0.257 0.375,0.634 0.375,1.132l0 1.638 -0.258 -0.602c0.343,-0.851 0.877,-1.498 1.602,-1.94 0.725,-0.441 1.547,-0.662 2.467,-0.662 0.919,0 1.676,0.177 2.268,0.53 0.592,0.353 1.037,0.887 1.333,1.602 0.296,0.715 0.444,1.618 0.444,2.711l0 5.831c0,0.498 -0.125,0.879 -0.374,1.144 -0.25,0.265 -0.608,0.398 -1.076,0.398 -0.468,0 -0.83,-0.133 -1.087,-0.398 -0.257,-0.265 -0.386,-0.646 -0.386,-1.144l0 -5.687c0,-0.915 -0.167,-1.582 -0.503,-2 -0.335,-0.417 -0.853,-0.626 -1.554,-0.626 -0.858,0 -1.54,0.277 -2.046,0.831 -0.507,0.555 -0.76,1.289 -0.76,2.205l0 5.277c0,1.028 -0.491,1.542 -1.473,1.542z"/>
  <path id="_5_4" class="fil1" d="M176.432 79.379c-1.185,0 -2.214,-0.249 -3.087,-0.747 -0.873,-0.498 -1.551,-1.209 -2.034,-2.132 -0.483,-0.924 -0.725,-2.012 -0.725,-3.265 0,-0.948 0.136,-1.795 0.409,-2.542 0.273,-0.747 0.666,-1.39 1.181,-1.928 0.514,-0.538 1.13,-0.947 1.847,-1.229 0.717,-0.281 1.52,-0.421 2.409,-0.421 1.184,0 2.213,0.249 3.086,0.747 0.873,0.498 1.551,1.204 2.034,2.12 0.483,0.916 0.725,2 0.725,3.253 0,0.948 -0.137,1.799 -0.409,2.554 -0.273,0.755 -0.667,1.401 -1.181,1.94 -0.515,0.538 -1.13,0.947 -1.847,1.228 -0.717,0.282 -1.52,0.422 -2.408,0.422zm0 -2.289c0.576,0 1.083,-0.144 1.519,-0.434 0.437,-0.289 0.776,-0.718 1.017,-1.289 0.242,-0.57 0.363,-1.281 0.363,-2.132 0,-1.285 -0.265,-2.245 -0.795,-2.879 -0.53,-0.635 -1.232,-0.952 -2.104,-0.952 -0.577,0 -1.084,0.14 -1.521,0.421 -0.436,0.282 -0.775,0.707 -1.017,1.277 -0.241,0.571 -0.362,1.281 -0.362,2.133 0,1.269 0.265,2.229 0.795,2.879 0.53,0.651 1.231,0.976 2.105,0.976z"/>
  <path id="_6_5" class="fil1" d="M188.59 79.379c-1.293,0 -2.268,-0.382 -2.922,-1.145 -0.655,-0.762 -0.982,-1.883 -0.982,-3.361l0 -11.397c0,-0.498 0.124,-0.875 0.374,-1.132 0.249,-0.257 0.608,-0.385 1.075,-0.385 0.468,0 0.83,0.128 1.087,0.385 0.257,0.257 0.386,0.634 0.386,1.132l0 11.253c0,0.739 0.152,1.285 0.456,1.638 0.304,0.354 0.737,0.53 1.298,0.53 0.124,0 0.242,-0.004 0.35,-0.012 0.11,-0.008 0.219,-0.02 0.328,-0.036 0.218,-0.032 0.366,0.028 0.444,0.181 0.078,0.153 0.117,0.462 0.117,0.927 0,0.402 -0.078,0.715 -0.234,0.94 -0.156,0.225 -0.413,0.362 -0.771,0.41 -0.156,0.016 -0.32,0.032 -0.491,0.048 -0.172,0.016 -0.343,0.024 -0.515,0.024z"/>
  <path id="_7_6" class="fil1" d="M197.242 79.379c-1.185,0 -2.214,-0.249 -3.087,-0.747 -0.873,-0.498 -1.551,-1.209 -2.034,-2.132 -0.483,-0.924 -0.725,-2.012 -0.725,-3.265 0,-0.948 0.136,-1.795 0.409,-2.542 0.273,-0.747 0.667,-1.39 1.181,-1.928 0.515,-0.538 1.13,-0.947 1.847,-1.229 0.717,-0.281 1.52,-0.421 2.409,-0.421 1.184,0 2.213,0.249 3.086,0.747 0.873,0.498 1.551,1.204 2.035,2.12 0.483,0.916 0.724,2 0.724,3.253 0,0.948 -0.136,1.799 -0.409,2.554 -0.273,0.755 -0.667,1.401 -1.181,1.94 -0.514,0.538 -1.13,0.947 -1.847,1.228 -0.717,0.282 -1.52,0.422 -2.408,0.422zm0 -2.289c0.576,0 1.083,-0.144 1.519,-0.434 0.437,-0.289 0.776,-0.718 1.017,-1.289 0.242,-0.57 0.363,-1.281 0.363,-2.132 0,-1.285 -0.265,-2.245 -0.795,-2.879 -0.53,-0.635 -1.232,-0.952 -2.104,-0.952 -0.577,0 -1.084,0.14 -1.52,0.421 -0.437,0.282 -0.776,0.707 -1.017,1.277 -0.242,0.571 -0.363,1.281 -0.363,2.133 0,1.269 0.265,2.229 0.796,2.879 0.529,0.651 1.231,0.976 2.104,0.976z"/>
  <path id="_8_7" class="fil1" d="M210.827 83.716c-0.842,0 -1.656,-0.08 -2.444,-0.241 -0.787,-0.161 -1.5,-0.41 -2.139,-0.747 -0.296,-0.16 -0.495,-0.353 -0.596,-0.578 -0.102,-0.225 -0.133,-0.454 -0.094,-0.687 0.039,-0.233 0.133,-0.437 0.281,-0.614 0.148,-0.177 0.331,-0.297 0.549,-0.362 0.218,-0.064 0.445,-0.032 0.678,0.097 0.686,0.353 1.337,0.582 1.952,0.686 0.617,0.105 1.143,0.157 1.579,0.157 1.044,0 1.828,-0.261 2.35,-0.783 0.522,-0.522 0.783,-1.297 0.783,-2.325l0 -2.169 0.211 0c-0.234,0.819 -0.722,1.474 -1.462,1.964 -0.74,0.49 -1.578,0.735 -2.513,0.735 -1.029,0 -1.926,-0.245 -2.689,-0.735 -0.764,-0.49 -1.357,-1.177 -1.777,-2.06 -0.421,-0.884 -0.631,-1.912 -0.631,-3.084 0,-0.884 0.12,-1.683 0.362,-2.397 0.241,-0.716 0.584,-1.33 1.029,-1.844 0.444,-0.514 0.982,-0.911 1.613,-1.193 0.631,-0.281 1.329,-0.421 2.093,-0.421 0.966,0 1.812,0.245 2.536,0.735 0.726,0.49 1.197,1.136 1.415,1.939l-0.233 0.602 0 -1.71c0,-0.498 0.128,-0.875 0.385,-1.132 0.257,-0.257 0.612,-0.386 1.064,-0.386 0.468,0 0.826,0.129 1.076,0.386 0.249,0.257 0.374,0.634 0.374,1.132l0 9.276c0,1.912 -0.491,3.35 -1.473,4.314 -0.982,0.963 -2.409,1.445 -4.279,1.445zm-0.07 -7.156c0.608,0 1.13,-0.145 1.566,-0.434 0.437,-0.289 0.776,-0.702 1.017,-1.241 0.242,-0.538 0.363,-1.176 0.363,-1.915 0,-1.109 -0.265,-1.98 -0.795,-2.614 -0.53,-0.635 -1.247,-0.952 -2.151,-0.952 -0.608,0 -1.131,0.144 -1.567,0.433 -0.437,0.29 -0.775,0.699 -1.017,1.229 -0.241,0.53 -0.363,1.165 -0.363,1.904 0,1.108 0.266,1.984 0.796,2.626 0.529,0.643 1.247,0.964 2.151,0.964z"/>
  <path id="_9_8" class="fil1" d="M265.004 79.138c-0.515,0 -0.909,-0.141 -1.181,-0.422 -0.273,-0.281 -0.409,-0.686 -0.409,-1.216l0 -13.71c0,-0.53 0.136,-0.936 0.409,-1.217 0.272,-0.281 0.666,-0.422 1.181,-0.422l8.347 0c0.39,0 0.69,0.105 0.9,0.313 0.211,0.209 0.316,0.506 0.316,0.892 0,0.402 -0.105,0.711 -0.316,0.928 -0.21,0.216 -0.51,0.325 -0.9,0.325l-7.062 0 0 4.674 6.547 0c0.406,0 0.71,0.105 0.912,0.314 0.203,0.208 0.305,0.514 0.305,0.915 0,0.402 -0.102,0.707 -0.305,0.916 -0.202,0.208 -0.506,0.313 -0.912,0.313l-6.547 0 0 4.939 7.062 0c0.39,0 0.69,0.105 0.9,0.314 0.211,0.209 0.316,0.514 0.316,0.915 0,0.402 -0.105,0.707 -0.316,0.916 -0.21,0.209 -0.51,0.313 -0.9,0.313l-8.347 0z"/>
  <path id="_10_9" class="fil1" d="M277.887 79.259c-0.343,0 -0.627,-0.101 -0.854,-0.302 -0.226,-0.2 -0.343,-0.461 -0.35,-0.783 -0.008,-0.321 0.121,-0.658 0.385,-1.012l3.789 -4.819 0 1.422 -3.554 -4.506c-0.281,-0.353 -0.414,-0.69 -0.398,-1.012 0.015,-0.321 0.136,-0.582 0.362,-0.783 0.226,-0.201 0.511,-0.301 0.854,-0.301 0.358,0 0.658,0.064 0.9,0.193 0.241,0.128 0.464,0.329 0.666,0.602l2.806 3.711 -1.029 0 2.83 -3.711c0.218,-0.273 0.444,-0.474 0.678,-0.602 0.233,-0.129 0.522,-0.193 0.865,-0.193 0.358,0 0.647,0.104 0.865,0.313 0.218,0.209 0.331,0.474 0.339,0.795 0.008,0.321 -0.129,0.659 -0.409,1.012l-3.531 4.458 0 -1.349 3.788 4.77c0.281,0.338 0.413,0.667 0.397,0.988 -0.015,0.321 -0.136,0.586 -0.362,0.795 -0.226,0.209 -0.518,0.314 -0.877,0.314 -0.343,0 -0.631,-0.065 -0.865,-0.193 -0.234,-0.129 -0.46,-0.33 -0.678,-0.603l-3.04 -3.951 0.983 0 -3.017 3.951c-0.203,0.257 -0.421,0.454 -0.654,0.591 -0.234,0.136 -0.531,0.205 -0.889,0.205z"/>
  <path id="_11_10" class="fil1" d="M291.308 83.668c-0.468,0 -0.826,-0.129 -1.076,-0.386 -0.249,-0.257 -0.373,-0.634 -0.373,-1.132l0 -13.469c0,-0.498 0.124,-0.875 0.373,-1.132 0.25,-0.257 0.601,-0.386 1.053,-0.386 0.468,0 0.826,0.129 1.075,0.386 0.25,0.257 0.374,0.634 0.374,1.132l0 1.879 -0.257 -0.723c0.234,-0.819 0.713,-1.477 1.438,-1.975 0.725,-0.498 1.571,-0.747 2.537,-0.747 0.998,0 1.875,0.249 2.631,0.747 0.756,0.498 1.344,1.2 1.765,2.108 0.421,0.908 0.631,1.996 0.631,3.265 0,1.253 -0.21,2.341 -0.631,3.265 -0.421,0.923 -1.006,1.634 -1.754,2.132 -0.748,0.498 -1.629,0.747 -2.642,0.747 -0.951,0 -1.785,-0.245 -2.502,-0.735 -0.717,-0.49 -1.2,-1.128 -1.449,-1.915l0.28 0 0 5.421c0,0.498 -0.129,0.875 -0.386,1.132 -0.257,0.257 -0.619,0.386 -1.087,0.386zm4.326 -6.578c0.577,0 1.083,-0.144 1.52,-0.434 0.436,-0.289 0.775,-0.718 1.017,-1.289 0.241,-0.57 0.362,-1.281 0.362,-2.132 0,-1.285 -0.265,-2.245 -0.795,-2.879 -0.53,-0.635 -1.232,-0.952 -2.104,-0.952 -0.577,0 -1.083,0.14 -1.52,0.421 -0.437,0.282 -0.776,0.707 -1.017,1.277 -0.242,0.571 -0.363,1.281 -0.363,2.133 0,1.269 0.265,2.229 0.796,2.879 0.53,0.651 1.231,0.976 2.104,0.976z"/>
  <path id="_12_11" class="fil1" d="M309.523 79.379c-1.294,0 -2.409,-0.249 -3.344,-0.747 -0.935,-0.498 -1.656,-1.205 -2.163,-2.12 -0.506,-0.916 -0.759,-2 -0.759,-3.253 0,-1.221 0.245,-2.289 0.736,-3.205 0.491,-0.915 1.169,-1.634 2.034,-2.156 0.866,-0.522 1.851,-0.783 2.958,-0.783 0.811,0 1.539,0.136 2.186,0.409 0.647,0.274 1.201,0.667 1.66,1.181 0.46,0.514 0.811,1.137 1.053,1.868 0.241,0.73 0.362,1.553 0.362,2.469 0,0.289 -0.097,0.51 -0.292,0.663 -0.195,0.152 -0.472,0.229 -0.83,0.229l-7.506 0 0 -1.735 6.57 0 -0.374 0.361c0,-0.739 -0.105,-1.357 -0.315,-1.855 -0.211,-0.498 -0.515,-0.88 -0.912,-1.145 -0.398,-0.265 -0.893,-0.397 -1.485,-0.397 -0.655,0 -1.212,0.156 -1.672,0.47 -0.46,0.313 -0.81,0.755 -1.052,1.325 -0.241,0.57 -0.363,1.249 -0.363,2.036l0 0.169c0,1.317 0.3,2.301 0.901,2.951 0.6,0.651 1.485,0.976 2.654,0.976 0.405,0 0.861,-0.052 1.367,-0.157 0.507,-0.104 0.987,-0.285 1.438,-0.542 0.328,-0.193 0.616,-0.277 0.865,-0.253 0.25,0.024 0.449,0.117 0.597,0.277 0.148,0.161 0.237,0.358 0.269,0.591 0.031,0.232 -0.012,0.469 -0.129,0.711 -0.117,0.24 -0.316,0.449 -0.596,0.626 -0.546,0.353 -1.173,0.614 -1.882,0.783 -0.71,0.169 -1.368,0.253 -1.976,0.253z"/>
  <path id="_13_12" class="fil1" d="M318.057 79.331c-0.483,0 -0.853,-0.133 -1.11,-0.398 -0.258,-0.265 -0.386,-0.646 -0.386,-1.144l0 -9.108c0,-0.498 0.125,-0.875 0.374,-1.132 0.249,-0.257 0.6,-0.386 1.052,-0.386 0.452,0 0.803,0.129 1.052,0.386 0.25,0.257 0.374,0.634 0.374,1.132l0 1.518 -0.234 0c0.219,-0.964 0.648,-1.695 1.287,-2.193 0.639,-0.498 1.488,-0.795 2.548,-0.891 0.328,-0.032 0.589,0.052 0.784,0.253 0.194,0.201 0.307,0.51 0.338,0.927 0.032,0.402 -0.058,0.727 -0.268,0.976 -0.211,0.249 -0.526,0.398 -0.947,0.446l-0.515 0.048c-0.95,0.097 -1.667,0.398 -2.151,0.904 -0.483,0.506 -0.725,1.217 -0.725,2.132l0 4.988c0,0.498 -0.125,0.879 -0.374,1.144 -0.249,0.265 -0.616,0.398 -1.099,0.398z"/>
  <path id="_14_13" class="fil1" d="M327.176 79.307c-0.468,0 -0.826,-0.145 -1.075,-0.434 -0.25,-0.289 -0.375,-0.691 -0.375,-1.205l0 -8.842c0,-0.531 0.125,-0.936 0.375,-1.217 0.249,-0.282 0.607,-0.422 1.075,-0.422 0.468,0 0.83,0.14 1.088,0.422 0.257,0.281 0.385,0.686 0.385,1.217l0 8.842c0,0.514 -0.124,0.916 -0.374,1.205 -0.249,0.289 -0.616,0.434 -1.099,0.434zm0 -14.361c-0.546,0 -0.97,-0.14 -1.274,-0.421 -0.304,-0.282 -0.456,-0.671 -0.456,-1.169 0,-0.514 0.152,-0.908 0.456,-1.181 0.304,-0.273 0.728,-0.409 1.274,-0.409 0.561,0 0.99,0.136 1.286,0.409 0.296,0.273 0.444,0.667 0.444,1.181 0,0.498 -0.148,0.887 -0.444,1.169 -0.296,0.281 -0.725,0.421 -1.286,0.421z"/>
  <path id="_15_14" class="fil1" d="M333.186 79.331c-0.468,0 -0.827,-0.133 -1.076,-0.398 -0.25,-0.265 -0.375,-0.646 -0.375,-1.144l0 -9.108c0,-0.498 0.125,-0.875 0.375,-1.132 0.249,-0.257 0.6,-0.386 1.052,-0.386 0.452,0 0.803,0.129 1.052,0.386 0.25,0.257 0.374,0.634 0.374,1.132l0 1.759 -0.257 -0.723c0.312,-0.803 0.795,-1.438 1.45,-1.904 0.654,-0.465 1.434,-0.698 2.338,-0.698 0.92,0 1.676,0.225 2.268,0.674 0.592,0.45 1.005,1.141 1.239,2.073l-0.327 0c0.312,-0.852 0.826,-1.522 1.543,-2.012 0.717,-0.49 1.544,-0.735 2.479,-0.735 0.873,0 1.593,0.177 2.163,0.53 0.568,0.353 0.993,0.887 1.274,1.602 0.281,0.715 0.421,1.618 0.421,2.711l0 5.831c0,0.498 -0.129,0.879 -0.386,1.144 -0.258,0.265 -0.62,0.398 -1.088,0.398 -0.467,0 -0.825,-0.133 -1.075,-0.398 -0.249,-0.265 -0.374,-0.646 -0.374,-1.144l0 -5.711c0,-0.899 -0.144,-1.558 -0.433,-1.976 -0.288,-0.417 -0.775,-0.626 -1.461,-0.626 -0.764,0 -1.364,0.277 -1.8,0.831 -0.437,0.555 -0.655,1.322 -0.655,2.301l0 5.181c0,0.498 -0.125,0.879 -0.374,1.144 -0.25,0.265 -0.608,0.398 -1.076,0.398 -0.467,0 -0.83,-0.133 -1.087,-0.398 -0.257,-0.265 -0.386,-0.646 -0.386,-1.144l0 -5.711c0,-0.899 -0.144,-1.558 -0.432,-1.976 -0.289,-0.417 -0.768,-0.626 -1.438,-0.626 -0.764,0 -1.364,0.277 -1.801,0.831 -0.436,0.555 -0.654,1.322 -0.654,2.301l0 5.181c0,1.028 -0.492,1.542 -1.473,1.542z"/>
  <path id="_16_15" class="fil1" d="M357.83 79.379c-1.294,0 -2.408,-0.249 -3.344,-0.747 -0.935,-0.498 -1.655,-1.205 -2.162,-2.12 -0.507,-0.916 -0.76,-2 -0.76,-3.253 0,-1.221 0.245,-2.289 0.737,-3.205 0.49,-0.915 1.168,-1.634 2.033,-2.156 0.866,-0.522 1.852,-0.783 2.959,-0.783 0.81,0 1.539,0.136 2.186,0.409 0.646,0.274 1.2,0.667 1.66,1.181 0.459,0.514 0.81,1.137 1.052,1.868 0.241,0.73 0.362,1.553 0.362,2.469 0,0.289 -0.097,0.51 -0.292,0.663 -0.195,0.152 -0.471,0.229 -0.83,0.229l-7.506 0 0 -1.735 6.57 0 -0.373 0.361c0,-0.739 -0.105,-1.357 -0.316,-1.855 -0.21,-0.498 -0.514,-0.88 -0.912,-1.145 -0.397,-0.265 -0.892,-0.397 -1.485,-0.397 -0.655,0 -1.212,0.156 -1.672,0.47 -0.46,0.313 -0.81,0.755 -1.052,1.325 -0.241,0.57 -0.362,1.249 -0.362,2.036l0 0.169c0,1.317 0.3,2.301 0.9,2.951 0.6,0.651 1.485,0.976 2.654,0.976 0.405,0 0.861,-0.052 1.368,-0.157 0.506,-0.104 0.986,-0.285 1.438,-0.542 0.327,-0.193 0.616,-0.277 0.865,-0.253 0.249,0.024 0.448,0.117 0.596,0.277 0.149,0.161 0.238,0.358 0.269,0.591 0.031,0.232 -0.012,0.469 -0.129,0.711 -0.116,0.24 -0.315,0.449 -0.596,0.626 -0.546,0.353 -1.173,0.614 -1.882,0.783 -0.709,0.169 -1.368,0.253 -1.976,0.253z"/>
  <path id="_17" class="fil1" d="M366.318 79.331c-0.468,0 -0.826,-0.133 -1.075,-0.398 -0.25,-0.265 -0.375,-0.646 -0.375,-1.144l0 -9.108c0,-0.498 0.125,-0.875 0.375,-1.132 0.249,-0.257 0.599,-0.386 1.052,-0.386 0.451,0 0.802,0.129 1.052,0.386 0.249,0.257 0.374,0.634 0.374,1.132l0 1.638 -0.258 -0.602c0.344,-0.851 0.878,-1.498 1.602,-1.94 0.725,-0.441 1.547,-0.662 2.467,-0.662 0.92,0 1.676,0.177 2.268,0.53 0.592,0.353 1.037,0.887 1.333,1.602 0.296,0.715 0.444,1.618 0.444,2.711l0 5.831c0,0.498 -0.124,0.879 -0.374,1.144 -0.249,0.265 -0.608,0.398 -1.076,0.398 -0.467,0 -0.83,-0.133 -1.087,-0.398 -0.257,-0.265 -0.385,-0.646 -0.385,-1.144l0 -5.687c0,-0.915 -0.168,-1.582 -0.504,-2 -0.335,-0.417 -0.853,-0.626 -1.554,-0.626 -0.858,0 -1.539,0.277 -2.046,0.831 -0.507,0.555 -0.76,1.289 -0.76,2.205l0 5.277c0,1.028 -0.491,1.542 -1.473,1.542z"/>
  <path id="_18" class="fil1" d="M383.784 79.379c-1.013,0 -1.859,-0.177 -2.537,-0.53 -0.678,-0.353 -1.18,-0.872 -1.508,-1.554 -0.327,-0.683 -0.491,-1.53 -0.491,-2.542l0 -5.133 -1.216 0c-0.374,0 -0.662,-0.1 -0.865,-0.301 -0.203,-0.2 -0.304,-0.477 -0.304,-0.831 0,-0.369 0.101,-0.65 0.304,-0.843 0.203,-0.193 0.491,-0.289 0.865,-0.289l1.216 0 0 -2.193c0,-0.498 0.128,-0.875 0.386,-1.132 0.257,-0.257 0.62,-0.386 1.087,-0.386 0.468,0 0.826,0.129 1.075,0.386 0.25,0.257 0.375,0.634 0.375,1.132l0 2.193 2.478 0c0.374,0 0.663,0.096 0.865,0.289 0.203,0.193 0.304,0.474 0.304,0.843 0,0.354 -0.101,0.631 -0.304,0.831 -0.202,0.201 -0.491,0.301 -0.865,0.301l-2.478 0 0 4.964c0,0.771 0.163,1.349 0.491,1.735 0.327,0.385 0.857,0.578 1.59,0.578 0.265,0 0.499,-0.024 0.701,-0.072 0.203,-0.048 0.382,-0.08 0.538,-0.096 0.187,-0.017 0.343,0.044 0.467,0.18 0.125,0.137 0.188,0.414 0.188,0.831 0,0.322 -0.051,0.607 -0.152,0.856 -0.102,0.249 -0.285,0.422 -0.55,0.518 -0.202,0.064 -0.467,0.125 -0.795,0.181 -0.327,0.056 -0.615,0.084 -0.865,0.084z"/>
  <path id="_19" class="fil1" d="M391.71 79.379c-0.67,0 -1.379,-0.072 -2.127,-0.217 -0.749,-0.144 -1.419,-0.394 -2.011,-0.747 -0.25,-0.161 -0.425,-0.349 -0.526,-0.566 -0.101,-0.217 -0.141,-0.434 -0.117,-0.651 0.023,-0.217 0.101,-0.405 0.234,-0.566 0.132,-0.16 0.304,-0.265 0.514,-0.313 0.211,-0.048 0.44,-0.008 0.69,0.12 0.623,0.306 1.208,0.519 1.754,0.639 0.545,0.12 1.083,0.181 1.613,0.181 0.748,0 1.305,-0.133 1.672,-0.398 0.366,-0.265 0.549,-0.614 0.549,-1.048 0,-0.369 -0.121,-0.655 -0.362,-0.855 -0.242,-0.201 -0.605,-0.35 -1.088,-0.446l-2.338 -0.458c-0.966,-0.193 -1.703,-0.558 -2.21,-1.096 -0.506,-0.538 -0.76,-1.233 -0.76,-2.085 0,-0.771 0.207,-1.437 0.62,-1.999 0.413,-0.562 0.986,-0.996 1.719,-1.301 0.733,-0.306 1.574,-0.458 2.525,-0.458 0.686,0 1.329,0.076 1.929,0.229 0.6,0.152 1.181,0.389 1.742,0.711 0.234,0.128 0.394,0.297 0.479,0.505 0.086,0.209 0.106,0.422 0.059,0.639 -0.047,0.217 -0.14,0.409 -0.281,0.578 -0.14,0.169 -0.315,0.273 -0.526,0.314 -0.21,0.04 -0.448,-0.005 -0.713,-0.133 -0.483,-0.257 -0.947,-0.442 -1.391,-0.554 -0.445,-0.113 -0.869,-0.169 -1.275,-0.169 -0.763,0 -1.329,0.137 -1.695,0.41 -0.366,0.273 -0.549,0.634 -0.549,1.084 0,0.337 0.109,0.618 0.327,0.843 0.218,0.225 0.553,0.378 1.006,0.458l2.338 0.458c1.013,0.193 1.781,0.546 2.303,1.06 0.522,0.514 0.783,1.205 0.783,2.072 0,1.173 -0.444,2.092 -1.333,2.759 -0.888,0.667 -2.073,1 -3.554,1z"/>
  <path id="_20" class="fil1" d="M407.072 79.138c-0.483,0 -0.857,-0.141 -1.122,-0.422 -0.265,-0.281 -0.397,-0.67 -0.397,-1.168l0 -13.903c0,-0.514 0.128,-0.904 0.386,-1.169 0.257,-0.265 0.627,-0.397 1.11,-0.397 0.483,0 0.853,0.132 1.11,0.397 0.258,0.265 0.386,0.655 0.386,1.169l0 12.867 6.781 0c0.421,0 0.744,0.112 0.97,0.337 0.227,0.225 0.34,0.546 0.34,0.964 0,0.418 -0.113,0.743 -0.34,0.976 -0.226,0.233 -0.549,0.349 -0.97,0.349l-8.254 0z"/>
  <path id="_21" class="fil1" d="M422.177 79.379c-0.826,0 -1.562,-0.165 -2.21,-0.494 -0.647,-0.329 -1.153,-0.775 -1.519,-1.337 -0.367,-0.562 -0.55,-1.197 -0.55,-1.904 0,-0.867 0.218,-1.554 0.655,-2.06 0.436,-0.506 1.146,-0.871 2.128,-1.096 0.982,-0.225 2.299,-0.338 3.952,-0.338l1.168 0 0 1.735 -1.145 0c-0.967,0 -1.738,0.049 -2.315,0.145 -0.577,0.096 -0.986,0.261 -1.228,0.494 -0.241,0.233 -0.362,0.558 -0.362,0.976 0,0.53 0.179,0.964 0.537,1.301 0.359,0.337 0.858,0.506 1.497,0.506 0.515,0 0.97,-0.124 1.368,-0.374 0.397,-0.249 0.713,-0.59 0.947,-1.024 0.234,-0.433 0.351,-0.931 0.351,-1.493l0 -2.772c0,-0.803 -0.172,-1.381 -0.515,-1.734 -0.343,-0.354 -0.92,-0.53 -1.73,-0.53 -0.452,0 -0.939,0.056 -1.461,0.168 -0.522,0.113 -1.072,0.306 -1.649,0.579 -0.296,0.144 -0.557,0.184 -0.783,0.12 -0.226,-0.064 -0.402,-0.197 -0.526,-0.397 -0.125,-0.201 -0.187,-0.422 -0.187,-0.663 0,-0.241 0.062,-0.478 0.187,-0.711 0.124,-0.233 0.335,-0.406 0.631,-0.518 0.717,-0.305 1.407,-0.522 2.069,-0.651 0.663,-0.128 1.267,-0.192 1.813,-0.192 1.122,0 2.045,0.177 2.77,0.53 0.725,0.353 1.266,0.887 1.625,1.602 0.359,0.715 0.538,1.635 0.538,2.759l0 5.783c0,0.498 -0.117,0.879 -0.351,1.144 -0.234,0.265 -0.569,0.398 -1.005,0.398 -0.436,0 -0.776,-0.133 -1.017,-0.398 -0.242,-0.265 -0.363,-0.646 -0.363,-1.144l0 -1.157 0.187 0c-0.108,0.562 -0.323,1.048 -0.643,1.458 -0.319,0.41 -0.72,0.727 -1.204,0.952 -0.483,0.225 -1.036,0.337 -1.66,0.337z"/>
  <path id="_22" class="fil1" d="M437.797 79.379c-0.967,0 -1.813,-0.249 -2.538,-0.747 -0.724,-0.498 -1.204,-1.164 -1.438,-2l0.258 -0.602 0 1.759c0,0.498 -0.125,0.879 -0.374,1.144 -0.25,0.265 -0.601,0.398 -1.053,0.398 -0.468,0 -0.826,-0.133 -1.075,-0.398 -0.249,-0.265 -0.374,-0.646 -0.374,-1.144l0 -14.313c0,-0.498 0.125,-0.875 0.374,-1.132 0.249,-0.257 0.607,-0.385 1.075,-0.385 0.468,0 0.831,0.128 1.088,0.385 0.257,0.257 0.386,0.634 0.386,1.132l0 6.265 -0.281 0c0.249,-0.787 0.732,-1.421 1.45,-1.903 0.717,-0.482 1.55,-0.723 2.502,-0.723 1.013,0 1.893,0.249 2.642,0.747 0.748,0.498 1.332,1.2 1.753,2.108 0.421,0.908 0.631,1.996 0.631,3.265 0,1.253 -0.21,2.341 -0.631,3.265 -0.421,0.923 -1.009,1.634 -1.765,2.132 -0.756,0.498 -1.633,0.747 -2.63,0.747zm-0.819 -2.289c0.577,0 1.083,-0.144 1.52,-0.434 0.436,-0.289 0.776,-0.718 1.017,-1.289 0.242,-0.57 0.362,-1.281 0.362,-2.132 0,-1.285 -0.265,-2.245 -0.795,-2.879 -0.529,-0.635 -1.231,-0.952 -2.104,-0.952 -0.577,0 -1.083,0.14 -1.52,0.421 -0.436,0.282 -0.775,0.707 -1.017,1.277 -0.241,0.571 -0.362,1.281 -0.362,2.133 0,1.269 0.265,2.229 0.795,2.879 0.53,0.651 1.231,0.976 2.104,0.976z"/>
  <path id="_23" class="fil1" d="M221.068 79.307c-0.467,0 -0.826,-0.145 -1.075,-0.434 -0.25,-0.289 -0.374,-0.691 -0.374,-1.205l0 -8.842c0,-0.531 0.124,-0.936 0.374,-1.217 0.249,-0.282 0.608,-0.422 1.075,-0.422 0.468,0 0.831,0.14 1.088,0.422 0.257,0.281 0.385,0.686 0.385,1.217l0 8.842c0,0.514 -0.124,0.916 -0.374,1.205 -0.249,0.289 -0.615,0.434 -1.099,0.434zm0 -14.361c-0.545,0 -0.97,-0.14 -1.274,-0.421 -0.304,-0.282 -0.456,-0.671 -0.456,-1.169 0,-0.514 0.152,-0.908 0.456,-1.181 0.304,-0.273 0.729,-0.409 1.274,-0.409 0.561,0 0.99,0.136 1.286,0.409 0.296,0.273 0.444,0.667 0.444,1.181 0,0.498 -0.148,0.887 -0.444,1.169 -0.296,0.281 -0.725,0.421 -1.286,0.421z"/>
  <path id="_24" class="fil1" d="M230.866 79.379c-1.201,0 -2.245,-0.253 -3.134,-0.759 -0.888,-0.506 -1.574,-1.225 -2.057,-2.156 -0.484,-0.932 -0.725,-2.024 -0.725,-3.277 0,-0.948 0.136,-1.795 0.409,-2.542 0.273,-0.747 0.666,-1.382 1.181,-1.904 0.514,-0.522 1.138,-0.923 1.871,-1.205 0.732,-0.281 1.55,-0.421 2.455,-0.421 0.514,0 1.071,0.072 1.672,0.217 0.599,0.144 1.165,0.385 1.695,0.723 0.249,0.16 0.413,0.353 0.49,0.578 0.078,0.225 0.094,0.453 0.047,0.686 -0.047,0.233 -0.144,0.434 -0.292,0.603 -0.148,0.169 -0.331,0.273 -0.55,0.313 -0.218,0.04 -0.459,-0.012 -0.724,-0.156 -0.343,-0.209 -0.694,-0.366 -1.052,-0.471 -0.359,-0.104 -0.702,-0.156 -1.029,-0.156 -0.515,0 -0.967,0.084 -1.357,0.253 -0.389,0.169 -0.72,0.409 -0.993,0.723 -0.273,0.313 -0.48,0.702 -0.62,1.168 -0.14,0.466 -0.21,1.004 -0.21,1.615 0,1.188 0.276,2.124 0.83,2.807 0.553,0.683 1.337,1.024 2.35,1.024 0.327,0 0.666,-0.048 1.017,-0.145 0.35,-0.096 0.705,-0.249 1.064,-0.458 0.265,-0.144 0.502,-0.192 0.713,-0.144 0.21,0.048 0.386,0.157 0.526,0.325 0.14,0.169 0.226,0.37 0.257,0.603 0.032,0.232 0.004,0.461 -0.081,0.686 -0.086,0.225 -0.246,0.41 -0.48,0.554 -0.514,0.322 -1.06,0.555 -1.637,0.699 -0.576,0.145 -1.122,0.217 -1.636,0.217z"/>
  <path id="_25" class="fil1" d="M240.312 79.379c-0.827,0 -1.563,-0.165 -2.21,-0.494 -0.647,-0.329 -1.153,-0.775 -1.52,-1.337 -0.366,-0.562 -0.549,-1.197 -0.549,-1.904 0,-0.867 0.218,-1.554 0.654,-2.06 0.437,-0.506 1.146,-0.871 2.128,-1.096 0.982,-0.225 2.3,-0.338 3.952,-0.338l1.169 0 0 1.735 -1.146 0c-0.966,0 -1.738,0.049 -2.315,0.145 -0.576,0.096 -0.985,0.261 -1.227,0.494 -0.242,0.233 -0.362,0.558 -0.362,0.976 0,0.53 0.179,0.964 0.537,1.301 0.359,0.337 0.858,0.506 1.496,0.506 0.515,0 0.971,-0.124 1.369,-0.374 0.397,-0.249 0.713,-0.59 0.947,-1.024 0.233,-0.433 0.35,-0.931 0.35,-1.493l0 -2.772c0,-0.803 -0.172,-1.381 -0.514,-1.734 -0.343,-0.354 -0.92,-0.53 -1.73,-0.53 -0.453,0 -0.94,0.056 -1.462,0.168 -0.522,0.113 -1.072,0.306 -1.648,0.579 -0.297,0.144 -0.558,0.184 -0.783,0.12 -0.227,-0.064 -0.402,-0.197 -0.527,-0.397 -0.124,-0.201 -0.187,-0.422 -0.187,-0.663 0,-0.241 0.063,-0.478 0.187,-0.711 0.125,-0.233 0.336,-0.406 0.632,-0.518 0.717,-0.305 1.407,-0.522 2.069,-0.651 0.662,-0.128 1.266,-0.192 1.812,-0.192 1.122,0 2.046,0.177 2.771,0.53 0.725,0.353 1.266,0.887 1.625,1.602 0.358,0.715 0.538,1.635 0.538,2.759l0 5.783c0,0.498 -0.118,0.879 -0.351,1.144 -0.234,0.265 -0.569,0.398 -1.006,0.398 -0.436,0 -0.775,-0.133 -1.017,-0.398 -0.241,-0.265 -0.362,-0.646 -0.362,-1.144l0 -1.157 0.187 0c-0.109,0.562 -0.323,1.048 -0.643,1.458 -0.32,0.41 -0.721,0.727 -1.204,0.952 -0.483,0.225 -1.037,0.337 -1.66,0.337z"/>
  <path id="_26" class="fil1" d="M253.242 79.379c-1.294,0 -2.268,-0.382 -2.923,-1.145 -0.655,-0.762 -0.982,-1.883 -0.982,-3.361l0 -11.397c0,-0.498 0.125,-0.875 0.374,-1.132 0.25,-0.257 0.608,-0.385 1.076,-0.385 0.468,0 0.83,0.128 1.087,0.385 0.257,0.257 0.386,0.634 0.386,1.132l0 11.253c0,0.739 0.152,1.285 0.456,1.638 0.304,0.354 0.736,0.53 1.298,0.53 0.124,0 0.241,-0.004 0.35,-0.012 0.11,-0.008 0.218,-0.02 0.328,-0.036 0.218,-0.032 0.366,0.028 0.444,0.181 0.078,0.153 0.117,0.462 0.117,0.927 0,0.402 -0.078,0.715 -0.234,0.94 -0.156,0.225 -0.413,0.362 -0.771,0.41 -0.156,0.016 -0.32,0.032 -0.491,0.048 -0.172,0.016 -0.343,0.024 -0.515,0.024z"/>
  <sodipodi:namedview id="namedview27" pagecolor="#13263c" bordercolor="#000000" borderopacity="0.25" inkscape:showpageshadow="true" inkscape:pageopacity="1" inkscape:pagecheckerboard="0" inkscape:deskcolor="#d1d1d1" showgrid="false"/>
  <path class="fil2" d="M64.732 49.323c-0.843,0.07 -3.622,1.297 -4.112,1.777 -0.428,0.419 -0.102,1.077 0.423,1.077 0.182,0 0.732,-0.373 0.916,-0.482 0.703,-0.413 2.471,-1.185 3.216,-1.201 0.022,0.258 0.106,0.423 0.178,0.701 0.073,0.281 0.1,0.418 0.15,0.73 0.099,0.631 0.115,0.998 0.115,1.716 -0.505,-0.042 -3.395,-0.658 -3.898,0.016 -0.296,0.397 -0.083,0.911 0.499,0.94 1.501,0.075 1.394,-0.142 3.251,0.287 0,0.921 -0.716,1.922 -1.222,2.594 -0.144,0.191 -0.157,0.19 -0.309,0.352 -0.149,0.159 -0.157,0.208 -0.295,0.365 -0.852,0.965 -2.641,2.01 -3.857,2.542 -4.636,2.03 -10.432,1.985 -15.091,0.044 -0.868,-0.361 -1.768,-0.822 -2.52,-1.38l-1.401 -1.171c-0.753,-0.904 -1.865,-2.103 -1.865,-3.346 2.18,-0.503 3.39,-0.045 3.75,-0.528 0.26,-0.35 0.144,-0.868 -0.499,-0.94 -0.961,-0.107 -1.137,-0.083 -2.132,0.017 -0.397,0.04 -0.895,0.177 -1.267,0.208 0,-0.688 0.012,-1.044 0.105,-1.653l0.338 -1.494c0.515,0.011 1.767,0.487 2.189,0.683l1.869 1c0.651,0 0.882,-0.632 0.533,-1.039 -0.097,-0.112 -0.41,-0.272 -0.577,-0.382 -0.243,-0.159 -0.401,-0.227 -0.669,-0.36 -0.723,-0.357 -2.112,-1.008 -2.902,-1.073 1.209,-2.267 0.328,-1.927 -0.161,-5.402 -0.13,-0.92 -0.652,-4.623 0.972,-4.623 2.281,0 5.342,2.927 6.05,2.927 1.384,0 1.174,-0.372 1.992,-0.439 0,1.29 -0.27,2.854 0.664,2.854 0.695,0 0.591,-0.64 0.59,-1.317 -0.001,-0.635 0,-1.269 0,-1.903 0.917,-0.212 0.876,-0.219 1.845,-0.219l0 5.195c0,0.59 1.18,0.59 1.18,0l0 -5.195c0.969,0 0.928,0.007 1.844,0.219 0,0.634 0.002,1.268 0,1.903 -0.001,0.94 -0.084,1.317 0.738,1.317 0.746,0 0.517,-2.106 0.517,-2.854 0.83,0.069 1.575,0.914 2.761,0.104 1.328,-0.907 3.6,-2.592 5.207,-2.592 2.29,0 0.763,6.309 0.399,7.567 -0.337,1.171 0.029,1.601 0.486,2.458zm-26.634 -7.903c0,1.553 0.043,2.161 0.351,3.677l0.608 2.616c0,0.147 -0.508,1.041 -0.59,1.391 -0.819,0 -2.803,-0.191 -2.803,0.731 0,0.586 0.438,0.669 0.936,0.569 0.408,-0.083 0.898,-0.129 1.425,-0.129 -0.169,0.348 -0.323,1.223 -0.403,1.722 -0.11,0.684 -0.114,1.325 -0.114,2.083 -0.382,0.182 -0.968,0.394 -1.299,0.688 -0.449,0.4 -0.176,1.068 0.414,1.068 0.38,0 0.693,-0.417 1.107,-0.512 0.1,1.196 1.352,2.923 2.047,3.604 1.031,1.011 1.881,1.753 3.24,2.421 2.094,1.028 4.094,1.685 6.51,1.957 0.367,0.042 0.875,0.132 1.259,0.142l4 -0.134c1.412,-0.175 2.288,-0.384 3.543,-0.73l2.049 -0.749c1.785,-0.79 2.845,-1.554 4.226,-2.907 0.693,-0.681 1.946,-2.408 2.046,-3.604 0.414,0.095 0.727,0.512 1.107,0.512 0.59,0 0.863,-0.668 0.413,-1.068 -0.321,-0.286 -0.925,-0.511 -1.298,-0.688 0,-1.021 -0.107,-2.958 -0.517,-3.805 1.025,0 1.691,0.266 1.983,0.142 0.306,-0.131 0.378,-0.316 0.378,-0.582 0,-0.922 -1.984,-0.731 -2.803,-0.731 -0.064,-0.269 -0.591,-1.306 -0.591,-1.318 0,-0.526 2.73,-8.956 -0.966,-9.652 -1.894,-0.357 -4.778,1.566 -6.283,2.682 -0.398,0.296 -0.455,0.266 -0.929,0.082 -3.28,-1.273 -6.628,-1.273 -9.908,0 -0.764,0.297 -0.65,0.057 -1.656,-0.605 -1.538,-1.01 -5.657,-3.762 -7.016,-1.045 -0.276,0.553 -0.466,1.371 -0.466,2.172z"/>
  <path class="fil2" d="M50.198 52.397c0,0.604 0.285,0.705 0.559,1.055 0.205,0.262 0.52,0.689 0.843,0.774 0,0.841 0.1,1.236 -0.315,1.737 -1.121,1.355 -2.416,0.828 -3.183,-0.463 -0.52,-0.875 -1.224,-0.396 -1.224,0.116 0,0.599 1.302,2.342 2.804,2.342 1.681,0 1.849,-0.734 2.508,-1.171 0.658,0.437 0.826,1.171 2.509,1.171 0.758,0 1.394,-0.391 1.789,-0.785 0.304,-0.303 1.014,-1.036 1.014,-1.557 0,-0.354 -0.233,-0.585 -0.59,-0.585 -0.552,0 -0.692,0.682 -1.014,1.043 -0.276,0.309 -0.835,0.75 -1.392,0.688 -0.608,-0.068 -1.06,-0.404 -1.377,-0.76 -0.448,-0.504 -0.349,-0.902 -0.349,-1.776 0.323,-0.085 0.638,-0.512 0.843,-0.774 0.274,-0.35 0.559,-0.451 0.559,-1.055 0,-0.572 -0.49,-1.171 -1.033,-1.171l-1.918 0c-0.544,0 -1.033,0.599 -1.033,1.171z"/>
  <path class="fil2" d="M44.517 48.884c0,0.381 0.09,0.732 0.59,0.732 0.664,0 0.616,-1.007 1.771,-1.007 1.155,0 1.107,1.007 1.771,1.007 0.641,0 1.044,-0.803 -0.293,-1.758 -1.922,-1.372 -3.839,0.576 -3.839,1.026z"/>
  <path class="fil2" d="M55.141 48.884c0,0.381 0.09,0.732 0.59,0.732 0.664,0 0.617,-1.007 1.771,-1.007 1.154,0 1.107,1.007 1.77,1.007 0.642,0 1.046,-0.803 -0.292,-1.758 -1.922,-1.372 -3.839,0.576 -3.839,1.026z"/>
  <path id="path11" class="fil3 str0" d="M56.205 10.454c-1.136,-5 3.182,-9.318 8.182,-8.182 2.5,0.568 4.546,2.614 5.114,5.114 1.137,5 -3.182,9.318 -8.182,8.182 -2.5,-0.569 -4.545,-2.614 -5.114,-5.114zm26.819 63.75c-3.864,-0.568 -7.046,2.727 -6.478,6.477 0.341,2.387 2.273,4.318 4.659,4.659 3.864,0.568 7.046,-2.727 6.478,-6.477 -0.228,-2.273 -2.273,-4.318 -4.659,-4.659zm4.318 -24.205c8.409,9.432 11.932,18.75 8.295,25 -1.136,2.046 -3.068,3.637 -5.454,4.773 0,-1.25 -0.341,-2.386 -0.796,-3.409 1.477,-0.795 2.614,-1.818 3.41,-3.068 2.84,-4.887 -0.455,-12.614 -7.614,-20.795 -3.296,3.409 -7.16,6.704 -11.364,9.772 -0.568,5.341 -1.477,10.341 -2.727,14.773 1.25,0.227 2.5,0.454 3.636,0.682 -0.227,0.682 -0.341,1.363 -0.341,2.159 0,0.454 0,0.909 0.114,1.25 -1.477,-0.228 -2.954,-0.455 -4.432,-0.796 -4.204,12.046 -10.454,19.66 -17.727,19.66 -7.273,0 -13.523,-7.614 -17.5,-19.66 -1.591,0.341 -3.182,0.568 -4.659,0.796 -2.046,0.227 -3.978,0.341 -5.796,0.341 -7.5,0 -12.841,-2.273 -15.34,-6.478 -1.364,-2.386 -1.705,-5.227 -1.137,-8.295 0.909,0.682 2.046,1.136 3.296,1.136 -0.228,2.046 0,3.978 0.909,5.455 2.273,3.977 8.75,5.568 17.727,4.432 1.364,-0.227 2.727,-0.455 4.091,-0.682 -1.25,-4.432 -2.159,-9.432 -2.727,-14.773 -4.319,-3.068 -8.068,-6.363 -11.478,-9.772 -0.909,1.022 -1.818,2.158 -2.613,3.181 -0.114,0.228 -0.228,0.341 -0.455,0.569 -0.682,-0.682 -1.477,-1.137 -2.272,-1.478 -0.114,-0.341 -0.114,-0.454 -0.228,-0.795 1.023,-1.364 2.045,-2.614 3.182,-3.978 -1.137,-1.249 -2.159,-2.386 -3.068,-3.636 -6.478,-8.523 -8.296,-16.022 -5.228,-21.363 3.069,-5.342 10.569,-7.5 21.137,-6.137 1.477,0.227 3.068,0.455 4.659,0.795 3.863,-12.045 10.227,-19.658 17.5,-19.658 1.818,0 3.636,0.454 5.341,1.477 -1.023,0.681 -1.819,1.591 -2.5,2.5 -0.909,-0.341 -1.932,-0.568 -2.841,-0.568 -5.568,0 -10.796,6.704 -14.205,17.045 4.546,1.137 9.318,2.841 14.205,5 4.772,-2.159 9.659,-3.863 14.205,-5 -0.341,-0.909 -0.682,-1.932 -1.023,-2.841 1.136,-0.341 2.159,-0.909 3.068,-1.591 0.454,1.137 0.909,2.387 1.363,3.636 1.592,-0.34 3.182,-0.568 4.66,-0.795 10.568,-1.363 18.068,0.795 21.136,6.136 3.068,5.341 1.25,12.841 -5.227,21.364 -1.023,1.136 -2.046,2.387 -3.182,3.636l0 0zm-16.477 -27.045c1.25,4.432 2.159,9.432 2.727,14.773 4.318,3.182 8.182,6.477 11.477,9.773 0.909,-1.023 1.818,-2.16 2.614,-3.182 5.454,-7.159 7.272,-13.637 5,-17.614 -1.819,-3.182 -6.25,-4.773 -12.386,-4.773 -1.591,0 -3.41,0.114 -5.341,0.341 -1.364,0.114 -2.728,0.341 -4.091,0.682zm-14.432 4.432c2.273,1.136 4.545,2.386 6.818,3.636 2.273,1.364 4.432,2.614 6.477,4.091 -0.568,-4.091 -1.363,-7.841 -2.272,-11.364 -3.523,0.91 -7.273,2.046 -11.023,3.637l0 0zm13.863 12.159c-2.727,-1.932 -5.682,-3.864 -8.75,-5.682 -3.068,-1.818 -6.136,-3.409 -9.204,-4.773 -3.068,1.364 -6.136,3.069 -9.205,4.773 -3.068,1.818 -6.022,3.636 -8.75,5.568 -0.341,3.41 -0.454,6.819 -0.454,10.455 0,3.523 0.227,7.045 0.454,10.455 2.728,1.931 5.682,3.863 8.75,5.568 3.069,1.818 6.137,3.409 9.205,4.772 3.068,-1.363 6.136,-3.068 9.204,-4.772 3.068,-1.819 6.023,-3.637 8.75,-5.568 0.341,-3.41 0.455,-6.819 0.455,-10.455 0.114,-3.409 -0.114,-6.932 -0.455,-10.341zm-33.181 -15.909c-1.023,3.523 -1.705,7.273 -2.273,11.364 2.045,-1.364 4.318,-2.728 6.477,-4.091 2.273,-1.25 4.546,-2.501 6.818,-3.637 -3.75,-1.477 -7.386,-2.727 -11.022,-3.636zm-20.114 20.682c0.795,1.022 1.705,2.159 2.614,3.182 3.295,-3.41 7.159,-6.705 11.477,-9.773 0.568,-5.341 1.477,-10.341 2.727,-14.773 -1.363,-0.341 -2.727,-0.568 -4.091,-0.682 -1.931,-0.227 -3.636,-0.341 -5.341,-0.341 -6.136,0 -10.568,1.705 -12.386,4.773 -2.386,3.977 -0.568,10.341 5,17.614zm13.636 13.409c-0.113,-2.5 -0.227,-5.114 -0.227,-7.728 0,-2.613 0.113,-5.227 0.227,-7.727 -3.181,2.5 -6.136,5.114 -8.75,7.727 2.614,2.614 5.569,5.228 8.75,7.728zm6.478 18.636c3.522,-0.909 7.272,-2.159 11.022,-3.636 -2.272,-1.137 -4.545,-2.387 -6.818,-3.636 -2.273,-1.251 -4.432,-2.614 -6.477,-4.091 0.568,3.977 1.364,7.841 2.273,11.363l0 0zm29.432 3.182c-4.546,-1.136 -9.319,-2.841 -14.205,-5 -4.887,2.159 -9.659,3.864 -14.205,5 3.409,10.341 8.523,17.045 14.205,17.045 5.568,0 10.682,-6.704 14.205,-17.045zm3.295 -14.659c-2.046,1.364 -4.318,2.727 -6.477,4.091 -2.273,1.25 -4.546,2.5 -6.819,3.636 3.75,1.478 7.5,2.727 11.023,3.636 0.909,-3.409 1.705,-7.272 2.273,-11.363l0 0zm12.841 -14.887c-2.5,-2.613 -5.455,-5.227 -8.75,-7.727 0.113,2.5 0.227,5.114 0.227,7.727 0,2.614 -0.114,5.228 -0.227,7.728 3.295,-2.5 6.136,-5.114 8.75,-7.728zm-71.705 15.569c3.069,0.454 5.682,-2.16 5.227,-5.228 -0.34,-1.932 -1.817,-3.522 -3.75,-3.75 -3.068,-0.454 -5.681,2.159 -5.227,5.228 0.341,1.931 1.818,3.409 3.75,3.75z" data-uid="o_f3m77glf3_6" inkscape:label="neuron"/>
  <path id="path17" class="fil3 str1" d="M81.987 79.795m-2.39 0c0,1.319 1.07,2.39 2.39,2.39 1.32,0 2.391,-1.071 2.391,-2.39 0,-1.321 -1.071,-2.391 -2.391,-2.391 -1.32,0 -2.39,1.07 -2.39,2.391m0 0l0 0 0 0z" data-type="circle" data-cx="50" data-cy="50" data-r="50" data-uid="o_f3m77glf3_8" inkscape:label="right"/>
  <path id="path19" class="fil3 str1" d="M62.764 8.918m-3.215 0c0,1.775 1.439,3.215 3.215,3.215 1.776,0 3.216,-1.44 3.216,-3.215 0,-1.776 -1.44,-3.216 -3.216,-3.216 -1.776,0 -3.215,1.44 -3.215,3.216z" data-type="circle" data-cx="50" data-cy="50" data-r="50" data-uid="o_f3m77glf3_9" inkscape:label="up"/>
  <path id="path21" class="fil3 str1" d="M11.631 61.124m-1.777 0c0,0.982 0.796,1.778 1.777,1.778 0.982,0 1.777,-0.796 1.777,-1.778 0,-0.981 -0.795,-1.777 -1.777,-1.777 -0.981,0 -1.777,0.796 -1.777,1.777m0 0l0 0 0 0z" data-type="circle" data-cx="50" data-cy="50" data-r="50" data-uid="o_f3m77glf3_10" inkscape:label="left"/>
 </g>
</svg>
