<?xml version="1.0" encoding="UTF-8"?>
<!DOCTYPE svg PUBLIC "-//W3C//DTD SVG 1.1//EN" "http://www.w3.org/Graphics/SVG/1.1/DTD/svg11.dtd">
<!-- Creator: CorelDRAW -->
<svg xmlns="http://www.w3.org/2000/svg" xml:space="preserve" width="100mm" height="100mm" version="1.1" style="shape-rendering:geometricPrecision; text-rendering:geometricPrecision; image-rendering:optimizeQuality; fill-rule:evenodd; clip-rule:evenodd"
viewBox="0 0 10000 10000"
 xmlns:xlink="http://www.w3.org/1999/xlink"
 xmlns:xodm="http://www.corel.com/coreldraw/odm/2003">
 <defs>
  <style type="text/css">
   <![CDATA[
    .str0 {stroke:#FF7E00;stroke-width:84.67;stroke-miterlimit:22.9256}
    .str1 {stroke:#976ABC;stroke-width:67.73;stroke-miterlimit:22.9256}
    .str2 {stroke:#FF7E00;stroke-width:135.47;stroke-miterlimit:22.9256}
    .fil0 {fill:none}
    .fil1 {fill:none;fill-rule:nonzero}
   ]]>
  </style>
 </defs>
 <g id="Слой_x0020_1">
  <metadata id="CorelCorpID_0Corel-Layer"/>
  <g id="_1790534835456">
   <path class="fil0 str0" d="M6250.43 4936.16c-84.34,6.97 -362.21,129.66 -411.22,177.65 -42.78,41.92 -10.15,107.75 42.34,107.75 18.21,0 73.13,-37.28 91.62,-48.17 70.27,-41.35 247.03,-118.5 321.54,-120.14 2.17,25.82 10.6,42.35 17.83,70.14 7.29,28.1 9.99,41.77 14.94,72.99 9.97,63.08 11.49,99.77 11.49,171.52 -50.39,-4.16 -339.45,-65.76 -389.74,1.66 -29.58,39.67 -8.32,91.05 49.86,93.97 150.15,7.54 139.42,-14.12 325.11,28.78 0,92.05 -71.54,192.12 -122.15,259.36 -14.39,19.12 -15.73,19.01 -30.9,35.2 -14.9,15.87 -15.73,20.8 -29.58,36.51 -85.17,96.47 -264.03,200.9 -385.63,254.16 -463.62,203.01 -1043.26,198.54 -1509.15,4.4 -86.75,-36.13 -176.79,-82.17 -251.94,-137.95l-140.09 -117.16c-75.31,-90.4 -186.54,-210.3 -186.54,-334.52 217.97,-50.38 339.03,-4.6 374.97,-52.88 26.01,-34.96 14.43,-86.82 -49.84,-93.99 -96.12,-10.73 -113.74,-8.25 -213.28,1.71 -39.68,3.98 -89.47,17.7 -126.62,20.75 0,-68.77 1.16,-104.37 10.49,-165.21l33.77 -149.44c51.49,1.13 176.68,48.72 218.93,68.26l186.87 100.05c65.09,0 88.16,-63.17 53.29,-103.9 -9.66,-11.27 -41.02,-27.24 -57.66,-38.15 -24.34,-15.97 -40.16,-22.77 -66.95,-36.02 -72.32,-35.73 -211.18,-100.8 -290.2,-107.33 120.95,-226.7 32.84,-192.74 -16.08,-540.2 -12.96,-92.03 -65.21,-462.32 97.24,-462.32 228.02,0 534.15,292.72 604.98,292.72 138.44,0 117.38,-37.17 199.18,-43.92 0,129 -27.01,285.4 66.41,285.4 69.49,0 59.12,-63.96 59.03,-131.71 -0.09,-63.44 0,-126.85 0,-190.26 91.68,-21.2 87.55,-21.97 184.44,-21.97l0 519.56c0,58.94 118.05,58.94 118.05,0l0 -519.56c96.88,0 92.75,0.77 184.44,21.97 0,63.41 0.09,126.82 0,190.26 -0.14,94.03 -8.44,131.71 73.77,131.71 74.59,0 51.66,-210.57 51.66,-285.4 82.99,6.86 157.51,91.43 276.1,10.42 132.8,-90.71 360.05,-259.22 520.68,-259.22 229.06,0 76.27,630.91 39.96,756.77 -33.76,117.06 2.85,160.01 48.58,245.75zm-2663.39 -790.29c0,155.28 4.31,216.1 35.05,367.71l60.88 261.59c0,14.71 -50.82,104.06 -59.03,139.04 -81.91,0 -280.36,-19.05 -280.36,73.19 0,58.57 43.88,66.87 93.65,56.82 40.8,-8.23 89.78,-12.92 142.45,-12.92 -16.86,34.83 -32.25,122.31 -40.29,172.25 -10.99,68.39 -11.35,132.44 -11.35,208.27 -38.23,18.19 -96.86,39.43 -129.87,68.81 -44.98,40.03 -17.65,106.8 41.33,106.8 37.99,0 69.29,-41.66 110.67,-51.22 10.04,119.61 135.27,292.37 204.69,360.43 103.13,101.09 188.15,175.37 324.02,242.1 209.47,102.86 409.43,168.51 651.09,195.73 36.67,4.13 87.49,13.21 125.84,14.25l399.99 -13.52c141.19,-17.42 228.86,-38.3 354.38,-72.93l204.87 -74.87c178.44,-79.08 284.45,-155.42 422.51,-290.76 69.42,-68.06 194.66,-240.82 204.69,-360.43 41.38,9.56 72.68,51.22 110.67,51.22 58.98,0 86.31,-66.77 41.34,-106.8 -32.17,-28.61 -92.56,-51.07 -129.88,-68.81 0,-102.02 -10.66,-295.82 -51.64,-380.52 102.53,0 169.05,26.71 198.29,14.25 30.63,-13.06 37.81,-31.62 37.81,-58.15 0,-92.24 -198.44,-73.19 -280.36,-73.19 -6.33,-26.91 -59.02,-130.52 -59.02,-131.72 0,-52.59 272.95,-895.65 -96.68,-965.28 -189.35,-35.64 -477.72,156.63 -628.23,268.28 -39.86,29.58 -45.51,26.61 -92.95,8.18 -327.97,-127.31 -662.81,-127.31 -990.77,0 -76.43,29.67 -64.98,5.62 -165.66,-60.53 -153.76,-101.05 -565.67,-376.21 -701.5,-104.48 -27.66,55.33 -46.63,137.05 -46.63,217.21z"/>
   <path class="fil0 str0" d="M4797.01 5243.51c0,60.45 28.48,70.56 55.9,105.54 20.52,26.17 52.02,68.85 84.28,77.39 0,84.06 10.01,123.56 -31.46,173.69 -112.09,135.52 -241.66,82.8 -318.3,-46.28 -51.98,-87.53 -122.43,-39.63 -122.43,11.63 0,59.9 130.26,234.18 280.36,234.18 168.2,0 185,-73.37 250.85,-117.09 65.85,43.72 82.65,117.09 250.85,117.09 75.87,0 139.49,-39.09 179.02,-78.57 30.29,-30.24 101.34,-103.57 101.34,-155.61 0,-35.4 -23.33,-58.54 -59.02,-58.54 -55.13,0 -69.18,68.21 -101.41,104.32 -27.53,30.87 -83.48,74.99 -139.2,68.77 -60.73,-6.79 -105.99,-40.34 -137.64,-76 -44.77,-50.38 -34.91,-90.19 -34.91,-177.59 32.25,-8.54 63.75,-51.22 84.28,-77.39 27.41,-34.98 55.9,-45.09 55.9,-105.54 0,-57.22 -48.97,-117.09 -103.31,-117.09l-191.8 0c-54.34,0 -103.3,59.87 -103.3,117.09z"/>
   <path class="fil0 str0" d="M4228.92 4892.26c0,38.08 8.97,73.17 59.03,73.17 66.36,0 61.61,-100.69 177.05,-100.69 115.47,0 110.71,100.69 177.08,100.69 64.16,0 104.49,-80.32 -29.29,-175.83 -192.16,-137.21 -383.87,57.68 -383.87,102.66z"/>
   <path class="fil0 str0" d="M5291.32 4892.26c0,38.08 8.97,73.17 59.02,73.17 66.37,0 61.62,-100.69 177.08,-100.69 115.44,0 110.69,100.69 177.06,100.69 64.15,0 104.48,-80.32 -29.29,-175.83 -192.14,-137.21 -383.87,57.68 -383.87,102.66z"/>
  </g>
  <path id="path11" class="fil1 str1" d="M5397.78 1049.25c-113.64,-500 318.18,-931.81 818.18,-818.18 250,56.82 454.54,261.36 511.36,511.36 113.64,500.01 -318.18,931.82 -818.18,818.19 -250,-56.82 -454.54,-261.36 -511.36,-511.37zm2681.81 6375c-386.36,-56.82 -704.54,272.73 -647.72,647.72 34.09,238.64 227.27,431.83 465.91,465.92 386.36,56.82 704.54,-272.73 647.72,-647.73 -22.73,-227.27 -227.27,-431.82 -465.91,-465.91zm431.82 -2420.45c840.91,943.18 1193.18,1875 829.54,2500 -113.64,204.54 -306.82,363.63 -545.45,477.27 0,-125 -34.09,-238.64 -79.55,-340.91 147.73,-79.55 261.36,-181.82 340.91,-306.82 284.09,-488.63 -45.45,-1261.36 -761.36,-2079.55 -329.54,340.91 -715.91,670.46 -1136.36,977.28 -56.82,534.09 -147.73,1034.09 -272.74,1477.27 125.01,22.73 250.01,45.45 363.64,68.18 -22.73,68.18 -34.09,136.36 -34.09,215.91 0,45.45 0,90.91 11.36,125 -147.72,-22.72 -295.45,-45.45 -443.18,-79.54 -420.45,1204.55 -1045.45,1965.91 -1772.72,1965.91 -727.27,0 -1352.27,-761.36 -1750,-1965.91 -159.09,34.09 -318.18,56.82 -465.91,79.54 -204.54,22.73 -397.73,34.09 -579.54,34.09 -750,0 -1284.09,-227.27 -1534.09,-647.72 -136.36,-238.64 -170.45,-522.73 -113.64,-829.54 90.91,68.18 204.55,113.64 329.55,113.64 -22.73,204.54 0,397.73 90.91,545.45 227.27,397.73 875,556.82 1772.72,443.18 136.37,-22.73 272.73,-45.45 409.1,-68.18 -125,-443.18 -215.91,-943.18 -272.73,-1477.28 -431.83,-306.82 -806.82,-636.36 -1147.73,-977.27 -90.91,102.27 -181.82,215.91 -261.36,318.18 -11.36,22.73 -22.73,34.09 -45.45,56.82 -68.18,-68.18 -147.73,-113.64 -227.27,-147.73 -11.36,-34.09 -11.36,-45.45 -22.73,-79.55 102.27,-136.36 204.54,-261.36 318.18,-397.73 -113.64,-125 -215.91,-238.64 -306.82,-363.63 -647.73,-852.27 -829.55,-1602.27 -522.73,-2136.36 306.82,-534.09 1056.81,-750 2113.63,-613.63 147.73,22.72 306.82,45.45 465.91,79.54 386.36,-1204.55 1022.73,-1965.91 1750,-1965.91 181.82,0 363.64,45.46 534.09,147.73 -102.27,68.18 -181.81,159.09 -250,250 -90.9,-34.09 -193.18,-56.82 -284.09,-56.82 -556.82,0 -1079.55,670.45 -1420.46,1704.55 454.54,113.64 931.82,284.09 1420.46,500 477.27,-215.91 965.9,-386.36 1420.45,-500 -34.09,-90.91 -68.18,-193.18 -102.27,-284.09 113.64,-34.09 215.91,-90.91 306.82,-159.09 45.45,113.64 90.91,238.64 136.36,363.63 159.09,-34.09 318.18,-56.82 465.91,-79.55 1056.82,-136.36 1806.82,79.55 2113.64,613.63 306.82,534.09 125,1284.1 -522.73,2136.36 -102.27,113.64 -204.54,238.64 -318.18,363.63l0 0.02zm-1647.73 -2704.54c125,443.18 215.91,943.18 272.73,1477.27 431.82,318.18 818.19,647.73 1147.73,977.28 90.91,-102.27 181.82,-215.91 261.36,-318.18 545.45,-715.92 727.27,-1363.64 500,-1761.37 -181.82,-318.18 -625,-477.27 -1238.63,-477.27 -159.09,0 -340.91,11.36 -534.1,34.09 -136.36,11.36 -272.73,34.09 -409.09,68.18zm-1443.18 443.18c227.27,113.64 454.54,238.64 681.82,363.63 227.27,136.36 443.18,261.36 647.72,409.09 -56.82,-409.09 -136.36,-784.09 -227.27,-1136.36 -352.27,90.91 -727.27,204.54 -1102.27,363.63l0 0.01zm1386.36 1215.91c-272.73,-193.19 -568.18,-386.37 -875,-568.19 -306.82,-181.82 -613.63,-340.91 -920.45,-477.27 -306.82,136.36 -613.64,306.82 -920.46,477.27 -306.82,181.82 -602.27,363.64 -875,556.82 -34.09,340.92 -45.45,681.83 -45.45,1045.46 0,352.27 22.73,704.54 45.45,1045.45 272.73,193.18 568.18,386.37 875,556.82 306.82,181.82 613.64,340.92 920.46,477.28 306.82,-136.36 613.63,-306.82 920.45,-477.28 306.82,-181.82 602.27,-363.63 875,-556.82 34.09,-340.91 45.45,-681.82 45.45,-1045.45 11.37,-340.91 -11.36,-693.18 -45.45,-1034.09zm-3318.18 -1590.91c-102.27,352.27 -170.45,727.27 -227.27,1136.36 204.54,-136.36 431.82,-272.73 647.72,-409.09 227.27,-125 454.55,-250 681.82,-363.63 -375,-147.73 -738.63,-272.73 -1102.27,-363.64zm-2011.36 2068.18c79.55,102.27 170.45,215.91 261.36,318.18 329.54,-340.91 715.91,-670.45 1147.73,-977.27 56.82,-534.1 147.73,-1034.1 272.73,-1477.28 -136.36,-34.09 -272.73,-56.82 -409.09,-68.18 -193.18,-22.73 -363.64,-34.09 -534.1,-34.09 -613.63,0 -1056.81,170.45 -1238.63,477.27 -238.64,397.73 -56.82,1034.09 500,1761.37zm1363.64 1340.9c-11.36,-249.99 -22.73,-511.36 -22.73,-772.72 0,-261.36 11.36,-522.73 22.73,-772.72 -318.19,250 -613.64,511.36 -875.01,772.72 261.37,261.36 556.82,522.73 875.01,772.72zm647.72 1863.64c352.27,-90.91 727.27,-215.91 1102.27,-363.63 -227.27,-113.64 -454.54,-238.64 -681.82,-363.63 -227.27,-125 -443.18,-261.37 -647.72,-409.1 56.82,397.74 136.36,784.1 227.27,1136.37l0 -0.01zm2943.18 318.18c-454.54,-113.64 -931.81,-284.09 -1420.45,-500 -488.64,215.91 -965.91,386.36 -1420.46,500 340.91,1034.1 852.27,1704.55 1420.46,1704.55 556.82,0 1068.18,-670.45 1420.45,-1704.55zm329.55 -1465.9c-204.54,136.36 -431.82,272.73 -647.72,409.09 -227.27,125 -454.54,250 -681.82,363.63 375,147.73 750,272.73 1102.27,363.63 90.91,-340.91 170.45,-727.27 227.27,-1136.36l0 0.01zm1284.09 -1488.64c-250,-261.36 -545.45,-522.73 -875,-772.72 11.36,250 22.73,511.36 22.73,772.72 0,261.36 -11.37,522.73 -22.73,772.72 329.54,-250 613.63,-511.36 875,-772.72zm-7170.45 1556.82c306.82,45.45 568.18,-215.91 522.73,-522.73 -34.09,-193.19 -181.82,-352.28 -375,-375.01 -306.82,-45.45 -568.18,215.92 -522.73,522.74 34.09,193.18 181.82,340.91 375,375z" data-uid="o_f3m77glf3_6" inkscape:label="neuron"/>
  <path id="path17" class="fil1 str2" d="M7975.96 7983.31m-239.05 0c-0.01,131.99 107.04,239.05 239.04,239.05 132,0 239.05,-107.06 239.05,-239.05 0,-132 -107.05,-239.06 -239.05,-239.06 -132,0 -239.05,107.06 -239.05,239.06m0.01 0l0 0 0 0z" data-type="circle" data-cx="50" data-cy="50" data-r="50" data-uid="o_f3m77glf3_8" inkscape:label="right"/>
  <path id="path19" class="fil1 str2" d="M6053.64 895.62m-321.56 0c0,177.56 144,321.56 321.56,321.56 177.56,0 321.56,-144 321.56,-321.56 0,-177.56 -144,-321.55 -321.56,-321.55 -177.56,0 -321.56,143.99 -321.56,321.55z" data-type="circle" data-cx="50" data-cy="50" data-r="50" data-uid="o_f3m77glf3_9" inkscape:label="up"/>
  <path id="path21" class="fil1 str2" d="M940.34 6116.3m-177.72 0c0,98.13 79.58,177.72 177.72,177.72 98.13,0 177.72,-79.59 177.72,-177.72 0,-98.14 -79.59,-177.73 -177.72,-177.73 -98.14,0 -177.72,79.59 -177.72,177.73m0 0l0 0 0 0z" data-type="circle" data-cx="50" data-cy="50" data-r="50" data-uid="o_f3m77glf3_10" inkscape:label="left"/>
 </g>
</svg>
