<?xml version="1.0" encoding="UTF-8"?>
<!DOCTYPE svg PUBLIC "-//W3C//DTD SVG 1.1//EN" "http://www.w3.org/Graphics/SVG/1.1/DTD/svg11.dtd">
<!-- Creator: CorelDRAW 2021.5 -->
<svg xmlns="http://www.w3.org/2000/svg" xml:space="preserve" width="67.7329mm" height="13.5467mm" version="1.1" style="shape-rendering:geometricPrecision; text-rendering:geometricPrecision; image-rendering:optimizeQuality; fill-rule:evenodd; clip-rule:evenodd"
viewBox="0 0 6773.14 1354.64"
 xmlns:xlink="http://www.w3.org/1999/xlink"
 xmlns:xodm="http://www.corel.com/coreldraw/odm/2003">
 <defs>
  <style type="text/css">
   <![CDATA[
    .fil1 {fill:#2B2A29;fill-rule:nonzero}
    .fil3 {fill:#6E7681;fill-rule:nonzero}
    .fil2 {fill:#7B69C8;fill-rule:nonzero}
    .fil0 {fill:url(#id0);fill-rule:nonzero}
   ]]>
  </style>
  <radialGradient id="id0" gradientUnits="userSpaceOnUse" gradientTransform="matrix(0.913037 -0 -0 1 53 0)" cx="612.41" cy="677.32" r="6085.29" fx="612.41" fy="677.32">
   <stop offset="0" style="stop-opacity:1; stop-color:#4568DC"/>
   <stop offset="1" style="stop-opacity:1; stop-color:#B06AB3"/>
  </radialGradient>
 </defs>
 <g id="Слой_x0020_1">
  <metadata id="CorelCorpID_0Corel-Layer"/>
  <g id="_2503873779552">
   <path id="path11" class="fil0" d="M667.05 141.62c-15.46,-67.73 43.29,-126.23 111.31,-110.84 34.02,7.7 61.84,35.41 69.57,69.28 15.47,67.73 -43.28,126.23 -111.31,110.83 -34.01,-7.69 -61.84,-35.4 -69.57,-69.27zm364.86 863.59c-52.57,-7.7 -95.86,36.94 -88.13,87.74 4.64,32.33 30.92,58.5 63.39,63.12 52.56,7.7 95.85,-36.95 88.12,-87.75 -3.09,-30.79 -30.92,-58.5 -63.38,-63.11zm-417.43 -443.34c-63.39,0 -115.95,52.34 -115.95,115.45 0,63.12 52.56,115.46 115.95,115.46 63.39,0 115.95,-52.34 115.95,-115.46 0,-63.11 -52.56,-115.45 -115.95,-115.45zm476.18 115.45c114.4,127.77 162.33,254 112.86,338.66 -15.46,27.71 -41.75,49.26 -74.21,64.66 0,-16.94 -4.64,-32.33 -10.83,-46.18 20.1,-10.78 35.56,-24.63 46.38,-41.57 38.66,-66.19 -6.18,-170.87 -103.58,-281.7 -44.84,46.18 -97.4,90.83 -154.61,132.39 -7.73,72.35 -20.09,140.09 -37.1,200.12 17.01,3.08 34.01,6.16 49.47,9.24 -3.09,9.23 -4.64,18.47 -4.64,29.25 0,6.15 0,12.31 1.55,16.93 -20.1,-3.08 -40.2,-6.16 -60.29,-10.78 -57.21,163.18 -142.24,266.31 -241.18,266.31 -98.95,0 -183.98,-103.14 -238.08,-266.31 -21.65,4.62 -43.29,7.7 -63.39,10.78 -27.83,3.08 -54.11,4.62 -78.85,4.62 -102.04,0 -174.7,-30.79 -208.72,-87.75 -18.55,-32.33 -23.19,-70.81 -15.46,-112.38 12.37,9.24 27.83,15.4 44.84,15.4 -3.09,27.71 0,53.88 12.37,73.89 30.92,53.88 119.04,75.43 241.17,60.04 18.55,-3.08 37.11,-6.16 55.66,-9.24 -17.01,-60.04 -29.38,-127.77 -37.1,-200.12 -58.75,-41.57 -109.77,-86.21 -156.16,-132.39 -12.36,13.85 -24.73,29.25 -35.56,43.1 -1.54,3.08 -3.09,4.62 -6.18,7.7 -9.28,-9.24 -20.1,-15.39 -30.92,-20.01 -1.55,-4.62 -1.55,-6.16 -3.09,-10.78 13.91,-18.47 27.83,-35.4 43.29,-53.88 -15.46,-16.93 -29.38,-32.33 -41.75,-49.26 -88.12,-115.45 -112.86,-217.05 -71.12,-289.4 41.75,-72.35 143.79,-101.6 287.56,-83.12 20.1,3.08 41.74,6.16 63.39,10.77 52.56,-163.17 139.14,-266.3 238.08,-266.3 24.74,0 49.47,6.15 72.67,20.01 -13.92,9.23 -24.74,21.55 -34.02,33.87 -12.37,-4.62 -26.28,-7.7 -38.65,-7.7 -75.76,0 -146.87,90.82 -193.26,230.9 61.85,15.39 126.78,38.48 193.26,67.73 64.94,-29.25 131.42,-52.34 193.26,-67.73 -4.64,-12.32 -9.28,-26.17 -13.92,-38.49 15.46,-4.61 29.38,-12.31 41.75,-21.55 6.18,15.4 12.36,32.33 18.55,49.26 21.64,-4.61 43.29,-7.69 63.39,-10.77 143.78,-18.48 245.81,10.77 287.55,83.13 41.75,72.35 17.01,173.95 -71.12,289.39 -13.91,15.4 -27.82,32.33 -43.28,49.27l0 -0.01zm-224.18 -366.36c17,60.03 29.37,127.77 37.1,200.12 58.75,43.1 111.32,87.74 156.15,132.39 12.37,-13.86 24.74,-29.25 35.56,-43.11 74.21,-96.98 98.95,-184.73 68.03,-238.59 -24.74,-43.11 -85.03,-64.66 -168.52,-64.66 -21.65,0 -46.38,1.54 -72.66,4.62 -18.56,1.54 -37.11,4.62 -55.66,9.23l0 0.01zm-196.35 60.03c30.92,15.4 61.84,32.33 92.76,49.26 30.92,18.48 60.3,35.41 88.13,55.42 -7.73,-55.42 -18.55,-106.22 -30.92,-153.94 -47.93,12.32 -98.95,27.71 -149.97,49.26l0 0zm188.62 164.72c-37.11,-26.17 -77.3,-52.34 -119.05,-76.97 -41.74,-24.63 -83.49,-46.18 -125.23,-64.66 -41.74,18.48 -83.49,41.57 -125.23,64.66 -41.74,24.63 -81.94,49.26 -119.05,75.43 -4.63,46.18 -6.18,92.36 -6.18,141.62 0,47.73 3.09,95.45 6.18,141.63 37.11,26.17 77.31,52.34 119.05,75.43 41.74,24.63 83.49,46.18 125.23,64.66 41.74,-18.48 83.49,-41.57 125.23,-64.66 41.74,-24.63 81.94,-49.26 119.05,-75.43 4.64,-46.18 6.18,-92.36 6.18,-141.63 1.55,-46.18 -1.54,-93.9 -6.18,-140.08l0 0zm-451.44 -215.52c-13.91,47.72 -23.19,98.52 -30.92,153.94 27.83,-18.47 58.75,-36.94 88.12,-55.42 30.93,-16.93 61.85,-33.86 92.77,-49.26 -51.02,-20.01 -100.5,-36.94 -149.97,-49.26zm-273.64 280.16c10.82,13.86 23.19,29.25 35.56,43.11 44.83,-46.18 97.4,-90.83 156.15,-132.39 7.73,-72.35 20.1,-140.09 37.1,-200.12 -18.55,-4.62 -37.1,-7.7 -55.65,-9.24 -26.29,-3.08 -49.48,-4.62 -72.67,-4.62 -83.49,0 -143.78,23.09 -168.52,64.66 -32.46,53.88 -7.73,140.08 68.03,238.6l0 -0.01zm185.53 181.65c-1.55,-33.86 -3.1,-69.27 -3.1,-104.68 0,-35.4 1.55,-70.81 3.09,-104.68 -43.29,33.87 -83.48,69.28 -119.04,104.68 35.56,35.41 75.75,70.82 119.04,104.68l0.01 0zm88.12 252.46c47.93,-12.32 98.95,-29.25 149.97,-49.27 -30.92,-15.39 -61.84,-32.32 -92.77,-49.26 -30.92,-16.93 -60.29,-35.4 -88.12,-55.42 7.73,53.88 18.55,106.22 30.92,153.94l0 0.01zm400.42 43.1c-61.84,-15.39 -126.78,-38.49 -193.26,-67.73 -66.48,29.24 -131.41,52.34 -193.25,67.73 46.38,140.08 115.95,230.9 193.25,230.9 75.76,0 145.33,-90.83 193.26,-230.9zm44.83 -198.58c-27.83,18.47 -58.75,36.94 -88.12,55.41 -30.92,16.94 -61.84,33.87 -92.77,49.27 51.02,20.01 102.04,36.94 149.97,49.26 12.37,-46.18 23.19,-98.52 30.92,-153.94l0 0zm174.71 -201.67c-34.02,-35.4 -74.21,-70.81 -119.05,-104.68 1.55,33.87 3.09,69.28 3.09,104.68 0,35.41 -1.54,70.82 -3.09,104.68 44.84,-33.86 83.49,-69.27 119.05,-104.68zm-975.54 210.9c41.74,6.16 77.3,-29.25 71.12,-70.81 -4.64,-26.17 -24.74,-47.72 -51.02,-50.8 -41.75,-6.16 -77.31,29.25 -71.12,70.81 4.64,26.17 24.73,46.18 51.02,50.8z" data-uid="o_f3m77glf3_6" inkscape:label="neuron"/>
   <g data-type="circle" data-cx="50" data-cy="50" data-r="50" data-uid="o_f3m77glf3_7" inkscape:label="center">
    <path id="path15" class="fil1" d="M548.92 677.32c0,0.01 0,0.03 0,0.04 0,34.9 28.43,63.22 63.49,63.22 35.06,0 63.5,-28.32 63.5,-63.22 0,-0.01 0,-0.03 0,-0.03 0,-0.01 0,-0.03 0,-0.04 0,-34.91 -28.44,-63.22 -63.5,-63.22 -35.06,0 -63.49,28.31 -63.49,63.22 0,0.01 0,0.03 0,0.03l0 0zm0 0l0 0 0 0z"/>
   </g>
   <g data-type="circle" data-cx="50" data-cy="50" data-r="50" data-uid="o_f3m77glf3_8" inkscape:label="right">
    <path id="path17" class="fil1" d="M985.28 1080.97c0,0.01 0,0.03 0,0.05 0,17.88 14.57,32.38 32.53,32.38 17.96,0 32.52,-14.5 32.52,-32.38 0,-0.02 0,-0.04 0,-0.05 0,-0.01 0,-0.03 0,-0.04 0,-17.88 -14.56,-32.38 -32.52,-32.38 -17.96,0 -32.53,14.5 -32.53,32.38 0,0.01 0,0.03 0,0.04l0 0zm0 0l0 0 0 0z"/>
   </g>
   <g data-type="circle" data-cx="50" data-cy="50" data-r="50" data-uid="o_f3m77glf3_9" inkscape:label="up">
    <path id="path19" class="fil1" d="M712.52 120.84c0,0.01 0,0.02 0,0.04 0,24.05 19.59,43.56 43.75,43.56 24.16,0 43.75,-19.51 43.75,-43.56 0,-0.02 0,-0.03 0,-0.04 0,-0.01 0,-0.02 0,-0.03 0,-24.05 -19.59,-43.56 -43.75,-43.56 -24.16,0 -43.75,19.51 -43.75,43.56 0,0.01 0,0.02 0,0.03l0 0zm0 0l0 0 0 0z"/>
   </g>
   <g data-type="circle" data-cx="50" data-cy="50" data-r="50" data-uid="o_f3m77glf3_10" inkscape:label="left">
    <path id="path21" class="fil1" d="M36.43 828.06c0,13.29 10.83,24.07 24.18,24.07 13.36,0 24.18,-10.78 24.18,-24.07 0,-13.3 -10.82,-24.08 -24.18,-24.08 -13.35,0 -24.18,10.78 -24.18,24.08l0 0zm0 0l0 0 0 0z"/>
   </g>
   <g transform="matrix(0.989784 0 0 1 -1966.7 12.6965)">
    <path id="text755" class="fil2" d="M1489.03 690.02c-10.72,0 -19.03,-3.11 -24.93,-9.34 -5.89,-6.22 -8.83,-14.75 -8.83,-25.58l0 -506.66c0,-11.37 2.81,-20.03 8.44,-25.98 5.62,-5.96 13.8,-8.94 24.51,-8.94 10.71,0 18.88,2.98 24.51,8.94 5.62,5.95 8.44,14.61 8.44,25.98l0 483.12 263.59 0c9.65,0 17.16,2.57 22.51,7.71 5.36,5.14 8.04,12.32 8.04,21.52 0,9.2 -2.68,16.37 -8.04,21.52 -5.35,5.14 -12.86,7.71 -22.51,7.71l-295.73 0z"/>
    <path id="_1" class="fil2" d="M2041.14 697.33c-38.04,0 -70.99,-8.39 -98.85,-25.17 -27.86,-16.78 -49.43,-40.47 -64.7,-71.05 -15.28,-30.59 -22.91,-66.72 -22.91,-108.4 0,-31.4 4.29,-59.68 12.86,-84.85 8.57,-25.17 21.16,-46.69 37.78,-64.56 16.61,-17.86 36.3,-31.53 59.07,-41 22.77,-9.47 48.35,-14.21 76.75,-14.21 38.04,0 71,8.39 98.85,25.17 27.86,16.78 49.43,40.46 64.7,71.05 15.27,30.58 22.9,66.72 22.9,108.4 0,31.4 -4.28,59.54 -12.85,84.44 -8.58,24.91 -21.17,46.42 -37.77,64.56 -16.62,18.13 -36.31,31.94 -59.08,41.41 -22.77,9.47 -48.36,14.21 -76.75,14.21zm0 -52.78c24.11,0 45.27,-5.96 63.49,-17.86 18.21,-11.91 32.28,-29.24 42.2,-51.97 9.9,-22.74 14.86,-50.07 14.86,-82.01 0,-49.26 -10.84,-86.88 -32.55,-112.87 -21.7,-25.98 -51.03,-38.97 -88,-38.97 -24.65,0 -45.95,5.82 -63.89,17.46 -17.96,11.63 -31.88,28.69 -41.79,51.15 -9.92,22.47 -14.88,50.21 -14.88,83.23 0,48.72 10.99,86.2 32.95,112.46 21.98,26.25 51.17,39.38 87.61,39.38z"/>
    <path id="_2" class="fil2" d="M2491.19 697.33c-39.11,0 -72.87,-8.66 -101.26,-25.99 -28.4,-17.32 -50.23,-41.54 -65.51,-72.67 -15.27,-31.12 -22.9,-67.26 -22.9,-108.4 0,-31.39 4.29,-59.54 12.86,-84.44 8.57,-24.9 21.16,-46.15 37.78,-63.74 16.61,-17.6 36.56,-30.99 59.87,-40.2 23.31,-9.2 49.7,-13.8 79.16,-13.8 19.29,0 39.39,2.98 60.28,8.93 20.9,5.96 39.92,16.24 57.06,30.86 5.36,3.79 8.84,8.39 10.44,13.8 1.62,5.41 1.62,10.69 0,15.83 -1.6,5.15 -4.28,9.48 -8.03,13 -3.75,3.51 -8.44,5.54 -14.07,6.09 -5.62,0.54 -11.38,-1.36 -17.27,-5.69 -13.94,-10.82 -28.13,-18.4 -42.6,-22.73 -14.46,-4.33 -28.4,-6.5 -41.79,-6.5 -20.89,0 -39.11,3.38 -54.65,10.15 -15.53,6.77 -28.67,16.38 -39.38,28.83 -10.72,12.45 -18.88,27.87 -24.52,46.28 -5.62,18.4 -8.43,39.79 -8.43,64.14 0,47.1 10.98,84.32 32.95,111.65 21.97,27.34 53.31,41.01 94.03,41.01 13.39,0 27.19,-2.17 41.39,-6.5 14.2,-4.33 28.53,-11.91 43,-22.73 5.89,-4.33 11.51,-6.23 16.88,-5.69 5.35,0.54 9.9,2.57 13.66,6.09 3.75,3.52 6.29,7.99 7.64,13.4 1.33,5.41 1.19,10.69 -0.41,15.83 -1.6,5.15 -5.09,9.61 -10.45,13.4 -17.14,14.08 -35.89,24.22 -56.26,30.45 -20.36,6.23 -40.18,9.34 -59.47,9.34z"/>
    <path id="_3" class="fil2" d="M2817.49 697.33c-26.79,0 -50.77,-5.28 -71.93,-15.84 -21.16,-10.55 -37.91,-25.03 -50.23,-43.44 -12.33,-18.4 -18.48,-38.97 -18.48,-61.71 0,-29.23 7.36,-52.23 22.1,-69.02 14.73,-16.78 39.1,-28.69 73.13,-35.72 34.02,-7.04 80.5,-10.56 139.44,-10.56l36.16 0 0 43.04 -35.35 0c-43.41,0 -77.56,2.03 -102.48,6.09 -24.91,4.06 -42.32,10.96 -52.24,20.7 -9.9,9.75 -14.86,23.55 -14.86,41.41 0,22.2 7.63,40.33 22.9,54.41 15.27,14.07 36.03,21.11 62.29,21.11 21.43,0 40.31,-5.15 56.65,-15.43 16.34,-10.29 29.21,-24.36 38.58,-42.22 9.38,-17.87 14.07,-38.44 14.07,-61.71l0 -92.57c0,-33.56 -6.7,-57.79 -20.09,-72.67 -13.4,-14.89 -35.37,-22.33 -65.9,-22.33 -18.76,0 -37.52,2.43 -56.26,7.31 -18.76,4.87 -38.58,12.72 -59.48,23.54 -7.5,3.79 -13.93,5.01 -19.29,3.66 -5.35,-1.36 -9.64,-4.2 -12.86,-8.53 -3.21,-4.33 -5.08,-9.34 -5.62,-15.02 -0.53,-5.68 0.67,-11.23 3.61,-16.65 2.95,-5.41 7.64,-9.74 14.07,-12.99 23.58,-11.91 46.88,-20.57 69.92,-25.98 23.04,-5.41 45.01,-8.12 65.91,-8.12 33.75,0 61.61,5.55 83.57,16.65 21.98,11.09 38.32,27.87 49.03,50.34 10.72,22.46 16.07,51.29 16.07,86.47l0 220.05c0,10.83 -2.54,19.22 -7.63,25.17 -5.09,5.96 -12.46,8.93 -22.1,8.93 -10.19,0 -17.95,-2.97 -23.31,-8.93 -5.36,-5.95 -8.04,-14.34 -8.04,-25.17l0 -63.33 7.24 0c-4.29,20.57 -12.46,38.16 -24.52,52.77 -12.04,14.62 -26.92,25.99 -44.6,34.11 -17.68,8.12 -37.5,12.18 -59.47,12.18z"/>
    <path id="_4" class="fil2" d="M3239.41 697.33c-38.57,0 -68.04,-11.91 -88.4,-35.73 -20.36,-23.82 -30.54,-57.92 -30.54,-102.31l0 -414.1c0,-10.83 2.68,-19.08 8.03,-24.76 5.36,-5.69 13.4,-8.53 24.12,-8.53 10.17,0 18.21,2.84 24.11,8.53 5.89,5.68 8.84,13.93 8.84,24.76l0 409.23c0,29.23 5.76,51.02 17.28,65.36 11.52,14.35 28.52,21.52 51.03,21.52 4.82,0 9.11,-0.27 12.86,-0.81 3.75,-0.54 7.5,-0.81 11.25,-0.81 5.89,-0.54 10.05,0.81 12.45,4.06 2.42,3.25 3.63,9.74 3.63,19.48 0,9.75 -2.15,17.06 -6.44,21.93 -4.28,4.87 -11.25,8.12 -20.89,9.74 -4.29,0.54 -8.84,1.08 -13.66,1.63 -4.82,0.54 -9.38,0.81 -13.67,0.81z"/>
    <path id="_5" class="fil2" d="M3365.6 690.02c-6.97,0 -12.59,-1.62 -16.88,-4.87 -4.28,-3.25 -7.23,-7.58 -8.85,-12.99 -1.6,-5.42 -1.6,-11.37 0,-17.87 1.62,-6.49 5.1,-12.72 10.46,-18.67l226.63 -306.11 0 17.05 -214.59 0c-8.57,0 -15.13,-2.3 -19.69,-6.9 -4.55,-4.6 -6.83,-10.96 -6.83,-19.08 0,-8.12 2.28,-14.35 6.83,-18.68 4.56,-4.33 11.12,-6.49 19.69,-6.49l246.72 0c8.04,0 14.6,1.62 19.69,4.87 5.09,3.25 8.44,7.44 10.05,12.59 1.61,5.14 1.74,10.82 0.4,17.05 -1.34,6.22 -4.42,12.31 -9.24,18.27l-230.65 309.35 0 -18.67 225.83 0c17.68,0 26.51,8.39 26.51,25.17 0,8.12 -2.27,14.48 -6.82,19.08 -4.56,4.6 -11.12,6.9 -19.69,6.9l-259.58 0z"/>
    <path id="_6" class="fil2" d="M3898.42 697.33c-41.26,0 -76.75,-8.26 -106.48,-24.77 -29.75,-16.51 -52.78,-39.92 -69.12,-70.23 -16.34,-30.32 -24.52,-66.59 -24.52,-108.81 0,-41.14 8.04,-77 24.11,-107.59 16.08,-30.58 38.18,-54.53 66.31,-71.86 28.13,-17.32 60.67,-25.98 97.64,-25.98 26.26,0 49.84,4.47 70.73,13.4 20.9,8.93 38.71,21.79 53.45,38.57 14.73,16.78 25.98,37.08 33.75,60.9 7.77,23.81 11.65,50.61 11.65,80.38 0,8.66 -2.4,15.02 -7.23,19.08 -4.82,4.06 -11.78,6.09 -20.9,6.09l-279.67 0 0 -43.03 264.41 0 -12.87 10.55c0,-29.23 -4.28,-53.99 -12.85,-74.29 -8.58,-20.3 -21.03,-35.87 -37.38,-46.69 -16.34,-10.83 -36.83,-16.24 -61.47,-16.24 -27.33,0 -50.5,6.36 -69.53,19.08 -19.01,12.72 -33.35,30.31 -42.99,52.78 -9.64,22.46 -14.46,48.58 -14.46,78.35l0 4.88c0,49.8 11.91,87.69 35.76,113.67 23.84,25.99 57.73,38.98 101.66,38.98 18.22,0 36.3,-2.44 54.25,-7.31 17.95,-4.87 35.5,-12.99 52.64,-24.36 7.51,-4.87 14.34,-7.17 20.49,-6.9 6.17,0.27 11.13,2.17 14.87,5.68 3.75,3.52 6.3,7.85 7.64,13 1.34,5.14 0.8,10.69 -1.61,16.64 -2.41,5.96 -7.1,11.1 -14.07,15.43 -17.67,12.99 -38.57,23 -62.68,30.04 -24.11,7.04 -47.96,10.56 -71.53,10.56z"/>
    <path id="_7" class="fil2" d="M4306.68 697.33c-30.54,0 -56.13,-5.55 -76.75,-16.65 -20.63,-11.09 -36.03,-27.33 -46.22,-48.72 -10.17,-21.38 -15.26,-47.5 -15.26,-78.35l0 -207.06 -53.85 0c-9.11,0 -16.08,-2.3 -20.9,-6.9 -4.82,-4.6 -7.23,-10.96 -7.23,-19.08 0,-8.12 2.41,-14.35 7.23,-18.68 4.82,-4.33 11.79,-6.49 20.9,-6.49l53.85 0 0 -93.38c0,-10.83 2.94,-19.08 8.84,-24.77 5.89,-5.68 13.93,-8.52 24.11,-8.52 10.18,0 18.08,2.84 23.71,8.52 5.62,5.69 8.44,13.94 8.44,24.77l0 93.38 101.26 0c9.11,0 16.08,2.16 20.9,6.49 4.82,4.33 7.23,10.56 7.23,18.68 0,8.12 -2.41,14.48 -7.23,19.08 -4.82,4.6 -11.79,6.9 -20.9,6.9l-101.26 0 0 200.56c0,30.86 6.42,54.27 19.28,70.24 12.87,15.97 33.76,23.95 62.69,23.95 10.18,0 18.89,-1.08 26.12,-3.25 7.24,-2.16 13.27,-3.24 18.09,-3.24 4.82,-0.55 8.84,1.08 12.05,4.87 3.21,3.79 4.82,10.28 4.82,19.48 0,6.5 -1.21,12.46 -3.62,17.87 -2.41,5.41 -6.56,9.2 -12.45,11.37 -6.44,2.16 -14.87,4.19 -25.32,6.09 -10.44,1.89 -19.95,2.84 -28.53,2.84z"/>
    <path id="_8" class="fil2" d="M4906.22 697.33c-60.55,0 -111.58,-11.64 -153.1,-34.92 -41.53,-23.27 -73.01,-56.84 -94.44,-100.68 -21.43,-43.85 -32.15,-96.36 -32.15,-157.53 0,-45.47 6.03,-86.34 18.09,-122.61 12.05,-36.26 29.73,-66.98 53.04,-92.16 23.31,-25.17 51.71,-44.65 85.19,-58.46 33.48,-13.8 71.39,-20.7 113.73,-20.7 33.75,0 66.43,4.73 98.04,14.21 31.62,9.47 59.74,24.49 84.39,45.06 6.43,4.87 10.44,10.29 12.06,16.24 1.6,5.95 1.46,11.91 -0.41,17.86 -1.88,5.96 -4.82,10.97 -8.84,15.03 -4.01,4.06 -9.1,6.36 -15.27,6.9 -6.17,0.54 -12.46,-1.36 -18.88,-5.69 -21.98,-17.32 -45.28,-29.9 -69.92,-37.75 -24.65,-7.85 -51.98,-11.78 -81.99,-11.78 -42.85,0 -79.16,9.21 -108.89,27.61 -29.74,18.4 -52.24,44.93 -67.52,79.57 -15.26,34.65 -22.9,76.87 -22.9,126.67 0,75.79 17.55,133.71 52.65,173.77 35.09,40.05 88,60.08 158.72,60.08 25.72,0 50.9,-2.57 75.55,-7.71 24.65,-5.14 47.95,-12.32 69.92,-21.52l-14.46 38.17 0 -202.19 -114.94 0c-9.64,0 -16.87,-2.43 -21.69,-7.31 -4.82,-4.87 -7.24,-11.36 -7.24,-19.48 0,-8.66 2.42,-15.16 7.24,-19.49 4.82,-4.33 12.05,-6.5 21.69,-6.5l143.87 0c9.1,0 16.07,2.44 20.89,7.31 4.82,4.87 7.24,11.91 7.24,21.11l0 211.93c0,8.12 -1.35,14.89 -4.02,20.3 -2.68,5.41 -7.24,9.47 -13.67,12.18 -22.5,9.2 -49.42,16.91 -80.77,23.14 -31.34,6.23 -61.75,9.34 -91.21,9.34z"/>
    <path id="_9" class="fil2" d="M5255.01 695.7c-10.71,0 -18.89,-2.97 -24.51,-8.93 -5.63,-5.95 -8.44,-14.34 -8.44,-25.17l0 -338.58c0,-10.83 2.68,-19.09 8.03,-24.77 5.36,-5.68 13.13,-8.53 23.31,-8.53 10.18,0 18.09,2.85 23.71,8.53 5.62,5.68 8.44,13.94 8.44,24.77l0 65.77 -8.04 0c8.58,-31.94 24.92,-56.57 49.03,-73.89 24.11,-17.33 53.84,-26.53 89.21,-27.61 8.03,-0.54 14.46,1.22 19.29,5.28 4.82,4.06 7.49,10.96 8.03,20.7 0.54,9.2 -1.61,16.51 -6.43,21.92 -4.82,5.42 -12.32,8.67 -22.51,9.75l-12.85 1.62c-36.44,3.25 -64.43,15.02 -83.99,35.32 -19.55,20.3 -29.33,48.05 -29.33,83.23l0 196.5c0,10.83 -2.82,19.22 -8.44,25.17 -5.63,5.96 -13.79,8.93 -24.51,8.93z"/>
    <path id="_10" class="fil2" d="M5667.29 697.33c-38.04,0 -70.99,-8.39 -98.85,-25.17 -27.86,-16.78 -49.43,-40.47 -64.7,-71.05 -15.27,-30.59 -22.9,-66.72 -22.9,-108.4 0,-31.4 4.28,-59.68 12.85,-84.85 8.57,-25.17 21.16,-46.69 37.78,-64.56 16.61,-17.86 36.3,-31.53 59.07,-41 22.77,-9.47 48.35,-14.21 76.75,-14.21 38.04,0 71,8.39 98.85,25.17 27.86,16.78 49.43,40.46 64.7,71.05 15.27,30.58 22.91,66.72 22.91,108.4 0,31.4 -4.29,59.54 -12.86,84.44 -8.57,24.91 -21.16,46.42 -37.77,64.56 -16.62,18.13 -36.31,31.94 -59.08,41.41 -22.77,9.47 -48.35,14.21 -76.75,14.21zm0 -52.78c24.11,0 45.27,-5.96 63.5,-17.86 18.21,-11.91 32.27,-29.24 42.19,-51.97 9.91,-22.74 14.87,-50.07 14.87,-82.01 0,-49.26 -10.85,-86.88 -32.56,-112.87 -21.69,-25.98 -51.03,-38.97 -88,-38.97 -24.64,0 -45.95,5.82 -63.89,17.46 -17.95,11.63 -31.88,28.69 -41.79,51.15 -9.92,22.47 -14.88,50.21 -14.88,83.23 0,48.72 10.99,86.2 32.95,112.46 21.98,26.25 51.18,39.38 87.61,39.38z"/>
    <path id="_11" class="fil2" d="M6090.03 697.33c-31.62,0 -57.74,-5.82 -78.36,-17.46 -20.63,-11.64 -36.17,-29.1 -46.61,-52.37 -10.45,-23.28 -15.68,-52.24 -15.68,-86.88l0 -217.61c0,-11.37 2.82,-19.76 8.44,-25.18 5.62,-5.41 13.53,-8.12 23.71,-8.12 10.72,0 18.89,2.71 24.51,8.12 5.63,5.42 8.44,13.81 8.44,25.18l0 216.79c0,34.65 7.1,60.5 21.3,77.55 14.2,17.05 36.57,25.58 67.1,25.58 33.22,0 60.28,-11.37 81.18,-34.11 20.89,-22.73 31.34,-52.51 31.34,-89.32l0 -196.49c0,-11.37 2.81,-19.76 8.45,-25.18 5.62,-5.41 13.78,-8.12 24.5,-8.12 10.19,0 18.09,2.71 23.71,8.12 5.63,5.42 8.44,13.81 8.44,25.18l0 338.58c0,22.74 -10.45,34.1 -31.34,34.1 -10.18,0 -18.09,-2.97 -23.71,-8.93 -5.62,-5.95 -8.44,-14.34 -8.44,-25.17l0 -73.89 10.45 11.37c-10.72,31.94 -28.26,56.3 -52.65,73.08 -24.38,16.78 -52.63,25.17 -84.78,25.17z"/>
    <path id="_12" class="fil2" d="M6434.8 841.86c-10.72,0 -18.76,-2.84 -24.11,-8.53 -5.36,-5.68 -8.04,-13.93 -8.04,-24.76l0 -485.55c0,-10.83 2.68,-19.09 8.04,-24.77 5.35,-5.68 13.12,-8.53 23.31,-8.53 10.71,0 18.88,2.85 24.5,8.53 5.64,5.68 8.45,13.94 8.45,24.77l0 77.13 -8.84 -11.36c8.57,-30.86 25.58,-55.35 51.03,-73.49 25.45,-18.13 55.86,-27.2 91.22,-27.2 34.82,0 65.23,8.26 91.22,24.77 25.98,16.51 46.07,40.05 60.28,70.64 14.19,30.58 21.29,66.99 21.29,109.21 0,41.68 -7.1,77.81 -21.29,108.4 -14.21,30.58 -34.16,54.27 -59.89,71.05 -25.71,16.78 -56.25,25.17 -91.61,25.17 -35.36,0 -65.63,-9.07 -90.82,-27.2 -25.18,-18.14 -42.33,-42.36 -51.43,-72.68l9.64 0 0 211.12c0,10.83 -2.95,19.08 -8.84,24.76 -5.9,5.69 -13.94,8.53 -24.11,8.53zm151.89 -197.31c24.65,0 45.95,-5.96 63.9,-17.86 17.95,-11.91 31.87,-29.24 41.79,-51.97 9.91,-22.74 14.87,-50.07 14.87,-82.01 0,-49.26 -10.85,-86.88 -32.55,-112.87 -21.7,-25.98 -51.04,-38.97 -88.01,-38.97 -24.11,0 -45.27,5.82 -63.48,17.46 -18.23,11.63 -32.29,28.69 -42.2,51.15 -9.92,22.47 -14.86,50.21 -14.86,83.23 0,48.72 10.97,86.2 32.95,112.46 21.96,26.25 51.16,39.38 87.59,39.38z"/>
   </g>
   <g transform="matrix(1.04443 0 0 1 -2126.19 500.498)">
    <path id="text755_0" class="fil3" d="M1473.58 1177.82c-6.97,0 -12.27,-1.74 -15.91,-5.23 -3.63,-3.48 -5.46,-8.56 -5.46,-15.22l0 -279.52c0,-6.67 1.83,-11.74 5.46,-15.23 3.64,-3.48 8.94,-5.23 15.91,-5.23l91.62 0c54.11,0 95.88,13.64 125.32,40.91 29.43,27.27 44.14,66.97 44.14,119.08 0,26.06 -3.71,49.02 -11.15,68.86 -7.44,19.85 -18.43,36.59 -32.99,50.23 -14.56,13.63 -32.29,23.94 -53.17,30.91 -20.88,6.97 -44.94,10.45 -72.15,10.45l-91.62 0zm17.55 -31.82l71.21 0c22.16,0 41.38,-2.72 57.69,-8.18 16.29,-5.45 29.9,-13.48 40.81,-24.09 10.93,-10.6 19.07,-24.01 24.45,-40.22 5.38,-16.21 8.08,-34.92 8.08,-56.14 0,-42.72 -10.92,-74.76 -32.76,-96.13 -21.84,-21.36 -54.59,-32.04 -98.27,-32.04l-71.21 0 0 256.79z"/>
    <path id="_1_1" class="fil3" d="M1903.17 1181.91c-24.36,0 -45.33,-4.62 -62.89,-13.86 -17.57,-9.24 -31.18,-22.35 -40.83,-39.32 -9.65,-16.97 -14.48,-37.27 -14.48,-60.9 0,-23.03 4.75,-43.11 14.24,-60.23 9.49,-17.12 22.55,-30.53 39.17,-40.22 16.61,-9.7 35.84,-14.55 57.68,-14.55 15.5,0 29.43,2.5 41.77,7.5 12.34,5 22.87,12.2 31.57,21.59 8.7,9.4 15.35,20.76 19.94,34.09 4.58,13.33 6.88,28.33 6.88,45 0,4.85 -1.42,8.41 -4.27,10.68 -2.85,2.27 -6.97,3.41 -12.35,3.41l-165.19 0 0 -24.09 156.18 0 -7.6 5.91c0,-16.37 -2.53,-30.23 -7.6,-41.59 -5.06,-11.36 -12.41,-20.08 -22.07,-26.14 -9.66,-6.06 -21.76,-9.09 -36.32,-9.09 -16.14,0 -29.82,3.56 -41.06,10.69 -11.23,7.12 -19.69,16.96 -25.4,29.54 -5.69,12.57 -8.54,27.19 -8.54,43.86l0 2.73c0,27.87 7.04,49.09 21.13,63.63 14.08,14.54 34.1,21.82 60.04,21.82 10.77,0 21.44,-1.37 32.05,-4.09 10.6,-2.73 20.97,-7.28 31.09,-13.64 4.44,-2.73 8.47,-4.01 12.1,-3.86 3.65,0.15 6.57,1.21 8.79,3.18 2.21,1.97 3.71,4.39 4.51,7.27 0.79,2.88 0.48,5.99 -0.95,9.32 -1.42,3.33 -4.19,6.21 -8.31,8.63 -10.44,7.28 -22.78,12.88 -37.02,16.82 -14.25,3.94 -28.33,5.91 -42.26,5.91z"/>
    <path id="_2_2" class="fil3" d="M2134.83 1181c-5.38,0 -10.12,-1.44 -14.24,-4.32 -4.11,-2.87 -7.6,-7.34 -10.44,-13.4l-82.14 -183.63c-2.21,-4.55 -2.99,-8.79 -2.37,-12.73 0.64,-3.94 2.54,-7.12 5.7,-9.54 3.17,-2.43 7.6,-3.64 13.29,-3.64 5.07,0 9.02,1.06 11.88,3.18 2.84,2.12 5.37,5.91 7.59,11.37l77.85 182.26 -12.82 0 79.28 -182.26c2.21,-5.46 4.75,-9.25 7.59,-11.37 2.85,-2.12 6.97,-3.18 12.34,-3.18 5.07,0 8.95,1.21 11.64,3.64 2.68,2.42 4.27,5.53 4.74,9.32 0.48,3.78 -0.23,7.95 -2.13,12.49l-83.07 184.09c-2.22,6.06 -5.47,10.53 -9.74,13.4 -4.27,2.88 -9.25,4.32 -14.95,4.32z"/>
    <path id="_3_3" class="fil3" d="M2394.02 1181.91c-24.36,0 -45.33,-4.62 -62.89,-13.86 -17.57,-9.24 -31.18,-22.35 -40.83,-39.32 -9.65,-16.97 -14.48,-37.27 -14.48,-60.9 0,-23.03 4.75,-43.11 14.24,-60.23 9.49,-17.12 22.55,-30.53 39.17,-40.22 16.61,-9.7 35.84,-14.55 57.68,-14.55 15.5,0 29.43,2.5 41.77,7.5 12.34,5 22.87,12.2 31.57,21.59 8.7,9.4 15.35,20.76 19.94,34.09 4.58,13.33 6.88,28.33 6.88,45 0,4.85 -1.42,8.41 -4.27,10.68 -2.85,2.27 -6.97,3.41 -12.35,3.41l-165.19 0 0 -24.09 156.18 0 -7.6 5.91c0,-16.37 -2.53,-30.23 -7.6,-41.59 -5.06,-11.36 -12.41,-20.08 -22.07,-26.14 -9.66,-6.06 -21.76,-9.09 -36.32,-9.09 -16.14,0 -29.82,3.56 -41.06,10.69 -11.23,7.12 -19.69,16.96 -25.4,29.54 -5.69,12.57 -8.54,27.19 -8.54,43.86l0 2.73c0,27.87 7.04,49.09 21.13,63.63 14.08,14.54 34.1,21.82 60.04,21.82 10.77,0 21.44,-1.37 32.05,-4.09 10.6,-2.73 20.97,-7.28 31.09,-13.64 4.44,-2.73 8.47,-4.01 12.1,-3.86 3.65,0.15 6.57,1.21 8.79,3.18 2.21,1.97 3.71,4.39 4.51,7.27 0.79,2.88 0.48,5.99 -0.95,9.32 -1.42,3.33 -4.19,6.21 -8.31,8.63 -10.44,7.28 -22.78,12.88 -37.02,16.82 -14.25,3.94 -28.33,5.91 -42.26,5.91z"/>
    <path id="_4_4" class="fil3" d="M2612.85 1181.91c-22.78,0 -40.19,-6.67 -52.21,-20 -12.03,-13.33 -18.05,-32.42 -18.05,-57.27l0 -231.79c0,-6.06 1.59,-10.68 4.75,-13.87 3.17,-3.18 7.91,-4.77 14.24,-4.77 6.02,0 10.77,1.59 14.25,4.77 3.47,3.19 5.22,7.81 5.22,13.87l0 229.07c0,16.36 3.4,28.55 10.2,36.58 6.81,8.03 16.86,12.05 30.14,12.05 2.86,0 5.39,-0.15 7.61,-0.46 2.21,-0.3 4.43,-0.45 6.64,-0.45 3.48,-0.3 5.93,0.45 7.35,2.27 1.43,1.82 2.14,5.46 2.14,10.91 0,5.46 -1.26,9.55 -3.8,12.27 -2.52,2.73 -6.64,4.55 -12.33,5.46 -2.54,0.3 -5.22,0.6 -8.08,0.91 -2.85,0.3 -5.53,0.45 -8.07,0.45z"/>
    <path id="_5_5" class="fil3" d="M2776.64 1181.91c-22.48,0 -41.94,-4.7 -58.4,-14.09 -16.46,-9.39 -29.19,-22.65 -38.21,-39.77 -9.01,-17.12 -13.53,-37.35 -13.53,-60.68 0,-17.57 2.53,-33.41 7.6,-47.5 5.06,-14.09 12.5,-26.13 22.31,-36.13 9.81,-10 21.44,-17.65 34.89,-22.95 13.45,-5.31 28.56,-7.96 45.34,-7.96 22.46,0 41.93,4.7 58.38,14.09 16.46,9.4 29.2,22.65 38.22,39.77 9.02,17.12 13.53,37.35 13.53,60.68 0,17.58 -2.53,33.33 -7.6,47.27 -5.07,13.94 -12.5,25.99 -22.31,36.14 -9.81,10.15 -21.44,17.87 -34.89,23.18 -13.45,5.3 -28.56,7.95 -45.33,7.95zm0 -29.54c14.23,0 26.74,-3.34 37.49,-10 10.77,-6.67 19.07,-16.37 24.93,-29.09 5.85,-12.73 8.78,-28.03 8.78,-45.91 0,-27.57 -6.41,-48.63 -19.22,-63.18 -12.83,-14.54 -30.15,-21.81 -51.98,-21.81 -14.56,0 -27.15,3.25 -37.75,9.77 -10.6,6.51 -18.83,16.06 -24.68,28.63 -5.86,12.58 -8.78,28.11 -8.78,46.59 0,27.27 6.49,48.26 19.46,62.95 12.98,14.7 30.22,22.05 51.75,22.05z"/>
    <path id="_6_6" class="fil3" d="M2963.65 1262.82c-6.33,0 -11.07,-1.6 -14.23,-4.78 -3.17,-3.18 -4.75,-7.8 -4.75,-13.86l0 -271.79c0,-6.06 1.58,-10.68 4.75,-13.87 3.16,-3.18 7.75,-4.77 13.76,-4.77 6.33,0 11.16,1.59 14.48,4.77 3.32,3.19 4.99,7.81 4.99,13.87l0 43.18 -5.22 -6.37c5.05,-17.27 15.1,-30.98 30.14,-41.13 15.03,-10.15 33,-15.23 53.88,-15.23 20.57,0 38.53,4.62 53.88,13.87 15.35,9.24 27.21,22.42 35.6,39.54 8.39,17.12 12.59,37.5 12.59,61.13 0,23.33 -4.2,43.56 -12.59,60.68 -8.39,17.12 -20.17,30.38 -35.36,39.77 -15.19,9.39 -33.24,14.09 -54.12,14.09 -20.88,0 -38.77,-5.07 -53.65,-15.23 -14.87,-10.15 -24.99,-23.71 -30.37,-40.68l5.69 0 0 118.18c0,6.06 -1.74,10.68 -5.22,13.86 -3.48,3.18 -8.23,4.78 -14.25,4.78zm89.73 -110.45c14.56,0 27.13,-3.34 37.74,-10 10.6,-6.67 18.83,-16.37 24.69,-29.09 5.84,-12.73 8.78,-28.03 8.78,-45.91 0,-27.57 -6.41,-48.63 -19.23,-63.18 -12.81,-14.54 -30.14,-21.81 -51.98,-21.81 -14.25,0 -26.75,3.25 -37.5,9.77 -10.76,6.51 -19.08,16.06 -24.92,28.63 -5.86,12.58 -8.79,28.11 -8.79,46.59 0,27.27 6.49,48.26 19.47,62.95 12.97,14.7 30.22,22.05 51.74,22.05z"/>
    <path id="_7_7" class="fil3" d="M3241.37 1181c-6.33,0 -11.07,-1.66 -14.24,-5 -3.16,-3.33 -4.75,-8.03 -4.75,-14.09l0 -189.53c0,-6.06 1.59,-10.68 4.75,-13.87 3.17,-3.18 7.75,-4.77 13.77,-4.77 6.01,0 10.68,1.59 14,4.77 3.32,3.19 4.98,7.81 4.98,13.87l0 39.99 -5.22 -6.36c6.02,-16.97 15.74,-30.07 29.19,-39.31 13.46,-9.25 29.52,-13.87 48.19,-13.87 19.62,0 35.53,4.47 47.71,13.41 12.18,8.94 20.33,22.8 24.44,41.59l-7.11 0c5.69,-16.97 15.9,-30.38 30.61,-40.23 14.72,-9.84 31.89,-14.77 51.51,-14.77 17.4,0 31.72,3.18 42.96,9.55 11.24,6.36 19.7,15.98 25.4,28.86 5.69,12.88 8.55,29.16 8.55,48.86l0 121.81c0,6.06 -1.67,10.76 -4.99,14.09 -3.32,3.34 -8.14,5 -14.48,5 -6.01,0 -10.68,-1.66 -14,-5 -3.33,-3.33 -4.99,-8.03 -4.99,-14.09l0 -119.99c0,-20.3 -3.63,-35.23 -10.91,-44.77 -7.28,-9.55 -19.63,-14.32 -37.03,-14.32 -18.99,0 -33.94,6.29 -44.86,18.86 -10.92,12.58 -16.38,29.62 -16.38,51.14l0 109.08c0,6.06 -1.67,10.76 -4.99,14.09 -3.32,3.34 -8.14,5 -14.47,5 -6.02,0 -10.69,-1.66 -14.01,-5 -3.32,-3.33 -4.98,-8.03 -4.98,-14.09l0 -119.99c0,-20.3 -3.72,-35.23 -11.15,-44.77 -7.44,-9.55 -19.71,-14.32 -36.8,-14.32 -18.99,0 -33.94,6.29 -44.86,18.86 -10.91,12.58 -16.37,29.62 -16.37,51.14l0 109.08c0,12.73 -6.49,19.09 -19.47,19.09z"/>
    <path id="_8_8" class="fil3" d="M3731.74 1181.91c-24.37,0 -45.33,-4.62 -62.9,-13.86 -17.57,-9.24 -31.17,-22.35 -40.83,-39.32 -9.65,-16.97 -14.47,-37.27 -14.47,-60.9 0,-23.03 4.74,-43.11 14.23,-60.23 9.5,-17.12 22.55,-30.53 39.17,-40.22 16.62,-9.7 35.85,-14.55 57.68,-14.55 15.5,0 29.44,2.5 41.77,7.5 12.35,5 22.87,12.2 31.57,21.59 8.7,9.4 15.36,20.76 19.94,34.09 4.59,13.33 6.88,28.33 6.88,45 0,4.85 -1.42,8.41 -4.27,10.68 -2.85,2.27 -6.96,3.41 -12.34,3.41l-165.2 0 0 -24.09 156.18 0 -7.6 5.91c0,-16.37 -2.53,-30.23 -7.59,-41.59 -5.07,-11.36 -12.42,-20.08 -22.07,-26.14 -9.66,-6.06 -21.77,-9.09 -36.33,-9.09 -16.13,0 -29.81,3.56 -41.05,10.69 -11.24,7.12 -19.7,16.96 -25.4,29.54 -5.69,12.57 -8.55,27.19 -8.55,43.86l0 2.73c0,27.87 7.04,49.09 21.13,63.63 14.08,14.54 34.1,21.82 60.05,21.82 10.76,0 21.44,-1.37 32.04,-4.09 10.6,-2.73 20.97,-7.28 31.09,-13.64 4.44,-2.73 8.47,-4.01 12.11,-3.86 3.64,0.15 6.57,1.21 8.78,3.18 2.22,1.97 3.72,4.39 4.51,7.27 0.8,2.88 0.48,5.99 -0.95,9.32 -1.42,3.33 -4.19,6.21 -8.3,8.63 -10.44,7.28 -22.79,12.88 -37.03,16.82 -14.24,3.94 -28.32,5.91 -42.25,5.91z"/>
    <path id="_9_9" class="fil3" d="M3899.29 1181c-6.32,0 -11.07,-1.66 -14.23,-5 -3.17,-3.33 -4.75,-8.03 -4.75,-14.09l0 -189.53c0,-6.06 1.58,-10.68 4.75,-13.87 3.16,-3.18 7.75,-4.77 13.76,-4.77 6.02,0 10.69,1.59 14.01,4.77 3.32,3.19 4.98,7.81 4.98,13.87l0 39.09 -5.22 -5.46c6.64,-17.57 17.48,-30.83 32.52,-39.77 15.03,-8.94 32.36,-13.41 51.98,-13.41 18.36,0 33.63,3.18 45.81,9.55 12.18,6.36 21.28,15.98 27.29,28.86 6.02,12.88 9.03,29.16 9.03,48.86l0 121.81c0,6.06 -1.66,10.76 -4.99,14.09 -3.33,3.34 -7.99,5 -14,5 -6.33,0 -11.15,-1.66 -14.49,-5 -3.32,-3.33 -4.98,-8.03 -4.98,-14.09l0 -119.54c0,-20.6 -4.19,-35.68 -12.57,-45.22 -8.39,-9.55 -21.77,-14.32 -40.12,-14.32 -21.2,0 -38.06,6.29 -50.56,18.86 -12.5,12.58 -18.75,29.32 -18.75,50.23l0 109.99c0,12.73 -6.48,19.09 -19.47,19.09z"/>
    <path id="_10_10" class="fil3" d="M4242.51 1181.91c-18.03,0 -33.15,-3.11 -45.32,-9.32 -12.19,-6.21 -21.29,-15.3 -27.3,-27.27 -6.01,-11.97 -9.02,-26.59 -9.02,-43.86l0 -115.9 -31.81 0c-5.38,0 -9.5,-1.29 -12.34,-3.87 -2.85,-2.57 -4.27,-6.13 -4.27,-10.68 0,-4.54 1.42,-8.03 4.27,-10.45 2.84,-2.42 6.96,-3.64 12.34,-3.64l31.81 0 0 -52.27c0,-6.06 1.74,-10.68 5.22,-13.86 3.48,-3.18 8.23,-4.77 14.24,-4.77 6.02,0 10.68,1.59 14.01,4.77 3.32,3.18 4.98,7.8 4.98,13.86l0 52.27 59.81 0c5.38,0 9.5,1.22 12.35,3.64 2.85,2.42 4.27,5.91 4.27,10.45 0,4.55 -1.42,8.11 -4.27,10.68 -2.85,2.58 -6.97,3.87 -12.35,3.87l-59.81 0 0 112.26c0,17.28 3.8,30.38 11.39,39.32 7.59,8.94 19.94,13.41 37.03,13.41 6.01,0 11.16,-0.61 15.43,-1.82 4.28,-1.21 7.84,-1.82 10.68,-1.82 2.85,-0.3 5.22,0.61 7.12,2.73 1.9,2.12 2.85,5.76 2.85,10.91 0,3.63 -0.71,6.97 -2.14,10 -1.42,3.03 -3.87,5.15 -7.35,6.36 -3.8,1.21 -8.79,2.35 -14.96,3.41 -6.17,1.06 -11.79,1.59 -16.86,1.59z"/>
    <path id="_11_11" class="fil3" d="M4538.74 1181.91c-22.16,0 -41.31,-3.41 -57.45,-10.23 -16.13,-6.81 -28.41,-16.28 -36.78,-28.4 -8.39,-12.12 -12.59,-26.21 -12.59,-42.27 0,-10.31 1.42,-19.78 4.27,-28.41 2.85,-8.64 7.2,-16.82 13.06,-24.55 5.86,-7.72 13.21,-15.22 22.08,-22.49 8.85,-7.28 19.14,-14.7 30.85,-22.28l15.19 -9.54 -5.23 7.73c-15.18,-15.76 -25.87,-29.47 -32.04,-41.14 -6.16,-11.66 -9.25,-23.71 -9.25,-36.13 0,-13.94 3.32,-26.29 9.97,-37.05 6.64,-10.75 16.22,-19.09 28.71,-24.99 12.51,-5.91 26.99,-8.87 43.44,-8.87 22.15,0 40.2,5.84 54.12,17.5 13.93,11.67 20.89,27.5 20.89,47.5 0,10.91 -2.21,21.13 -6.65,30.68 -4.43,9.54 -11.87,19.09 -22.31,28.63 -10.44,9.55 -25,19.62 -43.67,30.23l0.94 -9.55 88.78 95.45 -8.54 0c4.42,-7.27 8.3,-15.6 11.62,-24.99 3.33,-9.4 6.17,-19.62 8.55,-30.68 2.37,-11.06 4.04,-22.81 4.99,-35.23 0.62,-5.15 2.37,-9.09 5.22,-11.82 2.84,-2.72 6.95,-4.09 12.34,-4.09 5.38,0 9.5,1.52 12.34,4.55 2.85,3.03 3.96,7.42 3.32,13.18 -1.26,15.15 -3.48,29.54 -6.64,43.18 -3.17,13.63 -7.28,26.28 -12.35,37.95 -5.05,11.67 -10.76,22.35 -17.09,32.04l-0.47 -10.91 46.99 49.55c4.12,3.94 6.1,7.8 5.95,11.59 -0.17,3.79 -1.75,6.89 -4.76,9.32 -3,2.42 -7.04,3.63 -12.1,3.63 -4.43,0 -8.07,-0.83 -10.92,-2.5 -2.85,-1.66 -6.17,-4.16 -9.97,-7.5l-36.07 -39.09 9.96 0c-13.29,15.76 -29.28,28.03 -47.94,36.82 -18.67,8.79 -38.93,13.18 -60.76,13.18zm1.9 -30.45c18.03,0 34.1,-3.64 48.18,-10.91 14.07,-7.27 26.34,-17.88 36.78,-31.82l-0.47 11.37 -100.64 -105.45 15.2 1.36 -14.72 9.09c-13.61,8.49 -24.45,16.44 -32.52,23.86 -8.08,7.43 -13.85,15.08 -17.33,22.96 -3.48,7.88 -5.22,16.66 -5.22,26.36 0,16.66 6.01,29.69 18.03,39.09 12.04,9.39 29.6,14.09 52.71,14.09zm12.33 -269.52c-13.61,0 -24.68,3.79 -33.22,11.36 -8.55,7.58 -12.83,17.58 -12.83,30 0,6.67 1.04,12.8 3.09,18.41 2.06,5.6 5.78,11.81 11.16,18.63 5.38,6.82 12.81,15.53 22.31,26.14l-9.97 0.45c15.19,-9.39 27.22,-17.65 36.08,-24.77 8.87,-7.12 15.19,-14.01 18.99,-20.68 3.8,-6.67 5.7,-13.79 5.7,-21.36 0,-11.82 -3.8,-21.14 -11.4,-27.96 -7.59,-6.81 -17.56,-10.22 -29.91,-10.22z"/>
    <path id="_12_12" class="fil3" d="M4914.7 1181c-6.33,0 -11.16,-1.74 -14.48,-5.23 -3.33,-3.48 -4.99,-8.25 -4.99,-14.31l0 -284.98c0,-6.36 1.74,-11.13 5.22,-14.31 3.49,-3.19 8.39,-4.78 14.72,-4.78l112.5 0c35.77,0 63.31,8.03 82.61,24.09 19.3,16.06 28.96,38.94 28.96,68.64 0,18.78 -4.36,35.07 -13.06,48.86 -8.71,13.78 -21.44,24.24 -38.21,31.36 -16.77,7.12 -36.87,10.68 -60.3,10.68l4.76 -5.91 9.49 0c12.35,0 23.1,3.03 32.28,9.09 9.17,6.06 17.56,15.76 25.16,29.09l45.57 81.36c2.53,4.24 3.72,8.41 3.56,12.5 -0.15,4.09 -1.66,7.42 -4.51,10 -2.85,2.57 -6.95,3.86 -12.34,3.86 -5.38,0 -9.81,-1.21 -13.29,-3.63 -3.49,-2.43 -6.48,-5.91 -9.02,-10.46l-51.74 -91.81c-7.28,-13.03 -15.67,-21.74 -25.16,-26.14 -9.5,-4.39 -22,-6.59 -37.51,-6.59l-60.76 0 0 119.09c0,6.06 -1.58,10.83 -4.75,14.31 -3.16,3.49 -8.07,5.23 -14.71,5.23zm19.46 -168.17l87.82 0c25.96,0 45.57,-5.23 58.87,-15.68 13.29,-10.46 19.93,-26.14 19.93,-47.04 0,-20.31 -6.64,-35.68 -19.93,-46.14 -13.3,-10.45 -32.91,-15.68 -58.87,-15.68l-87.82 0 0 124.54z"/>
    <path id="_13" class="fil3" d="M5306.32 1181.91c-24.37,0 -45.33,-4.62 -62.9,-13.86 -17.57,-9.24 -31.17,-22.35 -40.82,-39.32 -9.66,-16.97 -14.48,-37.27 -14.48,-60.9 0,-23.03 4.74,-43.11 14.24,-60.23 9.49,-17.12 22.54,-30.53 39.16,-40.22 16.62,-9.7 35.85,-14.55 57.68,-14.55 15.5,0 29.44,2.5 41.77,7.5 12.35,5 22.87,12.2 31.57,21.59 8.7,9.4 15.36,20.76 19.94,34.09 4.59,13.33 6.89,28.33 6.89,45 0,4.85 -1.42,8.41 -4.28,10.68 -2.85,2.27 -6.96,3.41 -12.34,3.41l-165.2 0 0 -24.09 156.19 0 -7.61 5.91c0,-16.37 -2.53,-30.23 -7.59,-41.59 -5.07,-11.36 -12.42,-20.08 -22.07,-26.14 -9.66,-6.06 -21.77,-9.09 -36.33,-9.09 -16.13,0 -29.81,3.56 -41.05,10.69 -11.24,7.12 -19.7,16.96 -25.4,29.54 -5.69,12.57 -8.55,27.19 -8.55,43.86l0 2.73c0,27.87 7.04,49.09 21.13,63.63 14.08,14.54 34.1,21.82 60.05,21.82 10.77,0 21.44,-1.37 32.04,-4.09 10.6,-2.73 20.97,-7.28 31.09,-13.64 4.44,-2.73 8.47,-4.01 12.11,-3.86 3.64,0.15 6.57,1.21 8.78,3.18 2.22,1.97 3.72,4.39 4.51,7.27 0.8,2.88 0.48,5.99 -0.95,9.32 -1.42,3.33 -4.18,6.21 -8.3,8.63 -10.44,7.28 -22.79,12.88 -37.02,16.82 -14.25,3.94 -28.33,5.91 -42.26,5.91z"/>
    <path id="_14" class="fil3" d="M5532.75 1181.91c-14.24,0 -28.56,-1.67 -42.96,-5 -14.4,-3.33 -27.77,-9.09 -40.11,-17.27 -3.17,-2.12 -5.38,-4.62 -6.65,-7.5 -1.26,-2.88 -1.66,-5.76 -1.19,-8.64 0.48,-2.87 1.75,-5.37 3.8,-7.5 2.06,-2.12 4.59,-3.4 7.6,-3.86 3.01,-0.45 6.41,0.23 10.2,2.05 12.35,7.27 24.29,12.34 35.85,15.22 11.55,2.88 23.03,4.32 34.41,4.32 18.05,0 31.66,-3.18 40.83,-9.54 9.18,-6.37 13.76,-15 13.76,-25.91 0,-8.49 -3,-15.23 -9.01,-20.23 -6.02,-5 -15.51,-8.86 -28.48,-11.59l-43.2 -9.09c-19.94,-3.94 -34.74,-10.76 -44.39,-20.45 -9.65,-9.7 -14.48,-22.27 -14.48,-37.73 0,-13.63 3.72,-25.37 11.16,-35.22 7.44,-9.85 17.95,-17.5 31.56,-22.96 13.61,-5.45 29.43,-8.18 47.47,-8.18 13.93,0 27.15,1.74 39.65,5.23 12.5,3.48 23.81,9.01 33.93,16.59 3.17,2.12 5.31,4.62 6.41,7.5 1.11,2.88 1.27,5.76 0.47,8.64 -0.78,2.87 -2.28,5.3 -4.5,7.27 -2.21,1.97 -4.91,3.1 -8.07,3.41 -3.16,0.3 -6.49,-0.61 -9.96,-2.73 -9.51,-6.06 -19.16,-10.53 -28.97,-13.41 -9.8,-2.88 -19.46,-4.32 -28.96,-4.32 -17.72,0 -31.16,3.34 -40.34,10 -9.18,6.67 -13.77,15.46 -13.77,26.36 0,8.49 2.85,15.46 8.54,20.91 5.7,5.46 14.56,9.4 26.58,11.82l43.2 8.64c20.58,4.24 36,10.98 46.29,20.22 10.29,9.24 15.43,21.74 15.43,37.5 0,20 -8.39,35.91 -25.16,47.72 -16.78,11.82 -39.09,17.73 -66.94,17.73z"/>
    <path id="_15" class="fil3" d="M5787.18 1181.91c-24.36,0 -45.33,-4.62 -62.89,-13.86 -17.57,-9.24 -31.18,-22.35 -40.83,-39.32 -9.65,-16.97 -14.47,-37.27 -14.47,-60.9 0,-23.03 4.74,-43.11 14.23,-60.23 9.49,-17.12 22.55,-30.53 39.17,-40.22 16.61,-9.7 35.84,-14.55 57.68,-14.55 15.5,0 29.43,2.5 41.77,7.5 12.34,5 22.87,12.2 31.57,21.59 8.7,9.4 15.35,20.76 19.94,34.09 4.58,13.33 6.88,28.33 6.88,45 0,4.85 -1.42,8.41 -4.27,10.68 -2.85,2.27 -6.97,3.41 -12.35,3.41l-165.19 0 0 -24.09 156.18 0 -7.6 5.91c0,-16.37 -2.53,-30.23 -7.6,-41.59 -5.06,-11.36 -12.41,-20.08 -22.06,-26.14 -9.67,-6.06 -21.77,-9.09 -36.33,-9.09 -16.14,0 -29.82,3.56 -41.06,10.69 -11.23,7.12 -19.69,16.96 -25.4,29.54 -5.69,12.57 -8.54,27.19 -8.54,43.86l0 2.73c0,27.87 7.04,49.09 21.13,63.63 14.08,14.54 34.1,21.82 60.04,21.82 10.77,0 21.44,-1.37 32.05,-4.09 10.6,-2.73 20.97,-7.28 31.09,-13.64 4.44,-2.73 8.47,-4.01 12.1,-3.86 3.65,0.15 6.57,1.21 8.79,3.18 2.21,1.97 3.72,4.39 4.51,7.27 0.79,2.88 0.48,5.99 -0.95,9.32 -1.42,3.33 -4.19,6.21 -8.3,8.63 -10.45,7.28 -22.79,12.88 -37.03,16.82 -14.25,3.94 -28.32,5.91 -42.26,5.91z"/>
    <path id="_16" class="fil3" d="M6008.4 1181.91c-15.83,0 -29.99,-2.95 -42.48,-8.86 -12.51,-5.91 -22.4,-14.02 -29.68,-24.32 -7.28,-10.3 -10.92,-21.82 -10.92,-34.54 0,-16.37 4.35,-29.24 13.05,-38.64 8.71,-9.39 23.11,-16.06 43.2,-20 20.11,-3.94 47.55,-5.9 82.37,-5.9l21.36 0 0 24.08 -20.88 0c-25.64,0 -45.81,1.14 -60.53,3.41 -14.71,2.28 -25,6.14 -30.86,11.59 -5.85,5.46 -8.79,13.19 -8.79,23.18 0,12.43 4.52,22.58 13.54,30.46 9.01,7.88 21.29,11.81 36.79,11.81 12.65,0 23.82,-2.87 33.47,-8.63 9.65,-5.76 17.24,-13.64 22.78,-23.64 5.54,-10 8.31,-21.51 8.31,-34.54l0 -51.81c0,-18.79 -3.96,-32.35 -11.86,-40.68 -7.92,-8.34 -20.89,-12.5 -38.94,-12.5 -11.07,0 -22.15,1.36 -33.22,4.09 -11.08,2.72 -22.79,7.12 -35.14,13.18 -4.43,2.12 -8.22,2.8 -11.38,2.04 -3.17,-0.75 -5.7,-2.34 -7.6,-4.77 -1.9,-2.42 -3.01,-5.23 -3.33,-8.41 -0.31,-3.18 0.4,-6.29 2.15,-9.32 1.73,-3.03 4.5,-5.45 8.3,-7.27 13.92,-6.66 27.69,-11.51 41.29,-14.54 13.61,-3.03 26.6,-4.55 38.93,-4.55 19.94,0 36.4,3.11 49.38,9.32 12.97,6.21 22.62,15.61 28.95,28.18 6.33,12.58 9.5,28.71 9.5,48.41l0 123.17c0,6.06 -1.51,10.76 -4.52,14.09 -3,3.34 -7.35,5 -13.05,5 -6.01,0 -10.6,-1.66 -13.77,-5 -3.16,-3.33 -4.74,-8.03 -4.74,-14.09l0 -35.45 4.27 0c-2.53,11.51 -7.36,21.36 -14.47,29.54 -7.12,8.18 -15.91,14.55 -26.35,19.09 -10.45,4.55 -22.16,6.82 -35.13,6.82z"/>
    <path id="_17" class="fil3" d="M6206.82 1181c-6.33,0 -11.15,-1.66 -14.47,-5 -3.33,-3.33 -4.99,-8.03 -4.99,-14.09l0 -189.53c0,-6.06 1.58,-10.68 4.75,-13.87 3.16,-3.18 7.75,-4.77 13.76,-4.77 6.02,0 10.69,1.59 14.01,4.77 3.32,3.19 4.98,7.81 4.98,13.87l0 36.81 -4.74 0c5.05,-17.87 14.72,-31.66 28.95,-41.36 14.25,-9.69 31.8,-14.85 52.69,-15.45 4.75,-0.3 8.55,0.68 11.4,2.95 2.85,2.28 4.43,6.14 4.75,11.59 0.31,5.15 -0.95,9.24 -3.8,12.27 -2.85,3.03 -7.28,4.85 -13.3,5.46l-7.59 0.91c-21.52,1.82 -38.06,8.41 -49.61,19.77 -11.55,11.36 -17.33,26.89 -17.33,46.59l0 109.99c0,6.06 -1.66,10.76 -4.98,14.09 -3.32,3.34 -8.15,5 -14.48,5z"/>
    <path id="_18" class="fil3" d="M6452.24 1181.91c-23.1,0 -43.04,-4.85 -59.8,-14.54 -16.77,-9.7 -29.67,-23.26 -38.7,-40.68 -9.01,-17.43 -13.52,-37.65 -13.52,-60.68 0,-17.58 2.53,-33.33 7.59,-47.27 5.07,-13.94 12.5,-25.83 22.31,-35.68 9.82,-9.85 21.6,-17.35 35.36,-22.5 13.78,-5.15 29.36,-7.73 46.76,-7.73 11.4,0 23.27,1.67 35.61,5 12.34,3.34 23.58,9.09 33.7,17.27 3.17,2.13 5.22,4.7 6.17,7.73 0.95,3.03 0.95,5.99 0,8.86 -0.95,2.88 -2.52,5.31 -4.74,7.28 -2.21,1.97 -4.98,3.1 -8.31,3.41 -3.32,0.3 -6.73,-0.76 -10.21,-3.19 -8.23,-6.06 -16.61,-10.3 -25.16,-12.72 -8.54,-2.43 -16.77,-3.64 -24.68,-3.64 -12.34,0 -23.1,1.89 -32.28,5.68 -9.18,3.79 -16.93,9.17 -23.26,16.14 -6.33,6.97 -11.15,15.6 -14.47,25.91 -3.34,10.3 -5,22.27 -5,35.9 0,26.36 6.49,47.2 19.47,62.5 12.97,15.3 31.49,22.95 55.54,22.95 7.91,0 16.07,-1.21 24.45,-3.63 8.38,-2.43 16.85,-6.67 25.39,-12.73 3.48,-2.42 6.81,-3.49 9.98,-3.18 3.16,0.3 5.85,1.44 8.06,3.41 2.22,1.97 3.72,4.47 4.51,7.5 0.8,3.03 0.71,5.98 -0.24,8.86 -0.94,2.88 -2.99,5.38 -6.16,7.5 -10.13,7.88 -21.21,13.56 -33.23,17.04 -12.03,3.49 -23.74,5.23 -35.14,5.23z"/>
    <path id="_19" class="fil3" d="M6593.22 1181c-6.33,0 -11.07,-1.66 -14.23,-5 -3.17,-3.33 -4.76,-8.03 -4.76,-14.09l0 -289.06c0,-6.06 1.59,-10.68 4.76,-13.87 3.16,-3.18 7.9,-4.77 14.23,-4.77 6.02,0 10.77,1.59 14.25,4.77 3.47,3.19 5.22,7.81 5.22,13.87l0 133.17 -6.17 0c6.64,-17.57 17.48,-30.83 32.52,-39.77 15.03,-8.94 32.36,-13.41 51.98,-13.41 18.35,0 33.62,3.18 45.81,9.55 12.18,6.36 21.27,15.98 27.29,28.86 6.02,12.88 9.02,29.16 9.02,48.86l0 121.81c0,6.06 -1.66,10.76 -4.99,14.09 -3.32,3.34 -7.99,5 -13.99,5 -6.33,0 -11.16,-1.66 -14.49,-5 -3.32,-3.33 -4.98,-8.03 -4.98,-14.09l0 -119.54c0,-20.6 -4.19,-35.68 -12.58,-45.22 -8.38,-9.55 -21.76,-14.32 -40.11,-14.32 -21.2,0 -38.06,6.29 -50.56,18.86 -12.51,12.58 -18.75,29.32 -18.75,50.23l0 109.99c0,12.73 -6.49,19.09 -19.47,19.09z"/>
   </g>
  </g>
 </g>
</svg>
