<!--
  - @package     MIX ID
  - @link        https://auth.spb.ru
  -
  - @author      Ivan Zorin <creator@localzet.com>
  - @copyright   Copyright (c) 2018-2024 Zorin Projects S.P.
  - @license     https://www.gnu.org/licenses/agpl-3.0 GNU Affero General Public License v3.0
  -
  -              This program is free software: you can redistribute it and/or modify
  -              it under the terms of the GNU Affero General Public License as published
  -              by the Free Software Foundation, either version 3 of the License, or
  -              (at your option) any later version.
  -
  -              This program is distributed in the hope that it will be useful,
  -              but WITHOUT ANY WARRANTY; without even the implied warranty of
  -              MERCHANTABILITY or FITNESS FOR A PARTICULAR PURPOSE.  See the
  -              GNU Affero General Public License for more details.
  -
  -              You should have received a copy of the GNU Affero General Public License
  -              along with this program.  If not, see <https://www.gnu.org/licenses/>.
  -
  -              For any questions, please contact <creator@localzet.com>
  -->

<svg xmlns="http://www.w3.org/2000/svg" viewBox="0 0 250 250"><path d="M125,249a36.17,36.17,0,0,1-18.09-4.83l-76-43.91a36.28,36.28,0,0,1-18.09-31.33V81.09A36.28,36.28,0,0,1,30.86,49.76L106.91,5.85a36.29,36.29,0,0,1,36.18,0l76,43.91a36.28,36.28,0,0,1,18.09,31.33v87.82a36.28,36.28,0,0,1-18.09,31.33l-76,43.91A36.17,36.17,0,0,1,125,249ZM125,6.55a30.69,30.69,0,0,0-15.32,4.09L33.63,54.55A30.73,30.73,0,0,0,18.3,81.09v87.82a30.73,30.73,0,0,0,15.33,26.54l76.05,43.91a30.75,30.75,0,0,0,30.64,0l76.05-43.91a30.73,30.73,0,0,0,15.33-26.54V81.09a30.73,30.73,0,0,0-15.33-26.54L140.32,10.64A30.69,30.69,0,0,0,125,6.55Z" fill="#a78bfa"/><path d="M173,87.43H77a2.09,2.09,0,1,1,0-4.18h96a2.09,2.09,0,1,1,0,4.18Zm2.09,77.23a2.07,2.07,0,0,0-2.09-2.09H77a2.09,2.09,0,1,0,0,4.18h96A2.07,2.07,0,0,0,175.1,164.66Zm-16.7-35.49V118.74a14.63,14.63,0,0,0-14.61-14.61H106.21A14.63,14.63,0,0,0,91.6,118.74v10.43a14.64,14.64,0,0,0,14.61,14.62h37.58A14.64,14.64,0,0,0,158.4,129.17ZM143.79,108.3a10.44,10.44,0,0,1,10.43,10.44v10.43a10.43,10.43,0,0,1-10.43,10.44H106.21a10.43,10.43,0,0,1-10.43-10.44V118.74a10.44,10.44,0,0,1,10.43-10.44Z" fill="#a78bfa"/></svg>
