<?xml version="1.0" encoding="UTF-8"?>
<!DOCTYPE svg PUBLIC "-//W3C//DTD SVG 1.1//EN" "http://www.w3.org/Graphics/SVG/1.1/DTD/svg11.dtd">
<!-- Creator: CorelDRAW -->
<svg xmlns="http://www.w3.org/2000/svg" xml:space="preserve" width="129.893mm" height="112.889mm" version="1.1" style="shape-rendering:geometricPrecision; text-rendering:geometricPrecision; image-rendering:optimizeQuality; fill-rule:evenodd; clip-rule:evenodd"
viewBox="0 0 12989.28 11288.88"
 xmlns:xlink="http://www.w3.org/1999/xlink"
 xmlns:xodm="http://www.corel.com/coreldraw/odm/2003">
 <defs>
  <style type="text/css">
   <![CDATA[
    .str0 {stroke:#8B5CF6;stroke-width:52.92;stroke-linecap:round;stroke-linejoin:round;stroke-miterlimit:22.9256}
    .str1 {stroke:#8B5CF6;stroke-width:52.92;stroke-miterlimit:22.9256;stroke-dasharray:324.700000 324.700000}
    .fil0 {fill:none}
    .fil1 {fill:#8B5CF6;fill-rule:nonzero}
   ]]>
  </style>
 </defs>
 <g id="Слой_x0020_1">
  <metadata id="CorelCorpID_0Corel-Layer"/>
  <polyline class="fil0 str0" points="6357.06,9166.04 5986.64,9126.35 6005.16,8785.04 "/>
  <path class="fil0 str1" d="M6240.64 8896.17c0,0 3783.54,-2696.1 1905,-4286.25"/>
  <path class="fil1" d="M2137.64 3104.83c3.53,20.04 4.66,67.03 3.4,141.12 -2.69,157.05 6.48,305.49 27.79,445.2 2.12,11.85 -2.68,24.83 -14.54,38.8 -11.85,13.97 -22.15,21.74 -31.18,23.29 -7.76,1.41 -16.23,-0.43 -24.98,-5.37 -8.89,-5.08 -14.53,-12.55 -16.79,-22.43l-0.28 -1.7c-1.27,-6.77 -1.98,-26.25 -2.4,-58.7 -1.13,-90.6 -3.38,-145.49 -6.78,-164.4l-1.12 -6.2c-2.26,-12.7 -10.72,-17.78 -25.69,-15.1 -11.71,1.97 -36.12,8.33 -73.37,18.76 -37.25,10.73 -62.23,17.22 -74.65,19.48 -7.9,1.41 -35.41,8.33 -82.69,20.89 -47.27,12.56 -72.67,20.32 -76.06,23.42 -5.08,2.4 -4.79,29.21 1.28,80.72 8.88,77.32 12.13,126.15 9.87,146.61 -2.26,20.32 -11.01,31.88 -26.11,34.57 -6.77,1.27 -17.07,-3.39 -30.75,-13.69 -13.69,-10.3 -21.6,-19.89 -23.71,-28.79l-0.57 -2.81c-1.41,-8.34 -1.27,-20.89 0.56,-37.4 1.84,-17.92 1.99,-48.83 0.43,-92.57 -1.55,-43.75 -8.47,-160.02 -20.88,-348.82l-3.96 -63.5c-1.4,-18.49 -0.13,-31.05 3.54,-37.82 3.8,-6.63 8.03,-10.59 12.83,-11.99 4.8,-1.42 8.9,-2.4 12.42,-3.1 28.64,0.28 45.15,10.29 49.67,29.91l1.84 10.16c4.38,24.41 5.5,65.18 3.67,122.62 -2.26,59.13 -1.28,99.76 2.53,122.06l0.57 3.25c1.83,10.01 17.78,12.41 47.84,7.05 43.45,-7.62 101.88,-21.73 175.25,-42.19 73.38,-20.6 111.06,-37.11 113.03,-49.82 1.98,-12.55 1.41,-45.72 -1.69,-99.19 -3.24,-53.62 -9.03,-109.08 -17.5,-166.65 -0.85,-4.94 3.53,-12.43 12.98,-22.86 9.46,-10.3 19.19,-16.38 28.94,-18.06 9.44,-1.7 19.18,-0.57 29.2,3.24 10.16,3.81 15.94,10.3 17.5,19.47l0.56 2.54z"/>
  <path id="_1" class="fil1" d="M2554.39 3498.91c-28.92,57.72 -59.68,102.58 -92.42,134.63 -32.6,32.02 -64.35,50.79 -95.4,56.3 -20.88,3.67 -40.36,-1.99 -58.7,-16.94 -18.34,-14.96 -29.91,-36.26 -34.71,-63.92 -12.55,-71.26 5.65,-153.81 54.89,-247.37 49.25,-93.41 105.27,-145.76 168.21,-156.91 22.86,-3.95 42.05,6.07 57.71,30.05 5.08,8.05 11.43,11.43 19.05,10.17 21.73,-3.81 34.01,2.67 36.97,19.46 1.41,8.34 2.12,20.18 1.98,35.29 -0.57,82.55 2.12,140.26 7.9,173.13 11.57,65.62 31.04,102.73 58.28,111.35 12.98,4.37 20.45,11.29 22.16,20.88 1.4,8.32 -2.97,17.91 -13.13,28.5 -10.16,10.58 -20.6,16.79 -31.47,18.77 -20.88,3.67 -40.64,-7.76 -59.27,-34.01 -18.62,-26.38 -32.6,-66.18 -42.05,-119.38zm-65.19 -224.64c-35.7,6.34 -71.4,47.27 -107.1,122.76 -35.56,75.49 -49.53,135.33 -41.77,179.49 5.51,31.19 18.63,45.02 39.23,41.35 29.77,-5.22 65.89,-42.61 108.08,-112.18 42.34,-69.57 59,-129.55 50.1,-179.92 -6.77,-38.8 -23,-55.88 -48.54,-51.5z"/>
  <path id="_2" class="fil1" d="M3017.59 3247.4c-14.11,2.54 -27.94,14.39 -41.34,35.84 -13.41,21.44 -31.62,67.17 -54.34,137.58 -29.91,94.12 -50.22,148.31 -61.38,162.55 -11,14.26 -20.88,22.17 -29.49,23.72 -32.03,5.64 -50.8,-7.06 -56.3,-37.96 -2.26,-12.99 -3.25,-31.75 -3.25,-56.45 0.57,-84.52 -7.19,-172.15 -23.28,-263.03 -1.83,-10.3 0.56,-22.57 7.2,-36.69 6.63,-14.25 13.83,-22 21.72,-23.42 13.98,-2.4 24.85,0.14 32.32,7.76 7.48,7.63 13.55,24.56 18.2,50.94 4.8,27.37 6.64,85.24 5.51,173.56 -0.56,29.07 0,47.42 1.27,55.04 0.85,4.38 2.26,6.35 4.37,5.93 4.1,-0.71 17.22,-36.41 39.51,-107.11 22.16,-71.96 43.75,-123.6 64.5,-154.93 20.73,-31.33 46.42,-49.68 77.04,-55.04 24.41,-4.37 46.28,3.25 65.47,22.86 19.34,19.48 37.68,58 55.03,115.71 19.48,65.62 33.59,106.11 42.62,121.36 9.03,15.38 20.18,21.87 33.44,19.48 8.47,-1.42 18.49,-6.22 30.2,-14.54 1.97,-1.41 3.53,-2.26 4.52,-2.4 11.71,-2.12 18.76,3.67 21.16,17.22 2.12,11.99 -3.67,25.96 -17.35,42.32 -13.69,16.24 -31.76,26.26 -54.19,30.34 -23,3.96 -42.47,-1.97 -58.42,-18.06 -15.8,-16.09 -34.29,-63.21 -55.74,-141.39 -21.59,-78.46 -44.59,-115.43 -69,-111.19z"/>
  <path id="_3" class="fil1" d="M3418.85 3450.6c-4.66,51.08 -5.08,121.78 -1.27,211.95l2.26 79.02c-0.01,11.15 -3.1,22.72 -9.46,35 -6.21,12.13 -12.7,18.76 -19.47,19.89 -8.47,1.56 -18.77,-0.98 -30.91,-7.76 -12.28,-6.63 -18.76,-12.56 -19.75,-17.64 -2.54,-14.95 -2.83,-36.12 -0.7,-63.64 14.25,-209.12 8.03,-389.61 -18.64,-541.16l-6.48 -34.14c-5.65,-29.07 -4.24,-51.36 4.23,-66.46 8.46,-15.24 19.76,-24.14 33.86,-26.68 6.49,-1.12 13.69,2.97 21.45,12 7.76,9.17 13.26,22.99 16.51,41.77 4.66,26.25 7.62,58.69 8.76,97.08 1.26,48.4 2.39,76.2 3.38,83.26 27.94,-77.61 61.09,-140.27 99.48,-187.82 38.24,-47.55 76.77,-74.79 115.57,-81.71 27.37,-4.8 52.35,1.42 74.79,18.49 22.44,17.22 36.4,40.92 41.77,71.41 15.52,88.32 -4.24,174.54 -59.27,258.65 -55.03,84.1 -114.72,131.79 -179.07,143.23 -15.94,2.82 -29.35,0.98 -40.21,-5.51 -10.73,-6.49 -23.01,-19.62 -36.83,-39.23zm194.87 -372.11c-38.24,6.78 -79.31,50.95 -123.05,132.5 -43.74,81.57 -62.23,142.24 -55.17,182.04 1.69,9.88 9.02,18.34 21.73,25.54 12.69,7.34 27.66,9.46 44.73,6.49 38.8,-6.92 78.32,-43.46 118.68,-109.65 40.35,-66.31 55.59,-127.13 45.85,-182.44 -3.52,-19.76 -10.16,-34.3 -20.03,-43.61 -9.88,-9.31 -20.88,-12.84 -32.74,-10.87z"/>
  <path id="_4" class="fil1" d="M4135.7 3220.08c-28.93,57.72 -59.69,102.59 -92.43,134.63 -32.59,32.03 -64.35,50.8 -95.39,56.3 -20.88,3.67 -40.36,-1.98 -58.7,-16.93 -18.34,-14.97 -29.92,-36.27 -34.71,-63.93 -12.56,-71.26 5.65,-153.81 54.89,-247.37 49.24,-93.41 105.26,-145.76 168.2,-156.91 22.87,-3.95 42.06,6.07 57.72,30.05 5.08,8.06 11.43,11.43 19.05,10.17 21.72,-3.81 34.01,2.68 36.97,19.47 1.41,8.33 2.11,20.18 1.97,35.28 -0.56,82.55 2.12,140.26 7.91,173.14 11.57,65.62 31.04,102.73 58.28,111.34 12.98,4.37 20.45,11.29 22.15,20.88 1.41,8.32 -2.96,17.92 -13.13,28.5 -10.16,10.59 -20.6,16.79 -31.47,18.77 -20.88,3.67 -40.63,-7.76 -59.26,-34 -18.63,-26.39 -32.6,-66.19 -42.05,-119.39zm-65.19 -224.64c-35.7,6.35 -71.41,47.27 -107.1,122.76 -35.56,75.5 -49.53,135.33 -41.78,179.5 5.51,31.18 18.63,45.01 39.24,41.34 29.76,-5.22 65.89,-42.61 108.08,-112.18 42.33,-69.57 58.99,-129.54 50.1,-179.91 -6.77,-38.81 -23,-55.89 -48.54,-51.51z"/>
  <path id="_5" class="fil1" d="M4555.29 2871.49c66.04,14.1 107.25,67.72 123.61,161 12.43,69.99 1.28,135.05 -33.15,195.02 -34.44,60.11 -77.19,94.54 -128.55,103.57 -45.73,8.19 -84.68,-3.67 -116.57,-35.55 -31.88,-31.9 -54.04,-82.84 -66.31,-152.83 -14.96,-84.24 -15.1,-172.3 -0.72,-263.88 14.54,-91.58 40.09,-163.4 76.63,-215.19 36.55,-51.93 77.48,-81.85 122.77,-89.88 27.37,-4.8 51.08,0.28 70.84,15.38 19.89,15.09 32.59,38.65 38.23,70.69 4.53,25.54 -1.12,57.71 -17.07,96.52 -15.95,38.94 -39.23,77.33 -69.71,115.15zm-163.54 105.12c90.3,-98.91 144.64,-167.92 163.26,-206.87 18.63,-38.95 26.1,-68.29 22.58,-88.05 -5.51,-31.74 -21.17,-45.29 -46.56,-40.92 -35.57,6.35 -66.61,39.37 -93.14,99.06 -26.53,59.83 -41.76,138.71 -46.14,236.78zm214.77 80.43c-7.2,-40.35 -20.33,-71.68 -39.65,-93.7 -19.2,-22.01 -37.97,-31.46 -56.17,-28.21 -5.36,0.84 -31.89,27.09 -79.59,78.59 -12.27,13.26 -24.12,25.82 -35.84,37.4 0.01,23.99 2.54,49.95 7.48,77.89 8.75,49.39 22.58,85.23 41.78,107.53 19.18,22.44 41.76,31.32 67.87,26.67 36.4,-6.35 63.22,-30.77 80.43,-73.1 17.22,-42.33 21.87,-86.5 13.83,-132.22l-0.14 -0.85z"/>
  <path id="_6" class="fil1" d="M4973.32 2883.33c-6.5,0.84 -11.72,8.18 -15.81,22.01 -36.26,122.2 -65.33,205.88 -86.92,251.03 -1.84,3.95 -4.09,9.73 -6.63,17.22 -23.29,66.46 -42.76,101.03 -58.57,103.85 -21.02,3.67 -33.44,-4.65 -36.97,-24.97 -3.39,-18.49 5.36,-45.86 26.1,-82.27 20.19,-34.57 44.74,-91.43 73.53,-170.88 28.78,-79.3 50.94,-149.86 66.74,-211.52 2.96,-11.16 9.45,-17.64 19.2,-19.34 4.09,-0.7 11.57,-0.14 22.71,1.55 11.01,1.84 18.49,4.66 22.3,8.47 3.67,3.81 14.82,27.94 33.16,72.24 62.79,160.31 115.29,252.73 157.62,277.14 10.01,6.08 15.95,10.17 18.06,12.57 2.12,2.26 3.53,5.64 4.37,10.3 1.42,8.33 0.15,16.5 -4.08,24.41 -4.25,7.9 -8.75,13.27 -13.55,15.94 -4.8,2.83 -15.24,5.64 -31.19,8.48 -5.65,0.98 -21.45,-10.59 -47.27,-35.01 -25.82,-24.4 -63.78,-96.65 -113.74,-216.74 -12.69,-32.46 -22.44,-53.9 -29.06,-64.48z"/>
  <path id="_7" class="fil1" d="M5625.47 2967.96c4.8,27.67 -13.69,65.34 -55.88,113.03 -42.06,47.7 -89.05,76.06 -141.11,85.24 -43.75,7.75 -79.73,0.84 -107.96,-20.75 -28.21,-21.59 -46.42,-55.45 -54.6,-101.6 -13.69,-77.47 -0.42,-155.93 39.51,-235.09 40.07,-79.16 91.01,-124.32 153.1,-135.18 20.46,-3.67 38.24,0.14 53.49,11.15 15.09,11 24.4,25.82 27.65,44.58 7.48,41.78 -6.07,85.38 -40.22,130.81 -34.14,45.44 -82.41,92.71 -144.49,141.68 -12.84,9.73 -18.2,20.46 -16.09,32.17 3.96,22.59 13.69,39.37 29.07,50.66 15.38,11.29 35.85,14.68 61.38,10.17 58.29,-10.31 112.05,-53.07 161.44,-128.28 7.33,-10.58 13.39,-16.23 18.06,-17.07 8.6,-1.56 14.24,4.66 16.65,18.48zm-293.94 -13.55c102.88,-88.61 150.71,-153.66 143.37,-195.29 -2.82,-16.22 -11.57,-23 -26.24,-20.46 -24.98,4.37 -49.82,27.66 -74.65,69.85 -24.98,42.05 -39.09,90.74 -42.48,145.9z"/>
  <path id="_8" class="fil1" d="M5987.64 2772.42c1.97,-6.21 0.7,-41.21 -3.67,-104.71 -3.96,-50.66 7.48,-78.46 34.28,-83.25 22.01,-3.81 35,5.22 38.81,27.23 0.85,5.08 0.85,15.95 -0.14,32.32 -5.65,90.17 -3.25,164.53 7.06,223.09 11.14,63.5 28.78,102.73 53.05,117.83 12.56,8.04 19.48,15.24 20.6,21.45 1.27,7.62 -2.96,15.52 -12.84,23.71 -9.88,8.18 -19.33,12.98 -28.22,14.67 -42.33,7.34 -75.07,-54.19 -98.07,-184.99 -1.55,-8.61 -5.5,-12.42 -12.14,-11.3 -25.4,4.52 -56.3,11.58 -92.7,21.03 -36.41,9.46 -62.09,17.93 -77.2,25.4 -14.95,7.34 -23.98,13.4 -26.94,17.92 -2.96,4.52 -4.37,15.52 -4.23,33.02 0.14,17.5 1.83,35.28 4.93,53.49l8.89 49.94c5.08,29.07 -5.64,45.87 -32.17,50.67 -22.29,3.81 -35.99,-8.61 -41.06,-37.69 -3.39,-19.05 -5.22,-43.6 -5.5,-73.65 -0.43,-55.32 -7.77,-149.44 -22.02,-282.22 -1.98,-17.22 -2.4,-28.37 -1.27,-33.31 1.13,-4.93 5.08,-11 12.13,-17.92 7.06,-6.91 15.24,-11.29 24.84,-12.98 19.48,-3.38 30.62,2.83 33.45,18.91 0.42,2.39 0.99,23.28 1.41,62.65 0.28,39.38 2.25,69.57 5.93,90.74 2.67,14.96 9.16,21.58 19.46,19.76 20.61,-3.68 57.72,-13.83 111.2,-30.34 53.63,-16.66 81,-27.1 82.13,-31.47z"/>
  <path id="_9" class="fil1" d="M6481.71 2776.8c-24.55,64.34 -52.07,115.71 -82.68,154.23 -30.76,38.38 -61.67,60.25 -92.85,65.75 -17.92,3.25 -37.97,-3.95 -60.26,-21.58 -22.29,-17.65 -37.25,-48.12 -44.87,-91.58 -6.21,-35.42 -6.92,-89.33 -2.12,-161.44 4.23,-60.39 4.24,-102.16 0.14,-125.45 5.09,-17.63 15.95,-28.07 32.74,-31.03 11.43,-1.98 21.16,0.42 29.35,7.19 8.19,6.91 13.12,14.67 14.54,23.28 3.38,19.05 1.55,47.14 -5.65,84.52 -13.12,72.4 -15.52,133.07 -6.91,181.9 7.9,44.59 22.15,64.91 42.75,61.24 26.25,-4.51 55.88,-32.88 88.62,-84.8 32.73,-51.94 56.58,-120.38 71.54,-205.47 5.79,-34 11.43,-56.58 16.79,-67.45 5.51,-10.86 14.4,-17.35 26.68,-19.47 18.34,-3.38 29.77,7.2 34,31.61 0.56,3.11 -0.28,13.41 -2.4,31.05 -5.92,62.36 -4.08,119.94 5.23,172.86 11.15,63.35 28.92,102.58 53.05,117.68 12.7,8.05 19.48,15.24 20.6,21.45 1.28,7.61 -2.96,15.52 -12.83,23.71 -9.88,8.18 -19.34,13.12 -28.23,14.67 -19.05,3.25 -36.83,-8.04 -53.48,-34.29 -16.65,-26.11 -29.77,-66.74 -39.51,-121.78l-2.4 -13.4c-0.7,-4.37 -1.41,-8.89 -1.84,-13.4z"/>
  <path id="_10" class="fil1" d="M7026.17 2424.82c1.28,7.33 -1.69,24.54 -8.6,51.49 -5.65,21.6 -8.19,63.23 -7.34,124.61 0.7,61.38 4.38,110.63 10.86,147.74 2.97,16.37 8.33,37.82 16.51,64.62 3.67,12.85 6.21,23.57 7.77,32.18 0.84,4.66 -2.4,10.17 -9.46,16.37 -7.2,6.35 -13.96,10.02 -20.6,11.15 -16.79,2.96 -28.22,1.13 -34.29,-5.65 -6.07,-6.77 -11.15,-21.87 -15.38,-45.57l-19.48 -131.94c-34.71,41.06 -59.26,71.26 -73.8,90.59 -16.65,21.59 -28.22,36.13 -35.13,43.46 -32.04,36.69 -54.75,67.17 -67.74,91.3 -2.11,3.67 -5.78,7.9 -10.86,12.41 -5.08,4.52 -8.75,6.92 -10.87,7.34 -11.85,2.12 -22.57,-1.97 -31.88,-11.99 -9.32,-10.16 -14.54,-18.21 -15.53,-24.13 -1.27,-6.78 9.88,-24.55 33.3,-53.34 6.49,-7.76 12.85,-14.81 19.06,-20.88 35.27,-34.43 69.42,-74.08 102.3,-118.68l-44.31 8.19c-14.82,1.41 -33.3,-1.41 -55.46,-8.9 -22.15,-7.47 -36.54,-17.63 -43.46,-30.47 -6.92,-12.98 -11.43,-25.55 -13.55,-37.68 -6.91,-39.09 7.91,-78.17 44.32,-117.26 36.4,-39.23 83.39,-69.71 140.68,-91.58 6.78,-1.13 18.2,-4.8 34.15,-11.01 15.94,-5.92 25.12,-9.03 27.23,-9.45 2.83,-0.43 9.6,-0.28 20.74,0.57l12.99 -4.8c8.32,-1.56 17.49,-0.28 27.52,3.81 9.87,3.94 16.65,9.74 20.31,17.5zm-74.78 54.32c-3.96,-4.94 -7.76,-7.06 -11.58,-6.35 -37.95,6.78 -78.17,25.96 -120.5,58 -42.33,31.88 -60.39,64.9 -54.47,99.05 1.83,9.74 9.31,17.08 22.58,22.02 13.26,4.94 31.18,5.5 53.76,1.55 40.64,-7.19 71.12,-16.65 91.44,-28.37 5.78,-5.49 9.46,-15.37 11.15,-29.62l7.62 -116.28z"/>
  <path id="_11" class="fil1" d="M7581.03 2716.69c-4.66,51.09 -5.08,121.78 -1.27,211.95l2.26 79.02c-0.01,11.15 -3.1,22.72 -9.46,35 -6.21,12.14 -12.7,18.77 -19.47,19.9 -8.47,1.55 -18.77,-0.99 -30.91,-7.76 -12.27,-6.63 -18.76,-12.57 -19.75,-17.64 -2.53,-14.96 -2.83,-36.13 -0.7,-63.65 14.25,-209.12 8.04,-389.6 -18.64,-541.15l-6.48 -34.14c-5.65,-29.08 -4.24,-51.37 4.23,-66.47 8.46,-15.24 19.76,-24.14 33.86,-26.67 6.5,-1.13 13.7,2.96 21.45,11.99 7.76,9.18 13.27,23 16.52,41.77 4.65,26.25 7.61,58.7 8.75,97.09 1.26,48.39 2.4,76.2 3.39,83.25 27.93,-77.61 61.09,-140.27 99.47,-187.82 38.25,-47.55 76.77,-74.78 115.57,-81.7 27.37,-4.8 52.35,1.42 74.79,18.49 22.44,17.21 36.41,40.92 41.77,71.4 15.52,88.33 -4.23,174.55 -59.27,258.65 -55.03,84.11 -114.72,131.8 -179.06,143.23 -15.95,2.82 -29.36,0.98 -40.22,-5.51 -10.73,-6.48 -23.01,-19.61 -36.83,-39.23zm194.87 -372.1c-38.24,6.77 -79.31,50.94 -123.05,132.5 -43.74,81.56 -62.22,142.24 -55.17,182.04 1.69,9.87 9.03,18.34 21.73,25.53 12.7,7.35 27.66,9.46 44.73,6.49 38.8,-6.91 78.32,-43.46 118.68,-109.64 40.36,-66.32 55.6,-127.14 45.85,-182.45 -3.52,-19.76 -10.16,-34.29 -20.03,-43.6 -9.88,-9.32 -20.88,-12.85 -32.74,-10.87z"/>
  <path id="_12" class="fil1" d="M8297.88 2486.18c-28.93,57.72 -59.68,102.58 -92.43,134.62 -32.59,32.03 -64.34,50.8 -95.39,56.3 -20.88,3.68 -40.36,-1.98 -58.7,-16.93 -18.34,-14.96 -29.91,-36.27 -34.71,-63.92 -12.56,-71.27 5.65,-153.81 54.89,-247.37 49.25,-93.41 105.27,-145.77 168.21,-156.92 22.86,-3.95 42.05,6.07 57.71,30.06 5.08,8.05 11.43,11.43 19.05,10.17 21.73,-3.81 34.01,2.67 36.97,19.46 1.41,8.33 2.11,20.18 1.98,35.28 -0.57,82.56 2.11,140.27 7.9,173.14 11.57,65.62 31.04,102.73 58.28,111.34 12.98,4.38 20.45,11.29 22.15,20.88 1.41,8.33 -2.96,17.92 -13.13,28.51 -10.15,10.58 -20.59,16.79 -31.47,18.77 -20.88,3.67 -40.63,-7.76 -59.26,-34.01 -18.63,-26.38 -32.6,-66.18 -42.05,-119.38zm-65.19 -224.64c-35.7,6.34 -71.41,47.26 -107.1,122.76 -35.56,75.49 -49.53,135.33 -41.78,179.49 5.51,31.19 18.63,45.02 39.24,41.35 29.77,-5.22 65.89,-42.61 108.08,-112.19 42.33,-69.56 58.99,-129.54 50.1,-179.91 -6.77,-38.8 -23,-55.88 -48.54,-51.5z"/>
  <path id="_13" class="fil1" d="M8694.05 2311.15c35.98,-0.57 65.47,7.61 88.47,24.27 23.15,16.5 37.26,39.37 42.34,68.43 8.05,45.87 -4.65,87.35 -37.96,124.75 -33.44,37.39 -81.7,61.52 -144.92,72.67 -37.68,6.63 -71.68,4.23 -101.74,-7.2 -30.06,-11.43 -46.99,-27.09 -50.37,-46.85 -2.97,-16.22 4.94,-26.11 23.7,-29.35 2.68,-0.57 7.34,0.99 13.83,4.66 34.43,20.46 72.11,27.09 113.03,19.89 35.98,-6.34 65.48,-21.3 88.06,-44.87 22.71,-23.56 31.46,-50.51 26.09,-80.85 -3.53,-20.19 -13.97,-35.57 -31.04,-46.43 -17.21,-10.72 -35.56,-14.53 -55.03,-11.01 -14.96,2.68 -40.08,13.13 -75.5,31.33 -6.9,3.67 -14.52,6.35 -22.85,7.77 -16.37,2.95 -26.39,-6.64 -30.2,-28.66 -1.41,-7.48 1.41,-14.39 8.32,-20.31 6.92,-5.93 22.58,-14.12 47,-24.7 74.22,-31.19 107.38,-69.28 99.34,-114.29 -2.4,-13.55 -9.18,-23.99 -20.32,-31.06 -11.15,-7.19 -24.42,-9.31 -39.52,-6.63 -28.21,4.95 -56.15,22.72 -83.67,53.35 -16.23,17.92 -29.21,27.79 -38.95,29.49 -16.52,2.82 -26.11,-3.39 -28.93,-18.91 -3.53,-20.32 12,-44.45 46.56,-72.53 34.72,-28.08 69.57,-45.15 104.85,-51.36 35.28,-6.21 64.63,-1.84 88.2,13.4 23.42,15.1 36.97,33.02 40.64,53.62 8.75,49.11 -14.54,92.85 -69.43,131.38z"/>
  <path id="_14" class="fil1" d="M9118.52 2066.87c66.05,14.1 107.25,67.72 123.62,161 12.42,69.99 1.27,135.05 -33.16,195.02 -34.43,60.11 -77.19,94.54 -128.55,103.57 -45.72,8.19 -84.67,-3.67 -116.56,-35.56 -31.89,-31.89 -54.05,-82.83 -66.32,-152.82 -14.95,-84.24 -15.1,-172.3 -0.71,-263.88 14.54,-91.58 40.08,-163.4 76.63,-215.19 36.54,-51.93 77.47,-81.85 122.76,-89.89 27.38,-4.79 51.09,0.29 70.84,15.39 19.89,15.09 32.6,38.65 38.24,70.69 4.52,25.54 -1.13,57.71 -17.07,96.52 -15.95,38.94 -39.23,77.33 -69.72,115.15zm-163.54 105.12c90.31,-98.91 144.64,-167.93 163.26,-206.87 18.63,-38.95 26.11,-68.29 22.58,-88.05 -5.5,-31.75 -21.16,-45.29 -46.56,-40.93 -35.57,6.36 -66.6,39.38 -93.13,99.07 -26.54,59.83 -41.77,138.71 -46.15,236.78zm214.77 80.43c-7.19,-40.35 -20.32,-71.68 -39.65,-93.7 -19.19,-22.01 -37.96,-31.46 -56.16,-28.21 -5.37,0.84 -31.89,27.08 -79.59,78.59 -12.28,13.26 -24.13,25.82 -35.84,37.4 0,23.99 2.54,49.95 7.47,77.89 8.75,49.39 22.59,85.23 41.78,107.53 19.19,22.43 41.76,31.32 67.87,26.67 36.4,-6.35 63.22,-30.77 80.43,-73.1 17.22,-42.34 21.87,-86.5 13.83,-132.22l-0.14 -0.85z"/>
  <path id="_15" class="fil1" d="M9622.91 2222.92c-24.56,64.34 -52.07,115.71 -82.69,154.23 -30.76,38.38 -61.66,60.26 -92.85,65.76 -17.92,3.25 -37.96,-3.95 -60.26,-21.59 -22.29,-17.65 -37.25,-48.12 -44.87,-91.58 -6.2,-35.42 -6.92,-89.32 -2.11,-161.43 4.22,-60.39 4.23,-102.17 0.13,-125.45 5.09,-17.63 15.95,-28.08 32.74,-31.04 11.43,-1.97 21.17,0.42 29.36,7.19 8.18,6.92 13.11,14.68 14.53,23.28 3.38,19.05 1.55,47.14 -5.65,84.53 -13.12,72.39 -15.52,133.06 -6.91,181.89 7.91,44.6 22.15,64.91 42.76,61.25 26.24,-4.52 55.88,-32.89 88.62,-84.81 32.73,-51.93 56.57,-120.37 71.53,-205.46 5.79,-34.01 11.43,-56.59 16.8,-67.46 5.5,-10.86 14.39,-17.35 26.67,-19.46 18.34,-3.39 29.77,7.2 34.01,31.6 0.55,3.11 -0.29,13.42 -2.41,31.05 -5.92,62.37 -4.08,119.94 5.23,172.86 11.15,63.36 28.92,102.59 53.05,117.69 12.7,8.04 19.48,15.23 20.61,21.44 1.27,7.62 -2.96,15.52 -12.84,23.71 -9.88,8.18 -19.34,13.12 -28.23,14.68 -19.05,3.24 -36.83,-8.05 -53.48,-34.3 -16.65,-26.1 -29.77,-66.74 -39.51,-121.78l-2.4 -13.39c-0.7,-4.38 -1.4,-8.89 -1.83,-13.41z"/>
  <path id="_16" class="fil1" d="M10125.74 1984.81c-25.12,5.08 -65.9,89.33 -122.35,252.73 -19.19,55.17 -30.61,85.23 -34.43,90.59 -3.8,5.22 -11.56,10.73 -23.27,16.51 -11.72,5.65 -21.6,9.17 -29.78,10.73 -18.2,3.1 -33.44,-30.62 -46,-101.46 -7.06,-39.8 -11.15,-113.46 -12.56,-220.84 -0.43,-43.6 -2.12,-74.51 -5.36,-92.71 -3.11,-17.78 3.24,-28.22 19.19,-31.04 30.19,-5.23 48.96,13.68 56.73,57.14 3.52,20.33 5.5,61.11 5.92,122.21 0.42,69.85 1.69,112.18 3.95,126.85 13.97,-19.19 32.31,-59.26 55.17,-120.08 32.89,-83.4 58.43,-137.3 76.63,-161.29 18.34,-24.13 39.09,-38.1 62.36,-42.33 17.64,-3.1 33.74,6.35 48.4,28.08 14.54,21.74 30.77,76.91 48.69,165.38 4.38,22.16 9.46,38.38 14.82,48.54 5.5,10.3 9.03,15.25 10.59,14.96 12.83,-2.25 32.73,-50.52 60.11,-144.78 14.67,-49.81 30.61,-88.62 47.98,-116.27 17.35,-27.66 39.22,-43.89 65.47,-48.4 22.01,-3.95 40.07,4.51 54.04,25.39 13.98,20.89 27.1,53.21 39.37,96.95 12,44.31 25.54,84.39 40.64,120.37 15.1,35.83 34.99,57.14 59.69,63.63 16.79,4.67 25.97,11.86 27.8,21.59 1.55,9.46 -3.24,20.33 -14.4,32.74 -11.29,12.28 -22.29,19.48 -33.15,21.31 -21.74,3.81 -43.46,-6.06 -65.2,-29.63 -21.73,-23.56 -44.87,-78.74 -69.14,-165.67 -10.02,-34.85 -18.06,-59.4 -24.27,-73.65 -6.21,-14.39 -12.98,-20.74 -20.61,-19.48 -11.43,1.98 -22.99,15.24 -34.71,39.65 -11.85,24.42 -29.2,72.96 -52.21,145.49 -17.92,56.59 -32.46,94.82 -43.32,114.44 -11,19.76 -23,30.76 -35.98,33.02 -11.57,1.98 -22.86,-0.85 -33.73,-8.46 -10.86,-7.77 -18.76,-18.07 -23.42,-30.77 -4.8,-12.7 -13.12,-44.59 -24.98,-95.67 -19.05,-84.95 -35.42,-133.49 -48.68,-145.77z"/>
  <path id="_17" class="fil1" d="M10988.39 1982.15c-24.55,64.34 -52.07,115.71 -82.68,154.23 -30.77,38.38 -61.67,60.25 -92.86,65.75 -17.91,3.25 -37.96,-3.94 -60.25,-21.58 -22.29,-17.65 -37.25,-48.12 -44.87,-91.58 -6.21,-35.42 -6.92,-89.33 -2.12,-161.44 4.23,-60.39 4.23,-102.16 0.14,-125.45 5.08,-17.63 15.95,-28.07 32.74,-31.03 11.43,-1.98 21.16,0.42 29.35,7.19 8.19,6.91 13.12,14.68 14.53,23.28 3.38,19.05 1.55,47.14 -5.64,84.53 -13.12,72.39 -15.52,133.06 -6.91,181.89 7.9,44.59 22.14,64.91 42.75,61.24 26.25,-4.51 55.88,-32.88 88.62,-84.8 32.73,-51.93 56.58,-120.38 71.54,-205.47 5.78,-34 11.43,-56.58 16.79,-67.45 5.51,-10.86 14.4,-17.35 26.68,-19.46 18.34,-3.39 29.77,7.19 34,31.6 0.56,3.11 -0.28,13.41 -2.4,31.05 -5.92,62.37 -4.09,119.94 5.22,172.86 11.15,63.35 28.93,102.58 53.05,117.68 12.7,8.05 19.49,15.24 20.61,21.45 1.27,7.62 -2.96,15.52 -12.84,23.71 -9.88,8.18 -19.33,13.12 -28.23,14.68 -19.04,3.24 -36.82,-8.05 -53.47,-34.3 -16.65,-26.1 -29.78,-66.74 -39.51,-121.78l-2.4 -13.39c-0.7,-4.38 -1.41,-8.9 -1.84,-13.41z"/>
  <path id="_18" class="fil1" d="M11532.85 1630.17c1.27,7.33 -1.69,24.55 -8.61,51.5 -5.64,21.59 -8.18,63.22 -7.33,124.6 0.7,61.38 4.38,110.63 10.86,147.74 2.97,16.37 8.33,37.82 16.51,64.63 3.67,12.84 6.21,23.57 7.77,32.18 0.84,4.65 -2.4,10.16 -9.47,16.36 -7.19,6.35 -13.96,10.02 -20.59,11.15 -16.79,2.96 -28.22,1.13 -34.29,-5.65 -6.07,-6.77 -11.15,-21.86 -15.38,-45.57l-19.48 -131.94c-34.71,41.06 -59.26,71.26 -73.8,90.59 -16.65,21.59 -28.22,36.13 -35.13,43.46 -32.04,36.69 -54.75,67.17 -67.74,91.3 -2.11,3.67 -5.79,7.9 -10.86,12.41 -5.08,4.53 -8.75,6.92 -10.87,7.34 -11.85,2.12 -22.57,-1.97 -31.89,-11.99 -9.31,-10.16 -14.53,-18.2 -15.52,-24.13 -1.27,-6.78 9.87,-24.55 33.3,-53.34 6.49,-7.76 12.84,-14.81 19.05,-20.88 35.28,-34.43 69.42,-74.08 102.31,-118.68l-44.31 8.19c-14.82,1.41 -33.3,-1.41 -55.46,-8.9 -22.15,-7.47 -36.55,-17.63 -43.46,-30.47 -6.92,-12.98 -11.43,-25.55 -13.55,-37.68 -6.91,-39.08 7.91,-78.17 44.31,-117.26 36.4,-39.22 83.39,-69.71 140.69,-91.58 6.77,-1.13 18.2,-4.8 34.14,-11.01 15.95,-5.92 25.13,-9.03 27.24,-9.45 2.83,-0.43 9.59,-0.28 20.74,0.57l12.98 -4.8c8.33,-1.56 17.5,-0.28 27.52,3.81 9.88,3.95 16.66,9.74 20.32,17.5zm-74.78 54.32c-3.96,-4.94 -7.77,-7.06 -11.58,-6.35 -37.95,6.78 -78.17,25.96 -120.5,58 -42.34,31.89 -60.4,64.9 -54.48,99.05 1.84,9.74 9.32,17.09 22.59,22.02 13.26,4.94 31.18,5.51 53.76,1.56 40.63,-7.2 71.11,-16.66 91.44,-28.37 5.78,-5.5 9.45,-15.38 11.14,-29.63l7.63 -116.28z"/>
  <path id="_19" class="fil1" d="M2169.07 4943.95c1.97,-6.21 0.7,-41.21 -3.67,-104.71 -3.96,-50.66 7.48,-78.46 34.28,-83.26 22.01,-3.81 35,5.23 38.81,27.24 0.85,5.08 0.85,15.94 -0.14,32.31 -5.65,90.17 -3.25,164.54 7.06,223.1 11.14,63.5 28.78,102.73 53.05,117.83 12.56,8.04 19.48,15.24 20.6,21.44 1.27,7.63 -2.96,15.52 -12.84,23.71 -9.88,8.18 -19.33,12.99 -28.22,14.68 -42.33,7.34 -75.07,-54.19 -98.07,-184.99 -1.55,-8.61 -5.5,-12.43 -12.14,-11.3 -25.4,4.52 -56.3,11.58 -92.7,21.03 -36.41,9.46 -62.09,17.92 -77.2,25.4 -14.95,7.34 -23.98,13.4 -26.94,17.92 -2.96,4.52 -4.38,15.52 -4.23,33.02 0.14,17.5 1.83,35.28 4.93,53.48l8.89 49.95c5.08,29.07 -5.64,45.87 -32.17,50.67 -22.29,3.8 -35.99,-8.62 -41.06,-37.69 -3.39,-19.05 -5.22,-43.6 -5.5,-73.65 -0.43,-55.32 -7.77,-149.44 -22.02,-282.23 -1.98,-17.21 -2.4,-28.36 -1.27,-33.3 1.13,-4.93 5.08,-11 12.13,-17.92 7.06,-6.91 15.24,-11.29 24.84,-12.98 19.47,-3.38 30.62,2.83 33.45,18.91 0.42,2.39 0.99,23.28 1.41,62.65 0.28,39.38 2.25,69.57 5.92,90.74 2.68,14.96 9.17,21.58 19.47,19.76 20.61,-3.68 57.72,-13.84 111.2,-30.35 53.62,-16.65 81,-27.09 82.13,-31.46z"/>
  <path id="_20" class="fil1" d="M2655.1 4979.37c-28.93,57.72 -59.68,102.58 -92.43,134.62 -32.59,32.03 -64.34,50.8 -95.39,56.3 -20.88,3.67 -40.36,-1.98 -58.7,-16.93 -18.34,-14.97 -29.91,-36.27 -34.71,-63.93 -12.55,-71.26 5.65,-153.8 54.89,-247.37 49.25,-93.41 105.27,-145.76 168.21,-156.91 22.86,-3.95 42.05,6.07 57.71,30.05 5.08,8.06 11.43,11.43 19.05,10.17 21.73,-3.81 34.01,2.68 36.97,19.47 1.41,8.33 2.12,20.18 1.98,35.28 -0.57,82.55 2.11,140.26 7.9,173.14 11.57,65.62 31.04,102.73 58.28,111.34 12.98,4.37 20.45,11.29 22.15,20.88 1.41,8.32 -2.96,17.92 -13.13,28.5 -10.15,10.59 -20.59,16.79 -31.47,18.77 -20.88,3.67 -40.63,-7.76 -59.26,-34 -18.63,-26.39 -32.6,-66.19 -42.05,-119.38zm-65.19 -224.65c-35.7,6.35 -71.41,47.27 -107.1,122.77 -35.56,75.49 -49.53,135.32 -41.78,179.49 5.51,31.18 18.64,45.02 39.24,41.34 29.77,-5.22 65.89,-42.61 108.08,-112.18 42.33,-69.57 58.99,-129.54 50.1,-179.91 -6.77,-38.81 -23,-55.89 -48.54,-51.51z"/>
  <path id="_21" class="fil1" d="M3419.28 4814.92c-24.41,64.49 -52.06,115.85 -82.68,154.23 -30.76,38.37 -61.67,60.4 -92.86,65.89 -17.91,3.11 -37.96,-4.09 -60.25,-21.72 -22.3,-17.64 -37.25,-48.13 -44.87,-91.44 -3.95,-22.3 -5.93,-47.28 -6.07,-74.93 -16.79,55.6 -42.19,105.26 -76.06,149.01 -34,43.75 -66.89,68.3 -98.5,73.94 -15.23,2.68 -33.43,-3.39 -54.6,-18.06 -21.17,-14.68 -34.44,-37.26 -39.8,-67.6 -6.21,-34.99 -9.3,-61.66 -9.45,-79.72 -0.43,-16.51 -1.26,-33.3 -2.69,-50.8 -0.7,-13.83 -1.12,-26.81 -0.98,-39.22 0.28,-60.12 -2.26,-98.37 -7.76,-114.73 2.4,-20.33 13.83,-32.31 34.43,-35.84 8.05,-1.41 16.65,0.42 25.54,5.78 8.89,5.22 14.67,15.38 17.36,30.62 4.38,24.98 4.37,57.15 -0.14,96.52 -6.07,52.78 -5.79,98.63 1.13,137.3 3.67,21.16 8.18,37.4 13.4,48.4 5.08,11.16 13.12,15.81 23.99,13.83 35.84,-6.2 70.55,-45.15 104.28,-116.56 33.58,-71.26 57.57,-143.79 71.68,-217.3 6.22,-33.17 18.07,-51.37 35.71,-54.47 11.43,-1.98 21.16,0.42 29.35,7.19 8.18,6.77 13.12,14.54 14.67,23.14 3.25,19.06 1.42,47.13 -5.79,84.53 -13.26,71.4 -15.8,130.67 -7.62,177.94 7.91,44.45 22.16,64.91 42.76,61.25 9.18,-1.56 19.9,-6.93 32.17,-15.81 12.28,-8.75 26.67,-24.98 42.9,-48.41 16.23,-23.42 31.33,-51.36 45.02,-83.82 13.68,-32.45 21.87,-55.73 24.4,-69.7 2.55,-14.11 6.93,-46.85 13.27,-98.21 3.96,-33.44 8.9,-56.45 14.82,-69.14 6.07,-12.71 15.52,-20.19 28.22,-22.3 18.48,-3.25 29.78,7.34 34.15,31.75 0.42,2.96 -0.42,13.26 -2.54,31.04 -2.96,27.37 -3.53,61.53 -1.69,102.31 1.98,40.92 5.22,74.51 9.74,100.47 11.14,63.5 28.92,102.72 53.05,117.68 12.7,8.19 19.47,15.38 20.6,21.59 1.27,7.63 -2.96,15.52 -12.84,23.71 -9.88,8.18 -19.33,12.99 -28.22,14.53 -18.91,3.39 -36.83,-8.04 -53.48,-34.15 -16.51,-26.1 -29.78,-66.74 -39.51,-121.78l-2.25 -13.4c-0.86,-4.37 -1.42,-8.89 -1.99,-13.54z"/>
  <path id="_22" class="fil1" d="M3913.01 4727.94c-24.55,64.34 -52.07,115.71 -82.68,154.23 -30.77,38.38 -61.67,60.26 -92.86,65.76 -17.91,3.25 -37.96,-3.95 -60.25,-21.59 -22.29,-17.65 -37.25,-48.12 -44.87,-91.58 -6.21,-35.42 -6.92,-89.32 -2.12,-161.43 4.23,-60.4 4.23,-102.17 0.14,-125.45 5.08,-17.63 15.95,-28.08 32.74,-31.04 11.43,-1.98 21.16,0.42 29.35,7.19 8.19,6.92 13.12,14.68 14.54,23.28 3.38,19.05 1.54,47.14 -5.65,84.53 -13.12,72.39 -15.52,133.06 -6.91,181.89 7.9,44.59 22.15,64.91 42.75,61.25 26.25,-4.52 55.88,-32.89 88.62,-84.81 32.73,-51.93 56.58,-120.37 71.54,-205.46 5.78,-34.01 11.43,-56.59 16.79,-67.46 5.51,-10.86 14.4,-17.35 26.68,-19.46 18.34,-3.39 29.77,7.2 34,31.6 0.56,3.11 -0.28,13.42 -2.4,31.05 -5.92,62.37 -4.09,119.94 5.22,172.86 11.15,63.36 28.93,102.59 53.06,117.69 12.7,8.04 19.48,15.23 20.6,21.44 1.27,7.62 -2.96,15.52 -12.84,23.71 -9.87,8.18 -19.33,13.12 -28.23,14.68 -19.04,3.24 -36.82,-8.05 -53.47,-34.3 -16.65,-26.1 -29.78,-66.74 -39.51,-121.78l-2.4 -13.39c-0.7,-4.38 -1.41,-8.89 -1.84,-13.41z"/>
  <path id="_23" class="fil1" d="M4278.69 4689.78c-52.49,64.07 -83.83,124.89 -94.12,182.32 -4.38,19.19 -9.74,34 -16.09,44.3 -32.6,3.81 -51.37,-8.32 -56.3,-36.55 -7.34,-41.48 27.8,-112.59 105.4,-213.21l16.24 -21.73c-68.17,-71.68 -106.13,-129.11 -113.89,-172.43 -6.77,-38.53 6.08,-60.69 38.67,-66.47 9.17,-1.55 16.65,1.13 22.15,8.32 5.65,7.06 12.15,24.42 19.47,51.93 11.16,42.48 37.83,84.81 79.88,127.29 63.78,-77.89 104.27,-144.5 121.64,-200.24 6.06,-17.78 11.14,-29.35 15.24,-34.57 4.23,-5.08 10.29,-8.47 18.48,-9.88 9.73,-1.7 19.61,0.42 29.49,6.5 9.88,6.06 15.8,14.95 17.78,26.67 4.8,27.08 -47.97,113.02 -158.32,257.8 55.45,49.95 111.47,85.09 167.78,104.98 6.91,2.4 13.54,5.09 19.9,7.91 1.54,2.26 2.67,5.92 3.66,11 1.98,11.72 -0.43,22.86 -7.34,33.59 -6.91,10.73 -16.37,17.22 -28.22,19.33 -36.69,6.35 -103.85,-35.84 -201.5,-126.86z"/>
  <path id="_24" class="fil1" d="M5169.73 4366.13c-14.12,2.54 -27.95,14.39 -41.35,35.84 -13.41,21.45 -31.61,67.17 -54.33,137.58 -29.91,94.12 -50.23,148.31 -61.39,162.56 -11,14.25 -20.88,22.16 -29.49,23.71 -32.03,5.65 -50.8,-7.06 -56.3,-37.96 -2.26,-12.99 -3.25,-31.75 -3.25,-56.45 0.57,-84.52 -7.19,-172.15 -23.28,-263.03 -1.83,-10.3 0.56,-22.57 7.2,-36.69 6.63,-14.24 13.83,-22 21.73,-23.41 13.97,-2.41 24.84,0.13 32.31,7.75 7.48,7.63 13.55,24.56 18.21,50.94 4.79,27.38 6.63,85.24 5.5,173.57 -0.56,29.06 0,47.42 1.27,55.03 0.85,4.38 2.26,6.35 4.37,5.93 4.1,-0.71 17.22,-36.41 39.51,-107.11 22.16,-71.96 43.75,-123.6 64.5,-154.93 20.73,-31.33 46.42,-49.68 77.04,-55.03 24.41,-4.38 46.28,3.24 65.48,22.85 19.33,19.48 37.67,58 55.03,115.72 19.47,65.61 33.58,106.11 42.62,121.35 9.02,15.38 20.17,21.87 33.44,19.48 8.46,-1.41 18.48,-6.22 30.19,-14.54 1.98,-1.41 3.53,-2.25 4.52,-2.4 11.71,-2.11 18.76,3.67 21.16,17.22 2.12,11.99 -3.66,25.96 -17.35,42.33 -13.69,16.23 -31.75,26.25 -54.18,30.34 -23.01,3.95 -42.48,-1.98 -58.43,-18.06 -15.8,-16.09 -34.29,-63.22 -55.74,-141.39 -21.59,-78.47 -44.59,-115.43 -68.99,-111.2z"/>
  <path id="_25" class="fil1" d="M5570.98 4569.33c-4.66,51.08 -5.08,121.78 -1.27,211.95l2.26 79.02c-0.01,11.15 -3.1,22.72 -9.46,35 -6.21,12.13 -12.7,18.76 -19.47,19.89 -8.47,1.56 -18.77,-0.98 -30.91,-7.76 -12.27,-6.62 -18.76,-12.56 -19.75,-17.63 -2.53,-14.96 -2.83,-36.13 -0.7,-63.65 14.25,-209.12 8.04,-389.6 -18.64,-541.15l-6.48 -34.15c-5.65,-29.07 -4.24,-51.36 4.23,-66.46 8.46,-15.24 19.76,-24.14 33.86,-26.68 6.5,-1.12 13.7,2.97 21.45,12 7.76,9.17 13.27,23 16.52,41.77 4.65,26.25 7.61,58.7 8.75,97.08 1.26,48.4 2.4,76.2 3.39,83.26 27.93,-77.61 61.09,-140.27 99.47,-187.82 38.25,-47.55 76.77,-74.79 115.57,-81.71 27.37,-4.79 52.35,1.42 74.79,18.5 22.44,17.21 36.41,40.92 41.77,71.4 15.52,88.32 -4.23,174.54 -59.27,258.65 -55.03,84.1 -114.72,131.79 -179.06,143.23 -15.95,2.82 -29.36,0.98 -40.22,-5.51 -10.73,-6.49 -23.01,-19.61 -36.83,-39.23zm194.87 -372.1c-38.24,6.77 -79.31,50.94 -123.05,132.5 -43.74,81.56 -62.22,142.23 -55.17,182.03 1.69,9.88 9.03,18.34 21.73,25.54 12.7,7.34 27.66,9.46 44.73,6.49 38.8,-6.91 78.32,-43.46 118.68,-109.65 40.36,-66.31 55.6,-127.13 45.85,-182.44 -3.52,-19.76 -10.16,-34.3 -20.03,-43.6 -9.88,-9.32 -20.88,-12.85 -32.74,-10.87z"/>
  <path id="_26" class="fil1" d="M6162.24 4534.68c-37.25,6.49 -70.27,-2.12 -99.48,-26.11 -29.07,-23.99 -47.27,-56.72 -54.61,-98.21 -12.27,-69.85 -0.98,-142.94 34.15,-219.28 34.99,-76.21 85.37,-120.09 150.99,-131.66 43.46,-7.62 81.55,2.82 114.44,31.47 32.88,28.5 53.33,65.89 61.52,112.04 12.42,70.42 -3.95,140.69 -49.11,210.81 -45.15,70 -97.78,110.35 -157.9,120.94zm-84.38 -147.46c4.8,27.38 14.53,48.82 29.21,64.06 14.53,15.38 31.33,21.31 50.24,17.92 40.5,-7.06 77.04,-36.4 109.92,-87.91 32.88,-51.5 44.59,-104.42 34.99,-158.61 -5.92,-33.29 -18.48,-58.98 -37.67,-77.05 -19.33,-17.91 -42.06,-24.69 -68.44,-20.03 -43.6,7.76 -76.34,41.06 -98.21,100.19 -21.88,59.13 -28.5,112.89 -20.04,161.43z"/>
  <path id="_27" class="fil1" d="M6845.41 4251.06c4.8,27.67 -13.69,65.34 -55.88,113.03 -42.06,47.7 -89.05,76.06 -141.11,85.24 -43.75,7.76 -79.73,0.84 -107.96,-20.75 -28.21,-21.59 -46.42,-55.45 -54.6,-101.6 -13.69,-77.47 -0.42,-155.93 39.51,-235.08 40.07,-79.16 91.02,-124.33 153.1,-135.19 20.47,-3.67 38.25,0.14 53.49,11.15 15.09,11.01 24.41,25.82 27.65,44.58 7.48,41.78 -6.06,85.38 -40.21,130.82 -34.15,45.44 -82.42,92.7 -144.5,141.67 -12.84,9.74 -18.2,20.46 -16.08,32.17 3.95,22.59 13.68,39.37 29.06,50.66 15.38,11.29 35.85,14.68 61.38,10.17 58.29,-10.31 112.05,-53.06 161.44,-128.27 7.33,-10.59 13.4,-16.24 18.06,-17.08 8.6,-1.56 14.24,4.66 16.65,18.48zm-293.94 -13.54c102.88,-88.61 150.71,-153.67 143.37,-195.3 -2.82,-16.22 -11.57,-23 -26.24,-20.46 -24.98,4.37 -49.82,27.66 -74.65,69.85 -24.97,42.05 -39.08,90.74 -42.48,145.91z"/>
  <path id="_28" class="fil1" d="M6999.86 4145.41c62.37,-22.44 112.61,-74.08 150.99,-154.95 17.92,-37.67 34.72,-64.9 50.37,-82.12 15.53,-17.21 33.45,-27.52 53.77,-31.04 8.19,-1.56 16.93,0.7 26.39,6.63 9.46,5.93 14.95,13.83 16.79,23.85 2.4,13.26 -8.47,25.96 -32.31,37.95 -12.56,6.49 -23.85,15.67 -33.73,27.38 -10.01,11.85 -27.94,39.09 -54.04,81.7 -20.33,33.31 -39.79,57.43 -58,72.68 -1.7,1.4 -2.54,2.54 -2.4,3.38 0.29,1.13 1.7,1.98 4.24,2.68 21.72,7.06 46.14,23.85 73.51,50.38 39.8,38.52 68.73,62.09 86.78,70.84 18.06,8.74 37.26,11.29 58.01,7.62l13.26 -2.83c9.45,-2.11 14.95,1.28 16.5,10.16 1.84,10.31 -2.11,22.01 -11.85,35.29 -9.73,13.12 -27.93,22 -54.89,26.8 -20.61,3.67 -42.05,-1.69 -64.63,-16.09 -22.58,-14.38 -49.81,-39.22 -81.7,-74.64 -18.63,-21.17 -35.13,-36.69 -49.82,-46.71 -14.67,-10.02 -29.48,-13.69 -44.73,-11 -3.24,0.7 -12.83,5.07 -28.64,13.54 -15.8,8.33 -24.42,15.24 -25.54,20.61 -1.13,5.35 0.56,23.7 5.08,54.89 4.51,31.18 8.46,56.3 11.85,75.34 1.7,10.03 -1.41,19.76 -9.6,29.36 -8.04,9.46 -17.63,15.24 -28.78,17.22 -11.42,1.97 -20.88,0.28 -28.65,-5.23 -7.62,-5.5 -12.13,-11.71 -13.26,-18.76 -1.83,-9.88 -2.25,-33.59 -1.26,-71.12 1.4,-68.45 -4.95,-179.92 -18.63,-334.44 -1.56,-14.81 1.69,-28.92 9.59,-42.61 7.9,-13.55 18.35,-21.45 31.05,-23.7 7.05,-1.28 13.69,1.54 19.75,8.32 6.06,6.77 10.16,16.08 12.28,28.08 1.69,9.46 1.97,20.6 0.84,33.3 -5.5,58.85 -5.08,117.97 1.41,177.24z"/>
  <path id="_29" class="fil1" d="M7683.78 3913.6c-25.12,5.08 -65.9,89.33 -122.34,252.74 -19.19,55.17 -30.62,85.23 -34.44,90.58 -3.8,5.22 -11.56,10.73 -23.27,16.52 -11.72,5.65 -21.6,9.16 -29.78,10.72 -18.2,3.11 -33.44,-30.62 -46,-101.45 -7.06,-39.8 -11.15,-113.46 -12.56,-220.85 -0.43,-43.6 -2.12,-74.5 -5.36,-92.71 -3.1,-17.78 3.24,-28.22 19.19,-31.04 30.19,-5.22 48.96,13.69 56.73,57.15 3.52,20.32 5.5,61.1 5.92,122.21 0.42,69.84 1.69,112.18 3.96,126.85 13.97,-19.19 32.31,-59.27 55.16,-120.09 32.89,-83.4 58.43,-137.3 76.63,-161.28 18.35,-24.14 39.09,-38.1 62.37,-42.34 17.64,-3.1 33.73,6.35 48.4,28.08 14.53,21.74 30.76,76.91 48.68,165.38 4.38,22.16 9.46,38.38 14.82,48.55 5.5,10.3 9.03,15.24 10.59,14.96 12.83,-2.26 32.73,-50.53 60.11,-144.78 14.67,-49.82 30.62,-88.62 47.98,-116.28 17.35,-27.65 39.22,-43.89 65.47,-48.39 22.02,-3.96 40.07,4.51 54.04,25.39 13.98,20.89 27.1,53.2 39.37,96.94 12,44.31 25.54,84.39 40.64,120.38 15.1,35.83 35,57.14 59.69,63.63 16.79,4.66 25.97,11.86 27.8,21.59 1.56,9.45 -3.24,20.32 -14.39,32.73 -11.29,12.28 -22.3,19.48 -33.16,21.32 -21.74,3.81 -43.46,-6.07 -65.19,-29.63 -21.73,-23.57 -44.88,-78.75 -69.15,-165.67 -10.02,-34.85 -18.06,-59.41 -24.27,-73.66 -6.2,-14.39 -12.98,-20.74 -20.61,-19.48 -11.43,1.98 -22.99,15.25 -34.71,39.65 -11.85,24.42 -29.2,72.96 -52.21,145.49 -17.91,56.59 -32.45,94.83 -43.31,114.44 -11.01,19.76 -23.01,30.76 -35.99,33.02 -11.57,1.98 -22.86,-0.84 -33.73,-8.46 -10.86,-7.76 -18.76,-18.07 -23.42,-30.77 -4.79,-12.7 -13.12,-44.59 -24.98,-95.67 -19.05,-84.95 -35.42,-133.48 -48.68,-145.77z"/>
  <path id="_30" class="fil1" d="M8412.8 4137.85c-37.25,6.48 -70.27,-2.12 -99.48,-26.12 -29.07,-23.98 -47.27,-56.72 -54.61,-98.21 -12.27,-69.85 -0.98,-142.94 34.16,-219.28 34.98,-76.2 85.36,-120.08 150.98,-131.65 43.46,-7.63 81.56,2.82 114.44,31.46 32.88,28.5 53.33,65.9 61.52,112.05 12.42,70.41 -3.95,140.68 -49.11,210.81 -45.15,69.99 -97.78,110.35 -157.9,120.94zm-84.37 -147.46c4.79,27.37 14.52,48.82 29.2,64.06 14.54,15.38 31.33,21.3 50.24,17.92 40.5,-7.06 77.04,-36.4 109.92,-87.92 32.88,-51.5 44.59,-104.41 34.99,-158.6 -5.92,-33.3 -18.48,-58.99 -37.67,-77.05 -19.33,-17.91 -42.06,-24.69 -68.44,-20.03 -43.6,7.76 -76.34,41.06 -98.21,100.19 -21.88,59.12 -28.5,112.88 -20.03,161.43z"/>
  <path id="_31" class="fil1" d="M8940.2 3596.52c66.04,14.11 107.25,67.73 123.61,161 12.43,70 1.27,135.05 -33.16,195.02 -34.43,60.12 -77.18,94.54 -128.54,103.58 -45.73,8.18 -84.68,-3.67 -116.57,-35.56 -31.88,-31.9 -54.04,-82.83 -66.32,-152.83 -14.95,-84.24 -15.09,-172.29 -0.71,-263.87 14.54,-91.59 40.09,-163.41 76.63,-215.2 36.55,-51.92 77.47,-81.84 122.77,-89.88 27.37,-4.8 51.08,0.28 70.83,15.38 19.9,15.1 32.6,38.66 38.24,70.7 4.52,25.54 -1.13,57.71 -17.07,96.52 -15.95,38.94 -39.23,77.32 -69.71,115.14zm-163.54 105.13c90.3,-98.92 144.63,-167.93 163.25,-206.88 18.63,-38.94 26.11,-68.29 22.59,-88.04 -5.51,-31.75 -21.17,-45.3 -46.57,-40.93 -35.56,6.35 -66.6,39.37 -93.13,99.07 -26.53,59.82 -41.77,138.71 -46.14,236.78zm214.77 80.42c-7.2,-40.35 -20.33,-71.68 -39.66,-93.69 -19.19,-22.01 -37.96,-31.47 -56.16,-28.22 -5.37,0.84 -31.89,27.09 -79.59,78.6 -12.27,13.26 -24.12,25.82 -35.84,37.4 0,23.98 2.54,49.94 7.48,77.88 8.75,49.39 22.58,85.24 41.77,107.53 19.19,22.44 41.77,31.32 67.88,26.67 36.4,-6.35 63.21,-30.76 80.42,-73.1 17.23,-42.33 21.88,-86.5 13.84,-132.22l-0.14 -0.85z"/>
 </g>
</svg>
