<?xml version="1.0" encoding="UTF-8" standalone="no"?>
<!-- Creator: localzet SVG Generator -->

<svg
   width="1949"
   height="768"
   viewBox="0 0 1949 768"
   style="overflow:visible"
   data-bbox="34.67031463748292 10.150113921518994 442.6593707250342 491.69977215696196"
   version="1.1"
   id="svg25"
   sodipodi:docname="full-logo3.svg"
   inkscape:export-filename="../localzet/full-logo3.svg"
   inkscape:export-xdpi="300"
   inkscape:export-ydpi="300"
   inkscape:version="1.2.1 (9c6d41e410, 2022-07-14)"
   xmlns:inkscape="http://www.inkscape.org/namespaces/inkscape"
   xmlns:sodipodi="http://sodipodi.sourceforge.net/DTD/sodipodi-0.dtd"
   xmlns:xlink="http://www.w3.org/1999/xlink"
   xmlns="http://www.w3.org/2000/svg"
   xmlns:svg="http://www.w3.org/2000/svg">
  <sodipodi:namedview
     id="namedview27"
     pagecolor="#13263c"
     bordercolor="#000000"
     borderopacity="0.25"
     inkscape:showpageshadow="true"
     inkscape:pageopacity="1"
     inkscape:pagecheckerboard="false"
     inkscape:deskcolor="#d1d1d1"
     showgrid="false"
     inkscape:zoom="0.29546846"
     inkscape:cx="1230.2497"
     inkscape:cy="424.74922"
     inkscape:window-width="1604"
     inkscape:window-height="872"
     inkscape:window-x="157"
     inkscape:window-y="68"
     inkscape:window-maximized="0"
     inkscape:current-layer="g23" />
  <defs
     id="defs7">
    <radialGradient
       id="rootx_theme"
       x1="0%"
       y1="0%"
       x2="100%"
       y2="0%">
      <!-- https://uigradients.com/#CanYouFeelTheLoveTonight -->
      <stop
         offset="0%"
         style="stop-color:#4568DC;stop-opacity:1"
         id="stop1" />
      <stop
         offset="100%"
         style="stop-color:#B06AB3;stop-opacity:1"
         id="stop4" />
    </radialGradient>
    <radialGradient
       inkscape:collect="always"
       xlink:href="#rootx_theme"
       id="radialGradient8301"
       gradientTransform="scale(0.94882221,1.0539382)"
       cx="52.766651"
       cy="47.441113"
       fx="52.766651"
       fy="47.441113"
       r="41.748177"
       gradientUnits="userSpaceOnUse" />
    <radialGradient
       inkscape:collect="always"
       xlink:href="#rootx_theme"
       id="radialGradient8303"
       gradientTransform="scale(0.94882221,1.0539382)"
       cx="52.766651"
       cy="47.441113"
       fx="52.766651"
       fy="47.441113"
       r="41.748177"
       gradientUnits="userSpaceOnUse" />
  </defs>
  <g
     transform="matrix(2.7143092,0,0,2.6763169,-104.28685,-339.89519)"
     data-uid="o_f3m77glf3_4"
     id="g23"
     inkscape:label="localzet">
    <g
       transform="matrix(1.9531591,0,0,1.9531591,74.738044,172.82391)"
       fill="url(#rootx_theme)"
       data-uid="o_f3m77glf3_5"
       id="g13"
       inkscape:label="general"
       style="fill:url(#radialGradient8303)">
      <path
         d="m 53.6,15.2 c -1,-4.4 2.8,-8.2 7.2,-7.2 2.2,0.5 4,2.3 4.5,4.5 1,4.4 -2.8,8.2 -7.2,7.2 -2.2,-0.5 -4,-2.3 -4.5,-4.5 z m 23.6,56.1 c -3.4,-0.5 -6.2,2.4 -5.7,5.7 0.3,2.1 2,3.8 4.1,4.1 3.4,0.5 6.2,-2.4 5.7,-5.7 -0.2,-2 -2,-3.8 -4.1,-4.1 z m -27,-28.8 c -4.1,0 -7.5,3.4 -7.5,7.5 0,4.1 3.4,7.5 7.5,7.5 4.1,0 7.5,-3.4 7.5,-7.5 0,-4.1 -3.4,-7.5 -7.5,-7.5 z M 81,50 c 7.4,8.3 10.5,16.5 7.3,22 -1,1.8 -2.7,3.2 -4.8,4.2 0,-1.1 -0.3,-2.1 -0.7,-3 1.3,-0.7 2.3,-1.6 3,-2.7 2.5,-4.3 -0.4,-11.1 -6.7,-18.3 -2.9,3 -6.3,5.9 -10,8.6 -0.5,4.7 -1.3,9.1 -2.4,13 1.1,0.2 2.2,0.4 3.2,0.6 -0.2,0.6 -0.3,1.2 -0.3,1.9 0,0.4 0,0.8 0.1,1.1 C 68.4,77.2 67.1,77 65.8,76.7 62.1,87.3 56.6,94 50.2,94 43.8,94 38.3,87.3 34.8,76.7 33.4,77 32,77.2 30.7,77.4 c -1.8,0.2 -3.5,0.3 -5.1,0.3 -6.6,0 -11.3,-2 -13.5,-5.7 -1.2,-2.1 -1.5,-4.6 -1,-7.3 0.8,0.6 1.8,1 2.9,1 -0.2,1.8 0,3.5 0.8,4.8 2,3.5 7.7,4.9 15.6,3.9 1.2,-0.2 2.4,-0.4 3.6,-0.6 -1.1,-3.9 -1.9,-8.3 -2.4,-13 -3.8,-2.7 -7.1,-5.6 -10.1,-8.6 -0.8,0.9 -1.6,1.9 -2.3,2.8 -0.1,0.2 -0.2,0.3 -0.4,0.5 -0.6,-0.6 -1.3,-1 -2,-1.3 -0.1,-0.3 -0.1,-0.4 -0.2,-0.7 0.9,-1.2 1.8,-2.3 2.8,-3.5 -1,-1.1 -1.9,-2.1 -2.7,-3.2 C 11,39.3 9.4,32.7 12.1,28 14.8,23.3 21.4,21.4 30.7,22.6 32,22.8 33.4,23 34.8,23.3 38.2,12.7 43.8,6 50.2,6 51.8,6 53.4,6.4 54.9,7.3 54,7.9 53.3,8.7 52.7,9.5 51.9,9.2 51,9 50.2,9 c -4.9,0 -9.5,5.9 -12.5,15 4,1 8.2,2.5 12.5,4.4 4.2,-1.9 8.5,-3.4 12.5,-4.4 -0.3,-0.8 -0.6,-1.7 -0.9,-2.5 1,-0.3 1.9,-0.8 2.7,-1.4 0.4,1 0.8,2.1 1.2,3.2 1.4,-0.3 2.8,-0.5 4.1,-0.7 9.3,-1.2 15.9,0.7 18.6,5.4 2.7,4.7 1.1,11.3 -4.6,18.8 -0.9,1 -1.8,2.1 -2.8,3.2 z M 66.5,26.2 c 1.1,3.9 1.9,8.3 2.4,13 3.8,2.8 7.2,5.7 10.1,8.6 0.8,-0.9 1.6,-1.9 2.3,-2.8 4.8,-6.3 6.4,-12 4.4,-15.5 -1.6,-2.8 -5.5,-4.2 -10.9,-4.2 -1.4,0 -3,0.1 -4.7,0.3 -1.2,0.1 -2.4,0.3 -3.6,0.6 z m -12.7,3.9 c 2,1 4,2.1 6,3.2 2,1.2 3.9,2.3 5.7,3.6 -0.5,-3.6 -1.2,-6.9 -2,-10 -3.1,0.8 -6.4,1.8 -9.7,3.2 z M 66,40.8 c -2.4,-1.7 -5,-3.4 -7.7,-5 -2.7,-1.6 -5.4,-3 -8.1,-4.2 -2.7,1.2 -5.4,2.7 -8.1,4.2 -2.7,1.6 -5.3,3.2 -7.7,4.9 -0.3,3 -0.4,6 -0.4,9.2 0,3.1 0.2,6.2 0.4,9.2 2.4,1.7 5,3.4 7.7,4.9 2.7,1.6 5.4,3 8.1,4.2 2.7,-1.2 5.4,-2.7 8.1,-4.2 2.7,-1.6 5.3,-3.2 7.7,-4.9 0.3,-3 0.4,-6 0.4,-9.2 0.1,-3 -0.1,-6.1 -0.4,-9.1 z m -29.2,-14 c -0.9,3.1 -1.5,6.4 -2,10 1.8,-1.2 3.8,-2.4 5.7,-3.6 2,-1.1 4,-2.2 6,-3.2 C 43.2,28.7 40,27.6 36.8,26.8 Z M 19.1,45 c 0.7,0.9 1.5,1.9 2.3,2.8 2.9,-3 6.3,-5.9 10.1,-8.6 0.5,-4.7 1.3,-9.1 2.4,-13 -1.2,-0.3 -2.4,-0.5 -3.6,-0.6 -1.7,-0.2 -3.2,-0.3 -4.7,-0.3 -5.4,0 -9.3,1.5 -10.9,4.2 -2.1,3.5 -0.5,9.1 4.4,15.5 z m 12,11.8 C 31,54.6 30.9,52.3 30.9,50 c 0,-2.3 0.1,-4.6 0.2,-6.8 -2.8,2.2 -5.4,4.5 -7.7,6.8 2.3,2.3 4.9,4.6 7.7,6.8 z m 5.7,16.4 c 3.1,-0.8 6.4,-1.9 9.7,-3.2 -2,-1 -4,-2.1 -6,-3.2 -2,-1.1 -3.9,-2.3 -5.7,-3.6 0.5,3.5 1.2,6.9 2,10 z M 62.7,76 c -4,-1 -8.2,-2.5 -12.5,-4.4 -4.3,1.9 -8.5,3.4 -12.5,4.4 3,9.1 7.5,15 12.5,15 4.9,0 9.4,-5.9 12.5,-15 z m 2.9,-12.9 c -1.8,1.2 -3.8,2.4 -5.7,3.6 -2,1.1 -4,2.2 -6,3.2 3.3,1.3 6.6,2.4 9.7,3.2 0.8,-3 1.5,-6.4 2,-10 z M 76.9,50 c -2.2,-2.3 -4.8,-4.6 -7.7,-6.8 0.1,2.2 0.2,4.5 0.2,6.8 0,2.3 -0.1,4.6 -0.2,6.8 2.9,-2.2 5.4,-4.5 7.7,-6.8 z M 13.8,63.7 c 2.7,0.4 5,-1.9 4.6,-4.6 -0.3,-1.7 -1.6,-3.1 -3.3,-3.3 -2.7,-0.4 -5,1.9 -4.6,4.6 0.3,1.7 1.6,3 3.3,3.3 z"
         fill="url(#rootx_theme)"
         data-uid="o_f3m77glf3_6"
         id="path11"
         style="display:inline;fill:url(#radialGradient8301)"
         inkscape:label="neuron" />
    </g>
    <path
       fill="#13263c"
       data-type="circle"
       data-cx="50"
       data-cy="50"
       data-r="50"
       d="m 172.52522,270.47763 m -8.02139,0 a 8.021391,8.021391 0 1 0 16.04278,0 8.021391,8.021391 0 1 0 -16.04278,0"
       data-uid="o_f3m77glf3_7"
       id="path15"
       inkscape:label="center"
       style="stroke-width:0.160428" />
    <path
       fill="#13263c"
       data-type="circle"
       data-cx="50"
       data-cy="50"
       data-r="50"
       d="m 223.74064,321.69308 m -4.10871,0 a 4.1087085,4.1087085 0 1 0 8.21741,0 4.1087085,4.1087085 0 1 0 -8.21741,0"
       data-uid="o_f3m77glf3_8"
       id="path17"
       inkscape:label="right"
       style="stroke-width:0.0821742" />
    <path
       fill="#13263c"
       data-type="circle"
       data-cx="50"
       data-cy="50"
       data-r="50"
       d="m 190.70031,199.87124 m -5.52687,0 a 5.5268765,5.5268765 0 1 0 11.05375,0 5.5268765,5.5268765 0 1 0 -11.05375,0"
       data-uid="o_f3m77glf3_9"
       id="path19"
       inkscape:label="up"
       style="stroke-width:0.110538" />
    <path
       fill="#13263c"
       data-type="circle"
       data-cx="50"
       data-cy="50"
       data-r="50"
       d="m 102.81381,289.60331 m -3.054623,0 a 3.0546265,3.0546265 0 1 0 6.109253,0 3.0546265,3.0546265 0 1 0 -6.109253,0"
       data-uid="o_f3m77glf3_10"
       id="path21"
       inkscape:label="left"
       style="stroke-width:0.0610925" />
    <text
       xml:space="preserve"
       style="font-style:normal;font-variant:normal;font-weight:normal;font-stretch:normal;font-size:102.327px;font-family:Nunito;-inkscape-font-specification:'Nunito, @wght=800';font-variant-ligatures:normal;font-variant-caps:normal;font-variant-numeric:normal;font-variant-east-asian:normal;font-variation-settings:'wght' 800;overflow:visible;fill:#7b69c8;fill-opacity:1;stroke-width:4.77073"
       x="291.21616"
       y="304.48553"
       id="text755"
       transform="scale(0.99273744,1.0073157)"
       inkscape:export-filename="../localzet/text755.png"
       inkscape:export-xdpi="300"
       inkscape:export-ydpi="300"><tspan
         sodipodi:role="line"
         id="tspan753"
         x="291.21616"
         y="304.48553"
         style="font-style:normal;font-variant:normal;font-weight:normal;font-stretch:normal;font-size:102.327px;font-family:Nunito;-inkscape-font-specification:'Nunito, @wght=800';font-variant-ligatures:normal;font-variant-caps:normal;font-variant-numeric:normal;font-variant-east-asian:normal;font-variation-settings:'wght' 800;fill:#7b69c8;fill-opacity:1;stroke-width:4.77073">Localzet</tspan></text>
  </g>
</svg>
