<?xml version="1.0" encoding="UTF-8"?>
<!DOCTYPE svg PUBLIC "-//W3C//DTD SVG 1.1//EN" "http://www.w3.org/Graphics/SVG/1.1/DTD/svg11.dtd">
<!-- Creator: CorelDRAW 2021.5 -->
<svg xmlns="http://www.w3.org/2000/svg" xml:space="preserve" width="482.501mm" height="212.31mm" version="1.1" style="shape-rendering:geometricPrecision; text-rendering:geometricPrecision; image-rendering:optimizeQuality; fill-rule:evenodd; clip-rule:evenodd"
viewBox="0 0 48370.6 21284.06"
 xmlns:xlink="http://www.w3.org/1999/xlink"
 xmlns:xodm="http://www.corel.com/coreldraw/odm/2003">
 <defs>
  <style type="text/css">
   <![CDATA[
    .fil1 {fill:black;fill-rule:nonzero}
    .fil2 {fill:#7B69C8;fill-rule:nonzero}
    .fil0 {fill:url(#id0);fill-rule:nonzero}
   ]]>
  </style>
  <radialGradient id="id0" gradientUnits="objectBoundingBox" cx="50%" cy="50%" r="50%" fx="50%" fy="50%">
   <stop offset="0" style="stop-opacity:1; stop-color:#4568DC"/>
   <stop offset="1" style="stop-opacity:1; stop-color:#B06AB3"/>
  </radialGradient>
 </defs>
 <g id="Слой_x0020_1">
  <metadata id="CorelCorpID_0Corel-Layer"/>
  <g id="_2468771208384">
   <path id="path11" class="fil0" d="M24621.98 1275.59c-140.62,-610.06 393.73,-1136.93 1012.45,-998.29 309.36,69.32 562.47,318.89 632.79,623.92 140.62,610.06 -393.73,1136.93 -1012.45,998.29 -309.36,-69.32 -562.47,-318.89 -632.79,-623.92zm3318.61 7778.27c-478.1,-69.32 -871.83,332.76 -801.53,790.31 42.19,291.17 281.24,526.87 576.54,568.47 478.1,69.32 871.83,-332.76 801.53,-790.31 -28.12,-277.3 -281.24,-526.87 -576.54,-568.47zm-3796.71 -3993.13c-576.54,0 -1054.64,471.41 -1054.64,1039.88 0,568.47 478.1,1039.88 1054.64,1039.88 576.54,0 1054.64,-471.41 1054.64,-1039.88 0,-568.47 -478.1,-1039.88 -1054.64,-1039.88zm4331.05 1039.88c1040.58,1150.8 1476.5,2287.73 1026.52,3050.31 -140.62,249.57 -379.67,443.69 -674.97,582.33 0,-152.52 -42.19,-291.17 -98.44,-415.95 182.81,-97.05 323.43,-221.84 421.85,-374.35 351.55,-596.19 -56.25,-1539.01 -942.15,-2537.3 -407.8,415.95 -885.9,818.04 -1406.18,1192.39 -70.31,651.65 -182.81,1261.71 -337.48,1802.45 154.69,27.73 309.36,55.46 449.98,83.19 -28.12,83.19 -42.19,166.38 -42.19,263.44 0,55.46 0,110.92 14.07,152.52 -182.81,-27.74 -365.6,-55.47 -548.41,-97.06 -520.3,1469.69 -1293.69,2398.65 -2193.65,2398.65 -899.95,0 -1673.36,-928.96 -2165.52,-2398.65 -196.86,41.59 -393.73,69.32 -576.54,97.05 -253.11,27.73 -492.17,41.59 -717.16,41.59 -928.08,0 -1588.99,-277.3 -1898.35,-790.31 -168.74,-291.17 -210.93,-637.79 -140.62,-1012.15 112.49,83.19 253.11,138.65 407.8,138.65 -28.12,249.57 0,485.28 112.49,665.52 281.24,485.28 1082.77,679.38 2193.64,540.74 168.74,-27.73 337.48,-55.46 506.23,-83.19 -154.69,-540.74 -267.18,-1150.8 -337.48,-1802.45 -534.35,-374.35 -998.39,-776.44 -1420.25,-1192.39 -112.49,124.78 -224.99,263.44 -323.43,388.22 -14.07,27.73 -28.12,41.59 -56.25,69.32 -84.37,-83.19 -182.81,-138.65 -281.24,-180.25 -14.07,-41.59 -14.07,-55.46 -28.12,-97.05 126.56,-166.38 253.11,-318.89 393.73,-485.28 -140.62,-152.52 -267.18,-291.17 -379.67,-443.69 -801.52,-1039.85 -1026.51,-1954.95 -646.84,-2606.6 379.68,-651.65 1307.76,-915.09 2615.5,-748.71 182.81,27.74 379.68,55.47 576.54,97.06 478.1,-1469.69 1265.57,-2398.65 2165.52,-2398.65 224.99,0 449.98,55.46 660.91,180.25 -126.56,83.19 -224.99,194.11 -309.36,305.03 -112.49,-41.59 -239.05,-69.32 -351.55,-69.32 -689.03,0 -1335.88,818.04 -1757.73,2079.75 562.47,138.65 1153.07,346.62 1757.73,610.06 590.6,-263.44 1195.26,-471.41 1757.73,-610.06 -42.19,-110.92 -84.37,-235.71 -126.56,-346.62 140.62,-41.59 267.18,-110.92 379.67,-194.11 56.25,138.65 112.49,291.17 168.74,443.69 196.87,-41.59 393.73,-69.32 576.54,-97.05 1307.75,-166.38 2235.84,97.05 2615.5,748.71 379.67,651.65 154.69,1566.75 -646.84,2606.62 -126.56,138.65 -253.11,291.17 -393.73,443.69l0 -0.01zm-2038.97 -3299.88c154.69,540.74 267.18,1150.8 337.48,1802.45 534.35,388.22 1012.45,790.31 1420.25,1192.39 112.49,-124.78 224.99,-263.44 323.43,-388.22 674.97,-873.5 899.96,-1663.8 618.72,-2149.08 -224.99,-388.22 -773.41,-582.33 -1532.74,-582.33 -196.87,0 -421.85,13.86 -660.91,41.59 -168.74,13.86 -337.48,41.59 -506.23,83.19l0 0.01zm-1785.85 540.74c281.24,138.65 562.47,291.17 843.71,443.69 281.24,166.38 548.42,318.89 801.53,499.14 -70.31,-499.14 -168.74,-956.68 -281.24,-1386.5 -435.92,110.92 -899.96,249.57 -1364,443.69l0 -0.01zm1715.54 1483.55c-337.48,-235.71 -703.09,-471.41 -1082.77,-693.25 -379.67,-221.84 -759.34,-415.95 -1139.01,-582.33 -379.67,166.38 -759.34,374.35 -1139.01,582.33 -379.67,221.84 -745.28,443.69 -1082.77,679.38 -42.19,415.95 -56.25,831.9 -56.25,1275.59 0,429.82 28.12,859.63 56.25,1275.59 337.48,235.71 703.09,471.41 1082.77,679.38 379.67,221.84 759.34,415.95 1139.01,582.33 379.67,-166.38 759.34,-374.35 1139.01,-582.33 379.67,-221.84 745.28,-443.69 1082.77,-679.38 42.19,-415.95 56.25,-831.9 56.25,-1275.59 14.07,-415.95 -14.07,-845.77 -56.25,-1261.71l0 -0.01zm-4106.06 -1941.09c-126.56,429.82 -210.93,887.36 -281.24,1386.5 253.11,-166.38 534.35,-332.76 801.53,-499.14 281.24,-152.52 562.47,-305.03 843.71,-443.69 -464.05,-180.25 -914.02,-332.76 -1364,-443.68zm-2488.95 2523.43c98.44,124.78 210.93,263.44 323.43,388.22 407.8,-415.95 885.9,-818.04 1420.25,-1192.39 70.31,-651.65 182.81,-1261.71 337.48,-1802.45 -168.74,-41.59 -337.48,-69.32 -506.23,-83.19 -239.06,-27.73 -449.98,-41.59 -660.91,-41.59 -759.34,0 -1307.75,207.98 -1532.74,582.33 -295.3,485.28 -70.31,1261.71 618.72,2149.08l0 -0.01zm1687.42 1636.06c-14.07,-305.03 -28.13,-623.92 -28.13,-942.82 0,-318.89 14.07,-637.79 28.12,-942.82 -393.73,305.03 -759.34,623.92 -1082.77,942.82 323.43,318.89 689.03,637.79 1082.77,942.82l0.01 0zm801.53 2273.86c435.92,-110.92 899.96,-263.44 1364,-443.69 -281.24,-138.65 -562.47,-291.17 -843.71,-443.69 -281.24,-152.52 -548.42,-318.89 -801.53,-499.14 70.31,485.28 168.74,956.68 281.24,1386.5l0 0.01zm3642.02 388.23c-562.47,-138.65 -1153.07,-346.62 -1757.73,-610.06 -604.66,263.44 -1195.26,471.41 -1757.73,610.06 421.85,1261.71 1054.64,2079.75 1757.73,2079.75 689.03,0 1321.81,-818.04 1757.73,-2079.75zm407.79 -1788.59c-253.11,166.38 -534.35,332.76 -801.53,499.14 -281.24,152.52 -562.47,305.03 -843.71,443.69 464.05,180.25 928.08,332.76 1364,443.69 112.49,-415.95 210.93,-887.36 281.24,-1386.5l0 -0.01zm1588.99 -1816.31c-309.36,-318.89 -674.97,-637.79 -1082.77,-942.82 14.07,305.03 28.12,623.92 28.12,942.82 0,318.89 -14.07,637.79 -28.12,942.82 407.8,-305.03 759.34,-623.92 1082.77,-942.82zm-8873.02 1899.51c379.67,55.46 703.09,-263.44 646.84,-637.79 -42.19,-235.71 -224.99,-429.82 -464.05,-457.55 -379.67,-55.46 -703.09,263.44 -646.84,637.79 42.19,235.71 224.99,415.95 464.05,457.55z" data-uid="o_f3m77glf3_6" inkscape:label="neuron"/>
   <g data-type="circle" data-cx="50" data-cy="50" data-r="50" data-uid="o_f3m77glf3_7" inkscape:label="center">
    <path id="path15" class="fil1" d="M23547.56 6100.61c0.04,0.07 0.04,0.2 0.04,0.28 0,314.42 258.6,569.41 577.49,569.41 318.88,0 577.5,-254.99 577.5,-569.41 0,-0.08 0,-0.21 0,-0.27 0,-0.08 0,-0.24 0,-0.29 0,-314.42 -258.61,-569.42 -577.5,-569.42 -318.88,0 -577.49,255 -577.49,569.42 0,0.05 0,0.21 0,0.27l-0.04 0.01zm0 0l0 0 0 0z"/>
   </g>
   <g data-type="circle" data-cx="50" data-cy="50" data-r="50" data-uid="o_f3m77glf3_8" inkscape:label="right">
    <path id="path17" class="fil1" d="M27516.52 9736.28c0.02,0.08 0.02,0.27 0.02,0.37 0,161.06 132.46,291.68 295.81,291.68 163.35,0 295.82,-130.62 295.82,-291.68 0,-0.1 0,-0.29 0,-0.4 0,-0.08 0,-0.24 0,-0.35 0,-161.05 -132.47,-291.67 -295.82,-291.67 -163.35,0 -295.81,130.62 -295.81,291.67 0,0.11 0,0.27 0,0.38l-0.02 0zm0 0l0 0 0 0z"/>
   </g>
   <g data-type="circle" data-cx="50" data-cy="50" data-r="50" data-uid="o_f3m77glf3_9" inkscape:label="up">
    <path id="path19" class="fil1" d="M25035.67 1088.43c0.03,0.11 0.03,0.19 0.03,0.3 0,216.65 178.17,392.34 397.9,392.34 219.7,0 397.9,-175.69 397.9,-392.34 0,-0.11 0,-0.19 0,-0.3 0,-0.1 0,-0.21 0,-0.29 0,-216.65 -178.2,-392.34 -397.9,-392.34 -219.73,0 -397.9,175.69 -397.9,392.34 0,0.08 0,0.19 0,0.29l-0.03 0zm0 0l0 0 0 0z"/>
   </g>
   <g data-type="circle" data-cx="50" data-cy="50" data-r="50" data-uid="o_f3m77glf3_10" inkscape:label="left">
    <path id="path21" class="fil1" d="M18886.24 7458.31c0.03,119.74 98.51,216.84 219.95,216.84 121.44,0 219.92,-97.1 219.92,-216.84 0,-119.75 -98.48,-216.84 -219.92,-216.84 -121.44,0 -219.92,97.09 -219.92,216.84l-0.03 0zm0 0l0 0 0 0z"/>
   </g>
   <g transform="matrix(0.999518 0 0 1 -24749.4 9041.42)">
    <path id="text755" class="fil2" d="M307.02 19916.42c-97.47,0 -173.01,-28.04 -226.6,-84.11 -53.61,-56.07 -80.42,-132.86 -80.42,-230.37l0 -4563.68c0,-102.38 25.58,-180.4 76.76,-234.03 51.17,-53.63 125.48,-80.45 222.96,-80.45 97.46,0 171.79,26.82 222.95,80.45 51.18,53.63 76.77,131.65 76.77,234.03l0 4351.58 2397.68 0c87.73,0 155.96,23.17 204.68,69.48 48.74,46.32 73.11,110.93 73.11,193.81 0,82.89 -24.37,147.49 -73.11,193.8 -48.72,46.33 -116.95,69.48 -204.68,69.48l-2690.09 0z"/>
    <path id="_1" class="fil2" d="M5329.02 19982.25c-346,0 -645.72,-75.58 -899.14,-226.72 -253.41,-151.15 -449.56,-364.46 -588.46,-639.93 -138.9,-275.48 -208.33,-600.94 -208.33,-976.36 0,-282.79 38.99,-537.55 116.95,-764.27 77.97,-226.71 192.5,-420.53 343.57,-581.43 151.09,-160.9 330.18,-284.01 537.3,-369.33 207.13,-85.33 439.82,-127.99 698.11,-127.99 346,0 645.72,75.57 899.14,226.71 253.42,151.15 449.56,364.46 588.46,639.94 138.9,275.48 208.33,600.93 208.33,976.36 0,282.78 -38.98,536.33 -116.95,760.6 -77.97,224.29 -192.5,418.1 -343.57,581.44 -151.08,163.34 -330.18,287.67 -537.3,372.99 -207.12,85.32 -439.82,127.99 -698.11,127.99zm0 -475.38c219.3,0 411.8,-53.63 577.49,-160.9 165.7,-107.27 293.62,-263.29 383.79,-468.07 90.15,-204.78 135.23,-451 135.23,-738.67 0,-443.7 -98.68,-782.56 -296.06,-1016.59 -197.36,-234.03 -464.18,-351.04 -800.44,-351.04 -224.17,0 -417.89,52.41 -581.15,157.24 -163.26,104.82 -289.96,258.4 -380.13,460.75 -90.15,202.34 -135.23,452.23 -135.23,749.65 0,438.81 99.9,776.45 299.71,1012.92 199.81,236.48 465.41,354.71 796.79,354.71z"/>
    <path id="_2" class="fil2" d="M9422.65 19982.25c-355.76,0 -662.77,-78.01 -921.06,-234.03 -258.28,-156.03 -456.88,-374.21 -595.77,-654.57 -138.89,-280.35 -208.33,-605.81 -208.33,-976.36 0,-282.79 38.99,-536.33 116.95,-760.61 77.98,-224.28 192.5,-415.66 343.58,-574.11 151.09,-158.46 332.61,-279.14 544.61,-362.02 211.99,-82.89 452.01,-124.33 720.03,-124.33 175.45,0 358.19,26.82 548.26,80.45 190.06,53.62 363.06,146.26 519.01,277.91 48.73,34.12 80.41,75.57 95.03,124.33 14.62,48.76 14.62,96.3 0,142.62 -14.62,46.32 -38.98,85.32 -73.09,117.02 -34.11,31.69 -76.76,49.97 -127.93,54.85 -51.18,4.87 -103.56,-12.19 -157.17,-51.2 -126.71,-97.51 -255.85,-165.77 -387.42,-204.78 -131.59,-39.01 -258.29,-58.51 -380.13,-58.51 -190.06,0 -355.76,30.48 -497.09,91.42 -141.32,60.95 -260.72,147.5 -358.19,259.64 -97.46,112.14 -171.78,251.1 -222.96,416.87 -51.16,165.77 -76.75,358.37 -76.75,577.78 0,424.19 99.9,759.39 299.71,1005.61 199.82,246.22 484.91,369.33 855.28,369.33 121.83,0 247.32,-19.5 376.47,-58.51 129.14,-39.01 259.51,-107.27 391.08,-204.78 53.61,-39.01 104.78,-56.07 153.51,-51.2 48.74,4.88 90.16,23.17 124.27,54.86 34.11,31.69 57.26,71.92 69.45,120.67 12.18,48.76 10.96,96.3 -3.66,142.62 -14.62,46.33 -46.3,86.55 -95.04,120.68 -155.94,126.77 -326.51,218.18 -511.69,274.25 -185.19,56.07 -365.5,84.11 -540.95,84.11z"/>
    <path id="_3" class="fil2" d="M12390.53 19982.25c-243.67,0 -461.76,-47.54 -654.25,-142.62 -192.5,-95.08 -344.8,-225.5 -456.88,-391.27 -112.09,-165.77 -168.13,-351.05 -168.13,-555.83 0,-263.29 67.01,-470.51 201.02,-621.66 134.02,-151.15 355.76,-258.41 665.22,-321.79 309.46,-63.39 732.22,-95.08 1268.29,-95.08l328.96 0 0 387.62 -321.64 0c-394.74,0 -705.42,18.29 -932.03,54.86 -226.6,36.56 -385,98.74 -475.16,186.49 -90.14,87.76 -135.23,212.09 -135.23,372.99 0,199.91 69.44,363.24 208.34,490.01 138.89,126.77 327.73,190.15 566.53,190.15 194.93,0 366.71,-46.32 515.35,-138.96 148.64,-92.64 265.59,-219.41 350.88,-380.31 85.28,-160.9 127.93,-346.17 127.93,-555.83l0 -833.75c0,-302.29 -60.92,-520.48 -182.76,-654.56 -121.83,-134.08 -321.64,-201.12 -599.43,-201.12 -170.55,0 -341.13,21.93 -511.69,65.81 -170.57,43.89 -350.88,114.59 -540.95,212.1 -68.23,34.12 -126.71,45.1 -175.44,32.91 -48.73,-12.19 -87.72,-37.78 -116.96,-76.79 -29.24,-39.01 -46.31,-84.11 -51.17,-135.31 -4.87,-51.2 6.09,-101.17 32.89,-149.92 26.81,-48.76 69.44,-87.77 127.93,-117.02 214.42,-107.27 426.41,-185.27 635.96,-234.03 209.56,-48.76 409.37,-73.13 599.42,-73.13 307.03,0 560.45,49.97 760.25,149.92 199.81,99.95 348.45,251.11 445.91,453.44 97.47,202.34 146.19,461.98 146.19,778.9l0 1981.98c0,97.51 -23.14,173.09 -69.43,226.72 -46.31,53.63 -113.31,80.45 -201.03,80.45 -92.59,0 -163.26,-26.82 -211.99,-80.45 -48.74,-53.63 -73.1,-129.21 -73.1,-226.72l0 -570.46 65.79 0c-38.99,185.28 -113.31,343.75 -222.96,475.38 -109.65,131.65 -244.89,234.03 -405.72,307.18 -160.81,73.13 -341.13,109.7 -540.94,109.7z"/>
    <path id="_4" class="fil2" d="M16228.31 19982.25c-350.88,0 -618.92,-107.27 -804.11,-321.8 -185.18,-214.52 -277.77,-521.7 -277.77,-921.51l0 -3729.93c0,-97.51 24.37,-171.87 73.09,-223.07 48.74,-51.19 121.83,-76.79 219.31,-76.79 92.59,0 165.69,25.6 219.3,76.79 53.6,51.2 80.41,125.55 80.41,223.07l0 3686.04c0,263.3 52.39,459.54 157.17,588.75 104.78,129.21 259.51,193.81 464.19,193.81 43.86,0 82.85,-2.44 116.96,-7.32 34.11,-4.87 68.22,-7.31 102.34,-7.31 53.6,-4.88 91.37,7.31 113.3,36.56 21.92,29.26 32.9,87.77 32.9,175.53 0,87.77 -19.5,153.59 -58.49,197.47 -39,43.88 -102.34,73.13 -190.06,87.76 -38.99,4.88 -80.41,9.75 -124.27,14.63 -43.86,4.88 -85.28,7.32 -124.27,7.32z"/>
    <path id="_5" class="fil2" d="M17375.99 19916.42c-63.36,0 -114.53,-14.63 -153.51,-43.88 -38.99,-29.25 -65.79,-68.26 -80.41,-117.02 -14.63,-48.75 -14.63,-102.38 0,-160.9 14.62,-58.51 46.3,-114.58 95.03,-168.21l2061.44 -2757.22 0 153.58 -1951.79 0c-77.96,0 -137.67,-20.72 -179.1,-62.16 -41.42,-41.44 -62.13,-98.74 -62.13,-171.87 0,-73.13 20.71,-129.2 62.13,-168.21 41.42,-39.01 101.13,-58.52 179.1,-58.52l2244.19 0c73.09,0 132.79,14.64 179.1,43.89 46.3,29.25 76.76,67.04 91.38,113.36 14.62,46.32 15.83,97.51 3.66,153.58 -12.19,56.07 -40.21,110.92 -84.07,164.55l-2097.99 2786.48 0 -168.22 2054.13 0c160.81,0 241.22,75.58 241.22,226.72 0,73.13 -20.71,130.42 -62.13,171.87 -41.42,41.44 -101.12,62.16 -179.09,62.16l-2361.15 0z"/>
    <path id="_6" class="fil2" d="M22222.55 19982.25c-375.24,0 -698.11,-74.36 -968.57,-223.07 -270.47,-148.71 -480.04,-359.59 -628.67,-632.63 -148.64,-273.04 -222.96,-599.71 -222.96,-980.02 0,-370.55 73.09,-693.57 219.3,-969.04 146.19,-275.48 347.23,-491.23 603.07,-647.25 255.86,-156.03 551.91,-234.03 888.18,-234.03 238.79,0 453.22,40.22 643.28,120.67 190.05,80.45 352.11,196.25 486.11,347.4 134.02,151.15 236.37,333.98 307.02,548.52 70.67,214.53 105.99,455.89 105.99,724.04 0,78.01 -21.92,135.31 -65.79,171.87 -43.85,36.57 -107.2,54.86 -190.05,54.86l-2543.9 0 0 -387.63 2405 0 -116.95 95.08c0,-263.29 -38.99,-486.35 -116.96,-669.19 -77.98,-182.85 -191.28,-323.01 -339.92,-420.53 -148.64,-97.52 -335.04,-146.27 -559.22,-146.27 -248.54,0 -459.31,57.29 -632.32,171.87 -172.99,114.58 -303.36,273.04 -391.08,475.38 -87.72,202.34 -131.59,437.59 -131.59,705.76l0 43.88c0,448.57 108.44,789.87 325.31,1023.9 216.86,234.03 525.1,351.05 924.71,351.05 165.69,0 330.17,-21.94 493.43,-65.82 163.27,-43.88 322.86,-117.01 478.8,-219.41 68.23,-43.88 130.36,-64.6 186.41,-62.16 56.05,2.44 101.13,19.5 135.24,51.2 34.11,31.69 57.26,70.7 69.45,117.01 12.17,46.33 7.3,96.3 -14.63,149.93 -21.93,53.63 -64.58,99.95 -127.93,138.96 -160.82,117.02 -350.88,207.22 -570.18,270.6 -219.31,63.39 -436.17,95.08 -650.6,95.08z"/>
    <path id="_7" class="fil2" d="M25936.06 19982.25c-277.78,0 -510.49,-49.97 -698.11,-149.93 -187.63,-99.95 -327.74,-246.22 -420.34,-438.81 -92.59,-192.59 -138.89,-427.85 -138.89,-705.76l0 -1864.96 -489.77 0c-82.85,0 -146.2,-20.72 -190.06,-62.16 -43.86,-41.44 -65.79,-98.74 -65.79,-171.87 0,-73.13 21.93,-129.2 65.79,-168.21 43.86,-39.01 107.22,-58.52 190.06,-58.52l489.77 0 0 -841.05c0,-97.51 26.81,-171.87 80.41,-223.07 53.61,-51.2 126.71,-76.79 219.31,-76.79 92.59,0 164.48,25.59 215.64,76.79 51.18,51.2 76.76,125.55 76.76,223.07l0 841.05 921.06 0c82.85,0 146.2,19.51 190.06,58.52 43.86,39.01 65.79,95.08 65.79,168.21 0,73.13 -21.93,130.42 -65.79,171.87 -43.86,41.44 -107.22,62.16 -190.06,62.16l-921.06 0 0 1806.46c0,277.91 58.49,488.79 175.44,632.63 116.96,143.83 307.02,215.75 570.19,215.75 92.59,0 171.78,-9.75 237.57,-29.25 65.79,-19.51 120.61,-29.25 164.48,-29.25 43.86,-4.88 80.41,9.74 109.65,43.88 29.24,34.12 43.86,92.64 43.86,175.53 0,58.51 -10.97,112.14 -32.89,160.89 -21.93,48.76 -59.71,82.89 -113.31,102.4 -58.48,19.5 -135.23,37.78 -230.26,54.85 -95.03,17.07 -181.53,25.6 -259.51,25.6z"/>
    <path id="_8" class="fil2" d="M31389.35 19982.25c-550.68,0 -1014.88,-104.83 -1392.56,-314.48 -377.69,-209.66 -664,-511.96 -858.93,-906.89 -194.94,-394.93 -292.4,-867.87 -292.4,-1418.83 0,-409.56 54.82,-777.68 164.47,-1104.35 109.64,-326.67 270.47,-603.36 482.46,-830.09 211.99,-226.72 470.28,-402.24 774.86,-526.58 304.6,-124.33 649.39,-186.49 1034.38,-186.49 307.02,0 604.3,42.67 891.83,127.99 287.53,85.32 543.37,220.63 767.55,405.9 58.49,43.89 95.03,92.64 109.65,146.27 14.63,53.63 13.4,107.27 -3.66,160.9 -17.05,53.63 -43.85,98.74 -80.41,135.3 -36.55,36.57 -82.85,57.29 -138.89,62.16 -56.04,4.88 -113.31,-12.19 -171.79,-51.19 -199.81,-156.03 -411.81,-269.39 -635.97,-340.09 -224.17,-70.7 -472.72,-106.04 -745.63,-106.04 -389.86,0 -720.04,82.89 -990.52,248.66 -270.47,165.77 -475.15,404.69 -614.04,716.74 -138.89,312.05 -208.34,692.34 -208.34,1140.91 0,682.6 159.61,1204.31 478.81,1565.11 319.21,360.8 800.44,541.21 1443.73,541.21 233.92,0 462.97,-23.17 687.15,-69.48 224.18,-46.32 436.17,-110.93 635.97,-193.81l-131.58 343.75 0 -1821.09 -1045.34 0c-87.71,0 -153.5,-21.93 -197.36,-65.82 -43.87,-43.88 -65.79,-102.38 -65.79,-175.53 0,-78 21.92,-136.52 65.79,-175.52 43.86,-39.01 109.65,-58.52 197.36,-58.52l1308.51 0c82.85,0 146.19,21.94 190.05,65.82 43.86,43.88 65.79,107.27 65.79,190.15l0 1908.84c0,73.13 -12.18,134.08 -36.55,182.84 -24.37,48.76 -65.79,85.33 -124.27,109.7 -204.68,82.89 -449.57,152.37 -734.66,208.44 -285.09,56.07 -561.66,84.11 -829.7,84.11z"/>
    <path id="_9" class="fil2" d="M34561.92 19967.62c-97.47,0 -171.79,-26.82 -222.97,-80.45 -51.17,-53.63 -76.75,-129.21 -76.75,-226.72l0 -3049.76c0,-97.51 24.37,-171.87 73.09,-223.07 48.74,-51.2 119.41,-76.79 212,-76.79 92.59,0 164.47,25.59 215.65,76.79 51.17,51.2 76.75,125.55 76.75,223.07l0 592.4 -73.09 0c77.96,-287.67 226.6,-509.51 445.9,-665.54 219.32,-156.02 489.78,-238.91 811.42,-248.66 73.1,-4.87 131.59,10.97 175.45,47.54 43.86,36.57 68.22,98.74 73.09,186.49 4.88,82.89 -14.62,148.71 -58.48,197.47 -43.86,48.75 -112.09,78 -204.68,87.76l-116.96 14.63c-331.4,29.25 -586.02,135.31 -763.9,318.14 -177.87,182.84 -266.81,432.72 -266.81,749.65l0 1769.88c0,97.51 -25.59,173.09 -76.75,226.72 -51.18,53.63 -125.49,80.45 -222.96,80.45z"/>
    <path id="_10" class="fil2" d="M38311.97 19982.25c-346,0 -645.72,-75.58 -899.14,-226.72 -253.4,-151.15 -449.56,-364.46 -588.46,-639.93 -138.9,-275.48 -208.33,-600.94 -208.33,-976.36 0,-282.79 38.99,-537.55 116.95,-764.27 77.97,-226.71 192.5,-420.53 343.58,-581.43 151.08,-160.9 330.17,-284.01 537.29,-369.33 207.13,-85.33 439.83,-127.99 698.11,-127.99 346,0 645.72,75.57 899.14,226.71 253.42,151.15 449.56,364.46 588.47,639.94 138.89,275.48 208.33,600.93 208.33,976.36 0,282.78 -38.99,536.33 -116.96,760.6 -77.97,224.29 -192.5,418.1 -343.57,581.44 -151.08,163.34 -330.17,287.67 -537.29,372.99 -207.12,85.32 -439.83,127.99 -698.12,127.99zm0 -475.38c219.31,0 411.8,-53.63 577.49,-160.9 165.7,-107.27 293.62,-263.29 383.79,-468.07 90.16,-204.78 135.23,-451 135.23,-738.67 0,-443.7 -98.68,-782.56 -296.05,-1016.59 -197.37,-234.03 -464.19,-351.04 -800.45,-351.04 -224.17,0 -417.89,52.41 -581.15,157.24 -163.26,104.82 -289.96,258.4 -380.13,460.75 -90.15,202.34 -135.23,452.23 -135.23,749.65 0,438.81 99.9,776.45 299.71,1012.92 199.81,236.48 465.41,354.71 796.79,354.71z"/>
    <path id="_11" class="fil2" d="M42157.05 19982.25c-287.53,0 -525.11,-52.42 -712.74,-157.24 -187.63,-104.83 -328.95,-262.07 -423.98,-471.72 -95.04,-209.66 -142.55,-470.51 -142.55,-782.56l0 -1960.03c0,-102.4 25.58,-177.96 76.75,-226.72 51.18,-48.75 123.06,-73.13 215.66,-73.13 97.46,0 171.78,24.38 222.95,73.13 51.17,48.76 76.76,124.33 76.76,226.72l0 1952.72c0,312.05 64.57,544.86 193.71,698.45 129.15,153.58 332.61,230.37 610.4,230.37 302.14,0 548.25,-102.4 738.31,-307.18 190.06,-204.78 285.09,-472.94 285.09,-804.49l0 -1769.88c0,-102.4 25.58,-177.96 76.76,-226.72 51.16,-48.75 125.48,-73.13 222.96,-73.13 92.58,0 164.47,24.38 215.64,73.13 51.18,48.76 76.76,124.33 76.76,226.72l0 3049.76c0,204.78 -95.04,307.18 -285.1,307.18 -92.59,0 -164.47,-26.82 -215.64,-80.45 -51.18,-53.63 -76.75,-129.21 -76.75,-226.72l0 -665.54 95.03 102.4c-97.47,287.67 -257.08,507.07 -478.81,658.22 -221.73,151.15 -478.81,226.72 -771.21,226.72z"/>
    <path id="_12" class="fil2" d="M45293.07 21284.06c-97.46,0 -170.56,-25.59 -219.3,-76.79 -48.73,-51.2 -73.1,-125.55 -73.1,-223.07l0 -4373.51c0,-97.51 24.37,-171.87 73.1,-223.07 48.73,-51.2 119.4,-76.79 212,-76.79 97.46,0 171.78,25.59 222.95,76.79 51.17,51.2 76.76,125.55 76.76,223.07l0 694.79 -80.41 -102.4c77.96,-277.91 232.7,-498.54 464.19,-661.88 231.49,-163.34 508.05,-245 829.7,-245 316.77,0 593.33,74.36 829.69,223.07 236.36,148.7 419.11,360.8 548.26,636.27 129.14,275.48 193.71,603.37 193.71,983.68 0,375.43 -64.57,700.89 -193.71,976.36 -129.14,275.48 -310.68,488.79 -544.6,639.93 -233.92,151.15 -511.71,226.72 -833.35,226.72 -321.65,0 -596.99,-81.67 -826.04,-245.01 -229.05,-163.34 -385,-381.52 -467.85,-654.56l87.72 0 0 1901.53c0,97.51 -26.81,171.87 -80.41,223.07 -53.61,51.2 -126.71,76.79 -219.31,76.79zm1381.6 -1777.2c224.18,0 417.9,-53.63 581.16,-160.9 163.26,-107.27 289.96,-263.29 380.12,-468.07 90.15,-204.78 135.24,-451 135.24,-738.67 0,-443.7 -98.69,-782.56 -296.06,-1016.59 -197.37,-234.03 -464.19,-351.04 -800.45,-351.04 -219.31,0 -411.8,52.41 -577.49,157.24 -165.69,104.82 -293.62,258.4 -383.78,460.75 -90.16,202.34 -135.24,452.23 -135.24,749.65 0,438.81 99.9,776.45 299.71,1012.92 199.82,236.48 465.41,354.71 796.79,354.71z"/>
   </g>
  </g>
 </g>
</svg>
