<?xml version="1.0" encoding="UTF-8"?>
<!DOCTYPE svg PUBLIC "-//W3C//DTD SVG 1.1//EN" "http://www.w3.org/Graphics/SVG/1.1/DTD/svg11.dtd">
<!-- Creator: CorelDRAW -->
<svg xmlns="http://www.w3.org/2000/svg" xml:space="preserve" width="200mm" height="200mm" version="1.1" style="shape-rendering:geometricPrecision; text-rendering:geometricPrecision; image-rendering:optimizeQuality; fill-rule:evenodd; clip-rule:evenodd"
viewBox="0 0 20000 20000"
 xmlns:xlink="http://www.w3.org/1999/xlink"
 xmlns:xodm="http://www.corel.com/coreldraw/odm/2003"
 data-bbox="34.67031463748292 10.150113921518994 442.6593707250342 491.69977215696196"
 sodipodi:docname="TXT.svg"
 inkscape:export-filename="../localzet/logo.svg"
 inkscape:export-xdpi="96"
 inkscape:export-ydpi="96"
 xmlns:inkscape="http://www.inkscape.org/namespaces/inkscape"
 xmlns:sodipodi="http://sodipodi.sourceforge.net/DTD/sodipodi-0.dtd"
 xmlns:svg="http://www.w3.org/2000/svg">
 <defs>
  <style type="text/css">
   <![CDATA[
    .str0 {stroke:#FF7E00;stroke-width:84.67;stroke-miterlimit:22.9256}
    .str1 {stroke:#976ABC;stroke-width:67.73;stroke-miterlimit:22.9256}
    .str2 {stroke:#FF7E00;stroke-width:135.47;stroke-miterlimit:22.9256}
    .fil3 {fill:none;fill-rule:nonzero}
    .fil1 {fill:black}
    .fil0 {fill:black}
    .fil2 {fill:black;fill-rule:nonzero}
   ]]>
  </style>
 </defs>
 <g id="Слой_x0020_1">
  <metadata id="CorelCorpID_0Corel-Layer"/>
  <rect class="fil0" x="-7.59" y="7.62" width="19999.96" height="19999.96"/>
  <g id="_2170058162592">
   <path class="fil1 str0" d="M11624.1 9919.92c-109.73,9.07 -471.22,168.68 -534.98,231.11 -55.66,54.55 -13.2,140.19 55.08,140.19 23.68,0 95.13,-48.51 119.19,-62.67 91.42,-53.8 321.38,-154.17 418.31,-156.3 2.82,33.59 13.79,55.09 23.19,91.25 9.49,36.55 13,54.34 19.44,94.96 12.98,82.06 14.95,129.79 14.95,223.14 -65.56,-5.41 -441.61,-85.55 -507.03,2.16 -38.48,51.61 -10.82,118.45 64.86,122.25 195.35,9.81 181.39,-18.37 422.96,37.44 0,119.75 -93.07,249.94 -158.92,337.42 -18.72,24.87 -20.46,24.73 -40.2,45.8 -19.38,20.63 -20.46,27.05 -38.48,47.49 -110.8,125.5 -343.49,261.37 -501.69,330.65 -603.14,264.1 -1357.23,258.29 -1963.33,5.73 -112.87,-47.01 -230,-106.91 -327.77,-179.47l-182.25 -152.42c-97.98,-117.61 -242.67,-273.6 -242.67,-435.2 283.56,-65.54 441.06,-5.98 487.81,-68.79 33.84,-45.48 18.78,-112.95 -64.83,-122.28 -125.05,-13.96 -147.98,-10.74 -277.47,2.22 -51.63,5.18 -116.41,23.03 -164.73,27 0,-89.47 1.51,-135.78 13.64,-214.94l43.94 -194.41c66.98,1.47 229.85,63.38 284.81,88.8l243.11 130.17c84.69,0 114.7,-82.19 69.34,-135.18 -12.57,-14.65 -53.37,-35.43 -75.02,-49.62 -31.67,-20.79 -52.24,-29.62 -87.1,-46.86 -94.08,-46.49 -274.74,-131.15 -377.53,-139.64 157.35,-294.93 42.72,-250.74 -20.93,-702.78 -16.86,-119.71 -84.83,-601.46 126.51,-601.46 296.65,0 694.91,380.83 787.05,380.83 180.1,0 152.71,-48.36 259.13,-57.14 0,167.81 -35.15,371.29 86.4,371.29 90.4,0 76.9,-83.21 76.79,-171.35 -0.12,-82.53 0,-165.03 0,-247.52 119.27,-27.58 113.9,-28.59 239.94,-28.59l0 675.93c0,76.68 153.58,76.68 153.58,0l0 -675.93c126.04,0 120.67,1.01 239.95,28.59 0,82.49 0.11,164.99 0,247.52 -0.18,122.33 -10.97,171.35 95.97,171.35 97.05,0 67.21,-273.94 67.21,-371.29 107.96,8.92 204.92,118.94 359.2,13.56 172.76,-118.02 468.4,-337.25 677.38,-337.25 297.99,0 99.22,820.8 51.98,984.53 -43.91,152.3 3.71,208.17 63.21,319.71zm-3464.95 -1028.13c0,202.01 5.6,281.14 45.59,478.37l79.2 340.32c0,19.14 -66.11,135.38 -76.79,180.89 -106.57,0 -364.74,-24.79 -364.74,95.22 0,76.19 57.09,86.98 121.83,73.92 53.08,-10.71 116.81,-16.81 185.33,-16.81 -21.94,45.3 -41.96,159.12 -52.41,224.08 -14.31,88.98 -14.77,172.31 -14.77,270.96 -49.75,23.66 -126.01,51.29 -168.96,89.52 -58.51,52.07 -22.96,138.94 53.77,138.94 49.42,0 90.14,-54.2 143.98,-66.64 13.05,155.61 175.98,380.36 266.29,468.91 134.17,131.51 244.77,228.14 421.54,314.96 272.5,133.82 532.65,219.22 847.03,254.63 47.72,5.38 113.83,17.18 163.71,18.54l520.38 -17.59c183.68,-22.65 297.73,-49.83 461.03,-94.88l266.53 -97.4c232.14,-102.88 370.05,-202.19 549.66,-378.26 90.31,-88.55 253.24,-313.3 266.3,-468.91 53.83,12.44 94.55,66.64 143.97,66.64 76.73,0 112.29,-86.87 53.78,-138.94 -41.85,-37.22 -120.41,-66.44 -168.96,-89.52 0,-132.73 -13.87,-384.86 -67.19,-495.04 133.38,0 219.93,34.74 257.97,18.53 39.85,-16.98 49.19,-41.13 49.19,-75.64 0,-120.01 -258.17,-95.22 -364.73,-95.22 -8.25,-35.01 -76.79,-169.8 -76.79,-171.36 0,-68.42 355.1,-1165.21 -125.78,-1255.79 -246.33,-46.37 -621.49,203.77 -817.29,349.01 -51.87,38.49 -59.21,34.63 -120.94,10.65 -426.66,-165.62 -862.27,-165.62 -1288.94,0 -99.43,38.6 -84.54,7.32 -215.51,-78.75 -200.04,-131.46 -735.92,-489.43 -912.63,-135.92 -35.98,71.99 -60.65,178.29 -60.65,282.58z"/>
   <path class="fil1 str0" d="M9733.25 10319.77c0,78.64 37.06,91.79 72.73,137.3 26.7,34.06 67.68,89.58 109.64,100.69 0,109.36 13.03,160.74 -40.92,225.96 -145.83,176.31 -314.38,107.71 -414.1,-60.22 -67.62,-113.87 -159.27,-51.55 -159.27,15.15 0,77.92 169.46,304.65 364.74,304.65 218.82,0 240.67,-95.45 326.34,-152.33 85.67,56.88 107.53,152.33 326.34,152.33 98.71,0 181.47,-50.86 232.9,-102.21 39.41,-39.35 131.84,-134.74 131.84,-202.44 0,-46.06 -30.35,-76.17 -76.79,-76.17 -71.71,0 -89.99,88.74 -131.93,135.72 -35.81,40.16 -108.59,97.55 -181.09,89.46 -79,-8.83 -137.88,-52.47 -179.06,-98.87 -58.25,-65.54 -45.42,-117.33 -45.42,-231.03 41.97,-11.11 82.94,-66.63 109.64,-100.69 35.67,-45.51 72.73,-58.66 72.73,-137.3 0,-74.44 -63.7,-152.33 -134.4,-152.33l-249.52 0c-70.7,0 -134.4,77.89 -134.4,152.33z"/>
   <path class="fil1 str0" d="M8994.2 9862.81c0,49.54 11.67,95.19 76.79,95.19 86.34,0 80.16,-131 230.34,-131 150.22,0 144.03,131 230.37,131 83.47,0 135.94,-104.49 -38.1,-228.75 -249.99,-178.49 -499.4,75.04 -499.4,133.56z"/>
   <path class="fil1 str0" d="M10376.33 9862.81c0,49.54 11.67,95.19 76.79,95.19 86.34,0 80.16,-131 230.37,-131 150.19,0 144,131 230.34,131 83.47,0 135.94,-104.49 -38.1,-228.75 -249.96,-178.49 -499.4,75.04 -499.4,133.56z"/>
  </g>
  <sodipodi:namedview id="namedview27" pagecolor="#13263c" bordercolor="#000000" borderopacity="0.25" inkscape:showpageshadow="true" inkscape:pageopacity="1" inkscape:pagecheckerboard="0" inkscape:deskcolor="#d1d1d1" showgrid="false"/>
  <path id="path11" class="fil2 str1" d="M10514.83 4863.23c-147.84,-650.48 413.94,-1212.25 1064.42,-1064.42 325.24,73.92 591.34,340.02 665.26,665.26 147.84,650.48 -413.94,1212.25 -1064.42,1064.42 -325.24,-73.92 -591.34,-340.02 -665.26,-665.26zm3488.92 8293.59c-502.64,-73.92 -916.58,354.81 -842.66,842.66 44.35,310.46 295.67,561.78 606.13,606.13 502.64,73.92 916.58,-354.81 842.66,-842.66 -29.57,-295.67 -295.67,-561.78 -606.13,-606.13zm561.78 -3148.9c1093.99,1227.04 1552.28,2439.29 1079.2,3252.39 -147.84,266.1 -399.16,473.07 -709.61,620.91 0,-162.62 -44.35,-310.46 -103.49,-443.51 192.19,-103.49 340.02,-236.54 443.51,-399.16 369.59,-635.69 -59.13,-1640.98 -990.5,-2705.4 -428.72,443.51 -931.37,872.23 -1478.36,1271.39 -73.92,694.83 -192.19,1345.31 -354.81,1921.87 162.62,29.57 325.24,59.13 473.07,88.7 -29.57,88.7 -44.35,177.4 -44.35,280.89 0,59.13 0,118.27 14.78,162.62 -192.17,-29.56 -384.36,-59.13 -576.55,-103.48 -546.99,1567.06 -1360.09,2557.56 -2306.24,2557.56 -946.14,0 -1759.24,-990.5 -2276.67,-2557.56 -206.97,44.35 -413.94,73.92 -606.12,103.48 -266.1,29.57 -517.43,44.35 -753.96,44.35 -975.72,0 -1670.55,-295.67 -1995.78,-842.66 -177.4,-310.46 -221.75,-680.05 -147.84,-1079.2 118.27,88.7 266.1,147.84 428.72,147.84 -29.57,266.1 0,517.43 118.27,709.61 295.67,517.43 1138.34,724.4 2306.24,576.56 177.4,-29.57 354.81,-59.13 532.21,-88.7 -162.62,-576.56 -280.89,-1227.04 -354.81,-1921.87 -561.78,-399.16 -1049.63,-827.88 -1493.14,-1271.39 -118.27,133.05 -236.54,280.89 -340.02,413.94 -14.78,29.57 -29.57,44.35 -59.13,73.92 -88.7,-88.7 -192.19,-147.84 -295.67,-192.19 -14.78,-44.35 -14.78,-59.13 -29.57,-103.49 133.05,-177.4 266.1,-340.02 413.94,-517.43 -147.84,-162.62 -280.89,-310.46 -399.16,-473.07 -842.67,-1108.76 -1079.21,-2084.48 -680.05,-2779.31 399.16,-694.83 1374.87,-975.72 2749.75,-798.31 192.18,29.56 399.15,59.13 606.12,103.48 502.64,-1567.06 1330.53,-2557.56 2276.67,-2557.56 236.54,0 473.08,59.14 694.83,192.19 -133.05,88.7 -236.53,206.97 -325.24,325.24 -118.26,-44.35 -251.32,-73.92 -369.59,-73.92 -724.4,0 -1404.44,872.23 -1847.95,2217.54 591.34,147.84 1212.25,369.59 1847.95,650.48 620.91,-280.89 1256.6,-502.64 1847.95,-650.48 -44.35,-118.27 -88.7,-251.32 -133.05,-369.59 147.84,-44.35 280.89,-118.27 399.16,-206.97 59.13,147.84 118.27,310.46 177.4,473.07 206.97,-44.35 413.94,-73.92 606.13,-103.49 1374.87,-177.4 2350.59,103.49 2749.75,798.31 399.16,694.83 162.62,1670.55 -680.05,2779.31 -133.05,147.84 -266.1,310.46 -413.94,473.07l0 0.02zm-2143.62 -3518.49c162.62,576.56 280.89,1227.04 354.81,1921.87 561.78,413.94 1064.42,842.66 1493.14,1271.39 118.27,-133.05 236.54,-280.89 340.02,-413.94 709.61,-931.37 946.15,-1774.03 650.48,-2291.46 -236.54,-413.94 -813.1,-620.91 -1611.41,-620.91 -206.97,0 -443.51,14.78 -694.83,44.35 -177.4,14.78 -354.81,44.35 -532.21,88.7zm-1877.52 576.56c295.67,147.84 591.34,310.46 887.02,473.07 295.67,177.4 576.56,340.02 842.66,532.21 -73.92,-532.21 -177.4,-1020.07 -295.67,-1478.36 -458.29,118.27 -946.15,266.1 -1434.01,473.07l0 0.01zm1803.6 1581.84c-354.81,-251.32 -739.18,-502.64 -1138.34,-739.18 -399.16,-236.54 -798.31,-443.51 -1197.47,-620.91 -399.16,177.4 -798.31,399.16 -1197.47,620.91 -399.16,236.54 -783.53,473.07 -1138.34,724.4 -44.35,443.51 -59.13,887.02 -59.13,1360.09 0,458.29 29.57,916.58 59.13,1360.09 354.81,251.32 739.18,502.64 1138.34,724.4 399.16,236.54 798.31,443.51 1197.47,620.91 399.16,-177.4 798.31,-399.16 1197.47,-620.91 399.16,-236.54 783.53,-473.07 1138.34,-724.4 44.35,-443.51 59.13,-887.02 59.13,-1360.09 14.78,-443.51 -14.78,-901.8 -59.13,-1345.31zm-4316.81 -2069.7c-133.05,458.29 -221.75,946.15 -295.67,1478.36 266.1,-177.4 561.78,-354.81 842.66,-532.21 295.67,-162.62 591.34,-325.24 887.02,-473.07 -487.86,-192.19 -960.93,-354.81 -1434.01,-473.08zm-2616.69 2690.61c103.49,133.05 221.75,280.89 340.02,413.94 428.72,-443.51 931.37,-872.23 1493.14,-1271.39 73.92,-694.83 192.19,-1345.31 354.81,-1921.87 -177.4,-44.35 -354.81,-73.92 -532.21,-88.7 -251.32,-29.57 -473.07,-44.35 -694.83,-44.35 -798.31,0 -1374.87,221.75 -1611.41,620.91 -310.46,517.43 -73.92,1345.31 650.48,2291.46zm1774.03 1744.46c-14.78,-325.23 -29.57,-665.26 -29.57,-1005.28 0,-340.02 14.78,-680.05 29.57,-1005.28 -413.94,325.24 -798.31,665.26 -1138.34,1005.28 340.02,340.02 724.4,680.05 1138.34,1005.28zm842.66 2424.51c458.29,-118.27 946.15,-280.89 1434.01,-473.07 -295.67,-147.84 -591.34,-310.46 -887.02,-473.07 -295.67,-162.62 -576.56,-340.02 -842.66,-532.21 73.92,517.43 177.4,1020.07 295.67,1478.36l0 -0.01zm3828.95 413.94c-591.34,-147.84 -1212.25,-369.59 -1847.95,-650.48 -635.69,280.89 -1256.6,502.64 -1847.95,650.48 443.51,1345.31 1108.77,2217.54 1847.95,2217.54 724.4,0 1389.66,-872.23 1847.95,-2217.54zm428.73 -1907.08c-266.1,177.4 -561.78,354.81 -842.66,532.21 -295.67,162.62 -591.34,325.24 -887.02,473.07 487.86,192.19 975.72,354.81 1434.01,473.07 118.27,-443.51 221.75,-946.15 295.67,-1478.36l0 0.01zm1670.54 -1936.65c-325.24,-340.02 -709.61,-680.05 -1138.34,-1005.28 14.78,325.24 29.57,665.26 29.57,1005.28 0,340.02 -14.78,680.05 -29.57,1005.28 428.72,-325.24 798.31,-665.26 1138.34,-1005.28zm-9328.44 2025.35c399.16,59.13 739.18,-280.89 680.05,-680.05 -44.35,-251.32 -236.54,-458.29 -487.86,-487.86 -399.16,-59.13 -739.18,280.89 -680.05,680.05 44.35,251.32 236.54,443.51 487.86,487.86z" data-uid="o_f3m77glf3_6" inkscape:label="neuron"/>
  <g data-type="circle" data-cx="50" data-cy="50" data-r="50" data-uid="o_f3m77glf3_8" inkscape:label="right">
   <path id="path17" class="fil2" d="M13557.94 13884.13c-0.01,171.72 139.26,310.99 310.98,310.99 171.73,0 310.99,-139.27 310.99,-310.99 0,-171.73 -139.26,-311 -310.99,-311 -171.72,0 -310.99,139.27 -310.99,311l0.01 0zm0 0l0 0 0 0z"/>
   <path id="_1" class="fil3 str2" d="M13868.93 13884.13m-310.99 0c-0.01,171.72 139.26,310.99 310.98,310.99 171.73,0 310.99,-139.27 310.99,-310.99 0,-171.73 -139.26,-311 -310.99,-311 -171.72,0 -310.99,139.27 -310.99,311m0.01 0l0 0 0 0z"/>
  </g>
  <path id="path19" class="fil2 str2" d="M11368.08 4663.36m-418.33 0c0,231 187.33,418.34 418.33,418.34 231,0 418.33,-187.34 418.33,-418.34 0,-231 -187.33,-418.33 -418.33,-418.33 -231,0 -418.33,187.33 -418.33,418.33z" data-type="circle" data-cx="50" data-cy="50" data-r="50" data-uid="o_f3m77glf3_9" inkscape:label="up"/>
  <g data-type="circle" data-cx="50" data-cy="50" data-r="50" data-uid="o_f3m77glf3_10" inkscape:label="left">
   <path id="path21" class="fil2" d="M4484.69 11455.23c0.01,127.67 103.54,231.21 231.21,231.21 127.67,0 231.21,-103.54 231.21,-231.21 0,-127.67 -103.54,-231.21 -231.21,-231.21 -127.67,0 -231.2,103.54 -231.2,231.21l-0.01 0zm0 0l0 0 0 0z"/>
   <path id="_1_0" class="fil3 str2" d="M4715.9 11455.23m-231.21 0c0.01,127.67 103.54,231.21 231.21,231.21 127.67,0 231.21,-103.54 231.21,-231.21 0,-127.67 -103.54,-231.21 -231.21,-231.21 -127.67,0 -231.2,103.54 -231.2,231.21m-0.01 0l0 0 0 0z"/>
  </g>
 </g>
</svg>
